<svg xmlns="http://www.w3.org/2000/svg" viewBox="0 0 131.6 93.4"><defs><style>.cls-1{fill:#c0d000;fill-rule:evenodd;}</style></defs><g id="Layer_2" data-name="Layer 2"><g id="Layer_1-2" data-name="Layer 1"><path class="cls-1" d="M51.33,79.32V93.16h0c-1.51.15-3,.24-4.62.24a46.7,46.7,0,1,1,0-93.4c1.57,0,3.11.08,4.62.23h0V14.07h0a32,32,0,0,0-4.62-.33,33,33,0,1,0,0,65.92,32,32,0,0,0,4.62-.34Z"/><path class="cls-1" d="M94.79,39.57h27V53.84h-27A33,33,0,0,0,127,79.66a32.25,32.25,0,0,0,4.63-.34h0V93.16h0c-1.52.15-3.07.24-4.63.24A46.7,46.7,0,0,1,127,0c1.56,0,3.11.08,4.63.23h0V14.07h0a32.35,32.35,0,0,0-4.63-.33A33,33,0,0,0,94.79,39.57Z"/></g></g></svg>