<svg xmlns="http://www.w3.org/2000/svg" viewBox="0 0 139.33 117.93"><defs><style>.cls-1{fill:#c0d000;}</style></defs><g id="Layer_2" data-name="Layer 2"><g id="Layer_1-2" data-name="Layer 1"><path class="cls-1" d="M76.94,0h6.77c.08.27.31.18.48.19a54.92,54.92,0,0,1,11.6,1.86c14.67,4,25.94,12.67,34.59,25a1.76,1.76,0,0,0,1.69.93c2-.07,4.06,0,6.08-.05.91,0,1.1.24,1.1,1.11q0,18.84,0,37.69c0,7.51,0,15,0,22.52,0,.74-.2.89-.9.88-2.23,0-4.45,0-6.67,0a1,1,0,0,0-1,.41,59.36,59.36,0,0,1-10.26,11.87,57.89,57.89,0,0,1-31.73,15,21.64,21.64,0,0,0-3.84.53H75.78c-.14-.33-.44-.18-.67-.2a61.2,61.2,0,0,1-6.87-1c-16.13-3.53-28.46-12.62-37.79-26a1.23,1.23,0,0,0-1.17-.6c-2.19,0-4.38,0-6.57,0-.84,0-1.05-.18-1.05-1q0-25.12,0-50.24c0-1.42,0-2.84,0-4.25a18.62,18.62,0,0,0,0-3.58V28.22c.18-.42.61-.18.9-.33a9,9,0,0,0,2.59-.06,12.56,12.56,0,0,0,3.24.08c.68-.1,1.43.37,2-.48A62.36,62.36,0,0,1,42,14.35,57.89,57.89,0,0,1,72.91.54,19.45,19.45,0,0,0,76.94,0ZM27,59q0,12.28,0,24.55c0,.75.18,1,.94,1,1.87-.06,3.74,0,5.61,0a1.25,1.25,0,0,1,1.28.73A52,52,0,0,0,44,97a52.77,52.77,0,0,0,56.45,10.84,52,52,0,0,0,25.7-22.42,1.58,1.58,0,0,1,1.65-.93c2,.06,4.06,0,6.09,0,.56,0,.78-.1.77-.73,0-3.16,0-6.31,0-9.47,0-.57-.19-.69-.71-.69-1.84,0-3.68,0-5.51,0-3.64,0-7.28.14-10.92-.11s-5.27-1.94-5.59-5.44c-.35-4-.1-7.92-.15-11.88a60.25,60.25,0,0,1,.16-6.85c.3-2.77,1.56-4.23,4.08-4.65a16.1,16.1,0,0,1,2.69-.23c5,0,10,0,15.08,0,.51,0,.89,0,.88-.72,0-3.16,0-6.32,0-9.48,0-.56-.18-.69-.71-.68-2.16,0-4.32,0-6.47,0a1.18,1.18,0,0,1-1.2-.7,49.16,49.16,0,0,0-9.5-12.11C104.06,9.09,89.07,4.39,72.08,7.09,55.63,9.7,43.22,18.59,34.76,33a1.12,1.12,0,0,1-1.14.64c-1.9,0-3.8,0-5.7,0-.79,0-.94.23-.93,1Q27,46.75,27,59Zm102.1-.19c0-1.93,0-3.86,0-5.79,0-.72-.12-1-.94-1-2.93,0-5.86,0-8.79,0-.66,0-.88.16-.88.85q0,6,0,12c0,.67.18.88.86.87,2.93,0,5.87,0,8.8,0,.81,0,1-.3,1-1C129.07,62.72,129.1,60.75,129.1,58.78Z"/><path class="cls-1" d="M0,24.55c1.88-.79,3.65-1.83,5.61-2.44,4.08-1.27,8.09-1.48,11.93.74a12.74,12.74,0,0,1,5,5c-.29.15-.72-.09-.9.33-.35,0-.58-.24-.86-.39a15.68,15.68,0,0,0-10.58-1.62,25.46,25.46,0,0,1,5.57,1.36A26.47,26.47,0,0,1,21.65,31a18.62,18.62,0,0,1,0,3.58,18.34,18.34,0,0,1-7.52,1.23,14.69,14.69,0,0,1-9-4.06,24.74,24.74,0,0,1-5.14-7Z"/><path class="cls-1" d="M25.15,27.83c-3-3.85-2.37-9,1.62-12.33.66-.55,1.41-1,2.09-1.54s1-.45,1.38.28c1.61,2.87,2.48,5.85,1.48,9.12a8.67,8.67,0,0,1-3.33,4.55A12.56,12.56,0,0,1,25.15,27.83Z"/><path class="cls-1" d="M136.53,18c.54-1.55,1-2.86,1.45-4.2a.74.74,0,0,1,.88-.64c.68,0,.42.54.42.86,0,1.44,0,2.89,0,4.34,0,.27.11.6-.37.61s-.4-.29-.4-.58a20.91,20.91,0,0,0-.2-3.51c-.4,1.12-.8,2.24-1.21,3.36-.11.3-.06.72-.59.74s-.54-.44-.66-.77a23.06,23.06,0,0,0-1.34-3.28c0,1.13,0,2.26,0,3.39,0,.31.12.68-.42.65s-.34-.38-.34-.63q0-2.27,0-4.53c0-.25-.17-.64.33-.64s.82-.14,1,.45C135.52,15,136,16.42,136.53,18Z"/><path class="cls-1" d="M130.14,16.4v-1c0-1.39,0-1.4-1.38-1.52-.27,0-.52,0-.49-.39s.2-.36.46-.35h3.76c.28,0,.41.1.42.38s-.18.35-.43.36c-.47,0-1.18-.22-1.37.11a3.83,3.83,0,0,0-.13,1.68c0,.9,0,1.8,0,2.7,0,.3,0,.57-.41.58s-.44-.24-.43-.56C130.15,17.75,130.14,17.08,130.14,16.4Z"/><path class="cls-1" d="M46.55,33.59H36.43a50.77,50.77,0,0,1,42-25.44c22.12-.88,38.93,12.21,46,25.42a88.84,88.84,0,0,0-9.94.29,46.39,46.39,0,0,0-4.47-5.23c-.51-.55-1-.78-1.49,0a5.11,5.11,0,0,1-1,1.13c-.55.46-.55.81,0,1.31a21.41,21.41,0,0,1,3.33,3.72,14.51,14.51,0,0,0-7.28,5.89,20.56,20.56,0,0,0-2.67,10.72c0,5.28-.11,10.56,0,15.84s1.75,9.85,5.92,13.32A23.32,23.32,0,0,0,110.74,83a41.11,41.11,0,0,1-6.09,6.14c-.52.43-1.44.72-1.46,1.29s.69,1.1,1.09,1.64c.84,1.13.84,1.13,1.92.27a44.39,44.39,0,0,0,5-4.65,37.94,37.94,0,0,0,3-3.65,58.94,58.94,0,0,0,10.22.47c-6.77,12.53-23.07,26-45.49,25.43-19.67-.53-35.46-12.42-42.47-25.43,1.45,0,2.85,0,4.26,0l6.06-.1a4.66,4.66,0,0,0,.39.65,40.16,40.16,0,0,0,7.38,7.3c1.1.83,1.08.82,1.91-.26.3-.38.58-.77.87-1.14s.28-.72-.17-1a33,33,0,0,1-6.66-6.27,17.37,17.37,0,0,0,6.58-3.69,16.4,16.4,0,0,0,5-11.27,163.81,163.81,0,0,0,0-19.57c-.29-4.67-1.86-8.87-5.68-11.91a14.78,14.78,0,0,0-4.94-2.54c-.4-.13-.78-.29-1.17-.43A18.67,18.67,0,0,0,52,32.39c.45-.7,1.58-1.19,1.46-1.86s-1.08-1.28-1.67-1.91a1.85,1.85,0,0,1-.14-.14c-.24-.28-.43-.27-.71,0A30.32,30.32,0,0,0,46.55,33.59ZM64.79,59q0,12.29,0,24.55c0,.66.06,1,.86,1q16.42,0,32.86,0c.66,0,.87-.15.86-.84,0-3,0-6,0-9,0-.82-.15-1.07-1-1.07-7.19,0-14.37,0-21.56.05-.94,0-1.14-.24-1.14-1.16,0-12.63,0-25.26,0-37.89,0-.81-.13-1.1-1-1.08-2.93.07-5.87,0-8.8,0-.81,0-1.08.14-1.07,1C64.81,42.68,64.79,50.83,64.79,59Zm8.88-39.62a10.13,10.13,0,0,0,1.28,5,3.61,3.61,0,0,0,3.59,1.79,3.34,3.34,0,0,0,3.11-2.24A10.44,10.44,0,0,0,81,15a3.5,3.5,0,0,0-3.61-1.75,3.58,3.58,0,0,0-3.14,2.36A8.77,8.77,0,0,0,73.67,19.36Zm-5.4-4.27c-.57.21-1.14.44-1.72.62s-.51.36-.35.79c.42,1,.8,2.1,1.19,3.15.07.22.26.43-.08.66-1.23.82-1.82.65-2.33-.73l-.43-1.17c-.62-1.71-.61-1.67-2.29-1.11-.68.23-.88.45-.59,1.2,1.14,2.93,2.21,5.89,3.3,8.84.75,2,.74,2,2.72,1.15.47-.21.45-.42.31-.79-.43-1.14-.82-2.3-1.3-3.42-.27-.64-.11-.93.51-1.08a2.31,2.31,0,0,0,.64-.22c.54-.31.77-.1,1,.44.4,1.19.85,2.35,1.29,3.52.1.25.11.62.56.44s1.2-.47,1.81-.67c.37-.13.3-.36.2-.61q-2-5.33-4-10.65C68.64,15.25,68.6,15,68.27,15.09Zm19.5,6.26.16,0c.2,1.13.42,2.27.62,3.4.33,2,.33,2,2.36,2.32.61.11.79,0,.66-.64-.31-1.48-.52-3-.81-4.46a.62.62,0,0,1,.34-.82,3.67,3.67,0,0,0,1.68-3.91,3.34,3.34,0,0,0-2.65-2.86c-.93-.26-1.89-.37-2.83-.59-.61-.15-.89,0-1,.67-.56,3.16-1.19,6.31-1.77,9.47-.35,1.89-.32,1.85,1.63,2.23.65.13.75-.1.84-.63C87.22,24.11,87.5,22.73,87.77,21.35Zm9.08,68.19c-1.07-.09-2,.56-2.94.95-.52.21-.64.43-.36,1,1.42,2.84,2.78,5.71,4.16,8.57.8,1.65.78,1.62,2.47.85a3.49,3.49,0,0,0,2.32-3.54,10.37,10.37,0,0,0-3.16-6.84A3.22,3.22,0,0,0,96.85,89.54Zm-2.76,13.34c-.09-1.65-.39-1.92-1.93-1.45-.84.26-1.32.21-1.34-.79a1.58,1.58,0,0,0-.11-.37c-.34-1.37-.34-1.36,1-1.73.28-.08.81,0,.77-.39A4.21,4.21,0,0,0,92,96.32c-.19-.3-.76.1-1.16.13s-.8.42-1,.09a4.89,4.89,0,0,1-.52-2c0-.41.68-.34,1.06-.45,1.26-.34,1.26-.33.93-1.6a2.66,2.66,0,0,1-.1-.38c0-.45-.28-.5-.66-.4-1.21.32-2.43.63-3.65.92-.36.09-.46.2-.36.58q1.37,5.38,2.68,10.76c.08.35.2.5.58.4,1.28-.34,2.56-.64,3.83-1C93.9,103.31,94.21,103.27,94.09,102.88Zm3.12-83.42c-.11.26-.19.43-.27.61l-2.73,6.27c-.76,1.74-.74,1.7,1,2.5.69.32.89.14,1.15-.48,1-2.4,2.06-4.78,3.12-7.16.13-.28.12-.77.76-.52,1.24.48,1.26.44,1.8-.84a4.38,4.38,0,0,1,.31-.7c.3-.48.09-.66-.35-.84-1.1-.45-2.18-.95-3.27-1.42-2-.87-2-.85-2.81,1.1-.27.61-.13.85.44,1A5.22,5.22,0,0,1,97.21,19.46ZM77.33,95.68c.07-.38.13-.7.18-1,.22-1.55-.28-2.1-1.87-2.06s-2.77,1.57-2.62,3.5a20.06,20.06,0,0,0,1.11,4.19,3.65,3.65,0,0,1,.23,1.42c-.08.71-.6.94-1.14.48a13.14,13.14,0,0,1-1-1.12c-.14.83-.25,1.55-.39,2.26a.69.69,0,0,0,.31.74,2.69,2.69,0,0,0,4-.53,3.93,3.93,0,0,0,.55-2.78,27.9,27.9,0,0,0-1.1-3.9c-.18-.64-.55-1.46,0-1.9S76.68,95.34,77.33,95.68Zm5-2.61h0a18.94,18.94,0,0,1-2.12.11c-.7,0-.91.21-.81.86a3.12,3.12,0,0,1,.06.86c0,.53.24.64.64.53.88-.23,1.16.15,1.07,1a6.74,6.74,0,0,0,0,.77c.07,2.37.19,4.75.2,7.13,0,1.36.95.73,1.54.83s.88-.17.85-.86c-.14-2.76-.19-5.52-.32-8.28,0-.57.09-.71.64-.73.31,0,.81.27,1-.34.34-1.43-.06-2-1.5-1.9Zm-19-5c-.31,0-.36.3-.46.5-1.66,3.2-3.29,6.4-5,9.59-.24.46-.15.64.3.86,1.07.51,2.13,1.06,3.16,1.65.59.33.84.23,1.13-.39.6-1.31.64-1.29-.67-2-.09,0-.17-.1-.26-.13-.75-.22-.77-.59-.42-1.25,1.31-2.44,2.55-4.91,3.81-7.37.11-.21.39-.45,0-.65C64.47,88.64,63.91,88.39,63.33,88.09Zm8.08,3.78c.1-.14-.06-.23-.21-.29L69.56,91c-.34-.12-.38.15-.45.35L65.6,101.89c-.11.33-.08.54.31.63a4.07,4.07,0,0,1,.91.31c.65.32.9.14,1.13-.55,1-3.28,2.16-6.53,3.25-9.79C71.26,92.31,71.33,92.13,71.41,91.87Z"/><path class="cls-1" d="M37.87,59c0-4.57,0-9.15,0-13.72,0-.68.17-.86.85-.83,2.73.11,5.47-.18,8.2.19s4,1.58,4.38,4.31a17.55,17.55,0,0,1,.2,2.5q0,7.82,0,15.64a10.31,10.31,0,0,1-.22,2c-.53,2.68-2.22,4.1-5.24,4.38-2.51.23-5,.1-7.53.15-.71,0-.58-.41-.58-.82Z"/><path class="cls-1" d="M76.52,18.92a5.1,5.1,0,0,1,.25-2.09,1,1,0,0,1,.83-.71,1,1,0,0,1,1,.53,8.7,8.7,0,0,1,.53,5.9,1,1,0,0,1-1,.76,1.12,1.12,0,0,1-1.09-.8A10.73,10.73,0,0,1,76.52,18.92Z"/><path class="cls-1" d="M90,18a1.27,1.27,0,0,1-1.7,1.32c-.35-.18,0-.56,0-.85a2,2,0,0,1,.15-.74c.18-.36-.21-1.15.57-1A1.1,1.1,0,0,1,90,18Z"/><path class="cls-1" d="M99.59,98.58l-3.08-6.35c-.19-.39.07-.44.35-.45a1.33,1.33,0,0,1,1.15.6,11.74,11.74,0,0,1,2.21,4.56A1.39,1.39,0,0,1,99.59,98.58Z"/></g></g></svg>