<svg xmlns="http://www.w3.org/2000/svg" viewBox="0 0 160.41 79.8"><defs><style>.cls-1{fill:#c0d000;}</style></defs><g id="Layer_2" data-name="Layer 2"><g id="Layer_1-2" data-name="Layer 1"><path class="cls-1" d="M47,70.85l-2.34.53v5.11a36.09,36.09,0,0,1-9.44,0V71.38l-2.34-.53A31.33,31.33,0,0,1,23,66.77L21,65.5l-1.7,1.69-.47.47-1.45,1.45a37,37,0,0,1-6.68-6.67L12.13,61l.48-.47,1.69-1.69-1.28-2A31.39,31.39,0,0,1,9,47l-.53-2.34H3.3a37.28,37.28,0,0,1,0-9.44H8.42L9,32.84A31.54,31.54,0,0,1,13,23l1.28-2-1.7-1.69-.47-.47-1.45-1.45a37.06,37.06,0,0,1,6.68-6.68l1.45,1.45.47.47L21,14.3,23,13A31.54,31.54,0,0,1,32.84,9l2.34-.53V3.3a37.28,37.28,0,0,1,9.44,0V8.42L47,9A31.39,31.39,0,0,1,56.79,13l2,1.28,1.69-1.7.47-.47,1.46-1.45a37,37,0,0,1,6.67,6.68l-1.45,1.45-.47.47L65.5,21l1.27,2a31.33,31.33,0,0,1,4.08,9.84l.53,2.34h5.11a36.09,36.09,0,0,1,0,9.44H71.38L70.85,47a31.4,31.4,0,0,1-3.21,8.32l2.21,2.22a34.9,34.9,0,0,0,3.93-9.88H79a39.59,39.59,0,0,0,0-15.44H73.78A34.54,34.54,0,0,0,69.31,21.4l.47-.47L73,17.68A40.1,40.1,0,0,0,62.12,6.76L58.86,10l-.47.47A34.61,34.61,0,0,0,47.62,6V.75a40.11,40.11,0,0,0-15.44,0V6A34.76,34.76,0,0,0,21.4,10.48L20.93,10,17.68,6.76A40,40,0,0,0,6.76,17.68L10,20.93l.47.47A34.76,34.76,0,0,0,6,32.18H.75a40.11,40.11,0,0,0,0,15.44H6a34.61,34.61,0,0,0,4.46,10.77l-.47.47L6.76,62.12A40.1,40.1,0,0,0,17.68,73l3.25-3.26.47-.47a34.54,34.54,0,0,0,10.78,4.47V79a39.59,39.59,0,0,0,15.44,0V73.78a34.9,34.9,0,0,0,9.88-3.93l-2.21-2.21A31.59,31.59,0,0,1,47,70.85Z"/><path class="cls-1" d="M77.89,77.9a5.75,5.75,0,0,1-8.11,0l-6-6-5.82-5.82-9-9-1,.43A19,19,0,0,1,21.08,40.21,18.63,18.63,0,0,1,22,34.37l5.86,5.86A8.74,8.74,0,1,0,40.22,27.87l-5.79-5.79a18.62,18.62,0,0,1,5.65-.87A19,19,0,0,1,57.42,48l-.42.94L71.87,63.76l6,6A5.73,5.73,0,0,1,77.89,77.9Z"/><polygon class="cls-1" points="160.41 28.91 151.55 20.05 129.56 42.03 117.62 30.09 108.76 38.95 120.7 50.89 129.56 59.75 138.42 50.89 138.42 50.89 160.41 28.91"/></g></g></svg>