<svg xmlns="http://www.w3.org/2000/svg" viewBox="0 0 105.53 12.38"><defs><style>.cls-1{fill:#fff;}</style></defs><g id="Layer_2" data-name="Layer 2"><g id="图层_1" data-name="图层 1"><path class="cls-1" d="M102.33,2.64h-.53V1.7h.53c.54,0,.77.12.77.44S102.79,2.64,102.33,2.64Zm1.53-.5c0-.76-.61-1-1.45-1H101V4.34h.76V3.14h.53l.77,1.2h.83L103,3C103.55,2.89,103.86,2.64,103.86,2.14Z"/><polygon class="cls-1" points="0 11.82 2.44 11.82 2.44 6.91 8.45 6.98 8.45 5.15 2.51 5.09 2.51 2.01 8.76 2.07 9.82 0.25 0.08 0.19 0 11.82"/><polygon class="cls-1" points="14.39 0.31 11.95 0.31 11.88 11.88 21.17 11.94 21.17 10.12 14.31 10.12 14.39 0.31"/><polygon class="cls-1" points="43.17 0.5 39.75 4.65 36.47 0.44 33.81 0.44 38.45 6.29 33.66 12.01 36.4 12.07 39.67 7.92 43.02 12.07 45.46 12.13 40.96 6.29 45.61 0.5 43.17 0.5"/><path class="cls-1" d="M55.36,5.53H51.85a2.09,2.09,0,0,1-1.37-.44,1.19,1.19,0,0,1-.61-1.19c0-1,.76-1.57,2.06-1.57l5.79.06L58.63.63,51.4.57a4,4,0,0,0-1.53.25,3,3,0,0,0-1.14.63A4.29,4.29,0,0,0,48,2.51,4.24,4.24,0,0,0,47.66,4a3.57,3.57,0,0,0,.54,2,2.54,2.54,0,0,0,.53.69,4.06,4.06,0,0,0,.61.38,4.22,4.22,0,0,0,1.07.25,13.11,13.11,0,0,0,1.75.13h2.51a3.41,3.41,0,0,1,1.52.5,1.46,1.46,0,0,1,.61,1.13,1.38,1.38,0,0,1-.68,1.19,2.73,2.73,0,0,1-1.53.38l-7-.06v1.7l7.61.06a4.14,4.14,0,0,0,1.6-.25,3.13,3.13,0,0,0,1.14-.63,4.31,4.31,0,0,0,.77-1.07A4.57,4.57,0,0,0,59,8.92C59,6.54,57.87,5.53,55.36,5.53Z"/><polygon class="cls-1" points="72.33 0.69 61.29 0.63 61.22 2.39 65.41 2.39 65.33 12.26 67.54 12.26 67.61 2.39 71.27 2.45 72.33 0.69"/><polygon class="cls-1" points="75 0.69 70.2 12.26 72.56 12.26 74.24 8.17 76.37 3.02 78.43 8.17 75.53 8.17 76.52 9.99 79.11 9.99 80.03 12.32 82.39 12.32 77.82 0.69 75 0.69"/><path class="cls-1" d="M94.8,1.89a3.35,3.35,0,0,0-1.15-.76A5.12,5.12,0,0,0,92.28.82L84.67.75l-.15,11.63h2.21l.07-6V2.58h4.88a2.19,2.19,0,0,1,1.59.63,1.82,1.82,0,0,1,.61,1.32,1.76,1.76,0,0,1-.15.62,2.69,2.69,0,0,1-.38.57,2,2,0,0,1-.61.44,1.67,1.67,0,0,1-.91.19H88.32l4.73,6h2.43L92.82,8.74l-.46-.63L92.82,8a1.71,1.71,0,0,0,.53-.19c.46-.19.84-.37,1.22-.56a3.86,3.86,0,0,0,.76-.69,2.13,2.13,0,0,0,.46-.88,6.4,6.4,0,0,0,.15-1.26A2.85,2.85,0,0,0,95.63,3,4.66,4.66,0,0,0,94.8,1.89Z"/><polygon class="cls-1" points="23.61 0.37 23.59 2.19 31.58 2.24 31.6 0.42 23.61 0.37"/><polygon class="cls-1" points="23.37 10.12 23.36 11.94 31.35 11.99 31.37 10.17 23.37 10.12"/><polygon class="cls-1" points="23.57 5.22 23.56 7.04 31.55 7.09 31.57 5.27 23.57 5.22"/><path class="cls-1" d="M102.26,5a2.57,2.57,0,0,1-2.74-2.33A2.08,2.08,0,0,1,100.36,1a2.94,2.94,0,0,1,1.9-.63,3.07,3.07,0,0,1,2,.69A1.82,1.82,0,0,1,105,2.7,2.53,2.53,0,0,1,102.26,5ZM104.62.82A3.63,3.63,0,0,0,102.34,0c-1.76,0-3.28,1.19-3.28,2.64A2.48,2.48,0,0,0,100,4.53a3.69,3.69,0,0,0,2.29.81c1.75,0,3.27-1.19,3.27-2.64A2.42,2.42,0,0,0,104.62.82Z"/></g></g></svg>