<svg xmlns="http://www.w3.org/2000/svg" viewBox="0 0 160.33 79.54"><defs><style>.cls-1{fill:#c0d000;}</style></defs><g id="Layer_2" data-name="Layer 2"><g id="Layer_1-2" data-name="Layer 1"><path class="cls-1" d="M52.81,79.54a1.43,1.43,0,0,1-.5-.09L1,61.13a1.5,1.5,0,0,1-1-1.41V19.82A1.51,1.51,0,0,1,2,18.4L53.32,36.72a1.5,1.5,0,0,1,1,1.41V78a1.49,1.49,0,0,1-.63,1.22A1.53,1.53,0,0,1,52.81,79.54ZM3,58.66,51.31,75.91V39.19L3,22Z"/><path class="cls-1" d="M158.83,61.22a1.52,1.52,0,0,1-.51-.09L107,42.82a1.51,1.51,0,0,1-1-1.42V1.5a1.5,1.5,0,0,1,.64-1.23A1.49,1.49,0,0,1,108,.09L159.33,18.4a1.51,1.51,0,0,1,1,1.42v39.9a1.5,1.5,0,0,1-1.5,1.5ZM109,40.35l48.32,17.24V20.88L109,3.63Z"/><path class="cls-1" d="M52.81,79.54a1.52,1.52,0,0,1-1.5-1.5V38.13a1.49,1.49,0,0,1,1.25-1.47l106-18.32a1.51,1.51,0,0,1,1.76,1.48v39.9a1.51,1.51,0,0,1-1.25,1.48l-106,18.32Zm1.5-40.14V76.26l103-17.8V21.6Z"/><path class="cls-1" d="M1.5,61.22a1.52,1.52,0,0,1-1-.35A1.54,1.54,0,0,1,0,59.72V19.82a1.5,1.5,0,0,1,1.24-1.48L107.26,0a1.53,1.53,0,0,1,1.22.33A1.51,1.51,0,0,1,109,1.5V41.4a1.49,1.49,0,0,1-1.24,1.48L1.75,61.2ZM3,21.08V57.94l103-17.8V3.28Z"/></g></g></svg>