<?xml version="1.0" standalone="no"?>
<!DOCTYPE svg PUBLIC "-//W3C//DTD SVG 20010904//EN"
 "http://www.w3.org/TR/2001/REC-SVG-20010904/DTD/svg10.dtd">
<svg version="1.0" xmlns="http://www.w3.org/2000/svg"
 width="520.000000pt" height="520.000000pt" viewBox="0 0 520.000000 520.000000"
 preserveAspectRatio="xMidYMid meet">
<metadata>
Created by potrace 1.11, written by Peter Selinger 2001-2013
</metadata>
<g transform="translate(0.000000,520.000000) scale(0.100000,-0.100000)"
fill="#000000" stroke="none">
<path d="M2510 5193 c-538 -16 -1089 -219 -1525 -561 -98 -77 -348 -330 -427
-432 -247 -320 -419 -690 -497 -1065 -71 -347 -71 -723 0 -1070 80 -388 276
-796 534 -1110 161 -196 411 -417 635 -559 109 -70 377 -198 511 -244 233 -81
476 -129 717 -141 458 -23 871 61 1277 259 270 132 469 273 671 476 218 220
374 426 490 649 202 387 295 768 295 1205 0 591 -184 1127 -549 1600 -79 102
-329 355 -427 432 -486 382 -1087 579 -1705 561z m1163 -855 c47 -10 47 -10
47 -51 0 -93 -29 -218 -83 -358 l-25 -66 167 -72 c305 -130 506 -252 666 -403
138 -130 219 -250 261 -385 23 -73 26 -95 22 -195 -3 -104 -7 -120 -40 -196
-57 -131 -97 -190 -188 -282 -142 -143 -329 -256 -572 -344 -370 -134 -700
-147 -1031 -42 -59 18 -109 31 -111 27 -12 -21 -81 -247 -110 -361 -55 -210
-69 -323 -63 -475 11 -234 59 -356 162 -413 24 -14 69 -18 230 -22 l200 -5
-120 -71 c-165 -98 -198 -114 -263 -125 -111 -18 -246 32 -337 125 -196 202
-240 633 -109 1080 67 229 227 632 474 1196 186 425 340 793 340 815 0 22
-289 99 -520 139 -223 38 -387 49 -640 43 -230 -5 -380 -25 -602 -76 -413 -97
-710 -281 -826 -511 -58 -118 -76 -192 -76 -325 0 -138 25 -240 94 -380 59
-120 120 -199 195 -250 52 -36 61 -39 143 -42 61 -3 134 -16 244 -45 87 -23
156 -44 153 -46 -18 -19 -303 -105 -372 -113 -224 -26 -470 96 -612 304 -156
228 -210 580 -131 842 45 146 142 299 263 412 226 211 587 355 1076 430 165
25 198 27 521 27 219 1 389 -4 465 -12 185 -20 447 -67 589 -107 71 -19 133
-32 138 -27 4 4 10 21 14 37 4 25 1 33 -23 47 -15 10 -43 32 -62 49 -28 26
-31 33 -20 44 197 185 293 222 472 183z"/>
<path d="M3493 3552 c-14 -31 -82 -176 -151 -322 -334 -710 -445 -957 -521
-1163 l-21 -57 65 49 c62 48 115 71 161 71 12 0 68 -10 125 -21 179 -37 429
-14 614 56 176 66 326 160 439 273 137 138 192 259 184 402 -4 69 -11 92 -48
167 -36 74 -59 104 -144 188 -145 145 -308 248 -599 379 l-78 35 -26 -57z"/>
</g>
</svg>
