<svg id="Layer_1" data-name="Layer 1" xmlns="http://www.w3.org/2000/svg" viewBox="0 0 208 261" width="208" height="261"><defs><style>.land-meets-sea{fill:#fff}</style></defs><path class="land-meets-sea" d="M58.16 43.08c4.53-.12 4.64-6.23 7.77-10.48.24 2.32 1.37 7.9 2.7 9.17a3.62 3.62 0 0 0 2.45.7 4.23 4.23 0 0 0 3.84-2.21c1.5-3.13 1.77-8.17 4.16-12.72-.36 0-.53.28-.83.6v-.08c0-.08.13-.23.13-.32a.2.2 0 0 0 0-.09c-.27 0-.26.46-.44.46-.14 0-.22.27-.22.31v-.17c0-.18-.09 0-.1-.23a3.2 3.2 0 0 1-.22.28.19.19 0 0 0-.23-.17c-.81 0-3.5 10.46-4.14 11.64-.47-2.59-1.62-7-2.37-9.95-.25-.89-1.28-1-2.09-1-4.48.11-5.8 6.75-8.11 10.94-.13.14-.21.41-.39.64-.06-.5-.07-1-.08-1.57-.08-2.92.19-6.47.25-9.44a1.89 1.89 0 0 0 .16-.76c0-.45-.34-.76-1.15-.74-1.57 0-3.32.13-4.21 1.91a16.66 16.66 0 0 0-1.12 7c-.05 3.29.38 6.38 4.24 6.28zm22.07.5a1.16 1.16 0 0 0-.1-.35c0-.27.18-.1.17-.46h.13s.14.22.19.26.19.58.23.45 0-.41-.06-.63a.37.37 0 0 1 0-.18c0 .13.1.22.1.27.18 0 .19.27.28.26 0-.18 0-.27-.06-.53 0 .08.09.17.14.22s0-.27.08-.32.1.31.14.35c0-.18.13.08.18.08a2.14 2.14 0 0 1-.05-.23v-.13c0-.04.54.07.54.07s-.49.15-.49.24.45.26.5.26c0-.23 0-.36.08-.36h.09v-.18c0 .18.1.18.14.18-.05-.22 0-.18 0-.31l.14.13v-.14c0 .22 0 .27.09.31l.31-.32c0 .08.36 0 .36.12v.31s.18-.18.22-.27v.22c.09 0 .13-.22.17-.36v.14c0 .13 0 .22.19.21a8.25 8.25 0 0 1 .36-1.67c.17-.09 1-1 1-1.33v-.09c1.29-2 3.64-6.74 6.18-9.36a7.85 7.85 0 0 1 .12 1.48c0 2-.29 4.41-.24 6.34.08 3 1.5 4.18 3.26 4.13a5.2 5.2 0 0 0 2.8-1.06c.43-.32 2.76-2.36 2.7-2.85v-.09a2.4 2.4 0 0 0 .22-.24 6.61 6.61 0 0 0 2.06 3.14c.27 0 .55.35.91.29 0 0 0 .09.09.09a.14.14 0 0 1 0-.09 1.24 1.24 0 0 0 .63.21c0-.09-.27-.13-.36-.22a6.73 6.73 0 0 0 1.85.22c0-.09 0 0-.27 0 .13-.1.13 0 .26-.1h-.49a2 2 0 0 1-1.49-.36 6.9 6.9 0 0 1 .86.24h.18c.13 0 .22 0 .27.08s0-.09.09-.09.4.08.54.08c.31 0 .58-.11.94-.12s.1 0 .1 0c2.19-.05 5.09-2.6 6.66-4.57-.05 0 .65-.82.64-1.14v-.08a1.71 1.71 0 0 0 .25 0 1.82 1.82 0 0 0-.31.62h.09l.41-.56h.07a62.87 62.87 0 0 0 4.7-7.71c.09 0 1.27.32 1.27.64 0 1.21-3.38 6.28-3.3 9.15 0 2.07 2.55 3.17 3.58 3.14a5.88 5.88 0 0 0 4-2.01h.13l.22-.36-1.06.57a12.63 12.63 0 0 0 2.37-1.91.62.62 0 0 1 0-.14c.09 0 .13-.27.13-.23s0-.18.08-.18a6.61 6.61 0 0 0 2.26 4c.27 0 .55.34.91.29 0 0 0 .09.09.08a.14.14 0 0 1 0-.09 1.24 1.24 0 0 0 .63.21c0-.09-.27-.13-.36-.21a7.57 7.57 0 0 0 1.84.22c0-.09 0 0-.26 0 .13-.09.13 0 .26-.1h-.49a2.08 2.08 0 0 1-1.49-.37 5.58 5.58 0 0 1 .86.25h.18c.13 0 .22 0 .27.09s0-.1.09-.1.4.08.54.08c.31 0 .58-.11.94-.11l-.05.05h.1c2.19-.06 5.09-2.6 6.65-4.57 0 0 .66-.83.65-1.14v-.09a1.25 1.25 0 0 0 .31-.37 1.82 1.82 0 0 0 .34-.68v.09c0-.18.39-.69.34-.69a.18.18 0 0 0 .1.14c.42-.91.82-1.06.86-1.28H142a13.79 13.79 0 0 1 .82-1.23v.13c-.12 0 0 .22-.14.39l-.3.37v.08c-.56 1-1.47 2.29-2 3.07v-.09a1.58 1.58 0 0 0-.38.73h.08c.91-1.28 2.87-3.76 3.15-5.07 0 0-.1-.08-.1-.13s.22-.23.22-.41v-.26s0-.14-.05-.14a3.4 3.4 0 0 1-.6 1.32c0-.13.13-.18.13-.32v-.09a4.37 4.37 0 0 1-.73 1.1c.76-1.64.76-1.77.85-1.78a.5.5 0 0 0-.08.32 1.15 1.15 0 0 0 .25-.77.16.16 0 0 0 0-.14c0-.14-.09-.18-.09-.22s0-.09.12-.18c-.17 0-.22-.27-.22-.36s-.36.24-.4.24c-3.7 4.63-6.11 8.77-9.83 8.87-1.7 0-2.94-.82-3-2.57a4.59 4.59 0 0 1 .24-1.44 9.31 9.31 0 0 0 1.75.13c4.17-.11 5.08-3.09 5-4.53a3.93 3.93 0 0 0-.64-1.91 7.45 7.45 0 0 0-.2-.9v.14l-.14-.17v.18c0 .05 0 0-.09-.09a.44.44 0 0 0 0 .13c-.64-.3-.65-.79-1.5-.77-3.56.09-6.58 3.84-7.55 7.29-1.93 2.7-4.71 6.45-5.21 6.47a.16.16 0 0 1-.18-.18v-.09c.35-1.8 3.54-7.14 3.47-9.88-.06-2.28-4.48-2.84-4.4-3.2s1.8-3.24 1.75-5.12a3 3 0 0 0-3-2.17c-2.78.07-3.28 4.85-3.27 5.29 0 2.07.65 2.59 1.61 3.19-.54 1-1.16 2-1.78 3.07-3.24 4.18-5.55 7.72-9 7.81-1.71 0-2.94-.82-3-2.57a4.55 4.55 0 0 1 .24-1.44 11.37 11.37 0 0 0 1.75.13c4.17-.11 5.08-3.09 5-4.53a4 4 0 0 0-.64-1.92 7.32 7.32 0 0 0-.2-.89v.14l-.14-.18s.05.09.05.13 0 .05-.05.05 0 0-.09-.09a.42.42 0 0 0 0 .14c-.64-.3-.65-.79-1.5-.77-3.48.09-6.44 3.68-7.48 7.06-2 2.94-4 5.71-4.72 5.83v-.14A.83.83 0 0 1 96 39a44.72 44.72 0 0 0 .43-5.76c-.07-2.78-.85-5.14-3.81-5.07-3.59.1-5.59 4.46-7.23 7 .87-6.45 4.35-22.61 3.42-24.16 0-1.16-2-.84-3-.82-1.84 0-3.09 2-3.27 3.82-.87 8.19-2.13 18.15-3 26.74a3.33 3.33 0 0 0 .69 2.83zm62.3-13.24c-.08.22-.65.91-.64 1s0 .05 0 .05c-.17.18-.13.36-.21.59 0-.09 0-.14-.05-.14s-.21.32-.26.37v-.14c.02-.58.9-1.42 1.16-1.73zm-2.24 3.51l.05.09c.34-.5.37-1 .59-1.23v.13c.1 0 .09 0 .14-.13a3.26 3.26 0 0 1-.47 1.13c.13-.18.43-.68.43-.64v-.09c.22-.32.25-.72.52-.87-.09.19-.26.33-.3.55v.45c-.05.14-.14.19-.18.28v-.13a3.13 3.13 0 0 0-.42.77h-.1c-.17.14-.17.37-.39.51.09-.09.09-.23.17-.27h-.08a.36.36 0 0 1-.13.13c-.12-.31.08-.41.17-.68zm-3.78-5.56c-.14-.08-.19-.35-.28-.49a1.19 1.19 0 0 0 .09.36 1.29 1.29 0 0 1-.28-.71 1.82 1.82 0 0 1 .47.84zM133.75 26l.09-.05a1.38 1.38 0 0 1 .36 0l-.76.15c-.05-.02.32.02.31-.1zm-.53.32s.27-.14.4-.14a.19.19 0 0 1 .14 0 .36.36 0 0 0 .22-.05.37.37 0 0 1 .18 0 3.83 3.83 0 0 0-2.09.77 2.35 2.35 0 0 1 1.15-.55zm.32.09a1.13 1.13 0 0 1 .36-.06v.05s-.18.14-.27.14h-.32a2 2 0 0 1-.75.29 3 3 0 0 1 1-.47s-.06.08-.02.08zm-1.29 2.32a3.24 3.24 0 0 1 1.86-.9 1.35 1.35 0 0 1 .46 0c-.41 1.85-3.42 3.37-4.08 3.88a9.3 9.3 0 0 1 1.76-2.95zm-5.91 7.43a.48.48 0 0 1-.4.37c.13-.02.26-.25.4-.34zm-6.26-14.61a11 11 0 0 1-1.73 4.17 1.94 1.94 0 0 1-.1-.58 4.56 4.56 0 0 1 1.83-3.56zm-9.6 7.45c-.14-.09-.19-.36-.29-.49a1.61 1.61 0 0 0 .1.36 1.22 1.22 0 0 1-.28-.71 1.82 1.82 0 0 1 .47.84zm-2-.4c-.39 1.81-3.25 3.29-4 3.83a.47.47 0 0 0 .06-.09l-.11.12a9.25 9.25 0 0 1 1.75-3 3.15 3.15 0 0 1 1.86-.9 1.28 1.28 0 0 1 .49.01zm-1-1.46a.9.9 0 0 1 .36-.05h-.05s-.17.14-.26.15-.18 0-.32 0a2.13 2.13 0 0 1-.75.29 3.13 3.13 0 0 1 1-.48v.05l.05.01zm.21-.41h.09a1 1 0 0 1 .36 0l-.76.16c-.01-.13.35-.09.34-.19zm-.53.33s.27-.14.41-.15a.16.16 0 0 1 .13.05.59.59 0 0 0 .22-.05.23.23 0 0 1 .18 0 3.8 3.8 0 0 0-2.08.77 2.14 2.14 0 0 1 1.17-.68zM92.58 38.68c.09 0 .09 0 .1.18-.09 0-.1-.18-.1-.18zm.28.17c.13 0 .13 0 .14.18-.14-.13-.14-.13-.14-.18zM93 38v-.49c.05.13.05.09.05.13s-.05 0-.05.1.15.26 0 .26zm0-1.43s.09-.19.18-.19c-.05.76-.25.23-.25.23zm0-.57c.08-.1.18 0 .18 0-.08.23-.14-.13-.13.32H93s-.08-.32 0-.32zm-.11-.54c.02.39-.2.54.01-.02zm-.1 1.22v.31c0 .09-.14 0-.14 0a2 2 0 0 1 .15-.33zm-.26.41s.09-.14.09-.1l.09.09a2.52 2.52 0 0 0-.07.77c.13 0 0-.5.12-.46 0 .23.07.86-.15.86v.18c-.14-.18-.1-.22-.06-.27s0-.4-.06-.58v-.18c.19-.2-.04-.24.05-.33zm0 2.82s-.1-.09-.1-.13 0-.18-.09-.22c.09.02.18.24.19.33z"/><path class="land-meets-sea" d="M102.85 41.47a.51.51 0 0 0-.18-.18c0 .14.14.13.18.18zm26.03-.68a.59.59 0 0 0-.18-.17c0 .13.14.13.18.17zm12.12-7.4s0-.01 0 0zm33.08 124.53c-1.69 0-2.92-.81-3-2.54a4.79 4.79 0 0 1 .23-1.43 10.12 10.12 0 0 0 1.74.13c4.13-.12 5-3.08 5-4.5a3.76 3.76 0 0 0-.64-1.89 6.8 6.8 0 0 0-.2-.88v.13l-.14-.17s.05.09.05.13-.05 0-.09-.08a.44.44 0 0 0 0 .13c-.63-.29-.65-.78-1.49-.76-3.46.1-6.38 3.68-7.39 7-2 2.9-4 5.63-4.65 5.75v-.14a.77.77 0 0 1 0-.3 44 44 0 0 0 .42-5.71c-.08-2.75-.86-5.08-3.79-5-3.55.11-5.52 4.43-7.13 7 .83-6.38 4.25-22.38 3.31-23.91 0-1.16-2-.83-3-.8-1.82 0-3.05 2-3.22 3.78-.2 2-.43 4.1-.68 6.26a9.63 9.63 0 0 0-3.46-.37c.05-1.24.32-2.58.27-4.58a6.63 6.63 0 0 0-.14-1.42.81.81 0 0 0 .09-.4c0-.89-2-1-2.79-1a1.88 1.88 0 0 0-2 1.21c-.45 1.57-.66 5-.94 6.2-.88.08-3.55.2-3.54.5 0 1 1.82 1.33 3 1.3h.31c-.5 5.83-.68 10.59-1 16.6v1c0 1 .31 4.48.57 4.47 0 0 0-.8.12-.8s.15.71.42.78a1.1 1.1 0 0 1 .11-.71s.17 1.29.35 1.28c0 .05 0-1 .11-.94s.22 1.37.44 1.37a2.45 2.45 0 0 1-.12-1c.09.09.43 1 .56.92s0-.18 0-.27c0 .09.19.17.19.13l-.1-.31c.27 0 .14.26.46.43a3 3 0 0 1-.12-.71.34.34 0 0 1 .13-.27 1.22 1.22 0 0 0 .65 1.05v-.85c.19.4.25.8.29.75a2.79 2.79 0 0 1 .12-.45c.88-8 1.6-14.08 2.24-22.55.5-.09 2.71-.28 3.53-.32-.71 6.34-1.51 13.12-2.1 19.21a3.35 3.35 0 0 0 .75 2.79 1.55 1.55 0 0 0-.1-.36c0-.27.17-.1.16-.45h.14c-.05 0 .14.22.18.26s.2.57.24.43a3.62 3.62 0 0 0-.07-.61.37.37 0 0 1 0-.18c0 .13.1.22.1.26.18 0 .19.27.27.26v-.53a.34.34 0 0 0 .14.22c0-.09 0-.26.07-.31s.11.3.15.35v.05c0 .08 0 .17.05.17s0 0 0-.18.13.08.18.08a1.49 1.49 0 0 1-.05-.22v-.14c0-.05.53.08.53.08s-.48.14-.48.24.45.25.5.24c0-.22 0-.35.08-.35h.09l-.05-.08.05-.1c0 .18.09.18.13.18-.05-.22 0-.18 0-.31l.13.13.05-.14c.05.23.05.27.09.31l.31-.32c0 .09.35 0 .35.12v.18c0 .09 0 .13.05.13s.17-.18.21-.27v.22c.09 0 .12-.23.17-.36v.13c0 .14 0 .23.18.22a9 9 0 0 1 .35-1.66c.18-.09 1-1 .94-1.31v-.09c1.28-1.94 3.59-6.68 6.09-9.28a8.53 8.53 0 0 1 .13 1.46c.06 2-.27 4.36-.22 6.28.09 3 1.49 4.12 3.23 4.08a5.19 5.19 0 0 0 2.77-1.06c.43-.32 2.73-2.34 2.67-2.83v-.09s.14-.15.21-.22a6.61 6.61 0 0 0 2 3.09c.27 0 .55.34.9.28 0 0 .05.09.09.09h.05s-.05 0-.05-.09h.05a1.3 1.3 0 0 0 .62.2c0-.08-.27-.12-.36-.21a7.39 7.39 0 0 0 1.83.22c0-.09 0 0-.27 0 .13-.09.14 0 .27-.09h-.49a2 2 0 0 1-1.48-.36 6.76 6.76 0 0 1 .85.24h.18c.13 0 .22 0 .27.08s0-.09.08-.09.41.08.54.07c.31 0 .58-.1.93-.11s.09 0 .09 0c2.17-.06 5-2.59 6.58-4.55-.05 0 .64-.81.63-1.12v-.09a1.12 1.12 0 0 0 .31-.37 1.91 1.91 0 0 0 .33-.67l.05.08c0-.17.38-.67.33-.67a.18.18 0 0 0 .1.13c.42-.9.81-1.05.85-1.27h-.09c.56-.77.73-1.22.81-1.22v.13c-.13.05 0 .27-.17.45a.14.14 0 0 0 0-.09s-.25.32-.3.36.05.09.05.09c-.55 1-1.45 2.27-2 3v-.09a1.66 1.66 0 0 0-.38.72h.09c.89-1.27 2.82-3.73 3.1-5-.05 0-.1-.09-.1-.13s.22-.23.21-.41 0-.08 0-.08v-.18s0-.13-.05-.13a3.54 3.54 0 0 1-.58 1.3c0-.13.12-.18.12-.31v-.09a4.21 4.21 0 0 1-.72 1.09c.75-1.62.74-1.76.84-1.76a.46.46 0 0 0-.08.31 1.06 1.06 0 0 0 .24-.76c0-.05 0 0 0 0a.19.19 0 0 0 0-.14c0-.13-.09-.17-.1-.22s0-.08.13-.18c-.18 0-.23-.25-.23-.35s-.35.24-.39.24c-3.38 4.57-5.75 8.68-9.43 8.79zm3.73-9.31c-.14-.08-.19-.35-.28-.48a.88.88 0 0 0 .1.35 1.24 1.24 0 0 1-.29-.7 1.84 1.84 0 0 1 .47.83zM149.24 141zm11.2 14.07s.05 0 0 0c.01.39-.21.53 0-.01zm-.36 4.46c-.05-.05-.1-.09-.1-.14s0-.17-.09-.22c.09 0 .19.22.19.31zm0-1.25c.09 0 .09 0 .1.17-.05 0-.05-.18-.05-.18zm0-.44c.05 0 .05 0 .05.08v.08c-.14-.17-.1-.22-.05-.26s-.06-.4-.06-.58V157c.13-.19-.09-.22 0-.32 0 .05.09-.13.09-.09l.09.09a2.18 2.18 0 0 0-.06.76c.13 0 0-.49.11-.45.07.21.13.83-.09.84zm.1-1.29a1.6 1.6 0 0 1 .08-.27v.26zm.14 1.9c.13 0 .14 0 .14.17-.05-.14-.05-.14-.06-.18zm.11-.8v-.49h.05c.05.14.05.09.05.14s-.05 0-.05.08.21.25.03.26zm.13-1.56c0 .67-.17.14-.17.14s.09-.18.17-.18zm0-.18h-.09s-.1-.31 0-.31.18 0 .18-.05v.05c.03.21-.02-.14-.01.3zm15.25-7.68c-.38 1.77-3.17 3.24-3.95 3.79a.22.22 0 0 0 .05-.08l-.13.13a9.24 9.24 0 0 1 1.74-3 3.1 3.1 0 0 1 1.84-.9 1.59 1.59 0 0 1 .53.05zm-1-1.44a1.49 1.49 0 0 1 .36-.05v.05s-.17.14-.27.14h-.31a2.16 2.16 0 0 1-.74.29 3 3 0 0 1 1-.47s-.03.04.01.03zm.22-.4h.09a1.35 1.35 0 0 1 .35 0l-.75.15c0-.1.36-.07.36-.16zm-.53.32s.27-.13.4-.14a.17.17 0 0 1 .13 0 .34.34 0 0 0 .22 0 .37.37 0 0 1 .18 0 3.84 3.84 0 0 0-2.06.77 2.26 2.26 0 0 1 1.18-.64zm9.22 3.92c-.08.22-.63.9-.63 1-.17.19-.12.36-.2.58v-.13s-.22.32-.26.37v-.14c.02-.55.89-1.37 1.14-1.69zm-2.45 4.07c0-.23.16-.31.24-.59l.05.09c.34-.5.37-.94.59-1.21v.13c.09 0 .09-.05.13-.14a3 3 0 0 1-.46 1.12c.13-.18.43-.67.43-.63v-.09c.21-.31.24-.72.51-.86-.09.18-.26.32-.3.55v.08a2.48 2.48 0 0 0 0 .27v.09c0 .13-.13.18-.17.27 0-.09-.1-.13-.05-.13a3.13 3.13 0 0 0-.42.77h-.09c-.17.13-.17.36-.39.5.09-.1.09-.23.17-.28h-.08a.34.34 0 0 1-.13.13z"/><path class="land-meets-sea" d="M170.3 161c-.05 0-.1-.13-.19-.17.01.17.14.17.19.17zm-105.38 5.45c-.07-.07-.14-.2-.27-.26 0 .2.2.19.27.26z"/><path class="land-meets-sea" d="M102.58 167.53a1.81 1.81 0 0 0 1 1.55v-1.26c.29.59.37 1.17.44 1.11a3 3 0 0 1 .17-.67c1.17-11.91 2.14-20.92 3-33.47.79-.16 4.47-.5 5.45-.54a.41.41 0 0 0-.27-.25c.39 0 .89-.7 1.23-.72-1.43-1.06-4.07-1.09-6.17-1 0-1.85.44-3.84.32-6.8a10.74 10.74 0 0 0-.21-2.11 1.25 1.25 0 0 0 .11-.59c-.06-1.32-3-1.46-4.15-1.42a2.78 2.78 0 0 0-2.89 1.83c-.64 2.33-.89 7.48-1.29 9.21-1.31.12-5.26.34-5.24.8.06 1.51 2.71 1.94 4.49 1.87h.46c-.43 5.7-.65 10.71-.84 16-2.44 3.67-5.54 7.72-9.87 8.07s-3.91-4-2.82-6.41c2.45.3 8.47-2.44 8.21-5.6-.12-1.51-1.46-2-3.17-1.85-4.56.4-7.75 3.88-9.17 7.82-3.61 4.85-6.64 8.55-10.86 8.72-2.5.1-4.33-1.15-4.43-3.72a7 7 0 0 1 .31-2.12 14.63 14.63 0 0 0 2.58.17c6.12-.25 7.4-4.64 7.32-6.75a6 6 0 0 0-1-2.8c-.15-.32-.11-.92-.32-1.3v.13c0 .07 0 .07-.07.07l-.2-.26c0 .07.07.13.07.19s0 .07-.06.07-.07 0-.14-.12a.63.63 0 0 0 .07.19c-.94-.42-1-1.15-2.21-1.1-5.3.21-9.71 5.94-11 11.08-3 4.73-6 8.84-7.19 8.89-.13 0-.21-.33-.23-.92-.07-1.58.17-5.67.07-8.37-.21-5.27-3.12-5.48-5.36-5.39-3.09.12-6.36 9.08-7.87 11-.45-3.21-.49-7.36-.92-10-.34-2-1.73-2-4.26-2.59a2.1 2.1 0 0 0-.66 0c-3.42.13-6.4 8.22-8.3 11.73a30.38 30.38 0 0 1 1.67-9.43 6.93 6.93 0 0 0 .68-2.79c0-1.06-1.94-.85-3.26-.8-3.1.12-4.5 2.82-4.88 5A49.63 49.63 0 0 0 19.71 163c.1 2.56 2.34 5.77 5.5 5.65s5.12-10.36 8.06-14.63l.15 4c.22 5.6 1.19 8.66 5 8.51 4.41-.18 6.88-7.79 8.5-10.16v.27c0 1-.19 3.57-.1 5.87.18 4.47 3 5.49 5.35 5.39a8.53 8.53 0 0 0 5.78-2.4 33.47 33.47 0 0 0 3.44-4.5 9.79 9.79 0 0 0 3.26 5.16c.39.05.81.5 1.33.41 0 0 .07.13.14.13h.06a.2.2 0 0 1-.07-.12h.06a2 2 0 0 0 .94.3c-.07-.14-.4-.18-.54-.31a11 11 0 0 0 2.72.29c0-.13 0-.07-.4-.05.19-.15.2 0 .39-.15h-.73a3 3 0 0 1-2.19-.51 10.49 10.49 0 0 1 1.27.35h.26c.2 0 .33 0 .4.12s.06-.13.13-.13.59.1.79.09c.46 0 .85-.16 1.38-.18v.07a.07.07 0 0 1-.06.07c0 .06.13.05.13.05 3.22-.13 7.42-3.91 9.69-6.83l.32-.47c.66 3.14 3.36 5.05 6.88 4.73 4.17-.36 7.81-3.63 10.38-6.84 0 .81-.05 1.63-.08 2.48v1.45c.06 1.51.53 6.64.92 6.62.07 0-.05-1.19.15-1.19s.24 1 .64 1.16a1.65 1.65 0 0 1 .16-1.06s.27 1.9.53 1.89c0 .06 0-1.52.15-1.39s.34 2 .67 2a3.69 3.69 0 0 1-.19-1.5c.13.12.65 1.42.84 1.35 0-.13.06-.27.05-.4.07.13.28.25.27.18l-.15-.45c.4 0 .22.39.69.63a4.59 4.59 0 0 1-.18-1 .43.43 0 0 1 .18-.42zM75.86 148c-.2-.12-.28-.51-.43-.7a1.73 1.73 0 0 0 .16.52 1.89 1.89 0 0 1-.44-1 2.6 2.6 0 0 1 .71 1.18zm-2.86-.59c-.56 2.72-5 5-5.91 5.77a13.81 13.81 0 0 1 2.53-4.46 4.71 4.71 0 0 1 2.71-1.35 2.05 2.05 0 0 1 .67.04zm-3-1.53a4.22 4.22 0 0 1 1.42-.72v.07a.06.06 0 0 0 .07.06 1.36 1.36 0 0 1 .52-.09l-.06.07c0 .07-.26.21-.39.22a4 4 0 0 0-.46-.05 3.43 3.43 0 0 1-1.1.44zm1.8-1.2l.12-.06a1.82 1.82 0 0 1 .53 0l-1.11.24c-.09-.09.44-.04.44-.18zm-.77.5c0-.07.38-.22.58-.22a.23.23 0 0 1 .2 0 .47.47 0 0 0 .32-.08.55.55 0 0 1 .27.06 5.64 5.64 0 0 0-3 1.18 3.33 3.33 0 0 1 1.6-.94zm18.8 2.62a6.32 6.32 0 0 1 1.06.09 5.64 5.64 0 0 1-4.31 2.81c.79-1.42 1.59-2.77 3.23-2.9zm32.11-5.62a.88.88 0 0 0 .6.18c.33 0 .65-.16.64-.42-.05-1.25-2.63-1.55-4-1.49-3.49.13-8.07 2.75-7.87 7.76.14 3.55 2.43 8.14 2.53 10.71.06 1.44-.65 2.06-1.83 2.11a5.9 5.9 0 0 1-2.59-.56.38.38 0 0 1-.26.08c-.26 0-.47-.18-.66-.17s-.14.07-.19.2a6.49 6.49 0 0 0 6.52 5c2.56-.1 5.85-1.95 5.67-6.68-.12-2.9-2.37-8.35-2.53-12.23-.1-2.48.74-4.36 3.97-4.49zM80.1 251.92a3.07 3.07 0 0 0-.82-.77c.02.59.61.57.82.77zm121.99-37.13c-2.65 3.68-.49 3-1.12 2.23 0 .2.79-.43.39-.42 1-.23.57-.81 1.33-1.64-.59.04-.6-.17-.6-.17z"/><path class="land-meets-sea" d="M207.74 200.85c-.24-1.18-1.05-1.55-1.28-2.34-.92-3.55-3.37.32-4.67 2.76-3.74 6.5-26.55 40.77-30.83 38.14-2.35-4.49-3.55-31.7-3.82-44.22a26.34 26.34 0 0 0 .1-2.79 12.1 12.1 0 0 1 .29-2.8c0-1-.82-.77-.87-2a1.9 1.9 0 0 0 2-.86c0-.21.76-1.23-1.07-2.16-4.26-2.22-11.47-3.55-15.57-1.41-7.42 3.85-12.14 10.6-15.9 16.7a81.6 81.6 0 0 0-4.83 9.82c-11.64 15.57-21 27.75-34.35 28.24-7.55.28-13.07-3.5-13.36-11.25a20.87 20.87 0 0 1 1-6.4 45.16 45.16 0 0 0 7.77.51c18.48-.68 22.37-14 22.13-20.32-.19-5.17-2.44-6.87-2.9-8.45-.43-1-.29-2.77-.94-3.94v.4c0 .2 0 .2-.19.2l-.63-.77c0 .2.22.39.22.59s0 .2-.19.21c0 0-.2 0-.41-.39a2.08 2.08 0 0 0 .22.59c-2.83-1.29-2.91-3.47-6.69-3.33-9.73.35-18.5 6.89-24.75 15.46-7.51 4.57-16.62 9.48-25.24 15.63.1-8.17-.53-14.51-.73-19.87-.11-3-.41-6-.69-8.13 0-.6 1.71-2.26 1.64-4.05-.1-2.78-5.4-6.16-8.58-6-3 .11-6.24 3.41-7.56 5.45-8.11 12.23-16.85 28.67-23.44 38.66a6.27 6.27 0 0 0-1.07 3.43c.08 2.18.53 3.56 2.52 3.49 6.35-.24 14.67-17.46 20.91-26.25.87 7.33.37 15.31.24 22.68-4.05 3.34-18.2 13.6-20.55 25.43a5.65 5.65 0 0 1 .47 2 9.45 9.45 0 0 0 9.62 7.21c2-.07 5.55-.41 6.13-1 .2 0 .4 0 .4.18l-2.35.88c3.38-.12 4.73-1.36 6.28-2.22-.38.41 0 .2-.75 1 10.36-4.95 18-19 18.59-29.93 4.85-3.68 10.24-6.82 15.52-10.11a34.07 34.07 0 0 0-1 9.18 29.89 29.89 0 0 0 10.78 22.48c1.19.16 2.44 1.5 4 1.25 0 0 .22.39.42.38h.19a.71.71 0 0 1-.21-.39h.2a5.77 5.77 0 0 0 2.81.9c-.21-.4-1.21-.56-1.62-.94a31.94 31.94 0 0 0 8.19.89c0-.39 0-.2-1.2-.15.58-.42.6 0 1.17-.44l-2.18.08c-2.38.08-5 0-6.62-1.55a27.93 27.93 0 0 1 3.82 1.05h.79c.6 0 1 0 1.21.36.4 0 .18-.41.38-.42.6 0 1.81.33 2.4.31 1.39-.05 2.57-.49 4.16-.55v.2a.2.2 0 0 1-.19.21c0 .2.4.18.4.18 9.47-.35 21.76-11.16 28.72-19.86.14 3.34 1.25 6.44 4.28 8.3a8.51 8.51 0 0 0 8.38.68c1.36-.84 1.52-2 2.86-3.48 2.79.29 12.24-18.76 14.85-28.81a5.17 5.17 0 0 1 .72-2c-.25 9.36.3 24.26 3.12 30.53 2 4.7 7.52 9.66 12.62 7.69.4 0 .81.37 4.15-.55 2.94-1.51 4.13-1.35 6-3.81a4.75 4.75 0 0 1 2.32-1.88c.78-.42 6.66-8.2 6.66-8.2a11.74 11.74 0 0 0 1.32-2c.2.19 1-1 .76-1a18 18 0 0 1 1.29-2.64c0-.79 1.12-2 1.14-1.63.79 0 2.07-3.26 2.43-4.07l.2-.2v-.2c-.8 0-1 1.22-1.53 1.65l-.21-.2c1.71-2.25 1.5-2.64 3-4.28l1.7-2.65c0 .59.39-.22.38-.42a2.93 2.93 0 0 0 .77-.82c-.19.41-.57.82 0 .79 0 0 0-.39.18-.4a.66.66 0 0 1-.18.4 4.34 4.34 0 0 0-.76 1.22v.4c.36-1 1.52-2 2.07-3.26 1.53-1.65.11-2.19 1.69-2.65l.73-1.81a10.12 10.12 0 0 0 .6-6.54zm-94.48-4.68c-.61-.37-.85-1.55-1.27-2.13a4.66 4.66 0 0 0 .45 1.57 5.65 5.65 0 0 1-1.3-3.14 7.85 7.85 0 0 1 2.12 3.7zM101 186.29l.39-.22a5.67 5.67 0 0 1 1.59.14l-3.35.72c-.26-.39 1.37-.25 1.37-.64zm-2.34 1.47c0-.2 1.18-.64 1.77-.66a.72.72 0 0 1 .6.18 1.88 1.88 0 0 0 1-.24 1.61 1.61 0 0 1 .8.17 17 17 0 0 0-9.22 3.53 10 10 0 0 1 5.01-2.98zm3 .09l-.19.21c0 .2-.77.63-1.17.64s-.8-.17-1.4-.15a9.8 9.8 0 0 1-3.33 1.32c1-1 3.71-1.93 4.3-2.15v.2a.18.18 0 0 0 .2.19 4.3 4.3 0 0 1 1.54-.26zm-7.16 10.61c2.11-1.87 5-4 8.2-4.08a6 6 0 0 1 2 .13c-1.68 8.21-15 15.07-17.86 17.37a41.18 41.18 0 0 1 7.61-13.42zm-61.3 33.3c-.55 1.41-1.72 2.05-2.68 2.88.57-.81 1.48-2.44 2.68-2.88zm-3.29 2.51v-.2a.74.74 0 0 1 .58-.42l-.21-.19c.19-.41.58-.62.57-1l.21.39c.4 0 .4 0 .78-.42a24.45 24.45 0 0 1-3.06 3.29c-.06-1.21.54-1.23 1.13-1.45zm-1.55 1.25l-.19.21c0 .39-.58.42-.57.61-.01-.19.4-.61.76-.82zm-8.18 10c-.22-.39.38-.41.56-.82v.6a.44.44 0 0 1-.56.27zm.55-1.21l2.09-2.67c.04 1.05-1.32 2.09-2.09 2.72zm2.68-2.89l.55-1.21a.7.7 0 0 0 .22.39 1.58 1.58 0 0 1-.77.87zm1.91-2.06l.19-.4c-.4 0-1 1.22-1 .83a6.44 6.44 0 0 1 2.1-2.47.4.4 0 0 1-.38.42s-.19.2.2.19l.39-.21c-.53.86-.71 1.46-1.5 1.69zm2.16 15.44c-.79 0-1.4-.15-1.43-1.14 0-.4 3.67-8.29 9.91-11.9v.2c.04 1.43-2.32 12.67-8.48 12.89zm120.74-38.67c0-.2.19-.21.38-.42v.2a.62.62 0 0 1-.38.27zm1.26 1.94c-.18.4-.18.4-.38.41a1.12 1.12 0 0 0 .17-.8.62.62 0 0 1 .39-.22c.2.05.02.45-.18.66zm1.09-2.83s0 .2-.38.42c.37-.62.37-.62.36-1 .2.03.21.43.02.63zm.52-2.21l-1.31 2.24c-.8-.17-.58.42-1.19.25l1.72-2.06.37-.61c-.39.22-.58.42-.78.43.37-.81.72-2 .74-1.62.2 0 .41.38.4.18s.19-.4.38-.61v.4l-.64 1h.09c.41.25.22.45.22.45zm-2 .48c0-.2.38-.42.57-.62.2 0 0 .2 0 .4-.2.2-.58.42-.58.61zm2.23 1.31c.37-.81 1.32-2 .75-1.22 0 .19.22.39.22.59-.39 0-.77.62-.77.62zm.62.57l-.21-.19 1.35-1.24c-.14.65-.93 1.04-1.08 1.48zm.41.19c.39-.22.76-1 1.34-1.25-.16.26-.5 1.67-1.31 1.3zm.74-6.8l.41.19c-.19.4-.79.42-1 .63a.67.67 0 0 0 .19-.41 2 2 0 0 1 1.15-1 7 7 0 0 1-.72.64zm-.24-1.18c-.41-.19-.22-.4-.22-.4a6.66 6.66 0 0 0 .35-1.4c.21.19.21.19.2 0a3.12 3.12 0 0 0 .58-.42c0-.2 0-.2.19-.41v.4a6 6 0 0 0-1.07 2.28zm3.15-6.09l.57-.81c.21.19.59-.42.59-.42-.34.86-.92 1.48-1.16 1.28zm1.36-6.41c-7.2 14.44-12.36 25.58-19.36 39.56-.18.4-.38.41-.58.22a145.07 145.07 0 0 1 9.41-25.42c3.69-7.89 9.51-17.06 13.8-19.6-.82.62-3.1 3.69-3.24 5.29zm37.81 21.68c-.19.21-.89 2.82-1.51 2.25-.19-.54.94-2.38 1.54-2.2zm-1.84 4.25c.37-1 .94-1.63.18-.81a4.56 4.56 0 0 1 1.14-1.43.76.76 0 0 1 0 1c0 .2-1.35 1.25-.94 1.43 0 .6-.18.41-.55 1.42-.2 0-.39.21-.59 0 .21.55-.79 2-1.4 2.21a.18.18 0 0 0 .08-.18h-.2c.81-1.15 2.49-4.2 2.31-3.59zm-1.78 5.63l.38-.41c.2-.2.18-.6.57-1l.41.38c-.19.41-.37.81-1 .63v.4c.09.24-.13.05-.33.05zm2.17-.47l.2-.21c.41.38-.57.82 0 1.19-.59.23-.77.63-1.15 1.24l-.56 1c-.21-.39-.22-.59 0-.59 0-.2.18-.41.58-.42-1-.56 0-1-.44-1.18.37-.61 1.55-1.25 1.89-2.66.09 1.06.08.86-.49 1.68zm1.46-3.64c-.37.61-.55 1.22-1.33 1.64l.18-.6c-.2 0-.75 1.42-.95 1.43 0 0 0-.2-.42-.59 0 0 .19-.4.2-.21.2 0 .18-.4.39 0a8.37 8.37 0 0 1 1.89-2.85c.65.63.62-.18.07 1.23zm1 .36a.62.62 0 0 1-.18.41c0-.2.17-.61.16-.8l1.15-1.24c-.13.65-.72 1.07-1.09 1.72zm-.24-6.55c.19-.21-.22-.6-.23-.8h.79c0-.6.18-.61.56-1 .19-.4 1 0 1 0a18.16 18.16 0 0 1-2.06 1.85z"/><path class="land-meets-sea" d="M150.68 212.9l.11-.18a.24.24 0 0 0-.11.18zM45.67 105.74a36.09 36.09 0 0 0 .2 4.4 6.23 6.23 0 0 0 3.46 5 5.51 5.51 0 0 0 5.42-.28c.8-.66.8-1.44 1.53-2.48 1.82 0 6.23-13 7-19.7a3.38 3.38 0 0 1 .29-1.35c.64 6 2.27 15.5 4.61 19.26 1.66 2.84 5.64 5.55 8.73 3.84.25 0 .55.17 2.62-.71 1.74-1.21 2.52-1.21 3.53-3a3 3 0 0 1 1.32-1.39c.46-.35 3.56-5.83 3.56-5.83a7.48 7.48 0 0 0 .67-1.41c.14.1.52-.75.4-.72a10.36 10.36 0 0 1 .6-1.8 1.6 1.6 0 0 1 .37-1 100.53 100.53 0 0 0 1.1 11.08c1 2.17 2.62.85 5.47 1.53 3.11 2.2 5.36.9 6-2.85l-.07-.38c2.91-9.62 4.66-17.61 10.38-26.79 2.66.32.28 22.87 4.81 26.52 2.72 2.14 4.55 2.22 7.46 1.72 5.21-.82 10.86-7.28 15.38-14.45.13 1.78.34 3.6.66 5.44.82 4.81 4.3 11.38 9.36 10.51 6.95-1.19 12.2-12.38 13.44-17.29.37 6.71 1.43 21.25 5.05 27.14l-.18-1c.51-.08.56.17.87.51-.1-.64-.38-1.5-.45-1.88l.57.29c-.06-.38 0-.52 0-.78l1.34 1.73c-.13-.76-.33-1.12-.44-1.75.51.69 1.26 1.21 1.19.84s-.25-.75-.3-1a6 6 0 0 1 2.52 1c-.07-.37.79-1.43 1.25-1.77l.17-.55c0 .25.49.56.53.81 0-.25.42-.58.42-.58a.5.5 0 0 0 .4.06c.26-.05.53 0 .59-.36a1.09 1.09 0 0 0 .49.56c0-.25.21-.3 0-.65.72.39.36.58 1 .48a7.08 7.08 0 0 1-.41-1.63c.49.58.56 1.73 1.3 1.47 0-.25-.24-.61-.3-1 .48.56 1 1.13 1.38 1.19 0 0-.07-.38.18-.42s.83.25 1.2.18a5.35 5.35 0 0 1-.57-1.85 91.42 91.42 0 0 1-1.17-9.83c-1.06-26.65-2.34-59.9-1.74-88.26 0-.78.6-3.36-.27-3.86-1.18-4.61-7.93-2.16-10.55.77-1.6-.25-4.32 1.39-4.37 3.35-1.74 12.67-1.16 31.2-1 39-10.31 2.24-19 12.31-21.57 26.46-5.56 10.66-11.19 19.72-12.1 18.4-1.72-2.43.25-19.05-3.9-25-2.23-3.14-10.24-2.8-13.19-1-5.66 3.44-8.84 13.75-10.34 17.14.19-4.2.55-12.73.57-16.38.07-2.62-3.78-4.56-5.81-2-2.61 1.49-6.2 1.07-6.43 5-.14 2.57-.21 5.81-.2 9.29-3.92 8.23-12.16 24-14.59 23-1.89-2.67-5-20-6.23-28-.14-1.53-.12-1.41-.18-1.79a7 7 0 0 1 0-1.81c-.11-.63-.6-.42-.73-1.18a1.22 1.22 0 0 0 1.18-.72c0-.13.38-.85-.87-1.29-2.71-1-7-1.23-9.5.11-.07-.68-.45-1.63-2.06-2.77-2.08-1.48-3.45.26-4.91 3.33l-.35.89c-7.29 17.55-20 39.67-23.06 38-3.86-2.16-6.24-30.51-6.67-36.92C28.79 57 35.21 42.06 34.85 17.69 34.62 2.77 28.29-2.13 19.82.82 7.07 5-1.48 39.39.36 68.5c.92 23.78 5.14 43.5 13.76 49.16 11.1 7.25 20.68 5.69 31.55-11.92zm117.57-36.45c-1.76 8-3.79 28-12.16 34.64-.33.32-1-.23-1.08-1.77.79-10.55 4.18-24.16 13.24-32.87zm-76 31.53l.21-.29c.1-.15.06-.4.27-.7l.28.17c-.08.28-.16.55-.56.49v.25c.08.17-.07.06-.19.08zm1.45-.63c.3.2-.29.57.13.76-.36.19-.44.46-.63.88l-.27.7c-.17-.23-.19-.36-.06-.38 0-.12.08-.27.33-.32-.7-.27-.11-.63-.38-.71.19-.43.88-.93 1-1.87.11.64.09.51-.2 1.08zm.51-2.31a2.21 2.21 0 0 1-.71 1.17l.07-.4c-.13 0-.36 1-.48 1s0-.13-.32-.34c0 0 .08-.27.1-.14.13 0 .09-.28.26 0a5.41 5.41 0 0 1 1-2c.41.27.32-.24.09.71zm.68.15a.41.41 0 0 1-.08.27c0-.13.06-.4 0-.53l.2-.17a2.17 2.17 0 0 1 0 .26zm-.15-5.45h.05v.64c-.31.37-.62.75-.63.68s-.2-.36-.22-.48l.51-.09c-.04-.43.09-.45.3-.75zm-1 1.61c-.1.15-.33 1.88-.77 1.57-.21-.36.35-1.63.75-1.57zm-.81 2.88c.15-.68.46-1.13 0-.53a3.05 3.05 0 0 1 .61-1 .51.51 0 0 1 .11.64c0 .12-.76.91-.48 1 .06.38-.09.27-.23.95-.13 0-.23.17-.38.06.18.34-.33 1.37-.71 1.54a.1.1 0 0 0 0-.12h-.12a22.4 22.4 0 0 1 1.18-2.54zm-29.3.73c0-.13.1-.15.21-.3v.13a.37.37 0 0 1-.23.17zm1 1.14c-.08.27-.08.27-.21.29a.82.82 0 0 0 0-.53.37.37 0 0 1 .22-.17c.13-.02.05.25-.06.41zm.25-1.61c.19-.42.19-.42.14-.68.13 0 .17.23.07.38-.08-.03-.03.13-.26.3zm.18-2c.27.08.17.23.17.23l-.64 1.54c-.54 0-.34.32-.75.26l.92-1.46.19-.43c-.23.17-.33.32-.46.34.17-.55.29-1.35.33-1.1.13 0 .3.21.28.09a.68.68 0 0 1 .19-.43v.26l-.33.75.05-.03zM59 96c0-.12.21-.29.31-.44s0 .13.05.26-.34.31-.32.44zm1.54.65c.17-.55.67-1.41.38-.84 0 .12.17.23.19.36-.26 0-.44.46-.44.46zm.29-5.9c.15.1.15.1.12 0a2 2 0 0 0 .34-.32c0-.12 0-.12.08-.27v.25a3.77 3.77 0 0 0-.52 1.52c-.28-.08-.17-.23-.17-.23a5.39 5.39 0 0 0 .1-.91zm.6 2c-.08.28-.47.34-.57.49a.46.46 0 0 0 .04-.24 1.25 1.25 0 0 1 .65-.76c-.11.14-.45.46-.45.46zm-.59 4.14l.75-.91c-.06.4-.52.74-.61 1zm.42.19c.23-.17.4-.72.76-.91-.16.16-.26 1.09-.81.92zm1.14-9.31l.29-.57c.15.1.33-.32.33-.32-.21.56-.53 1-.67.9zm1.9-7.88a8 8 0 0 0-1.59 3.66c-3.39 9.83-5.74 17.39-9 27-.08.27-.2.29-.35.19a94 94 0 0 1 3.74-17.11c1.68-5.37 4.63-11.73 7.15-13.73zM19.09 98.2c.05.32.43.58.35 1.1-.19-.14-.27-.62-.35-1.1zm.55-1.6a10.5 10.5 0 0 1-.57-2.39c.19.13.19.13.24.46a3.87 3.87 0 0 1 .33 1.93zm-.13-4.6a37.8 37.8 0 0 1-.18-4c.31 1.78.48 3.74.81 5.68zm.25-9.18a.6.6 0 0 0 .24-.54l.11.64s-.11.16-.35-.13zm.6 18c0-.16.11-.35-.11-.65.19.12.28.6.11.63zm2.2 7.94c.22.29.43.59.11.64-.22-.31-.43-.61-.11-.66zm.36 2.09c-.22-.29-.22-.29-.11-.64.19.27.43.57.11.62zm-1.56-11c.76 2.53 1.45 5.57 2.11 8.45a32.09 32.09 0 0 1-2.11-8.5zm-.29-2.61a6.6 6.6 0 0 1 .31 1.76c-.09-.52-.57-1.43-.31-1.81zM24.63 113v.16c0 .16 0 .16.22.29l-.27.38a6.3 6.3 0 0 0 .05-.83zm0-.17a7.48 7.48 0 0 1-1-3.66 11.48 11.48 0 0 1 .97 3.7zm-2.76-18.77c.05.32-.32 1-.1 1.35-.22-.3-.3.22-.22.7.8 3.68 1.33 7.75 1.91 10.14.5 2.91-2.39-9.06-2.62-12.35l-.13.2.1-1.36c-.41-1.42-.6-7.37-.66-7.7.76 1.54 1.14 7.62 1.29 9.43l.08.48zm5.41-87.54c.16-1 .87.19.61 2.56.17 19.42-3.6 35.19-8.28 53.45-1.46-11.38 3.04-45.23 7.67-56.01zm-8.09 80.69a1.87 1.87 0 0 1-.32-.95.78.78 0 0 1 .32.95zM19 92.89a.54.54 0 0 1-.14-.81c.28.62.47.76.14.81zm-.15-1.81l-.45.25.15-1a3.47 3.47 0 0 0 .31.75zm-.76-1.53v-.83l.29.78zm.2-3.69a1.14 1.14 0 0 1-.16 1l-.13-.78zm-.1 2.35c-.13.19-.13.19-.35-.11.3-.22.36.11.36.11z"/><path class="land-meets-sea" d="M59.89 95.49v-.09a.2.2 0 0 0 0 .09z"/></svg>