<svg xmlns="http://www.w3.org/2000/svg" width="157.43" height="62.045" viewBox="0 0 157.43 62.045"><defs><style>.cls-1{fill:#fae9e2}</style></defs><g id="Group_652" data-name="Group 652" transform="translate(.006)"><path id="Path_3441" d="M558.75 244.67l-.01.01v.01z" class="cls-1" data-name="Path 3441" transform="translate(-445.159 -185.505)"/><path id="Path_3442" d="M30.43 237.9v-.02c-.01 0-.01-.01-.02-.01z" class="cls-1" data-name="Path 3442" transform="translate(0 -189.727)"/><path id="Path_3443" d="M480.33 247.35a4.345 4.345 0 0 0-.41-1.73c-2.14-2.56-4.17.62-6.27.76-.01.32-.04.59-.07.85-.06-.06-.11-.12-.17-.18-.29-.11-.57-.22-.86-.33a2.441 2.441 0 0 0-.51.58q4.14.015 8.29.05z" class="cls-1" data-name="Path 3443" transform="translate(-354.767 -185.505)"/><path id="Path_3444" d="M605.1 131.61a1.479 1.479 0 0 1 .08.13c.02.02.04.03.06.05z" class="cls-1" data-name="Path 3444" transform="translate(-451.145 -98.696)"/><path id="Path_3445" d="M598.17 169.05c1.2-.19 1.34-2.17 2.03-3.26a12.278 12.278 0 0 1-2.78 1.17c.17.8-.2 2.24.75 2.09z" class="cls-1" data-name="Path 3445" transform="translate(-451.145 -125.901)"/><path id="Path_3446" d="M599.82 57.92c-1.05-.5-2.76-2.26-3.6 1.1l-.07-.1a.168.168 0 0 1-.04.13c2.42-.5 4.18-.9 3.71-1.13z" class="cls-1" data-name="Path 3446" transform="translate(-451.145 -43.078)"/><path id="Path_3447" d="M154.7 30.661a.2.2 0 0 0-.2-.083c.059-.351-.018-.531-.225-.551.092-.168.2-.333-.005-.534h-.082l-.031-.105a.711.711 0 0 0-.432-.348h-.015a1.079 1.079 0 0 1 .309-.859 1.919 1.919 0 0 0-.317-1.253c0-.248-.02-.479-.2-.584-.1-.509.232-.681.411-.95.37-.554.294-.817-.207-.869a3.182 3.182 0 0 1-1.034 1.253c.026-.273.156-.584-.115-.754l-.008-.015a.775.775 0 0 0 .273-.564 1.029 1.029 0 0 1 .066-1.223c-.074-.208-.258-.243-.347-.423a1.2 1.2 0 0 1-.2-.421c-.038-.13 1.486-.268 1.486-.408.005-.088.013-.175.018-.263a.119.119 0 0 0-.023-.015v-.038a.575.575 0 0 0-.128-.316l.005.018c-.342-.546-.179-1.305-.335-1.929a.986.986 0 0 0-.271-.937c-.171-.962-.669-.456-1.07-.388a1.369 1.369 0 0 0-.477-.742.209.209 0 0 0-.038-.188l-.074-.045v-.115c-.23-.609-.733-.228-1.052-.511-.8-.118-.827-.153-.771-1 .907-.088 2-.251 1.925-.368.01-.018.023-.03.033-.05s.008-.05.01-.075c-.386.08-.9.155-1.392.225.38-.108.9-.215 1.4-.316a.559.559 0 0 0-.276-.458c-.14-.025-.158-.168-.148-.333-.488-.258-1.32.07-1.147-1.32 0-.2-.008-.4-.01-.606a.388.388 0 0 0-.271-.23c.094-.208.192-.413.286-.621a.478.478 0 0 0-.587-.12c-.472.263-.633.163-.656-.1a2.125 2.125 0 0 1 .235-.712c.043-.138.243-.293-.008-.4-.151-.16-.107-.386-.082-.606-.123-.421.013-.935-.189-1.328l-.038-.073.184-.19a1.054 1.054 0 0 0-.189-.734.843.843 0 0 0-.48.6.585.585 0 0 1-.329-.09c.375-.556.079-1.117-.018-1.676-.324-.261-.641-.579-1.021-.065-.283-.12-.6.223-.873-.05-.235-.418-.483-.243-.73-.053.347-.381 1.065-.476.575-1.506-.472.286-.968-.99-1.427.16a.881.881 0 0 0 .028.381 1.176 1.176 0 0 0-.516-.243.674.674 0 0 0 .064-.769l-.832-.068c-.056-.04-.115-.078-.171-.118l-.465.055c-.253.148-.135.291-.059.433a1.494 1.494 0 0 1-.12.1c-.447-.8-1.111-.413-1.69-.486-.028.038-.054.075-.082.108a.55.55 0 0 0 .005-.266c-.151.1-.3.19-.452.283-.337-.511-.912-.143-1.264-.6-.539-.782-4.7-.178-5.271.028-.071-.01-.143-.023-.217-.033-.549-.579-1.3-.278-1.879-.724l-.015.023c-.483-.581-1.044.308-1.542-.038-.633.215-1.287.038-1.915.353-.4.17-.636-.581-1.057-.278l-.192-.386c-.508-.463-1.019.3-1.527.125l.015.06c-.074-.078-.151-.158-.225-.238l-.472.12a.068.068 0 0 1-.02-.018c-.038-.013-.077-.025-.115-.04l-.232.068a.219.219 0 0 1-.018-.2c-.232-.516-.426-.1-.631.1l-.217.015a.456.456 0 0 0-.421-.16 1.035 1.035 0 0 0-.156.088c-.2-.291-.34-.874-.7-.218a.107.107 0 0 1-.01-.018c-.419.273-.858-.341-1.274.16-.163.03-.373-.133-.455.248a3.046 3.046 0 0 1-1.479-.073.54.54 0 0 1-.291.1c-.179-.874-.817-.591-1.261-.794-.13.386-.222.839-.628.749-.151-.115-.051-.534-.235-.606a.054.054 0 0 0 0-.02c-.066-.2-.158-.348-.34-.308L116 1.4l-.082-.018c-1.118-.574-2.232-.03-3.345.291l-.209-.055c-.2-.428-.419-.4-.649.01-.3.453-.549.291-.878.048-.286-.21-.34-.884-.784-.734-.069-.058-.14-.113-.209-.17-.37.19-.8.12-1.108.571a.366.366 0 0 0-.046.043 1.26 1.26 0 0 0-.135-.02.827.827 0 0 0-.189-.732.144.144 0 0 0-.02-.013.323.323 0 0 0-.1-.21l-.84.008c0 .033.008.065.013.1a.309.309 0 0 1-.125-.1l-1.3.01c.005.015.013.028.018.043-.148.571-.424.461-.7.336a2.5 2.5 0 0 1-.179-.271 1.674 1.674 0 0 1-.089-.1c-.263 0-.526.005-.786.005l-.008.065c-.069.088-.133.18-.194.276-.314.251-.649 0-.968.1-.056-.06-.11-.123-.166-.183a.23.23 0 0 1-.181-.251h-.332c-.411.366-.812.784-1.343.491a.841.841 0 0 0-.036-.138c-.4-.075-.518.594-.794.852a.933.933 0 0 1-.225-.18.977.977 0 0 0-.5-.3c0-.276.1-.393.342-.411.35-.025.337-.153.253-.3l-1.079.016c0 .023 0 .043-.005.065a.336.336 0 0 0-.151.056c-.26.3-.539.458-.861.313A1.447 1.447 0 0 1 98 .484l-1.164.005a1.453 1.453 0 0 0 .452.649.289.289 0 0 0-.028.028l-.523-.033a.161.161 0 0 0-.043-.048c.046-.323-.008-.524-.174-.594h-.306a.967.967 0 0 1-.493 0l-2.9.015a2.079 2.079 0 0 1-.258.21 12.642 12.642 0 0 1-.22-.13 1.148 1.148 0 0 0-.183-.062v-.01Q86.189.54 80.219.549 73.761.56 67.306.576c-.059.155-.128.288-.268.253a1.136 1.136 0 0 0 .056-.251h-4.175a.48.48 0 0 0-.005.058 1.073 1.073 0 0 0-.37.281l-.1.113a.449.449 0 0 1-.136-.13c.015-.048.031-.1.049-.145a1.411 1.411 0 0 0 .033-.174H61a1.214 1.214 0 0 1-.059.178.883.883 0 0 0-.041-.138.468.468 0 0 0 .079-.04q-1.482 0-2.965-.005a.708.708 0 0 0-.043.1l-.084-.1q-1.693 0-3.389-.01h-.008L53.478.561c-.215.228-.416.12-.621-.005-.319 0-.638-.005-.958-.005-.1.045-.209.09-.312.145a.009.009 0 0 0-.005 0L51.52.591a.237.237 0 0 0 .026-.043l-.887-.004-.061.481a.22.22 0 0 0-.2.035 3.73 3.73 0 0 0 .13-.516Q44.472.5 38.417.388q-3.34-.064-6.683-.14a.32.32 0 0 1-.273.1.39.39 0 0 0-.041-.027.713.713 0 0 1 .018-.08L27.679.158l-.008.015V.158L25.991.12a.78.78 0 0 0-.161.08c-.008.015-.01.03-.018.048a.723.723 0 0 1-.2-.13L24.855.1a1.07 1.07 0 0 0-.008.276 1.351 1.351 0 0 1 .457.894l-.028-.023a.36.36 0 0 0-.283.078 1.354 1.354 0 0 0-.276-.812A3.276 3.276 0 0 1 24.51.1L22.684.063a2.254 2.254 0 0 0-.51.437c-.036-.079-.092-.1-.166-.059-.378.185-.8-.013-1.157.386l-.575-.356-.628-.441a.449.449 0 0 0-.064-.03h-.248a.624.624 0 0 0-.3.366q-.2.718-.393 1.436a.331.331 0 0 0 .046.078.136.136 0 0 1-.046-.078l-.409-.053v.1a.454.454 0 0 0-.051-.023c.018-.025.033-.05.051-.073.245-1.315-.608-.676-.917-1.007a.979.979 0 0 0-.135-.068l-.374-.192c-.35 0-.73-.336-1.07.276.718.135.718.135.815.924l-.041.311c-.368.646-.529-.133-.8-.168A3.269 3.269 0 0 0 14.9.579l-.211-.251c-.23.185-.46.371-.689.559l-.4-.426c-.751.208-.181.511-.051.782a.633.633 0 0 0-.043.083.686.686 0 0 0-.028.125c-.319-.028-.59-.5-.952-.145a.563.563 0 0 0-.24-.539.767.767 0 0 1-.876.286c-.023.165-.049.331-.071.5-.212-.083-.4-.456-.631-.205-.194.208.015.514 0 .782a1.445 1.445 0 0 0 .031.238c-.064.085-.125.173-.189.258-.018-.015-.033-.033-.054-.048-.169-.038-.5.085-.2-.416a13.89 13.89 0 0 1-1.831-.438.939.939 0 0 0-1.2.228c.02.143.041.288.064.431a.82.82 0 0 1-.064-.431l-.179-.038-.237.213c-.179-.263-.352-.549-.672-.331-.084.105-.166.21-.25.313-.4-.058-.6.463-.9.694-.59-.416-.958.078-1.29.724-.1.005-.151.073-.156.213 0 .01.008.02.01.03-.271.1-.544.19-.815.283l-.26.564c.411.97-.069.95-.539.955-.324 0-.781-.556-.84.471-.089.243.684.656-.14.8-.457.08-.26.5-.02.754.266.04.324.94.751.311a2.87 2.87 0 0 0 .452-1 1.889 1.889 0 0 0 .1.188c.033.045.066.088.1.13.1.276.248.486.521.524l.217-.188.212.163c.309.208.406-.125.529-.393.135.236.4.248.529.5a1.665 1.665 0 0 1-.013.3c-.358.261-.038.6-.089.9.5.762.429-.461.712-.456l1.088.967c-.761-.451-3.979.559-4.183 1l-1.157.055c.263.321-.077.935.243 1.233a.182.182 0 0 0 .215.09c.128.691.557-.263.748.188-.189.328-.383.666-.577 1.007.018.3.077.561.312.636.363.561.511-.238.764-.368v.016c.028.356-.069.714-.046 1.07-.125.251.033.749-.317.8-.245.266.317.674-.115.907a.227.227 0 0 0-.064.283l-.051.03c-.1.393-.066.712.212.9.421-.261.664.411 1.052.331.138.075.215.185.094.4a.422.422 0 0 0 .079.313c-.079.293-.263.576-.069.9.008.035.031.078.023.108a1.565 1.565 0 0 1-.066.193c-.117.351 0 .569.209.659.189.08.306-.118.383-.356a1.018 1.018 0 0 0 .672-.594c.107-.14.209-.15.306-.008.026.053.054.108.084.158-.391.163-1.014.143-.409 1.107.485.291.97-.411 1.456-.11l-.276.824-.975-.04c-.11.2-.22.391-.327.589l1.052.1c-.1.516.5.727.375 1.253-.324-.363-.646-.709-.9.233-.158.464-.539.253-.751.549.148.769-.388 1.814.375 2.34a.414.414 0 0 0 .25-.153l.015-.025.26.972a2.744 2.744 0 0 0-.094 1.22.727.727 0 0 0 .123.391l-.207.747c-.148-.271-.34-.416-.608-.336l-.222.028c-.033-.416.181-.909-.138-1.24l-.516.879a.828.828 0 0 1-.664.338l-.25.241a1.405 1.405 0 0 0-.079.919l.222.338c.064.105.13.21.194.318.163.909-.838.3-.738 1.122a.243.243 0 0 1-.148.053c-.038.163-.079.326-.117.486v.008a.818.818 0 0 0-.082-.04.314.314 0 0 0-.128.06.383.383 0 0 0-.613.005c.018.511.128.919.541.977.036.4.447.5.373.985l-.47.8a.326.326 0 0 0 .14.411c.347.762.845.418 1.32.263a.991.991 0 0 0 .388-.494 3.086 3.086 0 0 1-.442.9c-.393.509-.746 1.183-1.366.767-.46.268 1.415.882 2.349 1.363.871.143 1.856.288 1.849.443a5.656 5.656 0 0 0-1.645-.331c.258.153.378.288.232.383-.227 1.137-.605.22-.917.205-.245-.281-.426-.058-.608.2.281.13-.123.859.34.834-.023.155-.049.311-.072.464-.232.241-.383-.358-.615-.105-.1-.06-.171-.018-.217.138-.352.479-.932-.98-1.044.158-.107 1.18 1.601 1.102 1.147 1.469-.314.546-.439 1.032-.02 1.333-.22-.013-.467-.165-.605.271l.049.03v.078a4.122 4.122 0 0 1-.023.641c-.153-.323-.46-.331-.728-.413l-.244.36.935.338c-.008.053-.015.105-.026.158a1.717 1.717 0 0 0-.008.278.329.329 0 0 0-.521-.153l-.023.005a1.417 1.417 0 0 0 .133.94c.135.556.552.649.822.982-.031.1-.059.2-.089.3a.447.447 0 0 1-.02.053c-.508-.008-1.453-.015-1.553-.023a.61.61 0 0 0 .636.1l.013.015a6.215 6.215 0 0 0-.784 1.857c.161.248-.5.8.125.874.3.461.592.919 1.006.644a.311.311 0 0 0-.031.286c.01.1.018.2.026.3l.2.22.626.11c.135.005.268.008.4.01 1.313.428-.552.942-.005 1.411.342-.12.554-.93 1.029-.589.291-.243.5-.747.909-.6.383.123.094.689.25.965a.646.646 0 0 0 .309.574l-.013-.008c.112.316 0 .814.355.935.072-.088.146-.173.217-.261.212.033.424.065.636.1-.158.388-.186.722.151.9l-.273.6c-.135.526.36.531.363.942.306.426.4-.509.677-.268.232.115.329-.108.319-.358-.013-.338-.169-.5-.38-.546a1.13 1.13 0 0 0 .16-.241l.023-.058c.061 0 .123.005.181.01l.023-.055a1.847 1.847 0 0 0 .028.474c.072.208.161.373.355.351.151.008-.041-.093.1-.05.01 0-.023.038-.092.1a.978.978 0 0 0-.156 1.037c.079.541.664.025.7.646-.352.073-.776-.093-.942.616-.161.511.391.443.332.872.217.085.22.321.176.584.189.416.488.313.776.271a.666.666 0 0 1 .22-.02c.01.363-.281.722-.248 1.085l.1.043.1-.03a.451.451 0 0 1 .084.1q6.749.023 13.5.04 13.349.03 26.7.043c.005-.038.013-.075.018-.113a.009.009 0 0 0 0 .008 1.014 1.014 0 0 0 .049.105l10.385.015c-.023-.383.406-.546.442-.887.365.085.531.514.753.844-.005.015-.008.03-.013.043h.255a.022.022 0 0 0 0-.013.2.2 0 0 0-.049-.045.377.377 0 0 0 .133-.06.363.363 0 0 1-.043.118q7.259.011 14.52.025c.11-.333.488-.521.444-.935a.315.315 0 0 0 .317.08.019.019 0 0 1-.005.01c-.084.471-.416.591-.654.844q2.153 0 4.305.01c.028-.148-.043-.261-.317-.293-.22-.028-.483.173-.595-.263a1.36 1.36 0 0 0 .077-.251l.636-.3c.225-.058.61-.251.651-.15.434 1.085.845.273 1.264-.08.283-.271.539-1.022.884-.3a.764.764 0 0 0-.176.426l.026.085-.043.075c.25.363.692.308.891.779.186-.16.373-.323.557-.484.38.283.618.048.769-.486 0-.018-.008-.035-.01-.053l.378-.073a.288.288 0 0 0 .189.073 1.056 1.056 0 0 1 .192.922c-.2.055-.444.04-.485.388 1.254 0 2.51.01 3.764.013a.564.564 0 0 1 .664 0l1.3.005a3.651 3.651 0 0 1 .352-.639c.577-.138 1.159.256 1.734-.175.1-.368-.013-.481-.169-.549a1.488 1.488 0 0 0 .485-.256 1.057 1.057 0 0 0 .125.834c.013.561.235.732.6.616a.222.222 0 0 0 .171.088l-.008.1 4.8.018a.431.431 0 0 1-.013-.055l.615.025.01.033h.562c0-.008 0-.013-.005-.02-.082-.266-.181-.308-.286-.263a5.271 5.271 0 0 0 .587-.907h.049c-.066.889.209 1.2.817.945l-.008.015c.026 0 .056-.023.087-.075a.121.121 0 0 0 .018-.08.5.5 0 0 0 .146-.028c.138-.123.271-.263.434-.143.2.19.383.223.541.028.01.028.023.055.033.08a.53.53 0 0 0 .511.246.515.515 0 0 0-.186.218h.592v-.12a.442.442 0 0 0-.271-.13 1.459 1.459 0 0 0 .278-.13c.227-.18.457-.358.684-.539.151.308.35.448.626.311l.215.078a.6.6 0 0 0 .541-.366c.008-.03.01-.055.015-.083l.289-.128c.038.03.077.055.115.08.041.073.082.148.125.22l.069.331a.619.619 0 0 0-.707.193.757.757 0 0 0-.365-.09c-.049.028-.094.058-.143.085a.274.274 0 0 1-.115.293c.559 0 1.121.005 1.68.01a.662.662 0 0 0 .013-.105c.166-.306.827.358.636-.646.4-.581.876-.055 1.3-.281l.237.4c-.069.22-.1.481-.306.546a.52.52 0 0 0-.843-.05l-.023.138 2.694.015c-.309-.143-.654-.183-.9-.516a.546.546 0 0 1 .222-.083l.054.035c.041.008.084.018.125.028.243.015.513.18.656-.308.066-.065.133-.13.2-.2.184.348.444.278.707.215a.585.585 0 0 1 .406.681.5.5 0 0 0-.411.15l.809.005a1.127 1.127 0 0 1 .245-.491c.414.418.855-.366 1.269-.04a2.481 2.481 0 0 1-.161.539l1.816.013-.031-.073a5.306 5.306 0 0 0-.248-.752 1.274 1.274 0 0 0 .306.033c.455-.03.192-.188.038-.321a1.378 1.378 0 0 0 .071-.253.294.294 0 0 0 .337.125.761.761 0 0 0 .077-.045.366.366 0 0 0 0 .158.44.44 0 0 0-.135.15 2.142 2.142 0 0 0-.166.884.6.6 0 0 0 .005.068l-.046.028q.873.008 1.747.013c-.317-.07-.646-.11-.827-.509a.723.723 0 0 0 1.06.228l.286-.271c.1-.088.207-.175.312-.261a1.285 1.285 0 0 0-.061.759c.008.023.018.043.026.063l.993.008c-.018-.215.148-.426.656-1.072.1 1.077.146 1.077 1.106.03.056-.068.138-.163.128-.241-.153-.945.3-.058.378-.278.015-.013.023-.028.038-.04l.013.01.092.005c.074.213.169.6.337.413.917-1 .947.108 1.141.849a.515.515 0 0 0 .628-.208.3.3 0 0 0-.008.165c.291.005.863-.484.649.4.383 0 .766.005 1.149.01a1.992 1.992 0 0 0 .163-.747c-.207-.17-.4-.363-.615-.519-.013-.248-.2-.5-.015-.674.317-.283.493.266.769.333a.85.85 0 0 0-.02.08.831.831 0 0 0 .138.759c.294.5.733-.464 1.016.125l-.161.646c.426 0 .85.005 1.277.01a1.371 1.371 0 0 1-.176-.584c.156-.471.031-.742-.283-.879h-.015a.808.808 0 0 0 .11-.271.745.745 0 0 0 .186.19 2.063 2.063 0 0 0 .36.747l1.129-.3a1.149 1.149 0 0 0 .031-.163c.661.1.94-.762 1.389-1.2l.069.218c-.342.541-.96.656-1.124 1.476.151.331.549-.16.649.343l.4-.008c-.069-.656.4-.975.521-1.513l.253-.3.707.083c.442.388.546-.474.868-.529.079.053.158.1.24.153.079-.619.516.148.633-.313.335-.1.6.078.955.609a.4.4 0 0 0 .5.135c.066-.033.133-.068.2-.1a4.374 4.374 0 0 1 1.6-.769.5.5 0 0 0 .089-.236.515.515 0 0 0 .488.22.639.639 0 0 0 .133-.045c.107.115.212.233.317.348-.015.033-.033.065-.051.1a.761.761 0 0 0 .015.356.5.5 0 0 1 .051.133.33.33 0 0 1-.008.143c-.365.163-.786.1-1.073.594a1.155 1.155 0 0 0-.176 1.1.375.375 0 0 0 .664.125c.411-.448 1.009-.205 1.346-.869.061-.383.286-.256.449-.316l.2.1c.209.388.416.529.615 0 .015.04.033.078.049.113.516-.185.416.566.638.827.056 0 .1.033.123.1a.143.143 0 0 0 .2.045.284.284 0 0 1 .079-.118l.054.023h.059a.755.755 0 0 0 .123.128c.24-.043.3-.534.575-.5.031-.12.064-.243.094-.363l.143.253a.393.393 0 0 0 .651 0 1.452 1.452 0 0 1 .306-.867c.059-.008.117-.018.176-.028.015-.105.031-.21.049-.313-.148-.2-.281-.448-.508-.388a1.01 1.01 0 0 0-.041-.3c-.013-.023-.028-.043-.043-.065l.25-.413.018.008a1.078 1.078 0 0 0 .38 0l.97.05a1.5 1.5 0 0 0-.036.514c.008.043.02.08.031.118-.125.08-.25.158-.378.238-.02.18-.1.461-.051.521.235.281.447-.008.656-.2a.13.13 0 0 0 .087-.153c.153.008.289-.408.447-.118.12.135.24.271.363.406.084-.208.166-.416.25-.621.516-.215.447-.694.312-1.2l.5-.884c.192-.028.391-.075.462.271.01.193.056.218.143.05.077-.015.151-.033.227-.048.194.2.4.3.649.12l.465-.2.628-.589c.163.326.411.318.667.288l.424.065c.123.218.248.436.37.654-.386.323-.3.6.008.859a.344.344 0 0 1 .128-.04l.329-.762c.14-.123.278-.248.419-.371.138-.4 1.06.586.659-.767l-.516-.03a.273.273 0 0 0-.2.183c-.222.078-.641.739-.5-.263.235.118.352-.065.419-.373a2.533 2.533 0 0 1 .329-1.125c0-.241.166-.724-.255-.336-.49.448-.281 1.23-.5 1.806l-.442.015c-.176-.135-.166-.371-.143-.614.363-.386.587-.927.186-1.323-.317-.311-.47.469-.746.659-.1.068-.133.341-.194.519h-.541l.038-.616a2.132 2.132 0 0 0 .534-1.473c.156-.413.455-.443.712-.581.35.163.564-.065.7-.524.064-.023.128-.048.189-.075.031-.228.051-.463.245-.554.084-.028.112-.088.089-.183a.34.34 0 0 0 .189.048c.475-.323.426-.809.258-1.333-.324-.013-.644-.01-.743.591-.1.246-.156.546-.393.611-.14.1-.281.2-.424.291-.243-.128-.238-.391-.166-.691l.439-.574-.245-1.085c-.2.694-.651.965-.643 1.6-.592-.083-.278-.922-.511-1.308.605-.519-.174-1.654.546-2.122l.227.12.094-.05.1.018c.049-.3.1-.6.148-.9a.251.251 0 0 1-.051-.251.564.564 0 0 0-.674-.266.881.881 0 0 0-.138.258.333.333 0 0 1-.028-.115l.018-.023a.333.333 0 0 0 .054-.223c.033-.063.069-.125.1-.19a1.167 1.167 0 0 0 .312-.5c-.166-.777-.314-1.568-.907-1.919-.4-.01-.455.423-.536.817l-.38-.02c-.056-.07-.115-.14-.171-.213a.083.083 0 0 0 0-.025 2.232 2.232 0 0 0 .924-1.05c.146-.115.291-.23.437-.343.6.651 1.147-.025 1.711-.266a.116.116 0 0 0 .092-.038c.038-.038.026-.1-.036-.18l.023-.3c.439-.16.429-.859.723-1.193.255-.213.35.1.493.251a1.881 1.881 0 0 1 .769-.932c-.186-.04-.352-.08-.317-.118.008-.261.894-.3.766-.358l.008-.015c.049-.153-.771-.3-.932-.451a.735.735 0 0 0 .37-.06.455.455 0 0 1 .064-.256.648.648 0 0 0 .1-.391.042.042 0 0 0 .026-.058c.194-.078.309-.4.409-.774.186-.346.444.078.638-.173a3.616 3.616 0 0 0-.406-2.157c.212-.666-.033-1.461.373-2.072l.215-.018c.237-.215.5-.418.217-.832-.508-.431-1.034-.138-1.558.01-.005-.1 0-.2 0-.306a.054.054 0 0 0 0-.02c.332-.1.506-.616.82-.759-.205-.362.988-.838.916-1.254zM3.839 6.547a.033.033 0 0 1 .015 0v.038a4.452 4.452 0 0 0-.871-.546 1.014 1.014 0 0 0 .393-.676.192.192 0 0 0 .186.053l.087-.04c.305.249.264.7.19 1.171zm.156-1.438L4 5.1a.434.434 0 0 0 .04-.27.35.35 0 0 0 .066.055c.439.05.587-.486.825-.837.01.038.023.075.033.115l-.054.606c-.246.743-.53 1.131-.915.34zm.875 1.405c.26.07.255.476.273.854a3.013 3.013 0 0 0-.273-.854zm-2.362 6.469a.936.936 0 0 0-.327-.283c.018-.058.036-.115.051-.175l.031.123a.409.409 0 0 0 .355.073 1.544 1.544 0 0 0-.11.262zm.48 38.067c.02-.033.043-.065.064-.1.015.065.031.13.049.193a1.356 1.356 0 0 0-.113-.093zm2.265-24.012l-.038-.005a.724.724 0 0 1 .312-.4c.018.033.033.065.051.1a2.564 2.564 0 0 0 .273.348.644.644 0 0 1-.598-.043zm1.361-23.7a.676.676 0 0 0 .069.1c-.158.1-.286.293-.46.366a.333.333 0 0 1-.312-.163.808.808 0 0 0-.146-.223c.248-.1.511-.155.592-.594a.257.257 0 0 0 .34.05.584.584 0 0 0-.082.461zm2.324.18A.33.33 0 0 0 9.02 3.4c.153.155.312.3.506.263a1.666 1.666 0 0 0-.337.433.971.971 0 0 0-.251-.581zm.592 57.577a.39.39 0 0 0-.355-.241.736.736 0 0 1 .049-.338.851.851 0 0 1 .14.1.94.94 0 0 0 .345.208 2.448 2.448 0 0 0-.178.268zM10.884 3.4c-.01.02-.015.043-.026.065-.046-.158-.059-.336-.1-.494a.009.009 0 0 0 0-.005c.026-.013.049-.025.074-.04a.334.334 0 0 1 .005.05.889.889 0 0 0 .1.346.598.598 0 0 0-.053.078zm22.127-.453a.072.072 0 0 0 .005-.023.419.419 0 0 1 .128.213 1.942 1.942 0 0 1-.133-.191zm1.744-.489c0 .01-.008.02-.01.03a.389.389 0 0 0-.036-.073.516.516 0 0 1 .059-.045l-.013.088zm14.111.586a.92.92 0 0 0 .041-.11c0 .033.015.05.046.048.123-.013-.036.107-.087.062zm22.909 58.115c-.245-.09-.506-.113-.756-.178a1.293 1.293 0 0 0 .475-.248.264.264 0 0 0 .02-.028c.092.113.181.225.273.341a.846.846 0 0 0-.012.113zm2.615-.433a3.274 3.274 0 0 1 .03-.726 1.319 1.319 0 0 0 .324.243.8.8 0 0 0-.354.483zm4.425-1.734l-.1-.035a1.539 1.539 0 0 0-.054-.3 1.491 1.491 0 0 1 .158.338s-.001-.003-.004-.003zm15.648.519a1.011 1.011 0 0 0 .013-.428.44.44 0 0 0 .335.178c-.111.092-.23.165-.347.25zm3.218.323a.009.009 0 0 1 0 .005c-.11-.035-.22-.07-.332-.1a.627.627 0 0 1 .608-.133.7.7 0 0 0-.276.228zm40.771-17.265a.91.91 0 0 0-.079.581l-.043-.013a1.748 1.748 0 0 0-.069-.551 1.47 1.47 0 0 0 .186-.1.169.169 0 0 0 .031.065c-.008.008-.016.011-.026.018zm2.526 16.959c-.212-.045-.363-.256-.536-.4a.334.334 0 0 0 .092-.293c.135.008.273-.025.406-.02a1.214 1.214 0 0 0 .049.714zm3.046-16.977c-.013-.02-.026-.04-.038-.063.036-.02.074-.043.112-.063a1.017 1.017 0 0 0-.074.127zm.278 15.23a1.574 1.574 0 0 0 .082-.225 2.02 2.02 0 0 0 .286.18 2.267 2.267 0 0 1-.37.046zm.038-15.488l.059-.023a1.723 1.723 0 0 0 .281.023c-.11.073-.227.007-.34.001zm1.287-18.568a.8.8 0 0 1-.212-.14.668.668 0 0 0 .22-.13q-.008.121-.008.271zm.96 19.011l.015-.03c.089.043.209-.045.3-.043a.378.378 0 0 1-.314.074zm.112-26.8c-.031-.08-.013-.153.176-.19.023-.005.046-.013.066-.018a.672.672 0 0 0-.241.211zm1.657 40.567l-.038-.115a.622.622 0 0 0 .064.02c-.007.036-.017.064-.025.099zm.11-2.648c.209-.1.225-.328.235-.564a.288.288 0 0 0 .309-.008.192.192 0 0 0-.02.028 1.119 1.119 0 0 0 .005.8c-.283-.02-.508.143-.669.5-.29-.311.052-.511.141-.752zm.815-11.164a.947.947 0 0 0-.184-.386l.161.03a1.306 1.306 0 0 1 .243.025.725.725 0 0 0-.219.335zm3.195-8.764a.456.456 0 0 1 .1.306 1.851 1.851 0 0 0-.1-.302zm1.154-2.711c.041-.451.314-.649.511-.935.031.175.059.353.089.529a1.182 1.182 0 0 0-.092.145 2.806 2.806 0 0 0-.135.336c-.008.023-.015.045-.026.07-.119.009-.232-.089-.347-.141z" class="cls-1" data-name="Path 3447"/><path id="Path_3448" d="M596.47 157.97c.06.12.12.21.17.3-.19-.09-.32-.19-.17-.3z" class="cls-1" data-name="Path 3448" transform="translate(-451.145 -118.519)"/><path id="Path_3449" d="M9.62 152.91a1.3 1.3 0 0 1-1.65.28c.18.5 3.97 1.01 7.56 1.52-.24-.15-.51-.3-.8-.45-2.78-.46-5.26-.91-5.11-1.35z" class="cls-1" data-name="Path 3449" transform="translate(0 -115.425)"/><path id="Path_3450" d="M467.29 237.28c-.01 0-.01-.01-.02-.02a.01.01 0 0 0 .01-.01.078.078 0 0 1 .01.03z" class="cls-1" data-name="Path 3450" transform="translate(-346.409 -189.998)"/><path id="Path_3451" d="M15.26 169.44c.01-.03.02-.06.03-.1 0 .04.01.07.01.11-.01 0-.02-.01-.04-.01z" class="cls-1" data-name="Path 3451" transform="translate(0 -126.954)"/><path id="Path_3452" d="M10.67 176.17v.05a.176.176 0 0 0-.04-.05c.02 0 .03-.01.04 0z" class="cls-1" data-name="Path 3452" transform="translate(0 -132.041)"/><path id="Path_3453" d="M22.01 156.14c0-.01-.01-.02-.01-.03a.037.037 0 0 1 .01.03z" class="cls-1" data-name="Path 3453" transform="translate(0 -116.997)"/><path id="Path_3454" d="M388.73 5.09c.02 0 .04.01.06.01a.176.176 0 0 0-.05.04.109.109 0 0 0-.01-.05z" class="cls-1" data-name="Path 3454" transform="translate(-288.204)"/><path id="Path_3456" d="M181.24 228.51c0-.01.01-.03.01-.04.02-.02.02-.04.04-.06.04-.05.07-.1.11-.15-.05.09-.1.19-.15.28a.037.037 0 0 1-.01-.03z" class="cls-1" data-name="Path 3456" transform="translate(-134.395 -193.87)"/><path id="Path_3457" d="M155.14 4.53v-.01z" class="cls-1" data-name="Path 3457" transform="translate(-115.012)"/><path id="Path_3458" d="M29.6 180.37a.423.423 0 0 1 .05.07v.05c-.03-.03-.05-.07-.08-.1a.124.124 0 0 1 .03-.02z" class="cls-1" data-name="Path 3458" transform="translate(0 -135.228)"/><path id="Path_3459" d="M26.6 26.19c0 .03.01.05.01.08l-.09.03a.444.444 0 0 1 .08-.11z" class="cls-1" data-name="Path 3459" transform="translate(0 11.478)"/><path id="Path_3460" d="M26.23 208.48l.03-.03c0 .02.01.05.01.07-.01-.02-.03-.03-.04-.04z" class="cls-1" data-name="Path 3460" transform="translate(0 -204.378)"/><path id="Path_3461" d="M224.13 241.53h.02a.037.037 0 0 1-.01.03c0-.01-.01-.02-.01-.03z" class="cls-1" data-name="Path 3461" transform="translate(-166.16 -185.505)"/><path id="Path_3462" d="M230.42 224.88a.06.06 0 0 0 .01-.04v.01a.783.783 0 0 0 .14-.05 2.333 2.333 0 0 1-.07.25c-.02-.06-.04-.12-.07-.19 0 .01 0 .01-.01.02z" class="cls-1" data-name="Path 3462" transform="translate(-170.86 -195.398)"/><path id="Path_3463" d="M285.26 239.79c.01.01.02.03.03.04-.03.05-.06.09-.09.14a.635.635 0 0 1 .06-.18z" class="cls-1" data-name="Path 3463" transform="translate(-211.458 -185.505)"/><path id="Path_3464" d="M334.06 236.39c.01 0 .03-.01.04-.01a.5.5 0 0 0-.02.12c0 .06-.01.12-.01.18a1.086 1.086 0 0 0 .01-.18.359.359 0 0 1-.02-.11z" class="cls-1" data-name="Path 3464" transform="translate(-247.664 -190.29)"/><path id="Path_3465" d="M47.42 8.38c0-.01-.01-.01 0 0-.01-.01 0-.01 0-.02z" class="cls-1" data-name="Path 3465" transform="translate(-5.698)"/><path id="Path_3467" d="M15.35 118.73l-.06-.06.06-.03a.27.27 0 0 0 0 .09z" class="cls-1" data-name="Path 3467" transform="translate(0 -88.937)"/><path id="Path_3468" d="M542.1 232.36a1.219 1.219 0 0 1-.14.15v-.04c.05-.03.09-.08.14-.11z" class="cls-1" data-name="Path 3468" transform="translate(-443.153 -192.103)"/><path id="Path_3469" d="M558.05 212.48v-.01z" class="cls-1" data-name="Path 3469" transform="translate(-445.075 -204.378)"/><path id="Path_3470" d="M574.48 42.79c0-.01 0-.01.01-.01a1.016 1.016 0 0 1 .04.14c-.02-.05-.03-.09-.05-.13z" class="cls-1" data-name="Path 3470" transform="translate(-449.219 18.873)"/><path id="Path_3471" d="M574.56 43a3.534 3.534 0 0 0 .19.39.035.035 0 0 0-.02.01c-.06-.13-.12-.27-.17-.4z" class="cls-1" data-name="Path 3471" transform="translate(-449.23 18.645)"/><path id="Path_3472" d="M564.37 173.65a.755.755 0 0 1-.1.24 2.44 2.44 0 0 0 .1-.24z" class="cls-1" data-name="Path 3472" transform="translate(-445.832 -130.253)"/><path id="Path_3473" d="M556.88 208.32v-.02c0 .01.01.01.01.02 0-.01-.01 0-.01 0z" class="cls-1" data-name="Path 3473" transform="translate(-444.936 -204.378)"/><path id="Path_3474" d="M588.36 153.86c.01.01.01.01.01.02a.031.031 0 0 0-.01-.02z" class="cls-1" data-name="Path 3474" transform="translate(-451.145 -115.306)"/><path id="Path_3475" d="M574.47 42.72v.05a.035.035 0 0 0-.01-.02v-.05a.035.035 0 0 0 .01.02z" class="cls-1" data-name="Path 3475" transform="translate(-449.216 18.873)"/><path id="Path_3476" d="M573.5 224.79c.01-.02.02-.05.03-.07l.03.13c-.03-.02-.05-.03-.06-.06z" class="cls-1" data-name="Path 3476" transform="translate(-449.164 -195.458)"/><path id="Path_3477" d="M522.26 233.73c.05-.08.1-.15.16-.23l.04.04-.15.3a.371.371 0 0 1-.05-.11z" class="cls-1" data-name="Path 3477" transform="translate(-440.788 -191.546)"/><path id="Path_3478" d="M596.06 159.49c-.17.3-.35.59-.53.88a2.328 2.328 0 0 1 .53-.88z" class="cls-1" data-name="Path 3478" transform="translate(-451.145 -119.942)"/><path id="Path_3480" d="M11.49 104.05c.95-2.34 3.03-.32 4.25-2.18-1.24-.99-2.24-1.78-3.23-2.57-1.33.28-2.48.92-2.67 3.18-.15 1.9.85 1.56 1.65 1.57z" class="cls-1" data-name="Path 3480" transform="translate(0 -75.873)"/><path id="Path_3481" d="M531.26 240.14c-.39 2.09-2.57 4.54.35 5.95 3.14-2.65 2.46-4.52-.35-5.95z" class="cls-1" data-name="Path 3481" transform="translate(-441.964 -185.505)"/><path id="Path_3482" d="M4 56.67c-.75-.14-1.09.32-1 1.41v2.17c1.22 1.62 2.64 1.26 4.1.53l-.08-.07c.42-3.56-.46-5.09-3.02-4.04z" class="cls-1" data-name="Path 3482" transform="translate(0 -43.102)"/><path id="Path_3483" d="M572.35 241.74c-.78 1.1-.01 2.17.75 2.8l.3-.25.32.15c.49-1.33 1.99.18 2.3-1.85-1.16-.9-2.27-2.82-3.67-.85z" class="cls-1" data-name="Path 3483" transform="translate(-447.145 -185.505)"/><path id="Path_3484" d="M3.62 125.15a2.9 2.9 0 0 0 1.36-2.81c-.03-.94-.3-1.44-.96-1.44a3.034 3.034 0 0 0-1.53 2.67c-.04 1.1.17 2.13 1.13 1.58z" class="cls-1" data-name="Path 3484" transform="translate(0 -92.239)"/><path id="Path_3485" d="M3.61 185.09c-.16-.48-.41-.54-.72-.24-.84 1.24-1.88 2.4-1.65 4.31.04.33 1.04.74 1.42.49 1.5-.98.72-2.99.95-4.56z" class="cls-1" data-name="Path 3485" transform="translate(0 -141.27)"/><path id="Path_3486" d="M523.61 242c-.31 1.23.79 1.23 1.48 1.22.75-1.13 1.5-2.25 2.25-3.38-1.62-.78-3.1-.37-3.73 2.16z" class="cls-1" data-name="Path 3486" transform="translate(-441.175 -185.505)"/><path id="Path_3487" d="M5.79 206.39c.19 2.08 1.42 2.56 2.5 3.26.16-.73.33-1.46.49-2.19-.92-.64-1.7-2-2.99-1.07z" class="cls-1" data-name="Path 3487" transform="translate(0 -204.378)"/><path id="Path_3488" d="M596.5 171.75c-1.19 3.44-.24 4.23 1.99 3.41-.12-1.81-.49-3.31-1.99-3.41z" class="cls-1" data-name="Path 3488" transform="translate(-451.145 -130.66)"/><path id="Path_3489" d="M13.05 93.69c.11-.87-.01-1.6-.74-1.61-.68-.01-1.53-.04-1.59 1.27-.02.53.64 1.07.87 1.42.82.13 1.33-.05 1.46-1.08z" class="cls-1" data-name="Path 3489" transform="translate(0 -69.769)"/><path id="Path_3490" d="M5.92 157.78c-.24-.43-.47-.85-.71-1.28-.66.1-1.52-.24-1.63 1.25a1.921 1.921 0 0 0 1.15 2.07c1.01.29.95-1.16 1.19-2.04z" class="cls-1" data-name="Path 3490" transform="translate(0 -118.888)"/><path id="Path_3491" d="M603.09 81.8c.49-.67 1.45-1.52 1.38-1.97-.21-1.39-1.38-.38-2.01-.98-2.17 2.21-.48 2.43.63 2.95z" class="cls-1" data-name="Path 3491" transform="translate(-451.145 -59.8)"/><path id="Path_3492" d="M514.96 8.73c.51-.12 1.19.01 1.49-.41.52-.74.11-1.68-.44-1.71-1.14-.07-2.41-1.3-3.42.74.96-.09 1.98-.36 2.37 1.38z" class="cls-1" data-name="Path 3492" transform="translate(-439.847)"/><path id="Path_3493" d="M13.92 217.03c.53.62-.74 2.54.78 2.44.44-1.23 2.33-.24 1.96-2.08-.4-1.93-1.82-.01-2.74-.36z" class="cls-1" data-name="Path 3493" transform="translate(0 -198.682)"/><path id="Path_3494" d="M606.85 144.1c-.11 2.3 1.08.87 1.71 1.07 0-.66.01-1.31.01-1.97-.72-.38-1.61-1.36-1.72.9z" class="cls-1" data-name="Path 3494" transform="translate(-451.145 -108.113)"/><path id="Path_3495" d="M230.44 224.85h-.01v.01h.01z" class="cls-1" data-name="Path 3495" transform="translate(-170.828 -195.426)"/><path id="Path_3496" d="M581.09 235.26c.06.61.12 1.21.19 1.82 1.16-.46 2.32-.91 3.49-1.37l.04-.03c-1.51-2.72-2.6-1.42-3.72-.42z" class="cls-1" data-name="Path 3496" transform="translate(-451.145 -190.427)"/><path id="Path_3497" d="M38.06 5.73c1.27.13 2.26-.99 2.3-3.16-1.04-.01-2.09-.03-3.13-.04-.16 1.36-.39 3.07.83 3.2z" class="cls-1" data-name="Path 3497" transform="translate(-4.541)"/><path id="Path_3498" d="M504.93 247.55c-.17-.47-1.08-.43-3.41-.33a2.626 2.626 0 0 0 .09.3z" class="cls-1" data-name="Path 3498" transform="translate(-438.451 -185.505)"/></g></svg>