<svg xmlns="http://www.w3.org/2000/svg" width="192.549" height="62.045" viewBox="0 0 192.549 62.045"><defs><style>.cls-1{fill:#fae9e2}</style></defs><g id="Group_652" data-name="Group 652" transform="translate(.006)"><path id="Path_3441" d="M558.75 244.67l-.01.01v.01z" class="cls-1" data-name="Path 3441" transform="translate(-419.819 -185.505)"/><path id="Path_3442" d="M30.43 237.9v-.02c-.01 0-.01-.01-.02-.01z" class="cls-1" data-name="Path 3442" transform="translate(0 -189.727)"/><path id="Path_3443" d="M480.33 247.35a4.345 4.345 0 0 0-.41-1.73c-2.14-2.56-4.17.62-6.27.76-.01.32-.04.59-.07.85-.06-.06-.11-.12-.17-.18-.29-.11-.57-.22-.86-.33a2.441 2.441 0 0 0-.51.58q4.14.015 8.29.05z" class="cls-1" data-name="Path 3443" transform="translate(-327.151 -185.505)"/><path id="Path_3444" d="M605.1 131.61a1.479 1.479 0 0 1 .08.13c.02.02.04.03.06.05z" class="cls-1" data-name="Path 3444" transform="translate(-416.027 -98.696)"/><path id="Path_3445" d="M598.17 169.05c1.2-.19 1.34-2.17 2.03-3.26a12.278 12.278 0 0 1-2.78 1.17c.17.8-.2 2.24.75 2.09z" class="cls-1" data-name="Path 3445" transform="translate(-416.027 -125.901)"/><path id="Path_3446" d="M599.82 57.92c-1.05-.5-2.76-2.26-3.6 1.1l-.07-.1a.168.168 0 0 1-.04.13c2.42-.5 4.18-.9 3.71-1.13z" class="cls-1" data-name="Path 3446" transform="translate(-416.027 -43.078)"/><path id="Path_3447" d="M189.821 30.661a.279.279 0 0 0-.244-.083c.072-.351-.022-.531-.276-.551.113-.168.241-.333-.006-.534h-.1l-.038-.105a.863.863 0 0 0-.53-.348h-.019a.972.972 0 0 1 .379-.859 1.658 1.658 0 0 0-.389-1.253c0-.248-.025-.479-.251-.584-.122-.509.285-.681.5-.95.454-.554.36-.817-.254-.869a3.438 3.438 0 0 1-1.269 1.253c.031-.273.191-.584-.141-.754l-.009-.015a.736.736 0 0 0 .335-.564.881.881 0 0 1 .081-1.223c-.091-.208-.316-.243-.426-.423a1.113 1.113 0 0 1-.241-.421c-.047-.13 1.824-.268 1.824-.408.006-.088.016-.175.022-.263a.153.153 0 0 0-.028-.015v-.038a.524.524 0 0 0-.157-.316l.006.018c-.42-.546-.219-1.305-.41-1.929a.876.876 0 0 0-.332-.937c-.21-.962-.821-.456-1.313-.388a1.383 1.383 0 0 0-.586-.742.18.18 0 0 0-.047-.188l-.091-.045v-.115c-.282-.609-.9-.228-1.291-.511-.978-.118-1.015-.153-.946-1a7.645 7.645 0 0 0 2.362-.368c.013-.018.028-.03.041-.05a.72.72 0 0 0 .013-.075 35.8 35.8 0 0 1-1.708.225c.467-.108 1.1-.215 1.714-.316 0-.233-.166-.348-.338-.458-.172-.025-.194-.168-.182-.333-.6-.258-1.62.07-1.407-1.32 0-.2-.009-.4-.012-.606a.464.464 0 0 0-.332-.23c.116-.208.235-.413.351-.621a.681.681 0 0 0-.721-.12c-.58.263-.777.163-.805-.1a1.868 1.868 0 0 1 .288-.712c.053-.138.3-.293-.009-.4-.185-.16-.132-.386-.1-.606-.15-.421.016-.935-.232-1.328l-.047-.073.226-.19a.913.913 0 0 0-.232-.734.905.905 0 0 0-.589.6.844.844 0 0 1-.4-.09c.461-.556.1-1.117-.022-1.676-.4-.261-.786-.579-1.253-.065-.348-.12-.736.223-1.072-.05-.288-.418-.592-.243-.9-.053.426-.381 1.307-.476.7-1.506-.58.286-1.187-.99-1.751.16a.725.725 0 0 0 .034.381 1.605 1.605 0 0 0-.633-.243.579.579 0 0 0 .078-.769l-1.021-.068c-.069-.04-.141-.078-.21-.118l-.57.055c-.31.148-.166.291-.072.433-.047.035-.1.07-.147.1-.548-.8-1.363-.413-2.074-.486-.034.038-.066.075-.1.108a.452.452 0 0 0 .006-.266c-.185.1-.37.19-.555.283-.414-.511-1.119-.143-1.551-.6-.661-.782-5.765-.178-6.467.028-.088-.01-.175-.023-.266-.033-.674-.579-1.595-.278-2.306-.724l-.019.023c-.592-.581-1.281.308-1.892-.038a18.835 18.835 0 0 0-2.35.353c-.486.17-.78-.581-1.3-.278l-.235-.386c-.623-.463-1.25.3-1.874.125l.019.06c-.091-.078-.185-.158-.276-.238l-.58.12a.082.082 0 0 1-.025-.018c-.047-.013-.094-.025-.141-.04l-.285.068a.185.185 0 0 1-.022-.2c-.285-.516-.523-.1-.774.1l-.266.015a.632.632 0 0 0-.517-.16 1.372 1.372 0 0 0-.191.088c-.241-.291-.417-.874-.865-.218a.105.105 0 0 1-.013-.018c-.514.273-1.053-.341-1.563.16-.2.03-.457-.133-.558.248a4.557 4.557 0 0 1-1.814-.073.767.767 0 0 1-.357.1c-.219-.874-1-.591-1.548-.794-.16.386-.273.839-.771.749-.185-.115-.063-.534-.288-.606a.045.045 0 0 0 0-.02c-.081-.2-.194-.348-.417-.308l-.06.1-.1-.018c-1.372-.574-2.738-.03-4.1.291l-.257-.055c-.248-.428-.514-.4-.8.01-.37.453-.674.291-1.078.048-.351-.21-.417-.884-.962-.734-.085-.058-.172-.113-.257-.17-.454.19-.981.12-1.36.571a.428.428 0 0 0-.056.043 1.878 1.878 0 0 0-.166-.02.724.724 0 0 0-.232-.732.187.187 0 0 0-.025-.013.307.307 0 0 0-.128-.21l-1.02.006a.893.893 0 0 0 .016.1.382.382 0 0 1-.154-.1l-1.6.01c.006.015.016.028.022.043-.182.571-.52.461-.862.336a2.524 2.524 0 0 1-.219-.271c-.038-.033-.075-.065-.11-.1-.323 0-.645.005-.965.005l-.008.068c-.085.088-.163.18-.238.276-.385.251-.8 0-1.187.1-.069-.06-.135-.123-.2-.183a.24.24 0 0 1-.222-.251h-.407c-.5.366-1 .784-1.648.491a.719.719 0 0 0-.044-.138c-.486-.075-.636.594-.974.852a1.136 1.136 0 0 1-.276-.18 1.272 1.272 0 0 0-.608-.3c0-.276.125-.393.42-.411.429-.025.414-.153.31-.3l-1.316.008c0 .023 0 .043-.006.065a.474.474 0 0 0-.185.055.984.984 0 0 1-1.056.313 1.184 1.184 0 0 1-.019-.428l-1.422.005a1.489 1.489 0 0 0 .555.649.333.333 0 0 0-.034.028l-.642-.033a.179.179 0 0 0-.053-.048c.056-.323-.009-.524-.213-.594h-.376a1.448 1.448 0 0 1-.6 0L113.903.5a2.521 2.521 0 0 1-.316.21 13.308 13.308 0 0 1-.269-.13 1.624 1.624 0 0 0-.226-.068v.002Q105.754.54 98.43.549 90.506.56 82.585.576c-.072.155-.157.288-.329.253a.961.961 0 0 0 .069-.251h-5.123a.394.394 0 0 0-.002.061 1.327 1.327 0 0 0-.454.281c-.041.038-.081.075-.119.113A.522.522 0 0 1 76.453.9c.019-.048.038-.1.06-.145a1.181 1.181 0 0 0 .041-.175h-1.7a1.065 1.065 0 0 1-.072.178.781.781 0 0 0-.06-.138.633.633 0 0 0 .1-.04Q73 .581 71.18.576a.651.651 0 0 0-.053.1l-.1-.1q-2.077 0-4.158-.01h-.009L65.619.561c-.263.228-.511.12-.761-.005-.392 0-.783-.005-1.175-.005-.129.049-.258.09-.383.149a.012.012 0 0 0-.006 0l-.079-.109a.233.233 0 0 0 .031-.043L62.16.544l-.075.481a.321.321 0 0 0-.241.035A3.181 3.181 0 0 0 62 .544Q54.568.5 47.139.388q-4.1-.064-8.2-.14a.445.445 0 0 1-.335.1.5.5 0 0 0-.05-.028.766.766 0 0 1 .022-.08L33.963.158l-.009.015V.158L31.892.12a1.07 1.07 0 0 0-.2.075c-.009.015-.013.03-.022.048a.933.933 0 0 1-.251-.13L30.5.1a.875.875 0 0 0-.009.276 1.293 1.293 0 0 1 .561.894l-.034-.023a.516.516 0 0 0-.348.078c.044-.358-.188-.564-.338-.812A3.091 3.091 0 0 1 30.075.1l-2.24-.037a2.69 2.69 0 0 0-.627.437A.137.137 0 0 0 27 .441c-.464.185-.987-.013-1.419.386l-.7-.356-.772-.441a.623.623 0 0 0-.078-.03h-.3a.678.678 0 0 0-.367.366q-.244.718-.483 1.436a.325.325 0 0 0 .056.078.135.135 0 0 1-.056-.078l-.5-.053v.1a.627.627 0 0 0-.063-.023c.022-.025.041-.05.063-.073.3-1.315-.746-.676-1.125-1.007a1.328 1.328 0 0 0-.166-.068l-.465-.192c-.429 0-.9-.336-1.313.276.88.135.88.135 1 .924l-.05.311c-.451.646-.649-.133-.978-.168a3.3 3.3 0 0 0-1-1.25l-.259-.251c-.282.185-.564.371-.846.559a46.687 46.687 0 0 0-.492-.426c-.921.208-.222.511-.063.782a.6.6 0 0 0-.053.083.58.58 0 0 0-.034.125c-.392-.028-.724-.5-1.169-.145a.531.531 0 0 0-.295-.539A1.071 1.071 0 0 1 14 1.052c-.028.165-.06.331-.088.5-.26-.083-.486-.456-.774-.205-.238.208.019.514 0 .782a1.193 1.193 0 0 0 .038.238c-.078.085-.154.173-.232.258-.022-.015-.041-.033-.066-.048-.207-.038-.608.085-.244-.416a20.335 20.335 0 0 1-2.247-.438 1.337 1.337 0 0 0-1.473.228c.025.143.05.288.078.431a.687.687 0 0 1-.078-.431L8.7 1.909l-.291.213c-.219-.263-.432-.549-.824-.331-.1.105-.2.21-.307.313-.492-.058-.733.463-1.1.694-.724-.416-1.175.078-1.582.724-.119.005-.185.073-.191.213 0 .01.009.02.013.03-.332.1-.667.19-1 .283l-.32.564c.5.97-.085.95-.661.955-.4 0-.959-.556-1.031.471-.11.243.84.656-.172.8-.561.08-.32.5-.025.754.326.04.4.94.921.311a2.654 2.654 0 0 0 .555-1 1.814 1.814 0 0 0 .125.188c.041.045.081.088.125.13a.773.773 0 0 0 .639.524l.266-.188.26.163c.379.208.5-.125.649-.393.166.236.5.248.649.5a1.361 1.361 0 0 1-.016.3c-.439.261-.047.6-.11.9.611.762.526-.461.874-.456l1.335.967c-.934-.451-4.882.559-5.132 1l-1.419.055c.323.321-.094.935.3 1.233a.246.246 0 0 0 .263.09c.157.691.683-.263.918.188-.232.328-.47.666-.708 1.007.022.3.094.561.382.636.445.561.627-.238.937-.368v.021c.034.356-.085.714-.056 1.07-.154.251.041.749-.389.8-.3.266.389.674-.141.907a.2.2 0 0 0-.078.283l-.063.03c-.125.393-.081.712.26.9.517-.261.815.411 1.291.331.169.075.263.185.116.4a.367.367 0 0 0 .1.313c-.1.293-.323.576-.085.9.009.035.038.078.028.108a1.38 1.38 0 0 1-.081.193.442.442 0 0 0 .257.659c.232.08.376-.118.47-.356a1.207 1.207 0 0 0 .824-.594c.132-.14.257-.15.376-.008a1.8 1.8 0 0 0 .1.158c-.479.163-1.244.143-.5 1.107.6.291 1.191-.411 1.786-.11l-.338.824-1.2-.04c-.135.2-.269.391-.4.589l1.291.1c-.119.516.608.727.461 1.253-.4-.363-.793-.709-1.109.233-.194.464-.661.253-.921.549.182.769-.476 1.814.461 2.34a.538.538 0 0 0 .307-.153l.019-.025.32.972a2.26 2.26 0 0 0-.116 1.22.64.64 0 0 0 .15.391l-.254.747a.657.657 0 0 0-.746-.336l-.273.028c-.041-.416.222-.909-.169-1.24l-.633.879a1.108 1.108 0 0 1-.815.338l-.312.24a1.167 1.167 0 0 0-.1.919l.273.338c.078.105.16.21.238.318.2.909-1.028.3-.906 1.122a.343.343 0 0 1-.182.053c-.047.163-.1.326-.144.486v.008a.992.992 0 0 0-.1-.04.429.429 0 0 0-.157.06.538.538 0 0 0-.752.005c.022.511.157.919.664.977.044.4.548.5.457.985l-.577.8c-.088.225.034.321.172.411.426.762 1.037.418 1.62.263a1.054 1.054 0 0 0 .476-.494 2.9 2.9 0 0 1-.542.9c-.483.509-.915 1.183-1.676.767-.564.268 1.736.882 2.883 1.363a7.228 7.228 0 0 1 2.268.443 8.3 8.3 0 0 0-2.018-.331c.316.153.464.288.285.383-.279 1.137-.743.22-1.125.205-.3-.281-.523-.058-.746.2.345.13-.15.859.417.834-.028.155-.06.311-.088.464-.285.241-.47-.358-.755-.105-.122-.06-.21-.018-.266.138-.432.479-1.144-.98-1.281.158-.141 1.183 1.955 1.1 1.4 1.471-.385.546-.539 1.032-.025 1.333-.269-.013-.573-.165-.743.271l.06.03v.078a3.366 3.366 0 0 1-.028.641c-.188-.323-.564-.331-.893-.413l-.3.366 1.147.338a2.936 2.936 0 0 1-.031.158 1.4 1.4 0 0 0-.009.278.442.442 0 0 0-.639-.153l-.028.005a1.189 1.189 0 0 0 .163.94c.166.556.677.649 1.009.982-.038.1-.072.2-.11.3a.4.4 0 0 1-.025.053c-.624-.008-1.783-.015-1.905-.023a.886.886 0 0 0 .78.1l.016.015a5.668 5.668 0 0 0-.959 1.85c.2.248-.614.8.154.874.363.461.727.919 1.235.644a.263.263 0 0 0-.038.286c.013.1.022.2.031.3l.248.22.768.11c.166.005.329.008.5.01 1.61.428-.677.942-.006 1.411.42-.12.68-.93 1.263-.589.357-.243.617-.747 1.115-.6.47.123.116.689.307.965a.631.631 0 0 0 .379.574l-.016-.008c.138.316 0 .814.436.935.088-.088.179-.173.266-.261.26.033.52.065.78.1-.194.388-.229.722.185.9-.113.2-.222.4-.335.6-.166.526.442.531.445.942.376.426.489-.509.83-.268.285.115.4-.108.392-.358a.528.528 0 0 0-.467-.546 1.16 1.16 0 0 0 .2-.231l.028-.058c.075 0 .15.005.222.01.009-.018.019-.035.028-.055a1.512 1.512 0 0 0 .034.474c.088.208.2.373.436.351.185.008-.05-.093.119-.05.013 0-.028.038-.113.1a.841.841 0 0 0-.191 1.037c.1.541.815.025.865.646-.432.073-.953-.093-1.156.616-.2.511.479.443.407.872.266.085.269.321.216.584.232.416.6.313.953.271a1 1 0 0 1 .269-.02c.013.363-.345.722-.3 1.085l.122.043.128-.03a.493.493 0 0 1 .1.1q8.281.023 16.559.04 16.379.03 32.758.043c.006-.038.016-.075.022-.113a.008.008 0 0 0 0 .008.939.939 0 0 0 .06.105l12.743.015c-.028-.383.5-.546.542-.887.448.085.652.514.924.844-.006.015-.009.03-.016.043h.313a.019.019 0 0 0 0-.013.237.237 0 0 0-.06-.045.518.518 0 0 0 .163-.06.324.324 0 0 1-.053.118q8.906.011 17.816.025c.135-.333.6-.521.545-.935a.45.45 0 0 0 .389.08.018.018 0 0 1-.006.01c-.1.471-.511.591-.8.844q2.641 0 5.283.01c.034-.148-.053-.261-.389-.293-.269-.028-.592.173-.73-.263a1.182 1.182 0 0 0 .094-.251l.78-.3c.276-.058.749-.251.8-.15.533 1.085 1.037.273 1.551-.08.348-.271.661-1.022 1.084-.3a.7.7 0 0 0-.216.426l.031.085-.053.075c.307.363.849.308 1.093.779.229-.16.457-.323.683-.484.467.283.758.048.943-.486 0-.018-.009-.035-.013-.053l.464-.073a.4.4 0 0 0 .232.073.91.91 0 0 1 .235.922c-.248.055-.545.04-.6.388 1.538 0 3.08.01 4.618.013a.822.822 0 0 1 .815 0l1.595.005a3.519 3.519 0 0 1 .432-.639c.708-.138 1.423.256 2.127-.175.125-.368-.016-.481-.207-.549a2 2 0 0 0 .6-.256c-.034.3-.091.6.154.834.016.561.288.732.739.616a.3.3 0 0 0 .21.088l-.009.1 5.887.018a.365.365 0 0 1-.016-.055l.755.025.013.033h.689c0-.008 0-.013-.006-.02-.1-.266-.222-.308-.351-.263a5.3 5.3 0 0 0 .721-.907h.06c-.081.889.257 1.2 1 .945l-.009.015c.031 0 .069-.023.107-.075a.1.1 0 0 0 .022-.08.735.735 0 0 0 .179-.028c.169-.123.332-.263.533-.143.244.19.47.223.664.028.013.028.028.055.041.08a.714.714 0 0 0 .627.246.564.564 0 0 0-.229.218h.727v-.12a.6.6 0 0 0-.332-.13 2 2 0 0 0 .342-.13c.279-.18.561-.358.84-.539a.574.574 0 0 0 .768.311l.263.078a.758.758 0 0 0 .664-.366c.009-.03.013-.055.019-.083l.354-.128c.047.03.094.055.141.08.05.073.1.148.154.22l.085.331a.874.874 0 0 0-.868.193 1.1 1.1 0 0 0-.448-.09c-.06.028-.116.058-.175.085a.256.256 0 0 1-.141.293c.686 0 1.375.005 2.062.01a.546.546 0 0 0 .016-.105c.2-.306 1.015.358.78-.646.492-.581 1.075-.055 1.595-.281l.291.4c-.085.22-.122.481-.376.546a.726.726 0 0 0-1.034-.05l-.028.138 3.306.015a2.442 2.442 0 0 1-1.1-.516.771.771 0 0 1 .273-.083l.066.035c.05.008.1.018.154.028.3.015.63.18.805-.308.081-.065.163-.13.241-.2.226.348.545.278.868.215.273.12.561.225.5.681a.7.7 0 0 0-.5.15l.993.005a1.07 1.07 0 0 1 .3-.491c.508.418 1.05-.366 1.557-.04a2.153 2.153 0 0 1-.2.539l2.228.013-.038-.073a4.653 4.653 0 0 0-.3-.752 1.906 1.906 0 0 0 .376.033c.558-.03.235-.188.047-.321a1.187 1.187 0 0 0 .088-.253.4.4 0 0 0 .414.125 1 1 0 0 0 .094-.045.3.3 0 0 0 0 .158.488.488 0 0 0-.166.15 1.8 1.8 0 0 0-.2.884.49.49 0 0 0 .006.068l-.056.028q1.072.008 2.143.013c-.389-.07-.793-.11-1.015-.509a1.006 1.006 0 0 0 1.3.228l.351-.271c.128-.088.254-.175.382-.261a1.064 1.064 0 0 0-.075.759c.009.023.022.043.031.063l1.219.008c-.022-.215.182-.426.805-1.072.122 1.077.179 1.077 1.357.03.069-.068.169-.163.157-.241-.188-.945.363-.058.464-.278.019-.013.028-.028.047-.04l.016.01.113.005c.091.213.207.6.414.413 1.125-1 1.162.108 1.4.849a.714.714 0 0 0 .771-.208.251.251 0 0 0-.009.165c.357.005 1.059-.484.8.4.47 0 .94.005 1.41.01a1.688 1.688 0 0 0 .2-.747c-.254-.17-.5-.363-.755-.519-.016-.248-.251-.5-.019-.674.389-.283.6.266.943.333a.788.788 0 0 0-.025.08c-.053.293-.069.571.169.759.36.5.9-.464 1.247.125l-.2.646c.523 0 1.043.005 1.567.01a1.2 1.2 0 0 1-.216-.584c.191-.471.038-.742-.348-.879H156a.732.732 0 0 0 .135-.271.847.847 0 0 0 .229.19 1.934 1.934 0 0 0 .442.747l1.385-.3a.961.961 0 0 0 .038-.163c.812.1 1.153-.762 1.7-1.2l.085.218c-.42.541-1.178.656-1.379 1.476.185.331.674-.16.8.343l.492-.008c-.085-.656.492-.975.639-1.513l.31-.3.868.083c.542.388.671-.474 1.065-.529.1.053.194.1.295.153.1-.619.633.148.777-.313.41-.1.733.078 1.172.609a.563.563 0 0 0 .608.135l.241-.1a5.963 5.963 0 0 1 1.968-.769.45.45 0 0 0 .11-.236.7.7 0 0 0 .6.22.911.911 0 0 0 .163-.045c.132.115.26.233.389.348-.019.033-.041.065-.063.1a.625.625 0 0 0 .019.356.452.452 0 0 1 .063.133.272.272 0 0 1-.009.143c-.448.163-.965.1-1.316.594-.235.336-.442.7-.216 1.1a.506.506 0 0 0 .815.125c.5-.448 1.238-.205 1.651-.869.075-.383.351-.256.551-.316l.244.1c.257.388.511.529.755 0 .019.04.041.078.06.113.633-.185.511.566.783.827a.151.151 0 0 1 .15.1.2.2 0 0 0 .244.045.291.291 0 0 1 .1-.118l.066.023h.072a.852.852 0 0 0 .15.128c.295-.043.37-.534.7-.5l.116-.363.175.253a.548.548 0 0 0 .8 0 1.3 1.3 0 0 1 .376-.867c.072-.008.144-.018.216-.028.019-.105.038-.21.06-.313-.182-.2-.345-.448-.623-.388a.837.837 0 0 0-.05-.3c-.016-.023-.034-.043-.053-.065.1-.138.2-.276.307-.413l.022.008a1.618 1.618 0 0 0 .467 0l1.191.05a1.232 1.232 0 0 0-.044.514 1.134 1.134 0 0 0 .038.118l-.464.238c-.025.18-.125.461-.063.521.288.281.548-.008.805-.2.085-.028.119-.08.107-.153.188.008.354-.408.548-.118.147.135.295.271.445.406.1-.208.2-.416.307-.621.633-.215.548-.694.382-1.2l.608-.884c.235-.028.479-.075.567.271.013.193.069.218.175.05.094-.015.185-.033.279-.048a.632.632 0 0 0 .8.12l.57-.2.771-.589c.2.326.5.318.818.288l.52.065c.15.218.3.436.454.654-.473.323-.363.6.009.859a.494.494 0 0 1 .157-.04l.4-.762c.172-.123.341-.248.514-.371.169-.4 1.3.586.808-.767l-.633-.03a.322.322 0 0 0-.251.183c-.273.078-.786.739-.608-.263.288.118.432-.065.514-.373a2.2 2.2 0 0 1 .4-1.125c0-.241.2-.724-.313-.336-.6.448-.345 1.23-.611 1.806l-.542.015c-.216-.135-.2-.371-.175-.614.445-.386.721-.927.229-1.323-.389-.311-.577.469-.915.659-.119.068-.163.341-.238.519h-.664l.047-.616a1.918 1.918 0 0 0 .655-1.473c.191-.413.558-.443.874-.581.429.163.692-.065.858-.524.078-.023.157-.048.232-.075.038-.228.063-.463.3-.554.1-.028.138-.088.11-.183a.493.493 0 0 0 .232.048c.583-.323.523-.809.316-1.333-.4-.013-.79-.01-.912.591-.122.246-.191.546-.483.611-.172.1-.345.2-.52.291-.3-.128-.291-.391-.2-.691l.539-.574c-.088-.316-.175-.629-.3-1.085-.251.694-.8.965-.79 1.6-.727-.083-.342-.922-.627-1.308.743-.519-.213-1.654.671-2.122l.279.12.116-.05.119.018.182-.9a.218.218 0 0 1-.063-.251.768.768 0 0 0-.827-.266.841.841 0 0 0-.169.258.284.284 0 0 1-.034-.115l.022-.023a.286.286 0 0 0 .066-.223c.041-.063.085-.125.125-.19a1.167 1.167 0 0 0 .382-.5c-.2-.777-.385-1.568-1.112-1.919-.5-.01-.558.423-.658.817l-.467-.02c-.069-.07-.141-.14-.21-.213a.069.069 0 0 0 0-.025 2.46 2.46 0 0 0 1.134-1.05c.179-.115.357-.23.536-.343.733.651 1.407-.025 2.1-.266a.16.16 0 0 0 .113-.038c.047-.038.031-.1-.044-.18l.028-.3c.539-.16.526-.859.887-1.193.313-.213.429.1.6.251a2.015 2.015 0 0 1 .943-.932c-.229-.04-.432-.08-.389-.118.009-.261 1.1-.3.94-.358l.009-.015c.06-.153-.946-.3-1.144-.451a1.087 1.087 0 0 0 .454-.06.391.391 0 0 1 .078-.256.556.556 0 0 0 .119-.391c.038-.015.041-.035.031-.058.238-.078.379-.4.5-.774.229-.346.545.078.783-.173a3.058 3.058 0 0 0-.5-2.157c.26-.666-.041-1.461.457-2.072l.263-.018c.291-.215.608-.418.266-.832-.624-.431-1.269-.138-1.911.01-.006-.1 0-.2 0-.306a.045.045 0 0 0 0-.02c.407-.1.62-.616 1.006-.759-.229-.372 1.234-.848 1.15-1.264zM4.711 6.547a.049.049 0 0 1 .019 0v.038a5.769 5.769 0 0 0-1.068-.546 1 1 0 0 0 .483-.676.272.272 0 0 0 .229.053l.107-.04c.371.249.319.7.23 1.171zM4.9 5.109l.012-.009a.363.363 0 0 0 .047-.271.422.422 0 0 0 .081.055c.539.05.721-.486 1.012-.837.013.038.028.075.041.115l-.066.606c-.304.744-.651 1.132-1.127.341zm1.077 1.405c.32.07.313.476.335.854a2.638 2.638 0 0 0-.335-.854zm-2.9 6.469a1.116 1.116 0 0 0-.4-.283c.022-.058.044-.115.063-.175l.038.123a.6.6 0 0 0 .436.073 1.4 1.4 0 0 0-.135.262zm.591 38.067c.025-.033.053-.065.078-.1.019.065.038.13.06.193a1.616 1.616 0 0 0-.138-.093zm2.779-24.012l-.047-.005a.774.774 0 0 1 .382-.4c.022.033.041.065.063.1a2.723 2.723 0 0 0 .335.348.948.948 0 0 1-.733-.043zm1.67-23.7a.7.7 0 0 0 .085.1 4.255 4.255 0 0 1-.564.366.441.441 0 0 1-.382-.163.815.815 0 0 0-.179-.223c.3-.1.627-.155.727-.594a.367.367 0 0 0 .417.05.5.5 0 0 0-.104.461zm2.851.18a.345.345 0 0 0 .1-.11.821.821 0 0 0 .62.263 1.767 1.767 0 0 0-.414.433.9.9 0 0 0-.305-.589zm.732 57.574a.488.488 0 0 0-.436-.241.614.614 0 0 1 .06-.338 1.07 1.07 0 0 1 .172.1 1.228 1.228 0 0 0 .423.208 2.469 2.469 0 0 0-.219.271zM13.356 3.4c-.013.02-.019.043-.031.065-.056-.158-.072-.336-.128-.494v-.005c.031-.013.06-.025.091-.04a.274.274 0 0 1 .006.05.771.771 0 0 0 .122.346c-.022.028-.041.05-.06.078zm27.15-.453a.061.061 0 0 0 .006-.023.414.414 0 0 1 .157.213 1.991 1.991 0 0 1-.163-.191zm2.14-.489c0 .01-.009.02-.013.03a.366.366 0 0 0-.044-.073.637.637 0 0 1 .072-.045l-.015.088zm17.314.586a.82.82 0 0 0 .05-.11.046.046 0 0 0 .056.048c.151-.013-.043.107-.106.062zm28.108 58.115c-.3-.09-.62-.113-.927-.178a1.737 1.737 0 0 0 .583-.248.275.275 0 0 0 .025-.028c.113.113.222.225.335.341a.7.7 0 0 0-.016.113zm3.208-.433a2.676 2.676 0 0 1 .038-.726 1.637 1.637 0 0 0 .4.243.838.838 0 0 0-.437.483zm5.43-1.734l-.122-.035a1.285 1.285 0 0 0-.066-.3 1.387 1.387 0 0 1 .194.338s-.002-.003-.005-.003zm19.2.519a.829.829 0 0 0 .016-.428.586.586 0 0 0 .41.178c-.132.092-.28.165-.425.25zm3.948.323v.005c-.135-.035-.269-.07-.407-.1a.9.9 0 0 1 .746-.133.842.842 0 0 0-.338.228zm50.025-17.265a.761.761 0 0 0-.1.581l-.053-.013a1.446 1.446 0 0 0-.085-.551 1.975 1.975 0 0 0 .229-.1.158.158 0 0 0 .038.065c-.008.008-.015.011-.027.018zm3.1 16.959a1.791 1.791 0 0 1-.658-.4.3.3 0 0 0 .113-.293c.166.008.335-.025.5-.02a1 1 0 0 0 .06.714zm3.738-16.977a1.148 1.148 0 0 1-.047-.063c.044-.02.091-.043.138-.063a1 1 0 0 0-.091.127zm.341 15.23a1.4 1.4 0 0 0 .1-.225 2.615 2.615 0 0 0 .351.18 3.385 3.385 0 0 1-.45.046zm.047-15.488l.072-.023a2.583 2.583 0 0 0 .345.023c-.134.073-.278.007-.416.001zm1.579-18.568a1.02 1.02 0 0 1-.26-.14.875.875 0 0 0 .269-.13q-.008.121-.008.271zm1.178 19.011l.019-.03c.11.043.257-.045.367-.043a.546.546 0 0 1-.385.074zm.138-26.8c-.038-.08-.016-.153.216-.19.028-.005.056-.013.081-.018a.8.8 0 0 0-.297.211zm2.033 40.567l-.047-.115a.744.744 0 0 0 .078.02c-.007.036-.02.064-.029.099zm.135-2.648c.257-.1.276-.328.288-.564a.422.422 0 0 0 .379-.008.2.2 0 0 0-.025.028.927.927 0 0 0 .006.8.843.843 0 0 0-.821.5c-.355-.311.065-.511.174-.752zm1-11.164a.89.89 0 0 0-.226-.386l.2.03a1.954 1.954 0 0 1 .3.025.735.735 0 0 0-.273.335zm3.92-8.764a.4.4 0 0 1 .122.306 1.62 1.62 0 0 0-.121-.302zm1.412-2.707c.05-.451.385-.649.627-.935.038.175.072.353.11.529a1.18 1.18 0 0 0-.113.145 2.534 2.534 0 0 0-.166.336 1.01 1.01 0 0 1-.031.07 1.2 1.2 0 0 1-.427-.145z" class="cls-1" data-name="Path 3447"/><path id="Path_3448" d="M596.47 157.97c.06.12.12.21.17.3-.19-.09-.32-.19-.17-.3z" class="cls-1" data-name="Path 3448" transform="translate(-416.027 -118.519)"/><path id="Path_3449" d="M9.62 152.91a1.3 1.3 0 0 1-1.65.28c.18.5 3.97 1.01 7.56 1.52-.24-.15-.51-.3-.8-.45-2.78-.46-5.26-.91-5.11-1.35z" class="cls-1" data-name="Path 3449" transform="translate(0 -115.425)"/><path id="Path_3450" d="M467.29 237.28c-.01 0-.01-.01-.02-.02a.01.01 0 0 0 .01-.01.078.078 0 0 1 .01.03z" class="cls-1" data-name="Path 3450" transform="translate(-319.444 -189.998)"/><path id="Path_3451" d="M15.26 169.44c.01-.03.02-.06.03-.1 0 .04.01.07.01.11-.01 0-.02-.01-.04-.01z" class="cls-1" data-name="Path 3451" transform="translate(0 -126.954)"/><path id="Path_3452" d="M10.67 176.17v.05a.176.176 0 0 0-.04-.05c.02 0 .03-.01.04 0z" class="cls-1" data-name="Path 3452" transform="translate(0 -132.041)"/><path id="Path_3453" d="M22.01 156.14c0-.01-.01-.02-.01-.03a.037.037 0 0 1 .01.03z" class="cls-1" data-name="Path 3453" transform="translate(0 -116.997)"/><path id="Path_3454" d="M388.73 5.09c.02 0 .04.01.06.01a.176.176 0 0 0-.05.04.109.109 0 0 0-.01-.05z" class="cls-1" data-name="Path 3454" transform="translate(-265.769)"/><path id="Path_3456" d="M181.24 228.51c0-.01.01-.03.01-.04.02-.02.02-.04.04-.06.04-.05.07-.1.11-.15-.05.09-.1.19-.15.28a.037.037 0 0 1-.01-.03z" class="cls-1" data-name="Path 3456" transform="translate(-123.934 -193.87)"/><path id="Path_3457" d="M155.14 4.53v-.01z" class="cls-1" data-name="Path 3457" transform="translate(-106.059)"/><path id="Path_3458" d="M29.6 180.37a.423.423 0 0 1 .05.07v.05c-.03-.03-.05-.07-.08-.1a.124.124 0 0 1 .03-.02z" class="cls-1" data-name="Path 3458" transform="translate(0 -135.228)"/><path id="Path_3459" d="M26.6 26.19c0 .03.01.05.01.08l-.09.03a.444.444 0 0 1 .08-.11z" class="cls-1" data-name="Path 3459" transform="translate(0 11.478)"/><path id="Path_3460" d="M26.23 208.48l.03-.03c0 .02.01.05.01.07-.01-.02-.03-.03-.04-.04z" class="cls-1" data-name="Path 3460" transform="translate(0 -204.378)"/><path id="Path_3461" d="M224.13 241.53h.02a.037.037 0 0 1-.01.03c0-.01-.01-.02-.01-.03z" class="cls-1" data-name="Path 3461" transform="translate(-153.226 -185.505)"/><path id="Path_3462" d="M230.42 224.88a.06.06 0 0 0 .01-.04v.01a.783.783 0 0 0 .14-.05 2.333 2.333 0 0 1-.07.25c-.02-.06-.04-.12-.07-.19 0 .01 0 .01-.01.02z" class="cls-1" data-name="Path 3462" transform="translate(-157.56 -195.398)"/><path id="Path_3463" d="M285.26 239.79c.01.01.02.03.03.04-.03.05-.06.09-.09.14a.635.635 0 0 1 .06-.18z" class="cls-1" data-name="Path 3463" transform="translate(-194.998 -185.505)"/><path id="Path_3464" d="M334.06 236.39c.01 0 .03-.01.04-.01a.5.5 0 0 0-.02.12c0 .06-.01.12-.01.18a1.086 1.086 0 0 0 .01-.18.359.359 0 0 1-.02-.11z" class="cls-1" data-name="Path 3464" transform="translate(-228.385 -190.29)"/><path id="Path_3465" d="M47.42 8.38c0-.01-.01-.01 0 0-.01-.01 0-.01 0-.02z" class="cls-1" data-name="Path 3465" transform="translate(3.61)"/><path id="Path_3467" d="M15.35 118.73l-.06-.06.06-.03a.27.27 0 0 0 0 .09z" class="cls-1" data-name="Path 3467" transform="translate(0 -88.937)"/><path id="Path_3468" d="M542.1 232.36a1.219 1.219 0 0 1-.14.15v-.04c.05-.03.09-.08.14-.11z" class="cls-1" data-name="Path 3468" transform="translate(-421.09 -192.103)"/><path id="Path_3469" d="M558.05 212.48v-.01z" class="cls-1" data-name="Path 3469" transform="translate(-419.872 -204.378)"/><path id="Path_3470" d="M574.48 42.79c0-.01 0-.01.01-.01a1.016 1.016 0 0 1 .04.14c-.02-.05-.03-.09-.05-.13z" class="cls-1" data-name="Path 3470" transform="translate(-421.266 18.873)"/><path id="Path_3471" d="M574.56 43a3.534 3.534 0 0 0 .19.39.035.035 0 0 0-.02.01c-.06-.13-.12-.27-.17-.4z" class="cls-1" data-name="Path 3471" transform="translate(-421.237 18.645)"/><path id="Path_3472" d="M564.37 173.65a.755.755 0 0 1-.1.24 2.44 2.44 0 0 0 .1-.24z" class="cls-1" data-name="Path 3472" transform="translate(-419.393 -130.253)"/><path id="Path_3473" d="M556.88 208.32v-.02c0 .01.01.01.01.02 0-.01-.01 0-.01 0z" class="cls-1" data-name="Path 3473" transform="translate(-419.961 -204.378)"/><path id="Path_3474" d="M588.36 153.86c.01.01.01.01.01.02a.031.031 0 0 0-.01-.02z" class="cls-1" data-name="Path 3474" transform="translate(-416.027 -115.306)"/><path id="Path_3475" d="M574.47 42.72v.05a.035.035 0 0 0-.01-.02v-.05a.035.035 0 0 0 .01.02z" class="cls-1" data-name="Path 3475" transform="translate(-421.274 18.873)"/><path id="Path_3476" d="M573.5 224.79c.01-.02.02-.05.03-.07l.03.13c-.03-.02-.05-.03-.06-.06z" class="cls-1" data-name="Path 3476" transform="translate(-421.416 -195.458)"/><path id="Path_3477" d="M522.26 233.73c.05-.08.1-.15.16-.23l.04.04-.15.3a.371.371 0 0 1-.05-.11z" class="cls-1" data-name="Path 3477" transform="translate(-422.589 -191.546)"/><path id="Path_3478" d="M596.06 159.49c-.17.3-.35.59-.53.88a2.328 2.328 0 0 1 .53-.88z" class="cls-1" data-name="Path 3478" transform="translate(-416.027 -119.942)"/><path id="Path_3480" d="M11.49 104.05c.95-2.34 3.03-.32 4.25-2.18-1.24-.99-2.24-1.78-3.23-2.57-1.33.28-2.48.92-2.67 3.18-.15 1.9.85 1.56 1.65 1.57z" class="cls-1" data-name="Path 3480" transform="translate(0 -75.873)"/><path id="Path_3481" d="M531.26 240.14c-.39 2.09-2.57 4.54.35 5.95 3.14-2.65 2.46-4.52-.35-5.95z" class="cls-1" data-name="Path 3481" transform="translate(-421.843 -185.505)"/><path id="Path_3482" d="M4 56.67c-.75-.14-1.09.32-1 1.41v2.17c1.22 1.62 2.64 1.26 4.1.53l-.08-.07c.42-3.56-.46-5.09-3.02-4.04z" class="cls-1" data-name="Path 3482" transform="translate(0 -43.102)"/><path id="Path_3483" d="M572.35 241.74c-.78 1.1-.01 2.17.75 2.8l.3-.25.32.15c.49-1.33 1.99.18 2.3-1.85-1.16-.9-2.27-2.82-3.67-.85z" class="cls-1" data-name="Path 3483" transform="translate(-418.561 -185.505)"/><path id="Path_3484" d="M3.62 125.15a2.9 2.9 0 0 0 1.36-2.81c-.03-.94-.3-1.44-.96-1.44a3.034 3.034 0 0 0-1.53 2.67c-.04 1.1.17 2.13 1.13 1.58z" class="cls-1" data-name="Path 3484" transform="translate(0 -92.239)"/><path id="Path_3485" d="M3.61 185.09c-.16-.48-.41-.54-.72-.24-.84 1.24-1.88 2.4-1.65 4.31.04.33 1.04.74 1.42.49 1.5-.98.72-2.99.95-4.56z" class="cls-1" data-name="Path 3485" transform="translate(0 -141.27)"/><path id="Path_3486" d="M523.61 242c-.31 1.23.79 1.23 1.48 1.22.75-1.13 1.5-2.25 2.25-3.38-1.62-.78-3.1-.37-3.73 2.16z" class="cls-1" data-name="Path 3486" transform="translate(-422.344 -185.505)"/><path id="Path_3487" d="M5.79 206.39c.19 2.08 1.42 2.56 2.5 3.26.16-.73.33-1.46.49-2.19-.92-.64-1.7-2-2.99-1.07z" class="cls-1" data-name="Path 3487" transform="translate(0 -204.378)"/><path id="Path_3488" d="M596.5 171.75c-1.19 3.44-.24 4.23 1.99 3.41-.12-1.81-.49-3.31-1.99-3.41z" class="cls-1" data-name="Path 3488" transform="translate(-416.027 -130.66)"/><path id="Path_3489" d="M13.05 93.69c.11-.87-.01-1.6-.74-1.61-.68-.01-1.53-.04-1.59 1.27-.02.53.64 1.07.87 1.42.82.13 1.33-.05 1.46-1.08z" class="cls-1" data-name="Path 3489" transform="translate(0 -69.769)"/><path id="Path_3490" d="M5.92 157.78c-.24-.43-.47-.85-.71-1.28-.66.1-1.52-.24-1.63 1.25a1.921 1.921 0 0 0 1.15 2.07c1.01.29.95-1.16 1.19-2.04z" class="cls-1" data-name="Path 3490" transform="translate(0 -118.888)"/><path id="Path_3491" d="M603.09 81.8c.49-.67 1.45-1.52 1.38-1.97-.21-1.39-1.38-.38-2.01-.98-2.17 2.21-.48 2.43.63 2.95z" class="cls-1" data-name="Path 3491" transform="translate(-416.027 -59.8)"/><path id="Path_3492" d="M514.96 8.73c.51-.12 1.19.01 1.49-.41.52-.74.11-1.68-.44-1.71-1.14-.07-2.41-1.3-3.42.74.96-.09 1.98-.36 2.37 1.38z" class="cls-1" data-name="Path 3492" transform="translate(-423.185)"/><path id="Path_3493" d="M13.92 217.03c.53.62-.74 2.54.78 2.44.44-1.23 2.33-.24 1.96-2.08-.4-1.93-1.82-.01-2.74-.36z" class="cls-1" data-name="Path 3493" transform="translate(0 -198.682)"/><path id="Path_3494" d="M606.85 144.1c-.11 2.3 1.08.87 1.71 1.07 0-.66.01-1.31.01-1.97-.72-.38-1.61-1.36-1.72.9z" class="cls-1" data-name="Path 3494" transform="translate(-416.027 -108.113)"/><path id="Path_3495" d="M230.44 224.85h-.01v.01h.01z" class="cls-1" data-name="Path 3495" transform="translate(-157.53 -195.426)"/><path id="Path_3496" d="M581.09 235.26c.06.61.12 1.21.19 1.82 1.16-.46 2.32-.91 3.49-1.37l.04-.03c-1.51-2.72-2.6-1.42-3.72-.42z" class="cls-1" data-name="Path 3496" transform="translate(-416.027 -190.427)"/><path id="Path_3497" d="M38.06 5.73c1.27.13 2.26-.99 2.3-3.16-1.04-.01-2.09-.03-3.13-.04-.16 1.36-.39 3.07.83 3.2z" class="cls-1" data-name="Path 3497" transform="translate(2.877)"/><path id="Path_3498" d="M504.93 247.55c-.17-.47-1.08-.43-3.41-.33a2.626 2.626 0 0 0 .09.3z" class="cls-1" data-name="Path 3498" transform="translate(-424.069 -185.505)"/></g></svg>