<svg xmlns="http://www.w3.org/2000/svg" width="15" height="15" viewBox="0 0 15 15">
    <path fill-rule="evenodd" d="M8.6.001c1.074.004 1.366.016 1.992.044.799.037 1.344.163 1.82.349.494.191.912.448 1.33.865.416.417.673.835.864 1.328.186.477.312 1.022.349 1.82.036.8.045 1.056.045 3.093v.256c0 1.804-.01 2.071-.045 2.836-.037.799-.163 1.344-.349 1.82-.191.494-.448.912-.865 1.33-.417.416-.835.673-1.328.864-.477.186-1.022.312-1.82.349-.8.036-1.056.045-3.093.045h-.256c-1.804 0-2.071-.01-2.836-.045-.799-.037-1.344-.163-1.82-.349-.494-.191-.912-.448-1.33-.865-.416-.417-.673-.835-.864-1.328-.186-.477-.312-1.022-.349-1.82-.028-.627-.04-.92-.044-1.993V6.4c.004-1.074.016-1.366.044-1.992.037-.799.163-1.344.349-1.82.191-.494.448-.912.865-1.33.417-.416.835-.673 1.328-.864C3.064.208 3.61.082 4.407.045c.627-.028.92-.04 1.993-.044zm-.401 1.35H6.8c-1.375.003-1.644.013-2.332.044-.73.033-1.128.156-1.392.258-.35.136-.6.299-.863.561-.262.263-.425.513-.56.863-.103.264-.226.661-.259 1.392-.031.688-.041.957-.043 2.332V8.2c.002 1.375.012 1.644.043 2.332.033.73.156 1.128.258 1.392.136.35.299.6.561.863.263.262.513.425.863.56.264.103.661.226 1.392.259.688.031.957.041 2.332.043H8.2c1.375-.002 1.644-.012 2.332-.043.73-.033 1.128-.156 1.392-.258.35-.136.6-.299.863-.561.262-.263.425-.513.56-.863.103-.264.226-.661.259-1.392.031-.688.041-.957.043-2.332V6.8c-.002-1.375-.012-1.644-.043-2.332-.033-.73-.156-1.128-.258-1.392-.136-.35-.299-.6-.561-.863-.263-.262-.513-.425-.863-.56-.264-.103-.661-.226-1.392-.259-.688-.031-.957-.041-2.332-.043zM7.5 3.65c2.127 0 3.851 1.724 3.851 3.851S9.627 11.351 7.5 11.351 3.649 9.627 3.649 7.5 5.373 3.649 7.5 3.649zM7.5 5C6.12 5 5 6.12 5 7.5S6.12 10 7.5 10 10 8.88 10 7.5 8.88 5 7.5 5zm4.004-2.404c.497 0 .9.403.9.9 0 .498-.403.9-.9.9-.498 0-.9-.402-.9-.9 0-.497.402-.9.9-.9z"/>
</svg>
