<svg xmlns="http://www.w3.org/2000/svg" viewBox="0 0 14.3 14.3"><defs></defs><g id="Layer_2" data-name="Layer 2"><g id="图层_1" data-name="图层 1"><path d="M0,12.54V1.75c0-.1,0-.19.05-.29A1.78,1.78,0,0,1,1.89,0H12.42a1.86,1.86,0,0,1,.84.17,1.79,1.79,0,0,1,1,1.73V12.06c0,.2,0,.39,0,.59a1.75,1.75,0,0,1-1.4,1.59l-.33.06H9.84c0-.06,0-.12,0-.18V9.55c0-.12,0-.16.16-.16h1a.19.19,0,0,0,.23-.15L12,7.3s0-.1.05-.17H10c-.08,0-.15,0-.15-.11,0-.54,0-1.08,0-1.62,0-.32.11-.44.42-.45s.79,0,1.19,0h.16V2.68l0,0c-.73,0-1.46,0-2.18,0A2.65,2.65,0,0,0,7.14,5.28c0,.57,0,1.14,0,1.71,0,.11,0,.14-.15.14H5.36V9.39H7c.18,0,.18,0,.18.19v4.54a1.1,1.1,0,0,0,0,.18H1.76a.33.33,0,0,0-.13,0A1.74,1.74,0,0,1,.07,12.89C0,12.77,0,12.65,0,12.54Z"/></g></g></svg>