<svg xmlns="http://www.w3.org/2000/svg" viewBox="0 0 125.91 81.88"><g id="Layer_2" data-name="Layer 2"><g id="图层_1" data-name="图层 1"><path d="M78.76,0H0V65.06H8.67a20.15,20.15,0,0,1,40.24,0H77a20.06,20.06,0,0,1,3.55-10.38H78.76ZM13.05,33.56V21.13H46.52V13.72l19.2,13.62L46.52,41v-7.4Z"/><path d="M109.54,7.65H84.89V50.13a20.15,20.15,0,0,1,32.35,14.93h8.67V21.52Z"/><path d="M44.23,63.09a15.43,15.43,0,0,0-.49-1.89A15.76,15.76,0,0,0,32,50.71l-.77-.14a16,16,0,0,0-2.4-.18A15.66,15.66,0,0,0,18.71,54l-.53.46-.19.18a15.67,15.67,0,0,0-4.9,10.38c0,.36,0,.71,0,1.07a15.72,15.72,0,0,0,6.32,12.62,16.34,16.34,0,0,0,1.54,1c.34.2.69.39,1.05.56a16,16,0,0,0,2.11.84h0a15.75,15.75,0,0,0,20.42-15c0-.36,0-.71,0-1.07A14.15,14.15,0,0,0,44.23,63.09Z"/><path d="M107.92,54.68l-.19-.18L107.2,54a15.8,15.8,0,0,0-12.48-3.47l-.77.14A15.76,15.76,0,0,0,82.17,61.2a15.43,15.43,0,0,0-.49,1.89,14.15,14.15,0,0,0-.26,2c0,.36,0,.71,0,1.07a15.75,15.75,0,0,0,20.42,15h0c.37-.12.73-.25,1.09-.39s.59-.24.88-.38a.61.61,0,0,0,.14-.07,11.82,11.82,0,0,0,1.06-.56,17.75,17.75,0,0,0,1.54-1,15.72,15.72,0,0,0,6.32-12.62c0-.36,0-.71,0-1.07A15.67,15.67,0,0,0,107.92,54.68Z"/></g></g></svg>