<svg xmlns="http://www.w3.org/2000/svg" viewBox="0 0 30 30"><defs></defs><g id="Layer_2" data-name="Layer 2"><g id="图层_1" data-name="图层 1"><path d="M15.62,20H14.06v4.57L9.85,20l-1.1,1,6.14,6.6L21,21.06l-1.1-1-4.3,4.63Zm-1.56-2.81h1.56v1.56H14.06Zm0-14.07h1.56v1a2.61,2.61,0,0,1,1.93,2.51H16a1,1,0,0,0-1-1h-.11A1,1,0,0,0,15,7.66a2.6,2.6,0,0,1,.67,5.12v1H14.06v-1a2.61,2.61,0,0,1-1.72-2.45h1.57a1,1,0,0,0,2.07.11.41.41,0,0,0,0-.11,1,1,0,0,0-1-1,2.61,2.61,0,0,1-2.61-2.61h0a2.59,2.59,0,0,1,1.15-2.15,3.1,3.1,0,0,1,.57-.3ZM15,0A15,15,0,1,0,30,15,15,15,0,0,0,15,0Zm5.65,2.74v12H9.51v-12a13.48,13.48,0,0,1,11.14.07Zm1.51.83A13.49,13.49,0,1,1,8,3.47V16.23H22.16Z"/></g></g></svg>