<svg xmlns="http://www.w3.org/2000/svg" viewBox="0 0 125.91 113.05"><g id="Layer_2" data-name="Layer 2"><g id="图层_1" data-name="图层 1"><polygon points="111.81 47.41 111.81 94.54 111.81 96.18 111.81 99.2 125.91 99.2 125.91 47.41 111.81 47.41"/><rect y="47.41" width="14.1" height="51.8"/><path d="M100.5,98.73,71.94,70H66.67L66,71.29l-.27.51a20.85,20.85,0,0,1-24.89,10,4.41,4.41,0,0,1-2.56-6.18L50,52.47a10.69,10.69,0,0,1,9.58-5.89H77.73V38.12a5.47,5.47,0,0,0-5.47-5.47H42.88a7,7,0,0,0-6.28,3.89l-4,8.11a5,5,0,0,1-4.45,2.76H22.28V99.2h14a6.93,6.93,0,0,1,4.92,2l9,9.07a9.29,9.29,0,0,0,9.39,2.3l41.84-13.18a2.92,2.92,0,0,1-.37-.24A5.08,5.08,0,0,1,100.5,98.73Z"/><path d="M66,51h-6.4a6.34,6.34,0,0,0-4.18,1.58,4.89,4.89,0,0,0-.46.45,6.32,6.32,0,0,0-1,1.44L46.09,69.92l-3.92,7.73c.45.14.91.27,1.36.37.15,0,.3.06.45.09.31.07.61.13.92.17l.53.07c.28,0,.56.06.84.07s.37,0,.56,0h1.28q.49,0,1-.09c.1,0,.2,0,.3,0a12.73,12.73,0,0,0,1.26-.21L51,78l1-.25.4-.13c.29-.09.58-.19.86-.3l.37-.15c.39-.16.78-.33,1.16-.52h0c.38-.19.74-.4,1.11-.62l.33-.21.76-.52.34-.25c.26-.2.52-.41.77-.63l.24-.2q.48-.44.93-.9c.07-.08.13-.16.2-.23.23-.25.45-.5.66-.77l.27-.34c.19-.25.38-.51.55-.77l.23-.34c.24-.38.47-.76.69-1.16L64,65.54h9.75l29.85,30.08V51H66Z"/><path d="M63,18.24a3.15,3.15,0,0,0,3.15-3.15V3.15a3.15,3.15,0,1,0-6.29,0V15.09A3.14,3.14,0,0,0,63,18.24Z"/><path d="M37.13,21.79a3.15,3.15,0,1,0,4.45-4.45L33.14,8.9a3.15,3.15,0,1,0-4.45,4.45Z"/><path d="M86.55,22.72a3.14,3.14,0,0,0,2.23-.93l8.44-8.44A3.15,3.15,0,1,0,92.77,8.9l-8.45,8.44a3.16,3.16,0,0,0,2.23,5.38Z"/></g></g></svg>