<svg xmlns="http://www.w3.org/2000/svg" viewBox="0 0 14.31 14.3"><defs></defs><g id="Layer_2" data-name="Layer 2"><g id="图层_1" data-name="图层 1"><path d="M9,14.3H4.7l-.2,0c-.43,0-.86-.07-1.28-.15a3.63,3.63,0,0,1-3-2.76A8.92,8.92,0,0,1,0,9C0,7.77,0,6.52,0,5.28A11,11,0,0,1,.17,3.21,3.7,3.7,0,0,1,1.67.8,4.14,4.14,0,0,1,4,.05c1.51,0,3,0,4.52,0A15,15,0,0,1,11,.13a3.66,3.66,0,0,1,3.15,3,9.35,9.35,0,0,1,.17,1.75c0,.18,0,.36,0,.54V9c0,.17,0,.34,0,.5a7.87,7.87,0,0,1-.17,1.75,3.65,3.65,0,0,1-2.84,2.88,8.22,8.22,0,0,1-1.78.19Zm4-9a17,17,0,0,0-.13-1.89,2.24,2.24,0,0,0-1.76-1.95,5.92,5.92,0,0,0-1.25-.2c-1,0-2,0-3-.05l-2.14,0a6.75,6.75,0,0,0-1.55.16A2.27,2.27,0,0,0,1.53,3a6,6,0,0,0-.26,1.93c0,1.52,0,3,0,4.56a6.7,6.7,0,0,0,.14,1.34,2.36,2.36,0,0,0,2,2A9.61,9.61,0,0,0,4.86,13c1.35,0,2.71,0,4.06,0a14.69,14.69,0,0,0,1.87-.13A2.35,2.35,0,0,0,12.84,11,6.88,6.88,0,0,0,13,9.68C13,8.77,13,5.88,13,5.35Z"/><path d="M10.83,7.14A3.67,3.67,0,1,1,7.16,3.47,3.66,3.66,0,0,1,10.83,7.14ZM7.16,4.76A2.38,2.38,0,1,0,9.54,7.14,2.37,2.37,0,0,0,7.16,4.76Z"/><path d="M11.83,3.33a.84.84,0,0,1-.86.85.86.86,0,1,1,.86-.85Z"/></g></g></svg>