<svg xmlns="http://www.w3.org/2000/svg" viewBox="0 0 125.91 121.43"><g id="Layer_2" data-name="Layer 2"><g id="图层_1" data-name="图层 1"><path d="M27.25,21.31a8.2,8.2,0,0,0-3.9-1.09V0H16.83V23.3l0,0V40a1.64,1.64,0,0,0,0,.23v7.55A7.92,7.92,0,0,1,10.29,40V34.44L1.09,50.37a8.13,8.13,0,0,0,3,11.1L49.29,87.58,72.47,47.42Z"/><polygon points="75.62 49.24 52.44 89.4 68.73 114.68 105.66 50.71 75.62 49.24"/><path d="M114.29,93.38l-13.78-7.95a3.26,3.26,0,1,0-3.26,5.64L111,99a3.29,3.29,0,0,0,1.63.43,3.26,3.26,0,0,0,1.63-6.08Z"/><path d="M125.8,68.74a3.27,3.27,0,0,0-4-2.31l-15.38,4.12a3.26,3.26,0,0,0,.84,6.41,3.54,3.54,0,0,0,.85-.11l15.37-4.12A3.27,3.27,0,0,0,125.8,68.74Z"/><path d="M93.63,102a3.26,3.26,0,0,0-6.3,1.69L91.45,119a3.26,3.26,0,0,0,3.15,2.42,3.52,3.52,0,0,0,.84-.11,3.26,3.26,0,0,0,2.3-4Z"/></g></g></svg>