<svg xmlns="http://www.w3.org/2000/svg" viewBox="0 0 95.98 125.91"><g id="Layer_2" data-name="Layer 2"><g id="图层_1" data-name="图层 1"><path d="M27.76,94a8,8,0,0,1-1.94.25,7.66,7.66,0,0,1-7.38-5.64l-2.37-8.68-1.5-.41L0,114.69l16.75-2.15,10.32,13.37L39.85,95.05,36.47,91.7Z"/><path d="M80.42,79.92,78.05,88.6a7.66,7.66,0,0,1-7.37,5.64,8,8,0,0,1-2-.25L60,91.7l-4.28,4.23,12.42,30,10.32-13.37,16.75,2.15L80.79,79.82Z"/><path d="M95.73,46.56a2.82,2.82,0,0,0-.57-.85l-4.72-4.77-2.36-2.38a3,3,0,0,1-.62-.94,3,3,0,0,1-.12-1.84l2.55-9.73a2.87,2.87,0,0,0-1-3,3,3,0,0,0-1-.52l-9.7-2.64a2.88,2.88,0,0,1-1.25-.71l0,0,0,0a2,2,0,0,1-.24-.27,2.72,2.72,0,0,1-.48-1L73.47,8.14a3.84,3.84,0,0,0-.19-.51l-.09-.14A3.21,3.21,0,0,0,73,7.18L72.88,7l-.23-.24-.15-.12a1.71,1.71,0,0,0-.27-.2l-.15-.1-.39-.17-.08,0a4.05,4.05,0,0,0-.5-.12H71l-.28,0h-.23a3,3,0,0,0-.51.08L60.21,8.65h0l-.36.07h-.13l-.23,0h0A2.83,2.83,0,0,1,59,8.7l-.12,0a4,4,0,0,1-.46-.14h0a2.3,2.3,0,0,1-.44-.23l-.11-.07a2.37,2.37,0,0,1-.39-.32h0L56.54,7,50.28.84A2.84,2.84,0,0,0,48.34,0h-.09l-.19,0a2.87,2.87,0,0,0-1.85.82L39.05,7.91h0a3,3,0,0,1-.39.31l-.11.07a2.3,2.3,0,0,1-.44.23h0a4,4,0,0,1-.46.14l-.12,0a2.83,2.83,0,0,1-.5.05h0l-.24,0h-.13a2.45,2.45,0,0,1-.37-.08L31.42,7.38,26.55,6.1A3,3,0,0,0,26,6h-.22l-.29,0h-.15a4.05,4.05,0,0,0-.5.12l-.08,0-.39.17-.15.1a2.34,2.34,0,0,0-.27.2l-.15.12L23.62,7l-.13.15a3.21,3.21,0,0,0-.19.31,1,1,0,0,0-.08.14,2.85,2.85,0,0,0-.2.51l-2.64,9.71a3.1,3.1,0,0,1-.42.88,3,3,0,0,1-.32.39,3,3,0,0,1-1.3.76l-9.7,2.64a2.9,2.9,0,0,0-1.87,1.62,2.85,2.85,0,0,0-.25,1.42,2.09,2.09,0,0,0,.08.49l1.25,4.78,1.3,5a2.9,2.9,0,0,1-.24,2.09,3.37,3.37,0,0,1-.5.69L4.16,42.85,1.33,45.71a3.38,3.38,0,0,0-.45.62,2.87,2.87,0,0,0,.09,3,3.09,3.09,0,0,0,.36.45l3.54,3.58,3.54,3.58a3,3,0,0,1,.32.39,2.87,2.87,0,0,1,.5,1.88,2.74,2.74,0,0,1-.08.5L6.6,69.44a2.89,2.89,0,0,0,.71,2.74A2.89,2.89,0,0,0,8.64,73l7.77,2.12,1.93.53a2.83,2.83,0,0,1,1.29.74,3,3,0,0,1,.75,1.29L23,87.35a2.85,2.85,0,0,0,.2.51,1.09,1.09,0,0,0,.08.15,3,3,0,0,0,.19.3l.12.15a2.66,2.66,0,0,0,.23.24l.15.13a2.69,2.69,0,0,0,.27.2l.15.09a3.39,3.39,0,0,0,.39.18l.08,0a2.15,2.15,0,0,0,.5.12l.15,0,.29,0H26a3,3,0,0,0,.51-.09l9.73-2.55h0l.36-.07H37a2.83,2.83,0,0,1,.5,0l.12,0a2.69,2.69,0,0,1,.46.14h0a3.09,3.09,0,0,1,.44.24l.11.06a3,3,0,0,1,.39.32l2.76,2.73,4.4,4.35a2.88,2.88,0,0,0,2,.84,2.92,2.92,0,0,0,1.08-.21,2.82,2.82,0,0,0,1-.63l3.51-3.47,3.65-3.61a3,3,0,0,1,.39-.32l.11-.06a3.09,3.09,0,0,1,.44-.24h0a2.69,2.69,0,0,1,.46-.14l.12,0a2.83,2.83,0,0,1,.5,0h.37l.37.07,7,1.83,2.76.73a4.5,4.5,0,0,0,.51.08h.23l.28,0,.15,0a2.15,2.15,0,0,0,.5-.12l.08,0a3.39,3.39,0,0,0,.39-.18l.15-.09a2.69,2.69,0,0,0,.27-.2l.15-.13a2.66,2.66,0,0,0,.23-.24l.12-.15a3,3,0,0,0,.19-.3l.09-.15a4.29,4.29,0,0,0,.19-.5l1.32-4.86,1.33-4.85a2.88,2.88,0,0,1,.74-1.29,3.13,3.13,0,0,1,1.07-.67l.22-.07L79,75.4l4.73-1.29L87.85,73a2.87,2.87,0,0,0,2.06-2.18,2.94,2.94,0,0,0,0-1.35l-2.55-9.73a2.82,2.82,0,0,1-.09-.75,2.82,2.82,0,0,1,.38-1.42,2.62,2.62,0,0,1,.45-.6l3.22-3.26,3.86-3.9a2.83,2.83,0,0,0,.67-1.11A2.73,2.73,0,0,0,96,47.61,3,3,0,0,0,95.73,46.56Zm-21,18.57a31.69,31.69,0,0,1-25.8,14.28h-.66c-.64,0-1.27,0-1.9-.06A31.7,31.7,0,1,1,74.71,65.13Z"/><path d="M48.25,20.82a26.93,26.93,0,0,0,0,53.86,27.06,27.06,0,0,0,15.93-5.24A26.92,26.92,0,0,0,48.25,20.82Zm17.86,22.9-8,7.79a1.16,1.16,0,0,0-.34,1l1.89,11A1.18,1.18,0,0,1,58,64.8l-9.88-5.2a1.19,1.19,0,0,0-1.1,0L37.1,64.8a1.18,1.18,0,0,1-1.71-1.25l1.89-11a1.18,1.18,0,0,0-.34-1l-8-7.79a1.18,1.18,0,0,1,.65-2l11-1.61a1.15,1.15,0,0,0,.89-.64l4.94-10a1.18,1.18,0,0,1,2.12,0l4.94,10a1.15,1.15,0,0,0,.88.64l11,1.61A1.18,1.18,0,0,1,66.11,43.72Z"/></g></g></svg>