<svg xmlns="http://www.w3.org/2000/svg" viewBox="0 0 12.38 17.68"><g id="Layer_2" data-name="Layer 2"><g id="图层_1" data-name="图层 1"><path d="M10.08,9a8.36,8.36,0,0,0-1.37,1.29,2.67,2.67,0,0,0-.51,1.48H4v-.32a4.84,4.84,0,0,1,.38-2,4.76,4.76,0,0,1,.9-1.4A16.76,16.76,0,0,1,6.56,6.86a8.85,8.85,0,0,0,1.09-1A1.38,1.38,0,0,0,8,4.92a.87.87,0,0,0-.39-.76A2.08,2.08,0,0,0,6.48,3.9a2.18,2.18,0,0,0-1.76.7,2.64,2.64,0,0,0-.61,1.81H0c0-.11,0-.27,0-.49A6.22,6.22,0,0,1,.72,3,5.36,5.36,0,0,1,2.93.81,7.49,7.49,0,0,1,6.56,0,6.3,6.3,0,0,1,11,1.31a4.51,4.51,0,0,1,1.41,3.48,5,5,0,0,1-.32,1.9,3.93,3.93,0,0,1-.78,1.25A10.54,10.54,0,0,1,10.08,9ZM4,13.36H8.16v4.32H4Z"/></g></g></svg>