<svg xmlns="http://www.w3.org/2000/svg" viewBox="0 0 286.1 90.1"><path d="M263.3 6.3h-7.2c0-.1-.5-.1-.6-.2.3 0 1 0 1.4-.1-1.1-.1-4 .1-5.9-.1-.1.1-1 0-1.7 0-.9.2-5.1.2-6.7.2.1-.1 2.5 0 1.7-.1-.8 0-1.7 0-1.7-.1h1.7c-.9 0-2.7 0-2.3-.2-1.2 0 .4.1-.8.1h-.6c-.3-.1.2-.1.6-.2h2.1s0 .1.6.1c.3-.2-2.8-.1-3.2-.2-.6 0-.6.1-.7.1-.9-.1.7-.1 0-.2-1.2 0-2.5-.1-3.1-.1.3 0 .4 0 .6.1-.5 0-1.1.1-1.4 0h.8c-1.6-.1-4.1 0-5-.1-.7 0 .5.1-.3.1-1.6 0-1.5-.1-2.5-.1-.1 0 .3.2-.3.2-1 0-2.7.1-2.5-.1.3 0 2.1 0 1.4-.1-1.6.1-2.7 0-3.3.1-1.1 0 .2-.2-.9-.2-.4 0 0 .1-.5.1-.4-.1-3.3-.2-2-.1h-3.1s.1.1-.3.1c-4.7-.1-8.7 0-12.8 0-.1.1.4.1 0 .1-1.6 0-2.9-.1-3.9 0 0 0 .1-.1.3-.1-1.1.1-2.6 0-3.6-.1.8-.1 2.2 0 2.5-.2-1.9 0-2.7.3-5 .2-.4.1.7.1 0 .1h-1.7c0-.1-.8-.1-1.4-.2-2.2.1-4.4-.1-6.4.1-4.4-.1-10.9 0-14.5.1-.3-.1-1.6 0-1.4-.2-1.6.1-2.5-.1-3.6.1.3 0 .7 0 .6.1h-1.9s0-.1-.6-.1c-.9.2-3.1 0-4.5 0-.1.1.4.1.6.1-1.1 0-3.1 0-3.4-.1.7 0 1 .1 1.4 0-.4 0-.3-.1-.6-.1-3 .2-7.2.1-9.2.1-.7 0-1.1.1-1.4.1-.9 0-1.6-.1-3.1-.1h-1.1c-.3 0-3.2.1-3.9-.1-.1-.1 2.2 0 1.4-.1h-2.2c.2.2-1.4.1-1.9.1.9 0 2.1-.1 2.5-.2-1.7.1-4.9.2-4.7-.1h-.6c.6 0 .7-.1.9-.1h1.4c-.4 0-.7 0-.6-.1h-.4.4-2.4c-2.6 0-4.9-.2-7.4.1-.1-.1.3-.1.3-.1-.9 0-.8.1-1.9.1.1-.1-.3-.1-.3-.1-.7 0-1.5 0-1.9.1 1.2 0 1.8 0 2 .2-1.9 0-2.8.1-4.5-.1 1.1 0 .8-.1 1.9-.1-.2.4 0 .3-1 .3 0 0 .1.1-.3.1.2-.1-3.5-.2-5-.2-.3.1.7.1.6.2h-1.7c.6-.1.4-.1.3-.2-.9 0-.4.1-1.1.1 0-.1-1.5-.1-1.7-.2-1.2.1-1.6 0-1.4-.1-1.1.1-1.5.1-2.2.2-.5-.1 0 0 0-.1h-2c-.4 0-.7.1-1.1.1-.5-.1-1.1 0-.3-.1-3.1-.1-4.1.3-5.5.2-.2.2-1.4.1-2.5.1-.4.1.7.1 0 .1-.8-.1-1.4-.1-2.5 0-.3-.1.4-.1.5-.2-.6.1-1.5 0-1.7 0 .4 0 .7 0 .8.1-.7 0-.8.1-1.7 0V5c-2.3.2-5.6 0-6.7.2-.9 0-.6-.1-1.1-.1 0 0 .1.1.3.1-.7.1-4-.2-2.2 0-1.3 0-1.7-.1-2.5-.1.7 0 .7.1 0 .1.4 0 .2-.1-.6-.1-.3.1-.9.1-1.4.1.7-.1-1.3-.1-1.7 0h.6c-.6 0-2.1.1-2.5 0 .2 0 1.1 0 1.1-.1-.9-.1-1.2 0-2.2.1-.5-.2-2.8.1-3.1-.1 2.2.1 3.6-.3 5 0 0-.2 1-.1 2.2-.1h1.1c.4-.1-.7-.2-1.2-.1h.6c-1.2 0-.8 0-1.1.1-.3 0-1 0-.8-.1h.8c-1.1 0-1.7 0-2-.1-1.5.1-2.5 0-5.6 0-.3.1.5.1-.2.2h.4c0 .1-.7.1-1.4.1.4-.1-.1-.1.1-.1h-4c-1.8 0-3.5.1-5 .1-.6.1.5.2-.8.2-.7 0-.5-.1-.3-.2-2.5.1-4.2-.1-7 0-.7.2-2.4.1-4 .1.7 0 1.3.1 1.1.2H47c-1.2.1-4 .1-3.7-.1-1.5.1-2.8-.1-3.3.1-.3-.2-3.5-.2-5.3-.1H24.6c-3.4 0-6.8 0-9.6.1-.1 0-.1-.1-1-.1 0 .1.1.2-1.2.2-.4-.1 1.2-.1-.6-.1-.4.1-1.3.1-2.3 0-1 0 .7.1-.3.1-.9 0-1.6 0-1.9-.1 0 0 1.1 0 .8-.1-1.5 0-2 0-3.6.1v.4c.1 0 .1-.1.1-.4.5 0 1.1 0 1.4.1H5.1c.3 3.5.4 7.2.5 10.8 0 3.3.1 6.6.1 9.6-.1.2-.1-1.2-.1-.6.1 1.9.3 2.3.1 3.7 0 .7.2.7.2 1.1-.1.7.2 2.7-.1 3.5.2.1 0 1 .1 1.3-.2 0-.1.4 0 .6-.3.1-.1 1.1-.2 1.4.2.3.1.9 0 1.5.1.4.1-.3.1.2-.1 1 .1 2.4-.2 2.9.2.5.2 3.1 0 3.7.3.1.2 2.3.1 2.3.1.9.2 1.6.3 2.5-.1-.1-.1-.3-.2-.4 0 3.6.2 6.4 0 10.8.1 0 .1.1.1.4-.3 1.3.3 4.4-.3 4.5 0 1 .2.1.2.8V69c0 1.3 0 2.5-.1 3.5.3 1.9.3 2.8.4 5.2-.1.1-.1-.9-.1-.9 0 3 .1 4.5-.1 6.9.2-.3.2 1.5.3 1.6 0-1.7 0-3.8.3-4.8.1 1.3-.2 2 0 2.5.3-3.2 0-4.7 0-8.3.1 0 .1.1.1.3.1-1.2 0-2.5-.1-3.6 0-.7 0-1.5.1-2.2v-1.6c0-1 0-2-.1-3-.1-2-.1-4 .1-5.7-.2-.8-.2-2.2-.2-3.6 0 .3.1.4.1.8.1 1 0-1.5-.1-1.4V54c.2.3.1 2.2.3 2.5 0-.8-.1-3.8.1-4.3-.1 0-.2 0-.2-.4 0-.5.1-.4.1-.8-.3-.3-.1-3.5-.1-4.6 0 .1 0 .2-.1.2.1-.4-.2-1.6 0-2.3 0 .4 0 .7.1.8.2-.8-.2-.7-.1-1.5.1-.1.1.6.1.6-.1-1.6 0-4.6-.1-6-.1-.2 0 .6-.2.4 0-.3-.1-1 0-1s.1.3.1.4c0-3-.1-5.9 0-9.5.2-.5-.1-2.8 0-3.9.1-2.1-.1-5.8-.1-8.9v-9c1 0 2.4 0 2.6-.1-1.6 0-2.3 0-2.6.1v-.2c2.5 0 4.9 0 7.1-.1.1 0 .1.1 1 .1 0 0-.3-.1.3-.1 2.1 0 3.7.1 4.6.2.4-.1 1-.1 1.6-.2-.8 0-2.1.1-2.7 0 .8 0 .7-.1 2.2-.1 2 .2.9.1 3.7.1-.8 0-1.1 0-1.3.1 2-.1 5.2.1 7.1 0-2.3 0-3.1 0-4.9-.1 2.3 0 2.9 0 4.9-.1.4.1-1.3.1 0 .1h3.3c.9 0 1.9.1 2.8 0-.6 0-1.5 0-.8-.1.7 0 .9 0 1.4.1 1-.2 3.1 0 4.4-.1.7 0 .7.1.9.1.5-.1 3-.1 3.6-.1.1.1-1.3 0-1.4.1h.9-.2c.7 0 2.3.1 2-.1h-1.4c1.9 0 2.7-.1 3.8-.2.4 0 .4 0 .5.1h.3c0-.1 1.8-.1 3.1-.2-.1.1 0 .2-.3.2h-1.7c.8.1-.8.1-.8.2-.6 0-.6 0-.3-.1-2.1.1-4.6 0-6.7.1 0 0 .5-.1 0-.1.4.1-.9 0-.8.1.8.1-.6.1-1.1.2.3 0 .3-.1-.3-.1-.5.2-1.8 0-2.5.1h.8c-.3.1-.5.1-1.4.1.2 0 .3-.1 0-.1h.2c-.1 0 .5-.1-.4-.1v.1h-4.7c-.7 0 .8.2-.5.1 0 0-.1 0-.5-.1h-1.7c-1.3 0-2.7 0-2.9-.1-4 .1-5.8 0-9.1.1-.2-.1-2.7-.1-3.1 0 .7 0 2 .1.9.1-3-.1-6.2-.1-9.6-.1v8.7c0-.3 0-.5.1-.6v1.2c-.1 0-.1-.2-.1-.3.1 1.1-.2 2.6-.1 3.3 0-.9.1.5 0 .6.1.2.1.1.2.9v-1.2c.1 1.3.1 2.9.1 4.5 0 1.1-.1 2.2-.1 3.2.1.4.1-.1.2-.2v1.4c0-.5-.1-1.3-.2-.7.1.4.1.8.2 1.1V81h.8v1.5h1.2v2.6c3.3 0 6.4 0 8.3.1 3.1 0 7.2-.2 9.3 0 .8-.1 2.2-.1 3.5-.1H33c-.4 0 0-.1.3-.1 4.4.1 6.6-.2 11.7-.1-.2-.2-3.6.1-3.1-.2-2.8 0-3.6-.1-6.1-.1h.8-.6c1.3 0 2.1 0 2.5-.1-2 0-4.5.1-6.5-.1.7-.1 4.2 0 4.5-.1-.9 0-1.7-.1-2.5-.1h-3.1c1.2-.1-1.1 0-.8-.1H33.5c-.3 0-1-.1-.3-.1h1.9s-1.1.1-.3.1c1.1-.1 3.1-.2 3.9-.1.1-.1-.3-.1-.3-.1h1.7v.1c1.7-.1 2.5-.1 3.3-.2.9 0 4.3.1 4.7 0-1.5 0-3.5.1-4.5-.1H26.7c-1.8 0-4.5.1-5.4-.1 1.1.1 2.5-.1 3.6 0 .8 0-.4-.1.4-.1h12.2c3.6-.1 7.2-.1 10.9-.2 7.4-.1 14.9-.3 22.5-.2-.1-.3 4.2-.2 5.6-.1.7-.2 2.5 0 2.8-.1-.7-.1-2.6 0-2.8-.1.2-.1-.4-.2.3-.2 3.4-.1 5.3.2 7 .1-1 0-1.9-.1-3-.1h194.8v-39c0-.8.1-1.6 0-2.3v-5.5c.1-.2.1 1.2.3 1.3 0 3.2.8 0 1.1.5.2-.6.3-1.5.5-1.8 0 .7.1.6.1.2v.8c.3-.1.3.6.4-.2-.1-1.9 0-3.7.4-4.5 0 .3.1.1.1.6.2.2.1-1 .3-1-.1 1.3-.4 1.5-.5 2.7.1-.2.1.3.2.2 0-.4-.1-.4 0-.8.1.4.1-.4.3-.4 0-.8.1-.7.1-1.6-.1-.1-.2-1.1 0-1.4 0 1.2.1-.3.2.6.1-1.7.2-2.2.2-3.1 0 .4.1.7.2.9.1-.1.1-.3.2 0v.2c0-.5.1-.4.1-.6 0-1.2.2-2.1.3-3 0-.2.1-.5.1-.7 0-.2.1-.5.1-.9.1-.7.1-1.5.1-2.4.1.5.1 1.3.2 2.3v2.8c.1.3.2.8.4.7v-1.7c0-.6 0-1.3.1-1.9 0-1.6.1-3.2-.1-4.7.3-1.8-.2-5.7-.1-8.7v-1c-1.9 0-4.5 0-5.4.2h-8c-2.7 0-5.6 0-8.8.1-.3-.1.8-.1-.3-.1-.4 0-.9.1-1.5.1.1 0 0 0-.1-.1-.7 0-1.4-.1-1.4 0 .9 0 1 .1 1 .1-1.5 0-3.2 0-4.1.1h15.5c.1 0 .6.1.7.1-3.9-.1-8.9.4-8.1.2h-2.7c-.6.3-2.9 0-4.7 0 .1.1-1.1 0-.8.1.1.1 1.1.1 1.1.2-1.7.2-3.5.1-6.1.1-.1 0-.3-.1 0-.1-.7 0-2.6.1-2.5-.1 1.4-.1.5 0 1.4 0 .5-.1-.1-.2-.9-.2.7-.1.8-.2 1.4-.2h4.3c-1.3-.1.8-.1-.3-.3.6 0 2 0 1.7-.1H250c.1.3-2.5-.1-2.9.2.7 0 2.1-.1 2 .1-.8.1-2.5 0-2.8 0h-.4c.2-.1 1.1-.1 1.1-.2-1 0-2.3 0-3.6-.1 0 .2-1.7.1-2.2.1.3-.1 1.1-.1 1.9-.1-.5-.1 1.1 0 .8-.2-1.1 0-4.1.3-5.6.1 2.5 0 3-.1 4.4-.2.8-.4-2.5-.3-4.2-.4-2.4 0-6-.1-7.8 0 .9 0 2.8 0 3.1.1-.6.2-1.7-.1-1.9.1 1.2 0 1.7 0 2.2.1-.4 0-.2.1-.5.1-1.1 0-2.4-.1-2.3-.2.1.1-.8-.1-.8 0 .4 0 .4.1.6.2 1.4 0 2.3 0 2.5.2-2 .2-3.7 0-5.3.2-.2-.1-2-.1-2.5-.1.5 0 .7 0 .6.1-4.1-.1-6.4-.1-10-.1 1-.1 1.6 0 2.8-.1-.6 0-1.5-.1-1.7-.2.9-.1 1.7-.1 1.6-.2 1.5 0 2.5-.1 4.2-.1-.6-.1-1.9-.1-2.8 0 0 0-.2 0-.3-.1.4 0 .6-.1.7-.1.9 0 1.4-.1 2.2-.1H221c-.1-.1-.3-.2-.6-.3 5.7-.2 10.5.2 16.2 0 2.1 0 4.2.2 7.3.1-.1.1.5.1.3.2 2.4-.1 4.7 0 6.4.1.2-.2 2.4.1 3.3 0 .1 0 .3.1 0 .1 1.1-.1 1.9-.1 2.9 0 .5 0 1 .1 1.5.1H260.2c-.8 0-.5-.1-.3-.1.1 0 .1 0 0 0h-1c-.4.1.7.1 0 .1 0-.2-2.3-.1-3.1-.3-1.5.2-3.1 0-5.3 0-.2-.1-.7-.2-1.4-.2 1.1 0-.2.1-.3.2-1.6 0-3.1-.1-4.5-.1.5-.1.4-.1 1.7-.1 0-.1-.3-.1 0-.2h-.5c.7 0 1.2-.1 2.2-.1-1.2 0-2.7 0-1.4-.1-.8 0-1.7-.1-2 0-1.1-.1-1.7-.3-2.9-.2 0-.1 0-.1.3-.1-.9 0-1.3.1-2 .2-.6 0-.2-.1-1.2-.1-.6.2-7.1.1-6.3-.1-2.7.1-5.7-.1-7.5.1.3 0 .7 0 .9.1-.4.1-1.7 0-1.7.1h12.9c-.1 0-.3.1-.6.1-.9 0-1.4-.1-1.7 0 .9 0 1.4 0 2 .1.5-.2 3.1-.1 4-.2-.4 0-.4.1 0 .2 1.2 0 2.8 0 3.7.1 0 0-.2 0-.4.1-.7-.1-3.2 0-4-.1.1.1-.2.1-.8.1.1 0 .3-.1 0-.1-5.3 0-10.2.1-15 .1-1.6.1-6.4.2-6.1-.1-5.8-.2-11.8 0-18.1-.1-2.1.2-4.7.1-6.7.1.3 0-.6.1-1.1 0-1.9-.1 1.1-.2 2.8-.2-1 0 .2-.2.5-.3 3.1-.1 5.6-.1 8.3-.2.7 0 .9.1 1.7.1 1.2-.1 2.5.1 3.9 0 .8 0 1.4-.2 2.2-.2.9 0 1.7.1 2.5.1.5 0 1.3-.1 1.7-.1 0 0-.2.1-.3.1.8 0 1.2-.1 1.9-.1.1 0 .2.1.3.1 1 .1 2.2-.1 3.3-.1.8.1-.9.1.3.2.1-.1 1.2-.1 1.7-.2.8.2 3.1 0 2.8.1.9 0 2.2-.1 3.5-.1h-.4c0-.1 1.2 0 1.7 0h-.1 2.2c-.3 0-.3 0-.3-.1 2.1 0 2.8 0 3.9-.1 0 0-.2 0-.3.1h7.8c.3 0 .4-.1.8-.1.7.1.9 0 1.4 0 .6.1.4.2 1.1.1-1-.1 1.1-.1 1.7-.1 0 .1.8 0 .6.1.1.1-.8 0-.8.1 1.8 0 1.8-.1 1.9-.3-.7 0-1.8 0-2.5-.1-.8.2-3.8.1-4.4.1.4 0 .2-.1.5-.1 0 0 0 .1.3.1 1.6-.2 3.3-.1 5.6-.1-.7-.1.5-.1.5-.2h-6.4c.9.1-.8.1-1.1.1-.5 0-2.1-.1-2.5-.1.3 0 .3 0 .3.1-1.2-.1-2.9-.1-4.5-.1 1.7 0 .9-.1 2.2-.1-1.2 0-1.9-.1-2.8 0v-.1c-2.6.1-6.7-.1-10 0 0 0 0-.1-.3-.1-2.9.1-7.2-.1-8.6 0-.1-.1 1.2-.2 1.9-.1-.2-.2-1.8 0-2.5 0 0 0-.1-.1 0-.1-1.1 0-1.6.2-2.8.2-1.5 0-2-.1-3.9-.1.6.1-2.1 0-2.8.1 3 0-3.3.2-3.4-.1.9 0 1-.1 1.7-.1-1.5 0-.8 0-1.1-.2-1.2 0-1.4-.1-2.2-.1.1.1 1.3.1 1.7.2h-.8c-.7 0-1.1-.2-1.7-.1 0-.1-.1-.1-.3-.1 4.5-.1 6.1-.1 10.3 0 2.5-.1 5.2.1 7.8-.1 0 .1.9 0 .8.1 3.5-.1 7.2.2 10 0-.8 0-1.9 0-2-.1.9 0 4.8-.1 3.9.1h2.2c.4-.1-1.4 0-1.4-.1 1.3 0 4.1-.1 5 .1 5.1 0 8.9-.1 12.3.1.1-.2.6.1 1.1.1.7 0-.3-.2.3-.2h.6c1.1 0 1 .1 1.7.1.3-.1 1.7-.1 2.8-.1.2.2 2.2.1 3.4.1m-18.7 3.2c-.6.1-.7.1-1.1.1.2 0 .3-.1 0-.1 0-.1.4 0 1.1 0zm3.9-1c-.2 0-.4 0-.6.1v-.1h.6zM241.9 7c.3.2-1.4 0-1.4.1-.9 0 .6-.1 1.4-.1zm-10.4-.3c-.1.2-.9 0-2 0 .1 0 1.4.1 2 0zm-22.4 0H208s0-.1-.3-.1c.2 0 1.7 0 1.4.1zM77.3 5h.2-.8.6zM46.1 6.1c.4-.1 1.9-.1.3-.2.4-.1 1.8 0 2.9 0-1 .1-1.5.1-3.2.2zm4-.7c-1 0-1.4.1-2 0-.4-.2 2.3-.2 2 0zm39.7.5c0-.1 1.6-.1 2 0-.2 0-.8.1-1.7.1 0-.1 0-.1-.3-.1zm2.6.1c.2-.1 1.1 0 2.3 0h.3-2.6zm61.9 1.2c.2-.1 1.6 0 2.3 0-.5.1-1.1 0-2.3 0zm6.1.3c0-.1.9 0 1.7 0h-1.7zm16.2.7c3.6 0 8.1-.2 12.1 0-.6.1-.9-.1-2-.1h.6c-.1 0-.9 0-.9.1.3.1 1.8 0 2.6 0-1.2.2-4.1.1-5.1.2-.5-.1-.2-.2 0-.2-.3-.1-.6 0-1.2-.1-.8 0 .9.1.6.2-2.2 0-2.7 0-3.7.1-.9 0 0-.1-1.7 0-.2-.2 1.8 0 2.6-.1-1.2-.1-3.9.1-3.9-.1zM170 6.9c.1-.1.4-.1.3-.2 1.6 0 2.3.1 4 .2-.9 0-2.5-.1-4.3 0zm1 .6c0-.1.6-.2 1.1-.1.1.1-.6.1-1.1.1zm2.8-.2c-.1 0-.3 0-.3.1 3.7 0 4 0 7.2-.1 1.2.3-5.5.3-7.1.3-1.2-.1-1.5-.2.2-.3zm5.1-.4c.3-.1 1 0 1.2 0 .1.1-.8 0-.8.1-1.1 0 .7-.1-.4-.1zm-3.4-.1c.2-.1.9-.1 1.1-.2.4.1 2.5 0 2.6.1-1.2 0-2.2.2-3.7.1zm4.9.1c2.1-.1 6.9 0 5.8.1-1.5-.1-3.5 0-5.8-.1zm9.5 2.6c-.1 0-.9 0-.9.1-.5 0-.7-.1-.6-.1h1.5c-.1-.1-.3 0 0 0zm-4.6-.1c.6-.1 2.4 0 3.4 0-.3.2-2.6 0-3.1.1-.4-.1.3-.1-.3-.1zm77.4.9c-.1.1.4.1.3.1h-2.1c-.2-.1.8-.1 1.8-.1zm-59.6-1.1c0 .1-.3.1-.3.1.9 0 1-.1 2-.1v.1h1.1c.6 0-.4 0 .3-.1h1.4s.1.1.3.1c-.5.1-.8.2-2 .2.2 0 .3.1.3.1-.7-.1-1.6.1-2.3 0-.4 0-.5.1-.6.1-2.4 0-3.7-.1-6.3 0 .7.1 2.4-.1 2.9.1.6 0 1-.1 2-.1.2.1.8.1.3.2-.7 0-.3-.1-.9-.1-.7 0-.7.1 0 .1-2.9.1-4.3.1-6.9 0 .6 0 1.3-.1 2-.1 0-.2-1.3-.1-2 0-.1 0-1.1-.1-.6-.1-.1-.1 1.4 0 2.3-.1-.8-.1-3.3 0-3.7 0 .2.1.6.2-.6.2.1-.2-1.3-.3-2.9-.3.2 0 .3-.1.3-.1 3.3 0 9.7-.3 13.9-.2zm-15-2.3c.3-.1-.6-.1-1.2-.1 1.9-.1 6.1 0 9.5-.1-1.9.3-5.2.2-8.3.2zm9.2-.2h-3.7c1.6.2-3.6.1-4 0 2.7-.1 6.4 0 8.3-.1.2 0-.5 0-.6.1zm2.6-.1c.2.1-.6.1-.6.1 2.3.1 4.6 0 5.5.2-2 0-2.8 0-4.3.1-.4 0-.6-.1-1.2-.1.4-.1.7 0 1.4 0-.3-.1-1-.2-2.3-.2-.2-.1.5-.1 1.5-.1zm-1.8-.2c-.2.1-1 0-1.4 0 .1-.1 1.3 0 1.4 0zm-19.3-.2v.1c4.5-.1 10.1-.1 15.2 0 .3 0 .2-.1.6-.1.7 0 1.2 0 1.7.1-.1.1-1.4.1-2.3.1 0 0 0 .1.3.1-2.8.1-7.8 0-12 .2-.9 0-1.8-.1-2.3-.2-.8 0 .2.1 0 .2-.7 0-1.3-.1-1.7 0-.8 0-.3 0-.3-.1-1.4.1-2.5.1-3.4.1-.3.1.9 0 1.4.1-.9.1-2.9.1-3.7 0-.2-.1 1.3-.2-.3-.2 1.3-.1 4.6.1 5.2 0-2.2-.1-6 0-7.2-.1 3-.5 5.6-.3 8.8-.3zm-4 2.1c.7 0-.3-.1-.9-.1.3-.1 1.2 0 1.7 0 0 .1-.3.1-.3.1.1.1 1.4 0 2 0-3.9.3-7.9.1-13.8.1 0 0 0-.1-.3-.1 3.4-.1 8.4 0 11.6 0zm-9.4-1.8c0 .1.4.1.3.1-1.1 0-.9-.1-2-.1h1.7zm-8 .1c3.4.1 6.5 0 10.1.1-.1-.1-1 0-1.2-.1 0-.1 1.7-.1 1.7 0 .8-.1.9-.1.5-.2 2.4.2.8.4-2.5.3.3 0 .9 0 1.4.1.2.1-1.3 0-1.4.1-.4 0-.3-.1-.3-.1-2.8 0-3 0-6 .1-.4-.1-1.5 0-2-.1-.8 0 .9.1 0 .1-2 0-1.8-.1-4-.1 0 .1 1.9 0 1.4.1h-3.4c-.1-.1 0-.1.3-.2-.8 0-.9 0-.8.1-1.5 0-1.8-.1-2.3-.1 1.4-.1 6.6.1 8.5-.1zm-26-.7c-.4.1-1.4 0-2.3.1.1-.1 1.6-.1 2.3-.1zm-7.5-.6c1-.1.2.1 1.2.1-.2 0-.8 0-1.2-.1 0 .1.1 0-.3 0h.3zm-.5.5h-1.1v-.1c.5.1 1.1.1 1.1.1zm-1.5.1c0 .1-1 .1-1.7.1v-.1c.7-.1 1.4-.1 1.7 0zm4.6.1c-.8.2-6.5.1-9.5.2 2.2-.2 7.5-.1 9.5-.2zm-14.4-.9c.2.1.3.1-.3.2-.4-.1-.9-.2.3-.2zm-1.8 0c.3 0 .7.1.3.1.2 0 .7 0 .6.1h-.6c-.3 0-.2-.1-.6-.1.2 0 .4 0 .3-.1zm-4-.2h-1.1.9c.3.1-.8.1 0 .1-.3.1-1.2-.1-1.5-.2 1 .2.7.1 1.7.1zm-9.7.6l1.4-.1c.1.1-.9.1-1.4.1zm-3.2-.1c1.1-.2 2.1-.3 4.3-.1-.7.1-2.8 0-3.1.2-2.4 0-4.3 0-5.5-.1 1-.1 3.3-.1 4.3 0zm-7.7 0c1.5 0 2 .1 3.2 0v.2h-5.5c.7-.2 1.8 0 2.3-.2zm-21.8.1c.2.1-.5.1-.3.2-.4-.1-2 0-1.7-.1-.4.1-1.9 0-2.9 0 1.9-.1 3.4-.2 4.9-.1zm-4.3.1c.5.1.3.2-.8.2.8-.2-1.3 0-1.5-.2h2.3zm-4.9.1c-.2 0-.7.1-1.4.1-.1-.1 1-.1 1.4-.1zm-25.1 1c-.2 0-.3.1-.3.1h-1.1s.7 0 1.4-.1zm-1.8 0c-.4.1-.8 0-2 .1-.2-.2 1.4-.1 2-.1zm-21 .2c3.3-.1 7.9 0 13.2-.1-.4-.1-2.1 0-3.2-.1.1-.1 2.5-.1 4-.1.9.1-.6.2.1.3-5.4.1-9 .2-14.1 0zM280 21c-.1-.5 0-1 0-1.5.2-.3.1 1.9 0 1.5z" fill="#fff"/></svg>