<svg xmlns="http://www.w3.org/2000/svg" width="89.763" height="61.558" viewBox="0 0 89.763 61.558">
    <defs>
        <style>
            .cls-1{fill:none}.cls-2{fill:#bebebe}.cls-3{fill:url(#linear-gradient)}.cls-4{fill:#fff}.cls-5{opacity:.4}.cls-6{clip-path:url(#clip-path)}.cls-7{opacity:.53;mix-blend-mode:overlay;isolation:isolate}
        </style>
        <linearGradient id="linear-gradient" x1=".5" x2=".5" y1="1" gradientUnits="objectBoundingBox">
            <stop offset=".014" stop-color="#009dd2"/>
            <stop offset=".629" stop-color="#136e9a"/>
            <stop offset=".994" stop-color="#205177"/>
        </linearGradient>
        <clipPath id="clip-path">
            <circle id="Ellipse_27" cx="23.037" cy="23.037" r="23.037" class="cls-1" data-name="Ellipse 27"/>
        </clipPath>
    </defs>
    <g id="Group_320" data-name="Group 320" transform="translate(-916.624 -29.059)">
        <g id="Group_312" data-name="Group 312" transform="translate(5.957 1.763)">
            <path id="Path_3465" d="M917.119 82.521a2.646 2.646 0 0 1-2.787 2.868h-2.3v3.386h-1.367v-9.147h3.665a2.673 2.673 0 0 1 2.789 2.893zm-1.367 0a1.473 1.473 0 0 0-1.447-1.646h-2.27v3.266h2.217a1.47 1.47 0 0 0 1.5-1.62z" class="cls-2" data-name="Path 3465" transform="translate(0 -.054)"/>
            <path id="Path_3466" d="M920.012 86.02a3.26 3.26 0 0 1 6.519 0 3.259 3.259 0 0 1-6.519 0zm5.218 0a1.959 1.959 0 1 0-1.965 2.018 1.934 1.934 0 0 0 1.965-2.018z" class="cls-2" data-name="Path 3466" transform="translate(-1.074 -.419)"/>
            <path id="Path_3467" d="M930.317 79.162h1.3v9.559h-1.3z" class="cls-2" data-name="Path 3467" transform="translate(-2.258)"/>
            <path id="Path_3468" d="M940.993 85.176v3.545h-1.3v-3.452a1.422 1.422 0 0 0-1.406-1.593 1.668 1.668 0 0 0-1.793 1.739v3.306h-1.3v-9.559h1.3v4.3a2.3 2.3 0 0 1 2.018-1.075c1.565.001 2.495 1.024 2.481 2.789z" class="cls-2" data-name="Path 3468" transform="translate(-2.818)"/>
            <path id="Path_3469" d="M951.131 82.94v6.2h-1.3v-.929a2.471 2.471 0 0 1-2.138 1.062 3.237 3.237 0 0 1-.013-6.466 2.439 2.439 0 0 1 2.151 1.049v-.916zm-1.314 3.08a1.963 1.963 0 0 0-1.978-1.978 1.906 1.906 0 0 0-1.925 1.978 1.953 1.953 0 1 0 3.9 0z" class="cls-2" data-name="Path 3469" transform="translate(-3.9 -.419)"/>
            <path id="Path_3470" d="M964.395 82.957l-2.27 6.2h-1.1l-1.606-4.448-1.553 4.448h-1.075l-2.35-6.2h1.406l1.487 4.235 1.474-4.235h1.221l1.488 4.235 1.473-4.235z" class="cls-2" data-name="Path 3470" transform="translate(-5.029 -.436)"/>
            <path id="Path_3471" d="M973.978 85.6v3.54h-1.3v-3.452a1.423 1.423 0 0 0-1.407-1.593 1.668 1.668 0 0 0-1.793 1.739v3.306h-1.3v-6.2h1.3v.96a2.314 2.314 0 0 1 2.019-1.089c1.565-.004 2.495 1.018 2.481 2.789z" class="cls-2" data-name="Path 3471" transform="translate(-6.607 -.419)"/>
            <path id="Path_3472" d="M984.635 80.875v2.776h3.2V84.9h-3.2v3.877h-1.368v-9.149h5.4v1.247z" class="cls-2" data-name="Path 3472" transform="translate(-8.341 -.054)"/>
            <path id="Path_3473" d="M991.127 86.02a3.26 3.26 0 0 1 6.519 0 3.259 3.259 0 0 1-6.519 0zm5.218 0a1.959 1.959 0 1 0-1.965 2.018 1.934 1.934 0 0 0 1.965-2.018z" class="cls-2" data-name="Path 3473" transform="translate(-9.244 -.419)"/>
            <path id="Path_3474" d="M1005.549 83.033l-.226 1.235a2.211 2.211 0 0 0-.916-.212c-1.128 0-1.659 1.181-1.659 2.854v2.23h-1.315v-6.2h1.315v1.394c.318-1.089.942-1.527 1.739-1.527a2.393 2.393 0 0 1 1.062.226z" class="cls-2" data-name="Path 3474" transform="translate(-10.428 -.419)"/>
            <path id="Path_3475" d="M1011.6 83.744h-1.328v5.112h-1.3v-5.112h-1.114v-1.088h1.114v-2.323h1.3v2.323h1.328z" class="cls-2" data-name="Path 3475" transform="translate(-11.166 -.135)"/>
        </g>
        <g id="Group_319" data-name="Group 319" transform="translate(-2.467 1.533)">
            <g id="Group_318" data-name="Group 318" transform="translate(941.562 27.525)">
                <circle id="Ellipse_26" cx="23.037" cy="23.037" r="23.037" class="cls-3" data-name="Ellipse 26"/>
                <path id="Path_3476" d="M981.216 43.281c-2.16-2.258-4.989-3.444-7.724-4.59l-.117-.049c.04-.1.079-.2.119-.293a9.181 9.181 0 0 0 .832-3.191l.025-.621-.6-.155a2.956 2.956 0 0 0-.917-.085 4.157 4.157 0 0 0-2.6 1.33l-.59.571.609.553a1.116 1.116 0 0 0 .507.261 9.47 9.47 0 0 1-.206.728 36.126 36.126 0 0 0-12.75-1.41c-4.32.279-14.39 1.809-14.615 9.975a8.948 8.948 0 0 0 2.156 6.035 6.178 6.178 0 0 0 4.562 1.876 4.815 4.815 0 0 0 1.208-.237l2.335-.787-2.371-.675a4.349 4.349 0 0 0-1.214-.118 2.408 2.408 0 0 1-.614-.037 3.608 3.608 0 0 1-1.65-1.311 8.26 8.26 0 0 1-1.6-4.829c.141-3.958 3.453-6.5 9.847-7.568a25.731 25.731 0 0 1 2.622-.3 29.621 29.621 0 0 1 11.254 1.527c-.832 2.179-1.849 4.507-2.923 6.962-1.288 2.944-2.62 5.99-3.661 8.887a18.2 18.2 0 0 0-1.368 6.706c.082 2.307.606 3.878 1.647 4.948a3.825 3.825 0 0 0 2.581 1.1c.063 0 .126 0 .189-.006a2.649 2.649 0 0 0 1.163-.347l2.424-1.407-2.8-.022c-1.023-.009-2.02-.36-2.394-2.845a14.835 14.835 0 0 1 .84-6.54c.2-.66.422-1.319.656-1.973l1.208.4a11.727 11.727 0 0 0 4.414.491c4.182-.27 8.543-2.342 10.369-4.927a7.3 7.3 0 0 0 1.2-2.731 6.258 6.258 0 0 0-2.053-5.296zm-15.042 11.825c1.111-3.046 2.539-6.032 3.929-8.939.881-1.84 1.719-3.589 2.449-5.3l.181.081a26.272 26.272 0 0 1 4.011 2.077 8.042 8.042 0 0 1 3.4 3.8c.685 2.131-.813 3.887-1.767 4.744a11.655 11.655 0 0 1-6.731 2.812 8.056 8.056 0 0 1-2.161-.136l-.3-.074a3.566 3.566 0 0 0-1.1-.154 1.835 1.835 0 0 0-1.022.388z" class="cls-4" data-name="Path 3476" transform="translate(-941.387 -26.799)"/>
                <g id="Group_317" class="cls-5" data-name="Group 317">
                    <g id="Group_316" class="cls-6" data-name="Group 316">
                        <g id="Group_315" class="cls-7" data-name="Group 315" transform="translate(-17.471 -14.943)">
                            <g id="Group_314" data-name="Group 314" transform="translate(7.727 20.413)">
                                <g id="Group_313" data-name="Group 313" transform="translate(5.914)">
                                    <path id="Path_3477" d="M944.906 50.4a.1.1 0 0 0 .043-.017.633.633 0 0 0 .034-.122z" class="cls-4" data-name="Path 3477" transform="translate(-937.372 -30.554)"/>
                                    <path id="Path_3478" d="M946.032 60.552c-6.391-4.055-6.85-9.97-3.635-14.2a7.317 7.317 0 0 1 3.717-2.688c-.023-.08-.081-.1-.1-.186.092.053.166.107.268.156a7.185 7.185 0 0 1 1.9-.256c.172-.5.331-1.038.872-.932-.065.805-.1.773.195 1.035a12.605 12.605 0 0 1 4.735 1.7l4.116 2.809 9.771 5.636.347-1.012 1.374-.539 1.454.6-.688.187.067.85.218.085c.013 0 .028-.03.042-.023s.014.019.015.034l.733.257.69.1c-.2-.123-.317-.427-.562-.473 0-.7.63-.3.619.483l.561.071.044.567-.38.592-1.7.274 1.064.9a11.375 11.375 0 0 0 7.093 2.275c-.31-.517-.636-1.019-1.127-1.044-.245-.793.547 0 .3-.792.276.959.8.524 1.049 1.83h.041c.478-.144.762.009.425-1.386.57-.009.089-.327.028-.771.3-.122.426.2.552.529a10.25 10.25 0 0 0-.166 1.592c.117-.01.2-.023.2-.023 6.535-1.2 7.511-7.32 7.6-10.23-.061-.792-.13-1.507-.189-2.27l-.463-.091-.963-1.195h1.125a11.211 11.211 0 0 0-.451-1.225 2.9 2.9 0 0 1-.716-.615c.228.1.341.076.415.035a8.685 8.685 0 0 0-2.381-2.878c.008.251.03.535.049.885a4.6 4.6 0 0 1-.525-1.271 8.309 8.309 0 0 0-5.055-1.174c-.115.009-.2.043-.324.053a5.607 5.607 0 0 0-.079 1.537c.279-.133.306-.635.648-.641a5.589 5.589 0 0 0 .032 1.361c.251-.6.453-.047.552.836a7.649 7.649 0 0 1 6.242 5.825c1.674 6.964-3.353 7.926-6.859 8.194-2.7.206-14.473-7.538-19.773-11.126 0 .159-.036.3-.033.478l-.262.02a.931.931 0 0 1 .055-.657c-1.413-.956-2.308-1.6-2.361-1.619-.215 1.073-1.464.555-1.764-.089-.373.589-.457.623-1.1.673.243-.463.076-.564-.216-1.331.208-.314.759-.009 1.217-.155-5.81-2.539-9.144-.332-9.144-.332-11.664 6.432-5.929 16.7-5.929 16.7a14.546 14.546 0 0 0 .948 1.3c.09-.386.8 0 .969-.635a1.845 1.845 0 0 1-.5 1.3 13.534 13.534 0 0 0 3.366 3.021c.031.025.059.031.06.052a13.7 13.7 0 0 0 1.632.876c0-.013.016-.007.014-.022s0 .028.017.028a11.406 11.406 0 0 0 1.427.525c0-.037-.021-.055-.024-.1a.483.483 0 0 0 .074.128.673.673 0 0 1 .1.034c.117-.136.219-.631.365-.782-.136-1.005-.576-1.194-.772-2.064.87.216.915 2.25 1.306 2.6a.666.666 0 0 1-.178.37 18.011 18.011 0 0 0 5.567.24c.062-.309.146-.5.343-.33.032-.989.6-1.1 1.17-1.267.1.578.4.721.736.71a4.6 4.6 0 0 1-.032.5c3.272-1.081 5.188-5.026 5.188-5.026-1.17 1.37-8.837 4.655-15.256.607zM984.7 43.679c-.273.02-.19-.895-.382-1.134.024-.658.073.536.308.171.02.324.045.633.074.963zm-31.491-1.007c.236 0 .08.657.074.77-.2-.063-.234-.536-.538-.339-.088-.53.536.106.46-.431zm-4.92-.354c-.082.606-.672.408-.7 1.027-.323-.328-.324-1.426-.5-2.083.555-.051.83.579 1.196 1.056zm-2.393-.384a2.585 2.585 0 0 1 .486 1.13c-.238.042-.332-.275-.539-.35-.03-.333.091-.407.049-.781zm-6.785 6.777c.035-.44.446-.93.487-.044-.236.039-.28.387-.491.043zm1.341 9.569c-.124-.589.255-.4.108-.982.272-.162.029.9.287.745-.026.269-.247.182-.399.236zm-.3-2.5c.234.525.626.647.79 1.3-.385-.166-.676-.527-.794-1.302zm7.636 8.454c-.318-.074-.2.607-.564.431a15.711 15.711 0 0 1-.179-1.917c.365.163.607.689.74 1.483z" class="cls-4" data-name="Path 3478" transform="translate(-938.103 -31.791)"/>
                                    <path id="Path_3479" d="M981.927 32.465c.049.809.059 1.678.069 2.52 3.541 1.475 7.678 7.471 3.167 9.91-.012.556.333.2.265.93a1.113 1.113 0 0 0-.846.269c-.094-.465.121-.445.009-.973-.124.054-.26.109-.4.155a1.742 1.742 0 0 0-.2.673 4.785 4.785 0 0 1-.319-.462c-.182.041-.274.141-.451.175a12.025 12.025 0 0 0 .218 1.406c.154-.012 7.509-.917 5.43-9.449 0 0-.111-.341-.3-.8-.249.011-.4-.281-.566-.512.033-.124.141-.1.2-.18a7.223 7.223 0 0 0-4.489-3.4 6.373 6.373 0 0 0-1.787-.262z" class="cls-4" data-name="Path 3479" transform="translate(-933.398 -32.465)"/>
                                    <path id="Path_3480" d="M982.709 44.4h-.2a8.543 8.543 0 0 1 .276.958c-.028-.325-.053-.658-.076-.958z" class="cls-4" data-name="Path 3480" transform="translate(-933.336 -31.184)"/>
                                    <path id="Path_3481" d="M976.542 36.6a4.23 4.23 0 0 1 2.229-1.551c-.049-.231-.069-.479-.1-.723a5.783 5.783 0 0 1-.171-.719 5.249 5.249 0 0 0-2.443 3.081c.124.184.298.051.485-.088z" class="cls-4" data-name="Path 3481" transform="translate(-934.028 -32.343)"/>
                                    <path id="Path_3482" d="M981.848 34.846a8.238 8.238 0 0 0-.5-2.28 7.535 7.535 0 0 0-2.909 1.032c.069.509.2.986.251 1.5a10.087 10.087 0 0 1 1.929-.447 3.156 3.156 0 0 1 1.229.195z" class="cls-4" data-name="Path 3482" transform="translate(-933.773 -32.454)"/>
                                    <path id="Path_3483" d="M971.921 59.625c-6.683-1.9-12.507-7.56-18.45-11.5-4.97-3.279-7.57.69-8.348 2.127a1.549 1.549 0 0 1-.025.408c4.335-2.369 6.829.628 10.821 3.661a67.676 67.676 0 0 0 10.324 6.33 3.807 3.807 0 0 1-.043-1.251c.258-.161.23.377.426.362a1.652 1.652 0 0 1-.163 1c.282.134.578.3.873.434a2.85 2.85 0 0 0-.027-.343c.2.014.289.225.309.477a41.546 41.546 0 0 0 8.9 3.063 11.8 11.8 0 0 0 2.12.186c-.013 0 0-.038 0-.038-.061-.412.338-.118.452-.24l.024.317a9.008 9.008 0 0 0 5.788-2.144c-.117-.22-.186-.463-.323-.561.272-.1.389.142.554.343a10.355 10.355 0 0 0 2.307-3.1c-6.398 5.314-8.867 2.373-15.519.469zm-18.589-9.188c.292-.192.23.482.434.546-.025.417-.516.046-.434-.546zm10.132 7.075c-.109-.664.286-.722.481-.435-.065.287-.223.443-.48.435zm2.7.545c-.289.67-.5-.322-.71-.517.005-.416.565-.238.666-.059.019.197.033.38.048.576zm1.206 1.246c-.21.017-.18-.506-.446-.349.036-.47.008-1 .342-.989a2.363 2.363 0 0 1 .108 1.335zm10.406 4.541c-.565-.316-.22-1.266-.165-1.929a.38.38 0 0 0 .319.175c.081.784-.317.803-.151 1.754z" class="cls-4" data-name="Path 3483" transform="translate(-937.352 -30.919)"/>
                                    <path id="Path_3484" d="M974.6 41.508c.146.017.315 0 .472.027-.059-.192-.074-.4-.28-.5-.178-.03-.138.303-.192.473z" class="cls-4" data-name="Path 3484" transform="translate(-934.185 -31.545)"/>
                                    <path id="Path_3485" d="M976.051 36.412a2.129 2.129 0 0 0-.014.719 1.064 1.064 0 0 0 .014-.719z" class="cls-4" data-name="Path 3485" transform="translate(-934.033 -32.041)"/>
                                    <path id="Path_3486" d="M953.52 42.045c-.049.1-.127.2-.105.314.124.124.343.027.591-.082-.162-.085-.326-.157-.486-.232z" class="cls-4" data-name="Path 3486" transform="translate(-936.459 -31.437)"/>
                                    <path id="Path_3487" d="M970.647 39.9l.02.261c-.15.106-.2-.021-.251-.144a9.648 9.648 0 0 0-5.017 4.926 14.647 14.647 0 0 1 9.974-3.2c-.036-.237.032-.656-.4-.4.568-.67-.443-2.158.38-2.534a14.452 14.452 0 0 0-4.706 1.091zm-1.936 2.552c0-.213-.055-.328-.128-.371.1-.575.452-.337.517.341z" class="cls-4" data-name="Path 3487" transform="translate(-935.173 -31.784)"/>
                                </g>
                                <path id="Path_3488" d="M944.21 46.681s-1.452 4.824-7.291 1.981-3.814-5.563-3.814-5.563l.566-.043.517 1.249 1.147.194a2.574 2.574 0 0 0 .773 1.082c.454.254 3.092 3.476 8.102 1.1z" class="cls-4" data-name="Path 3488" transform="translate(-932.762 -31.328)"/>
                                <path id="Path_3489" d="M940.385 35.19s-5.511-.44-6.642 3.216l-.454-.54a5.116 5.116 0 0 1 2.865-2.933c2.296-1.028 3.621-.278 4.231.257z" class="cls-4" data-name="Path 3489" transform="translate(-932.706 -32.255)"/>
                            </g>
                            <path id="Path_3490" d="M939.045 64.7a.081.081 0 0 1 .01-.049.059.059 0 0 1-.031-.012h.017l.014.007a5.7 5.7 0 0 0-.486-.936c.034.258.07.545.092.825.132.051.258.103.384.165z" class="cls-4" data-name="Path 3490" transform="translate(-924.412 -8.698)"/>
                            <path id="Path_3491" d="M994.516 32.033H992.2c-.055 0-.111 0-.166-.006a3.2 3.2 0 0 1-.044.324 1.885 1.885 0 0 1-.07 1.63c-.047-.038-.09-.041-.136-.074.059-.367.031-.713.116-1.087a1.6 1.6 0 0 1-.546.952.465.465 0 0 1-.075.019 2.973 2.973 0 0 1-.6.524 2.2 2.2 0 0 1 .23.555 7.8 7.8 0 0 0 .261 2.221c0 .008-.016.009-.016.009.051.292.116.571.153.868.026 0 .044.013.07 0 .092.271.226.518.324.783.176.794.483 1.517.179 1.914.386.669.822.72 1.063 1.164a3.875 3.875 0 0 0 .19 2.067.634.634 0 0 1 .491-.29c.051.159.082.307.12.456a.115.115 0 0 0-.058 0c0 .171-.064.254-.2.226-.213.543.214.539.337 1.011-.06.126-.048.287-.184.382-.162-.249-.331-.23-.493-.28a.265.265 0 0 1 0-.247c-.081.071-.062.138-.08.2-.348-.021-.678.214-.968.784-.137-.3-.271-.576-.41-.868-.063 1.048-.281 2.065-.428 3.085-.061.161-.117.333-.175.51a.6.6 0 0 0 .083-.028 26.461 26.461 0 0 1-.583 2.733c.028-.361.051-.778.083-1.223-.439 1.786-.828 3.549-1.132 4.673-.021.084-.042.2-.063.274a.126.126 0 0 1-.042.014c-.23.6-.544 1.142-.811 1.734a4.746 4.746 0 0 0-1.013 2.069c0 .045 0 .007-.031.082-.2.292-.235.432-.214.533a2.015 2.015 0 0 1-.148.281.529.529 0 0 0 .1-.045l.013-.007a.093.093 0 0 1 .042-.018.663.663 0 0 0-.061.113 16.662 16.662 0 0 1 1.911-.84c.215.033.528-.047.722-.02-.039-.153.126-.227.289-.3.017 0 .017 0 .017-.007.26-.1.6-.166.877-.244a1.052 1.052 0 0 1 .166-.228c-.54.176-1.265.556-1.146.052a8.377 8.377 0 0 1 1.353-.223.118.118 0 0 0 .028-.023v.014c.233-.027.525-.107.708-.116a.973.973 0 0 0 .07.168 13.137 13.137 0 0 1-2.056.6.5.5 0 0 1 .328.042c1-.43-.981.427.032.011-.4.235.617.081 1.718-.576.1.3.19.6.3.893.258-.522.429-1.081.638-1.612a4.32 4.32 0 0 0 1.365-3.917.264.264 0 0 0-.133.115c-.023.093-.032.136-.053.215-.1-.352-.267-.662-.042-.88a.956.956 0 0 0 .332.514c.067-.239.091-.489.148-.731-.093.909-.119 1.123.033-.128a36.889 36.889 0 0 0 1.312-12.493 36.071 36.071 0 0 0-1.709-8.303zm-6.908 27.124a.438.438 0 0 1 0 .05c-.273.549-.127.22.001-.051zm-.014.65a10.59 10.59 0 0 0 1.421-.75c-.045.145.094.121.183.142a11.538 11.538 0 0 1-1.604.607zm2.6-4.821c.092-.114.145-.173.209-.243a.7.7 0 0 1-.319.131c-.01.035-.029.086-.061.182a.482.482 0 0 0-.078.027 1.812 1.812 0 0 0 .1-.233h.017a.028.028 0 0 0 .02.025c0-.014.014-.035.014-.042.111-.038.2-.068.318-.1-.014 0-.013.008-.013.014.013-.014.027-.016.054-.037.194-.062.389-.135.574-.2.032.017.034.055.052.092a7.785 7.785 0 0 1-.889.383zm4.048-11.8c.045.411.078.824.123 1.23-.25-.4-.289-.142-.309.163a3.566 3.566 0 0 0-.221-1.125.676.676 0 0 0 .405-.273zm-.3 1.609c.021.064.032.133.049.19 0-.007.016-.022.014-.029a.061.061 0 0 1-.012.051v-.022c0 .014-.01.023-.01.037-.06-.058-.025-.154-.046-.232zm-.4 4.906a2.043 2.043 0 0 1 .242.2.413.413 0 0 0-.249.241.778.778 0 0 1 .002-.442zm.032 1.082a.957.957 0 0 0 .1.249c-.044-.025-.1-.008-.12-.076a.315.315 0 0 0 .015-.178zm-1.842 4.929c0-.008 0-.008-.014-.014.011-.029.053-.043.065-.072-.002.023-.057.053-.055.081zm.287.393a.251.251 0 0 0 .031.018c.048.082.105.1.153.137a.566.566 0 0 1-.188-.16zm.643-.7c-.039.581-.15.809-.286.878a.23.23 0 0 0 .047-.115l-.049.116.049-.122v.006l.142-.37.022-.065-.165.414v-.013l.152-.406-.013-.008.048-.123-.1.24v-.006l.034-.116-.017-.013-.059.161.089-.336-.035.105.007-.11c-1.953 1.784 1.448-3.307.479-1.071l-.019.047-.014.1.1-.223h.028c.261-.579.2-.736.07-.683.05-.082.1-.134.154-.217a2.116 2.116 0 0 1-.668 1.925zm.9-1.946c-.044.01-.044-.176-.033-.429v.022-.028l-.005-.079.026.2c0-.024-.01-.048-.014-.073l.023.168v.015-.008c-.008.01 0 0 0 .012s.013 0 .014.006v0c0-.011-.013 0-.014-.006 0 .016.008.021.014.024a.212.212 0 0 0 .008.092c.003.035-.024.045-.02.084zm.742-1.072a1.115 1.115 0 0 0-.056.389c-.042 0-.055.021-.093.02h-.007a.469.469 0 0 0-.165.041.874.874 0 0 1-.437-.494 5.961 5.961 0 0 0-.038-.762.065.065 0 0 1 .01-.037c-.013 0-.012.008-.029 0-.028-.174-.075-.336-.148-.358.117-.038.162.064.211.156a1.587 1.587 0 0 0-.034.2c.051.018.093.007.153.024.024.137.047.27.074.41.243.017.323-.2.276-.64-.037-.295-.2-.254-.335-.307.406-.809 1.143-1.059.548 1.557l-.02.094zm.1-.352l.1-.368.018.011.042-.369.013.013.052-.45a1.147 1.147 0 0 0-.168-.522c.074.023.12.09.211.089.185 1.228-.086 1.307-.272 1.596z" class="cls-4" data-name="Path 3491" transform="translate(-919.19 -12.099)"/>
                            <path id="Path_3492" d="M992.943 51.193v-.007.007z" class="cls-4" data-name="Path 3492" transform="translate(-918.574 -10.042)"/>
                            <path id="Path_3493" d="M992.939 51.143v.038z" class="cls-4" data-name="Path 3493" transform="translate(-918.575 -10.047)"/>
                            <path id="Path_3494" d="M992.959 51.228h.008z" class="cls-4" data-name="Path 3494" transform="translate(-918.573 -10.038)"/>
                            <path id="Path_3495" d="M993.886 49.6l.071-.382.013.006c.017-.069-.033-.085-.039-.156-.005.113-.026.225-.032.339z" class="cls-4" data-name="Path 3495" transform="translate(-918.473 -10.27)"/>
                            <path id="Path_3496" d="M958.433 75.758c-.052.053-.056.175 0 .32a.751.751 0 0 0 0-.32z" class="cls-4" data-name="Path 3496" transform="translate(-922.284 -7.404)"/>
                            <path id="Path_3497" d="M958.222 75.42c.013-.008.027-.009.042-.018.136-.225.124-.217.163-.283v-.025c-.047.16-.127.201-.205.326z" class="cls-4" data-name="Path 3497" transform="translate(-922.302 -7.476)"/>
                            <path id="Path_3498" d="M958.426 75.347c0 .141 0 .19-.011.434 0 .007.016.014.016.021a.021.021 0 0 1 .014-.023c0 .016-.014.017-.014.023.018.02.032.019.047.031-.03-.191-.04-.333-.052-.486z" class="cls-4" data-name="Path 3498" transform="translate(-922.281 -7.448)"/>
                            <path id="Path_3499" d="M929.692 43.937l.016.007.033-.105.014.006.015-.03h.04a.255.255 0 0 0-.048.13c0 .019.019.024.033.038v.008c.014.006.014.006.016.013v.062l.028-.022a.145.145 0 0 1 .043.03l-.001-.074v-.013c.126-.032.089-.158 0-.244l-.009-.105a.19.19 0 0 1-.034.084c-.078-.044-.15-.032-.146.215z" class="cls-4" data-name="Path 3499" transform="translate(-925.365 -10.853)"/>
                            <path id="Path_3500" d="M929.758 37.688l-.294.22.1-.063-.27.194-.024.03.214-.154v.007l-.2.146.014.006-.054.045.109-.084.013.006-.054.039.018.007.076-.047a2.926 2.926 0 0 1 .377-.358c-.025.006-.025 0-.025.006z" class="cls-4" data-name="Path 3500" transform="translate(-925.413 -11.492)"/>
                            <path id="Path_3501" d="M992.433 52.379l-.03-.016-.075.22-.014-.013-.141.405a6.571 6.571 0 0 0 .28-.626v-.027l.014-.02.077-.274z" class="cls-4" data-name="Path 3501" transform="translate(-918.657 -9.952)"/>
                            <path id="Path_3502" d="M959.359 76.445l-.286-.012-.126-.009a2.7 2.7 0 0 0 .487.084.315.315 0 0 0-.075-.063z" class="cls-4" data-name="Path 3502" transform="translate(-922.224 -7.333)"/>
                            <path id="Path_3503" d="M942.724 17.2a2.667 2.667 0 0 1-.362-1.286c-.051-.2-.115-.342-.172-.532a.949.949 0 0 0-.06-.214c-.107-.311-.194-.687-.3-.933-.338.247-.648.556-.974.806-.868.022-1.89.6-2.814 2.23a1.5 1.5 0 0 0-.045.144c-.214.187-.457.345-.67.541.062.45.151.853.215 1.3a5.389 5.389 0 0 0-.039.441 1.483 1.483 0 0 0-.306-.66c-.038-.293-.06-.568-.112-.867-.066.069-.145.125-.227.195a1.007 1.007 0 0 1-.724.805c-.024-.029.009-.059.005-.1-.185.208-.343.448-.524.662a5.048 5.048 0 0 0-.895 1.135c-.258.352-.531.68-.817 1.019.028.174.04.337.053.507-.047.117-.065.243-.1.357a1.675 1.675 0 0 1 .123-.234l.008.1a.594.594 0 0 1-.215.333.443.443 0 0 0 .047-.131.618.618 0 0 0-.063.1c.026-.044.036-.083.061-.12a.818.818 0 0 1-.064.079c-.14.018-.2.14-.247.269-.125.072-.2.237-.214.58-.187.317-.355.611-.528.891.028.154.076.257.136.281 0 .012-.012.007-.01.029-.015-.007-.013.014-.013.022-.093-.079-.1-.168-.164-.252a.545.545 0 0 0 .051-.08 2.821 2.821 0 0 0-.127-.608c.013.052 0 .018-.023-.033a.089.089 0 0 0-.028-.023c-.045-.018-.054.029-.1.022.008-.1-.014-.186-.006-.272a4.188 4.188 0 0 0-.259.33.908.908 0 0 0-.468.578c-.169.2-.325.393-.478.616a1.771 1.771 0 0 1 .07.523.523.523 0 0 1-.237.236c.013.02.032.02.044.048-.153.018-.31.03-.451.034-.138.244-.246.5-.383.764a.091.091 0 0 0 .009-.059c-.035.061-.1.138-.151.227l.161-.312v-.022c-.049.116-.126.233-.187.353a2.035 2.035 0 0 0-.215.524c.038-.065-.01.042-.01.05v.007a.029.029 0 0 0-.012.01.425.425 0 0 0 .021-.063.324.324 0 0 0-.026.04c-.025.03 0 .042-.021.079a1.819 1.819 0 0 1-.179.357.312.312 0 0 1 .22 0c.059.01.114-.008.158 0 .036-.038.08-.048.121-.083-.165 2.275.742 2.939 2.07 2.478a1.478 1.478 0 0 1 .316.4c.29-.111.27-.757.7-.677a1.328 1.328 0 0 0 .072.31c.161-.316.361-.584.524-.886.064-.068.128-.157.193-.24a.66.66 0 0 1-.092.071 31.809 31.809 0 0 1 2.283-3.55 22.388 22.388 0 0 1-2.192 3.479 13.185 13.185 0 0 0 3.342-4.963c.115-.154.218-.312.333-.455-.008-.1-.029-.2-.038-.308.01-.049.049-.1.06-.152.027-.772.016-1.422-.011-1.984a1.153 1.153 0 0 0 .2.355c.084.52.154 1.072.245 1.575.288-.328.576-.637.877-.984.632-.075 1.385-.67 2.135-2.146.105-.081.158-.12.182-.135-.011.006-.026.011-.034 0a2.479 2.479 0 0 0-.847.623c-.042.011-.069.028-.112.038-.251-.295.452-.595.942-.716.152-.131.321-.261.5-.394-.042.04-.052.075-.092.113.066-.047.185-.167.4-.359v-.007l.028-.025.038-.037c.012-.013.016-.007.014-.013a.275.275 0 0 0 .055-.041l-.016.016.2-.169a1.413 1.413 0 0 1 .12-.1c.055-.124.075-.219-.046-.244a.9.9 0 0 1 .135-.254c.04-.052.082-.062.135-.1-.034-.247-.1-.495-.131-.753a3.06 3.06 0 0 0 .029-.506zM930.4 28.012a.19.19 0 0 1 .074.054.51.51 0 0 1 0 .148c-.02-.084-.054-.137-.073-.2a1.024 1.024 0 0 0-.164-.075c0-.008.017 0 .016 0 .059.01.089.053.147.07-.031-.047-.037-.117-.069-.144.053-.052.092-.13.163-.127a2.546 2.546 0 0 1-.019.326.2.2 0 0 0-.075-.054zm.446 1.52c-.06-.039-.138-.106-.09-.415.107-.445.3-.03.433.072a1.089 1.089 0 0 0-.345.343zm.427-.343c.04-.039.079-.111.088-.341.034.169.117.22.167.343a.4.4 0 0 0-.256-.002zm.349-.992l-.008-.105a.143.143 0 0 0 .158.016c-.055.039-.062.14-.152.092zm-.012-1.783l-.029-.025.135.258-.013.007-.121-.258-.012.016.032.069v.014l-.047-.069v.014l.05.1-.082-.134-.008-.112-.017-.033.009.114-.015-.02.017.031v.021l-.031-.03c.018.031.019.044.034.071l.005.246h-.017l.012.158h-.049a9.113 9.113 0 0 1-.029-.649c.013 0 .026-.024.041-.025a1.376 1.376 0 0 1 .515.792l.02.247c-.047-.069-.04-.167-.1-.225l-.186-.368.052.112zm.46 1.314a.374.374 0 0 0 .026.133.57.57 0 0 1-.112.093.606.606 0 0 0 .084-.225zm-.233.658c.041.164.089.21.131.22-.011.058-.033.109-.043.163a1.32 1.32 0 0 1-.09-.383zm.34 1.428c-.062-.07-.142-.155-.207-.241-.022-.118.016-.2.176-.162.03.048.02.09.065.143a1.115 1.115 0 0 0-.036.261zm.1.045a.449.449 0 0 1-.01-.134c.027-.037.04-.038.05-.073l.043-.024-.047.148zm.1.154c-.018-.006-.034-.045-.063-.064v-.016h.013v-.034l.013.006v.028h.014l.013-.043v.058l-.014.029.016-.022v.02l.011-.028.017.027c.008-.072.027-.037.022-.087l.038-.037-.012.013.054-.042-.011.025.078-.06-.064.065-.026.031.07-.012v.02a.234.234 0 0 0 .141-.194c.047.042.114 0 .1-.14.22.375-.087.632-.411.458zm.19-.642c.041-.4.171.206.017.2 0 .029.028.02.03.04s-.028-.011-.042.011c0-.035-.016-.013-.018-.041.014 0-.014-.021 0-.008-.013 0-.013 0-.014-.013a.21.21 0 0 0 .026-.188zm.127-.582h-.018c0 .006 0 .006-.011.013-.079.072-.146.156-.237.227a2.285 2.285 0 0 1-.271-.713 2.527 2.527 0 0 1 .281-.595 3.327 3.327 0 0 0-.438-1.252.876.876 0 0 1 .1-.36 1.226 1.226 0 0 0-.217-.237.844.844 0 0 0 .064-.07 1.466 1.466 0 0 1 .321.466c-.08-.116-.143-.2-.168-.159.064.107.161.234.27.4a2.127 2.127 0 0 1 .112.32c-.132-.234-.326-.512-.195-.314l.233.434v.042l-.013.008.106.288v.055l-.013.009.091.239a2.442 2.442 0 0 0 .105.249l.019.073v-.043a.964.964 0 0 0 .206.431.715.715 0 0 1-.328.489zm.638-4.25c.009.02 0 .024 0 .055h-.014v-.048c0 .007-.014.021-.04.051-.014 0-.028.009-.042.01a.386.386 0 0 0 .1-.145v.028c-.013.017-.011.04-.023.056a.02.02 0 0 0 .018-.007zm2.148-4.151c-.029-.024-.073-.037-.076-.076.066-.039.106-.018.166-.052-.04.04-.096.059-.09.128zm.247.249a.118.118 0 0 0-.011-.041.164.164 0 0 0 .1.014zm.288-.094a.392.392 0 0 0 .192-.167l.2-.18-.059.058.179-.145a.048.048 0 0 1 .03-.01l.026-.022-.041.01h-.03l-.188.042v-.013l-.1.021v-.027a2.008 2.008 0 0 1 .411-.091c.157.227-.175.381-.621.524zm.368-.345l.115-.087-.1.085zm1.31 3.166a142.44 142.44 0 0 0-.409-3.486.939.939 0 0 1 .187.31 4.736 4.736 0 0 0 .217 1.138 11.432 11.432 0 0 1 .004 2.037zm-.1-3.786c.113.712.223 1.405.355 2.086a8.638 8.638 0 0 1-.353-2.087zm1.694-.91c-.2.009-.441.034-.511.023a1.1 1.1 0 0 1 .513-.024zm-.675.048a.994.994 0 0 0-.182.114c0-.016.01-.044 0-.065a.846.846 0 0 1 .183-.05zm.514.584a.212.212 0 0 0-.038.131c-.134.082-.2.016-.231-.073l.03.019h.029l-.091-.063v-.009l.105.064v-.016l.06.023-.105-.053v-.014l.059.023v-.013l-.045-.025a.376.376 0 0 1-.085 0c-.054-.147-.08-.3-.216-.03-.055.017-.058-.009-.1-.006a.026.026 0 0 1-.017-.027c0 .007-.013.014 0 .021-.2-.006-.164-.114-.091-.251a.259.259 0 0 0 .038.107c.154-.243 1.09-.528.98-.185l.029-.028-.027.042a.822.822 0 0 1-.043.1l.074-.085a.825.825 0 0 1-.078.092 2 2 0 0 1-.236.256zm.874 2.17l-.018-.008-.57.636-.013-.021c.3-.359.587-.7.916-1.02-.106.134-.181.243-.315.413zm1.359-5.28l.311.153.145.055-.042-.021.026.012c.06.018.034.037.12.05h.013l-.029-.011.013-.008-.1-.038.017-.009.086.039V16.4h.027l-.042-.02v-.014l.028.006v-.016l-.029-.011.071-.006-.031-.012.029-.016c-.09-.042-.086-.009-.159-.022l-.016-.022.013-.014-.47-.1c0-.014-.013-.007-.013-.013.559-.2.664.07.77.3-.362.033-.661.016-.74-.25zm1.185 2.623c0-.008-.013-.007-.013-.007a1.874 1.874 0 0 0 .076-.182.1.1 0 0 0 .054-.05 1.168 1.168 0 0 0-.119.239z" class="cls-4" data-name="Path 3503" transform="translate(-925.363 -14.01)"/>
                            <path id="Path_3504" d="M929.905 26.305a.022.022 0 0 1-.012.013c.007-.006 0-.006.012-.013z" class="cls-4" data-name="Path 3504" transform="translate(-925.343 -12.713)"/>
                            <path id="Path_3506" d="M965.447 72.18c0 .013 0 .029 1.07-.158v.02a3.057 3.057 0 0 1 .527-.166c-.311.058-.707.136-1.059.2a12.8 12.8 0 0 0-.538.104z" class="cls-4" data-name="Path 3506" transform="translate(-921.526 -7.821)"/>
                            <path id="Path_3507" d="M967.142 71.83l-.2.028a.446.446 0 0 1-.055.027c.451-.085.725-.144.255-.055z" class="cls-4" data-name="Path 3507" transform="translate(-921.371 -7.831)"/>
                            <path id="Path_3508" d="M938.393 18.6l-.068.089-.012.008-.1.151a1.694 1.694 0 0 1 .234-.255v-.006l.009-.024.035-.078v-.014l-.074.123z" class="cls-4" data-name="Path 3508" transform="translate(-924.45 -13.555)"/>
                            <path id="Path_3509" d="M929.483 27.146l.03.012.012-.022c-.037.073-.06.132-.1.2 0 .038-.009.058-.005.1.069-.027.094-.093.13-.152l-.012.023.014.012.028-.031-.038.082.013-.017v.044c.068-.134.022-.1.06-.188 0-.029.031-.047.042-.075a.454.454 0 0 1-.019-.062c.008-.084.069-.188.014-.164.028-.056.033-.128.058-.169-.022.061-.06.112-.082.162v.018a.907.907 0 0 1-.045.082c-.038.049-.078.089-.142.178l.015.007z" class="cls-4" data-name="Path 3509" transform="translate(-925.394 -12.666)"/>
                            <path id="Path_3510" d="M990.358 57.929c-.086.19-.164.378-.258.575a.2.2 0 0 0 .051-.081c.111-.257.184-.393.245-.512-.013.007-.025.023-.038.018z" class="cls-4" data-name="Path 3510" transform="translate(-918.88 -9.32)"/>
                            <path id="Path_3511" d="M932.669 26.965l-.15-.383c.038.13.057.164.1.31z" class="cls-4" data-name="Path 3511" transform="translate(-925.061 -12.684)"/>
                            <path id="Path_3512" d="M989.028 57.384c.237-.071.564-.165.931-.278z" class="cls-4" data-name="Path 3512" transform="translate(-918.995 -9.407)"/>
                            <path id="Path_3513" d="M932.436 27.285l-.1.137.014.014.092-.121c.008-.068.038-.083.058-.176l-.229.337.155-.2z" class="cls-4" data-name="Path 3513" transform="translate(-925.088 -12.624)"/>
                            <path id="Path_3514" d="M981.45 63.762a21.085 21.085 0 0 0-1.91 1.891 20.1 20.1 0 0 0 1.91-1.891z" class="cls-4" data-name="Path 3514" transform="translate(-920.013 -8.692)"/>
                            <path id="Path_3515" d="M965.238 78.562c-.085-.372-.14-.762-.235-1.1-.128 0-.228.009-.342 0a.282.282 0 0 1-.053.339c-.209.2-.9-.3-.787.38.073.041.09.249.15.342-.021.007-.035 0-.064.01a3.2 3.2 0 0 1 .113.454c-.124-.025-.111.143.017.478a1.8 1.8 0 0 1-.67-.365c.5.622.794.959.853.8.124.308.231.617.291.814-.576.843-1.2-.384-1.5-1.864.117.091.255.172.359.255a5.319 5.319 0 0 1-.375-.468 10.466 10.466 0 0 1-.178-1.166c-.378-.02-.742-.113-1.127-.146-1.193-1.052-2.669-1.848-4.25-1.122a10.789 10.789 0 0 0-5.046-.973c-.235-.087-.473-.127-.677-.209-.689.22-1.394.475-2.089.708.02.255.053.5.073.754a1.572 1.572 0 0 0-.092.615 4.629 4.629 0 0 0-.365-1.014l-.021-.09.1 1.064h-.023l.03.379-.031.008c-.052-.51-.106-1.027-.146-1.554-.249.091-.5.172-.741.255v-.008l.184-.064-.012-.01-.258.089.546-.218-.193.072c.26-.113.55-.22.177-.1-.144 0-.169.028-.3.022.041-.03.052-.065.093-.1-.112.05-.273.085-.412.128a1.841 1.841 0 0 0-.206.017c.229-.073.424-.144.638-.217a.134.134 0 0 0-.02.072c.067-.04.133-.087.2-.127s.154-.059.265-.1l-.016-.2a5.578 5.578 0 0 0-.1-1.5.825.825 0 0 1-.063.1l-.027-.347c-.224-.121-.435-.289-.664-.415-.017 0-.033-.032-.061-.045a1.959 1.959 0 0 0-.213-.137.053.053 0 0 1-.028-.012c-.03-.019-.065-.038-.08-.049l-.018-.009-.034-.017-.01-.007-.024-.016v.006c-.017-.007-.018-.013-.032-.021.014.008.015.014.032.016-.369-.227-.707-.443-1.032-.632l.005.007-.115-.074-.175-.112c-.048-.03-.1-.06-.15-.087 0 0-.013 0-.013-.01-.6-.365-1.016-.635-1.016-.635-.408-.265-.872-.477-1.258-.767s-.708-.514-1.084-.782c-.062-.053-.123-.1-.183-.151a22.8 22.8 0 0 1 2.606 1.489 9.3 9.3 0 0 0-2.73-1.617 34.828 34.828 0 0 1-2.159-1.89c-.023.266-.005.559-.013.844 0 .02-.01.042-.009.064-.013-.007-.028-.013-.029-.021-.029.169-.048.233-.069.338 0 .008.018.013.031.012a1.292 1.292 0 0 1-.14.51c-.043-.024-.038-.123-.069-.164.032.05.1-.07.177-.359a1.539 1.539 0 0 1-.268-.1 2.089 2.089 0 0 0 .052.324 1.538 1.538 0 0 1-.131-.386c.032.016.047.043.079.062a4.048 4.048 0 0 0-.048-.409.437.437 0 0 0-.133-.065c-.008-.277 0-.546.008-.806.018.012.02.039.033.047a.4.4 0 0 0-.041-.137c.009-.113 0-.233 0-.332-.061-.059-.124-.132-.186-.2a.844.844 0 0 1-.075.161c-.013 0-.014-.019-.026 0s.014.02.015.028a2.021 2.021 0 0 1-.25.442 1.716 1.716 0 0 1 .235-.47c-.1-.125-.176-.241-.284-.364a.369.369 0 0 0 .012-.186c-.248-.256-.508-.5-.74-.757a5.755 5.755 0 0 0-.507-.648c-.673-.8-1.28-1.651-1.873-2.516a9.669 9.669 0 0 1-.537-.849c-.009.054-.009.068-.02.117-.082-.131-.2-.246-.272-.381 0 .042.022.078.027.125a.757.757 0 0 0-.049-.059c.016.773 0 1.278-.03 1.63a1.339 1.339 0 0 0-.013.177c-.145 0-.323-.668-.519-1.543-.023-.122-.062-.247-.084-.358-.122-.472-.248-.981-.4-1.508.038-.09.075-.162.109-.26-.164-.289-.3-.61-.468-.912-.073-.2-.156-.374-.244-.563.038.1.072.195.111.31a11.717 11.717 0 0 1-.338-.672.344.344 0 0 0 .049-.109c.054.134.11.308.178.471-.186-.584-.392-1.017-.626-1.093-.086-.207-.216-.4-.3-.61a6.191 6.191 0 0 0-.039 2.257 4.7 4.7 0 0 1-.225.688c-.171-.113-.3-.188-.487.207a4.334 4.334 0 0 0 .147 1.01c-.179.231-.328.352-.459.3a3.23 3.23 0 0 0 .6 1.17c-.188-.062-.307-.286-.556-.212a2.415 2.415 0 0 0-.074-.957h.027a.917.917 0 0 1-.041-.174 3.729 3.729 0 0 1-.147-1.734c-.145-.2-.29-.4-.42-.613l-.019-.252a.541.541 0 0 1-.157-.029.1.1 0 0 1 .018.055.178.178 0 0 1-.033-.083c0 .008.014.019.016.028a.654.654 0 0 0-.1-.148c-.525-.814-1.047-1.6-1.876-1.648-.379-1.312.908-.013.537-1.323.379 1.4 1.09 1.122 1.558 2.468 0 .247.035.455.038.68a.345.345 0 0 0 .3-.124c.752-.2 1.155-.05.647-2.278.375-.013.445-.12.42-.275a2.592 2.592 0 0 0-.119-.323 2.124 2.124 0 0 1-.247-.7c.01-.006.013 0 .014 0a30.656 30.656 0 0 1-1.155-4.79c-.039-2.868-.079-5.96-.245-8.836 0-.022.011-.039.009-.065-.131.506-.224.971-.4 1.513a32.89 32.89 0 0 1 .973-6.333c-.168 1.328-.385 2.888-.578 4.82a29.533 29.533 0 0 0 1.22-7.534.3.3 0 0 0 .086-.016c.063-.181.112-.369.184-.558-.079-.056-.258 0-.268-.131.141-.035.223-.076.333-.106.07-.188.12-.379.2-.565a7.983 7.983 0 0 0-.549-1.58v.064c-.014-.02-.013 0-.031-.019a1.767 1.767 0 0 1-.311.751 2.15 2.15 0 0 0-.376-.662.752.752 0 0 0-.521-.666 2.238 2.238 0 0 1 .019-.821c-.029-.018-.032-.066-.077-.078-.29-.049-.186.543-.283.836-.092-.071-.156-.157-.24-.233-.057-.01-.1.029-.154.019-.043-.391-.012-.894-.638-.514a1.806 1.806 0 0 0 .241-1.277c-.415.876-.845 1.737-1.209 2.647a2.924 2.924 0 0 0 .245-.343c.125-.146.1.078-.039.4a5.367 5.367 0 0 0-.229.549 2.317 2.317 0 0 1-.342.483l-.27.9c.026.114.048.221.07.339-.1.41-.192.819-.284 1.273-.081-.081-.169-.159-.247-.238a36.566 36.566 0 0 0-1.376 12.947 37.539 37.539 0 0 0 6.293 18.071.141.141 0 0 0 .031.06 38.661 38.661 0 0 0 11.82 11.3c.28.187.554.388.822.58-.137-.1-.3-.245-.521-.393.321.19.58.422.9.59-.03.017 0 .021-.028.038l.014.007a.645.645 0 0 1 .151.09 3.28 3.28 0 0 0 .96-.26c0 .029.021.055.023.083 0 .006-.016.007-.03.009a.951.951 0 0 1-.153.061c-.192.061-.33.115-.509.177.4.229.86.385 1.281.592a3.24 3.24 0 0 0 1.787.837c.236.1.461.233.71.327a4.316 4.316 0 0 0-.047-.42.737.737 0 0 0 .331-.652 1.465 1.465 0 0 0 .1.189l.088 1.12c.2.069.413.1.6.173a.065.065 0 0 1 .011.035c.057 0 .128.019.169.022a38.994 38.994 0 0 0 10.262 2.247c.049-.113.114-.2.162-.308a1.588 1.588 0 0 0 .583-.743 2.187 2.187 0 0 1-.323.153 2.353 2.353 0 0 1 .623-.7c0 .041-.01.05-.007.09-.014.024-.04.061-.04.054 0 .021-.013.022-.028.03v.028c.013-.022.066-.1.066-.1a3.168 3.168 0 0 1 .041.926c-.029-.016-.045-.02-.06-.041 0 .06.037.105.041.162-.009.08 0 .164-.011.233v.034a.22.22 0 0 1-.081-.138c-.024.081.055.161.074.224a.458.458 0 0 0-.019.153h.145c.028.017 0 .033.043.052a.078.078 0 0 1-.017-.049h.163c.054 0 .053.019.124.013.013 0 .014.007.031.012a.47.47 0 0 1 .1 0 .227.227 0 0 0-.071-.009c.083 0 .157 0 .243.008h-.028a1.12 1.12 0 0 0 .185 0c0 .006.012.012.013.023l1.071.049a3.889 3.889 0 0 1-1 .014c1.018.653 1.819.517 2.293-.053a1.57 1.57 0 0 1-.228 0 1.558 1.558 0 0 1 .288-.135 1.279 1.279 0 0 1-.06.135 1.571 1.571 0 0 0 .261-.006c-.04.02-.009.053-.05.078a1.871 1.871 0 0 1 .216.008.246.246 0 0 0 .07 0c.106 0 .194 0 .264.009-.125-.342-.2-.752-.322-1.148a2.077 2.077 0 0 0-.46-2.058zm-16.173-3.415c-.026-.321-.062-.639-.088-.959a2.463 2.463 0 0 1 .088.959zm-18.22-25.954c-.054-.3-.174-.577-.213-.874a1.288 1.288 0 0 1-.495-1.054.569.569 0 0 1 .359.209c-.033-.248-.1-.489-.115-.75-.33.512-1.148-3.506-.49-3.169.021-.136.14-.24.361-.321 0-.122.039-.245.041-.38-.012.219-.021.461-.029.73a54.265 54.265 0 0 0 .581 5.609zm-.786-9.549a1.2 1.2 0 0 0 .082-.224c-.005.109-.028.191-.083.224zm1.356-8.351c-.054.041-.053.061-.118.109a3.214 3.214 0 0 0-.04-.513c.05.131.117.26.158.405zm.182 2.164c-.01.2-.038.426-.05.639-.364.247-.688.5-1.038.739-.609-.31.554-.91 1.091-1.378zm-1.62 5.146l.117-.14c-.156.2-.6-.443-.016-.6v-.02l-.166.084-.013-.008-.071.034h-.028l-.064.078.035-.075.027-.024-.041.018c.057-.181.246-.152.383-.2l.016.2h-.013v.054l-.039-.113-.01.037-.033-.033c.081.326.081.482.03.561l.091-.126c.005.084.012.168.019.249l-.224.021zm-.07.006h-.014c0-.052-.02-.058-.039-.113zm.23-5.264l.3-.115a.833.833 0 0 1-.3.114zm.165-.443a.239.239 0 0 1 .147.074l-.115-.013.057.018-.055.01c.737-.041-.884.529-.3.151l-.028-.012-.121.094.079-.084.04-.038-.123.059-.018-.007c-.228.165-.264.252-.218.3-.012.008-.027 0-.041.01-.149-.251.31-.399.694-.564zm-.759 6.342c.028-.2.213-.373.615-.508l-.011.016c.024-.024.012-.009.036-.025-.008.006-.01 0-.011 0s.011 0 .02-.006c.1-.069.133-.016.112.1a1.072 1.072 0 0 0 .061-.167.061.061 0 0 1 .041-.017c.08.127-.009.247-.13.349a.673.673 0 0 0 .028-.165 1.056 1.056 0 0 1-.1.209.565.565 0 0 1-.175.118c.048.039.114-.009.121.076v.013a2.2 2.2 0 0 1-.5.7.607.607 0 0 0 .062.066c0 .034-.026.043-.022.093-.028-.013-.034-.1-.052-.144 0 0 0-.009.012-.016l-.031-.012a.169.169 0 0 1-.033-.089l-.011-.134.019.073.057.155-.047-.208.029-.017-.023-.125.013-.006-.053-.3-.012.04c-.018.114-.016.142-.026.228a1.764 1.764 0 0 0-.034-.27.147.147 0 0 0 .046-.028zm-1.728-4.981a1.572 1.572 0 0 1-.259-.245c.1-.374.183-.744.287-1.1a2.126 2.126 0 0 1-.027 1.344zm1.077 5.594v-.008l.069-.106-.013-.006-.013.007.012-.014-.049.04h-.012l.011-.016h-.012l-.011.035.01-.056-.012.022v-.007c-.053.045-.009.042-.051.078l-.07.019-.013-.006-.141.389c-.03.009-.029.023-.055.029-.164-.251-.079-.463.45-.6.122.217.026.393-.34.54l.192-.254.039-.063c.012-.017.012-.008.01-.023zm3.469 22.291a4.18 4.18 0 0 1-.168-1.422 6.28 6.28 0 0 1 .257 1.456c-.042.011-.057-.03-.087-.034zm.439-2.588c.025-.052.051-.082.076-.134.018.054.008.091.026.161-.042-.004-.058-.025-.102-.027zm1.452.55c.009 0 .013-.014.013-.022.016.048.02.1.043.165-.021-.053-.036-.087-.055-.143zm.694 3.792a16.599 16.599 0 0 0-.042-1.082c.208.847.367 1.239.429.557a1.79 1.79 0 0 0 .079.489zm.581-.953c.016-.142.051-.422.078-.629.064.087.1.2.189.233a.4.4 0 0 1-.265.395zm4.17 5.537v.027h-.014l-.018-.048c.019.006.02.012.035.02zm-.031-.034h-.013l.035.1-.068-.131c.019.012.034.018.048.03zm-1.252-1.579c-.027-.345-.062-.69-.1-1.043.108.027.144-.066.17-.178l.051.071c.134.329.309 1.116-.119 1.149zm.631.2c.047.216.09.424.131.713-.018 0 .013.012 0 .013a.414.414 0 0 1-.041.056c.018-.353-.115-.379-.246-.4-.017-.269.05-.337.158-.387zm.05 1.709c.031.237.072.369.168.361a.739.739 0 0 0 .012.161.417.417 0 0 1-.175-.528zm.57.218c-.153-.162-.322-.307-.4-.2a.262.262 0 0 1 .043-.251l-.1.08-.008-.029-.059.153.016-.127a.9.9 0 0 1 .386-.36c.031.032.034.083.065.114v.048c.239.396.177.523.059.567zm.172.176a.212.212 0 0 0 .058.01c0 .035.015.034.018.062a.821.821 0 0 0-.074-.077zM942 73.524l-.1.072c-.058 0-.111.042-.155.04-.007-.311.547-.479 1.036-.579a1.816 1.816 0 0 0-.267.14l-.014-.014-.1.059c-.27.144-.432.258-.4.282zm.025.041l.151-.083a3.273 3.273 0 0 0 .672-.306 1.8 1.8 0 0 1-.819.389zm.89-.451l-.193.094.138-.073.011-.018-.15.084v-.009l-.013.011v-.01l.164-.082h-.013l.039-.024-.094.04h-.018l.055-.025h-.014l-.068.032.107-.078-.055.017.012-.013c.086-.016.154-.049.237-.062-.019.032-.102.073-.141.116zm.953-2.39c-.609.249-1.021-.311-.694-.673-.06-.047-.122-.1-.168-.142.317.229.589.413.907.66-.061-.056-.151-.078-.2-.131-.07.099-.09.194.16.286zm5.9 6.742c.016.136.033.272.043.41a1.223 1.223 0 0 1-.034-.41zm8.233 1.286l.2-.019a1.893 1.893 0 0 0-.213.061c-.002-.013.023-.029.022-.042zm.135-.287a2.834 2.834 0 0 0-.136.271c-.043-.097.023-.197.145-.271zm.578.11l.013-.006-.072.016v-.007l.029-.013-.014-.013-.042.018.068-.048h.013-.041l.011-.03c-.012.014-.03.009-.042.017l-.085-.014.012-.009-.056-.017.011-.021-.074-.044.072.022h.044l-.075-.053.012-.027-.02-.011c.175-.022.324.021.319.193a.152.152 0 0 1-.074.046zm-6.161-3.287c1.766.22 3.6 1.11 5.282 1.156a13.194 13.194 0 0 1 2.186.658 34.4 34.4 0 0 1-7.459-1.814zm9.312 3.391a1.549 1.549 0 0 1 .043-.184.513.513 0 0 0 .041.246c-.014-.041-.041-.065-.075-.063zm.447.068c-.206.213-.283-.274-.033-.431a.961.961 0 0 0 .1.058c.01.141-.057.208-.058.372zm.268-.585c.012-.016.012-.009.011-.022L962.5 78l.048.082-.013.009-.032-.054c0-.028-.029-.019-.031-.04-.013 0-.008.069-.022.083 0-.008-.013-.013-.014-.021l-.044-.059v-.014l-.1-.12-.016-.02-.026.022c-.017 0-.018-.012-.031-.024l.011-.017h-.013c.2-.223.425-.233.448.456-.05.039-.047-.083-.076-.122zm.552 3.5c.13.006.259.01.4.023.007.002-.162-.007-.39-.021z" class="cls-4" data-name="Path 3515" transform="translate(-925.784 -12.562)"/>
                            <path id="Path_3516" d="M945.67 68.575l.01.007a.2.2 0 0 0 .034.017l.02.009a.674.674 0 0 1 .107.061l.09.034c-.076-.043-.078-.05-.2-.117l-.134-.079a.5.5 0 0 0 .048.05z" class="cls-4" data-name="Path 3516" transform="translate(-923.657 -8.183)"/>
                            <path id="Path_3517" d="M993.689 58.9h-.016a2.564 2.564 0 0 0-.366-.352c-.042.136-.1.25-.143.378a3.739 3.739 0 0 1-.8 1.481c.085-.207.175-.411.272-.617l.182-.322-.153.3-.061.118.151-.209.018.012a1.863 1.863 0 0 1 .244-.617c-.026.03-.08.075-.131.141.081-.209.153-.394.235-.6-.354.638-.714 1.226-1.068 1.827a10.036 10.036 0 0 1 1.29-2.471c.014.027.018.07.035.069a.281.281 0 0 0 .047-.09c.018.008.028-.023.039-.045a1.1 1.1 0 0 1-.048.117.877.877 0 0 0 .1-.879c.023-.08.047-.147.068-.233a.874.874 0 0 0-.165.054.121.121 0 0 0 .008-.065c0-.012 0-.012.009-.034-.112.008-.2.056-.315.065.037.006.094.013.138.024l-1.03.3a2.44 2.44 0 0 1 .62-.272 8.109 8.109 0 0 0-2.967 1c1.906-.57 3-.908 3.39-1.036.031.012.088 0 .115.02a14.742 14.742 0 0 1-2.428.788 3.112 3.112 0 0 0 .311-.12l.034-.01-.031.009a2.084 2.084 0 0 1 .256-.092.533.533 0 0 1 .123-.034l-.014-.013s.166-.047.291-.093l-1.508.458v-.016c0-.007.606-.183 1.217-.365 0-.006.6-.2 0-.019l-1.752.523c-.068.032-.123.051-.192.09-.1.023-.183.051-.279.071a2.6 2.6 0 0 0-.184.226c-2.276 1.534-4.013 3.972-5.9 6.125.082-.07.131-.152.21-.22 1-1.028 2.5-2.568 3.549-3.669a12.765 12.765 0 0 0 .95-.984c-.03.025-.071.044-.09.076.029-.062.093-.1.145-.144a1.258 1.258 0 0 1 .163-.183 1.435 1.435 0 0 0-.122.14c.078-.081.154-.158.23-.234.14-.116.292-.224.429-.345a34.433 34.433 0 0 1-8.305 8.648c.288-.416.615-.807.93-1.194a9.07 9.07 0 0 1-.8.7 1.854 1.854 0 0 0-1.276 1.445.056.056 0 0 1-.027.03v.051a4.767 4.767 0 0 0-.12 1.007 1.061 1.061 0 0 1 .183.153c0 .049.008.092.011.144-.023.086 0 .169-.024.255.023.126.046.194.068.3.018.4.047.776.063 1.208-.019-.069-.039-.166-.079-.283v.034-.034a4.526 4.526 0 0 1-.052-1.223 2.387 2.387 0 0 0-.068-.317c-.029-.031-.057-.035-.09-.075l-.008-.093v-.066h-.001c-.024-.307-.09-.585-.114-.9-.3.2-.641.354-.954.541a2.321 2.321 0 0 0-1.287.57 3.87 3.87 0 0 1 .891-.337 4.274 4.274 0 0 1-.269.157c-.031-.007-.055.032-.084.04-.308.172-.6.345-.884.5a2.466 2.466 0 0 1 .346-.365 3.512 3.512 0 0 0-.791.611c-.253.14-.5.3-.749.437.13.018.2.223.295.393a1.137 1.137 0 0 0 .129.819 3.188 3.188 0 0 0-.494.09c-.02-.214-.047-.446-.081-.7a5.582 5.582 0 0 0 .11-.589c-.362.18-.752.295-1.124.465v-.009l.275-.12v-.002l-.277.117c.474-.2.7-.314.7-.32l-.3.117c.433-.186.866-.381.28-.14a4.5 4.5 0 0 0-2.113.623 34.317 34.317 0 0 0-10.3 2.6l2.62-.353v.028l1.051-.2v.029l1.39-.262a3.211 3.211 0 0 1 1.277-.206 30.345 30.345 0 0 1-5.665 1.041c-.375.029-.726 0-1.107.022.162.529.378 1.043.574 1.557l.174.5a15.9 15.9 0 0 0-.59-1.488l.195.5c-.3-.749-.58-1.495-.225-.489a5.043 5.043 0 0 0 .262 2.259c-.162-.064-.272 0-.206.63a2.051 2.051 0 0 1 .412.025.727.727 0 0 0 .322.185.96.96 0 0 1-.235-.178 1.582 1.582 0 0 1 .866.349c-.014-.012-.1-.027-.074-.043a1.157 1.157 0 0 1-.557-.127 1.621 1.621 0 0 0 1.121.426.245.245 0 0 0-.056.184c.563-.051 1.1-.211 1.649-.283a8.006 8.006 0 0 0 2.59-.448c.315-.073.62-.09.927-.156a8.171 8.171 0 0 1 1.595-.625.554.554 0 0 1 .283-.1c1.688-.578 4.116-1.369 5.566-1.878v.027l.208-.1a4.054 4.054 0 0 0 1.012-.423.767.767 0 0 0 .009-.093c.09-.045.179-.091.271-.135a4.227 4.227 0 0 0 1.088-.555c.121-.072.267-.126.391-.2l-.005-.078c.026-.023.068-.048.092-.07a.177.177 0 0 0 .021.086c.272-.166.54-.378.839-.547a14.806 14.806 0 0 0 5.632-4.161.63.63 0 0 1-.11.054c.2-.179.39-.383.56-.566-.143.181-.3.341-.451.512a7.13 7.13 0 0 0 2.523-2.573c.29-.329.642-.6.917-.934-.1.047-.162.109-.271.161.062-.116-.066-.113-.282-.037a.39.39 0 0 0 .02-.132.607.607 0 0 1 .453-.285c.062.06.184.055.218.144a2.228 2.228 0 0 1 .25-.271.929.929 0 0 0 .527-.547c.013-.01.013-.01.09-.107a.027.027 0 0 0 .011-.029.725.725 0 0 1-.089.121c.024-.043.054-.045.063-.1l.041-.038c.023-.03.033-.081.062-.114a2.232 2.232 0 0 1 .144-.171c.005-.106.057-.186.069-.291.166-.324.336-.675.507-1.048a1.272 1.272 0 0 0-.052.243v.034l.118-.3.013.006.049-.105.032.012c-.106.282-.228.558-.327.848.124-.161.243-.331.371-.5l.011.009.05-.075-.071.162.039-.045-.023.065a1.437 1.437 0 0 0 .476-.818c.051-.069.116-.143.168-.215-.147-.075-.321-.1-.382-.341-.049.111-.1.247-.144.36-.012.017-.026 0-.047.032.137-.337.3-.632.457-1 0 .016.017.022.018.043l-.018-.05c.013-.007.013-.013.013-.013l.078.275c.034.1.072.2.107.3l.011.138.013-.042a.153.153 0 0 1 .033.081c.141-.2.232-.405.357-.611.414-.1.658-.694.723-1.26.123-.228.264-.452.4-.677l.084-.041h.013v-.008h.013-.013V59.086l-.013-.006-.017.007.018.015h-.017l-.013.007-.012.008v-.008c-.074-.046-.126-.133-.201-.209zm-30.946 18.447l.137.018c-.044-.012-.092.007-.137-.018zm.151.017a1 1 0 0 0-.152-.023c-.013-.007-.013-.013-.03-.012.2-.009.3-.093.287-.268a3.075 3.075 0 0 0 .123.3c-.083.057-.156.022-.229.002zm1.173.908c-.142-.018-.314-.027-.4-.041a1.248 1.248 0 0 1 .491-.28.6.6 0 0 1-.092.32zm.365.126c-.054.019-.066.043-.122.063 0-.016.011-.033.01-.055.043 0 .082-.019.125-.022zm.166-.093h-.031l.186-.185.044-.06c.065-.061.082-.025.147-.131a.627.627 0 0 1-.344.371zm.349-.393l-.109.106.01-.022.066-.074V77.9h-.014l.012-.02-.041.044h-.014l.012-.023h-.013l-.023.037.034-.065-.026.022-.013-.019c-.074.061-.039.065-.083.118l-.052.011-.007-.005-.2.31h-.143c.028-.2.112-.4.666-.509-.002.033-.047.068-.063.11zm3.4-1.969c-.087-.2-.185-.378-.268-.6.279-.54.529-.357.781-.032a7.977 7.977 0 0 1-.515.631zm8.408-5.6l.012.153c-.019-.018-.023-.081-.05-.079-.005-.043.021-.046.036-.077zm-.871 1.067c.04 0 .047.082.1.043a2.286 2.286 0 0 0 .024.638h-.2a2.127 2.127 0 0 1 .073-.683zm-1.07.173a.81.81 0 0 0 .016.237 1.159 1.159 0 0 0-.157-.065c0-.064.006-.131.011-.2.076.045.072.002.128.026zm2.954-.464l.027-.016-.127-.172.014-.013-.074.006c-.186-.194-.38-.258-.664.127a2.058 2.058 0 0 1-.051-.295v.019l-.018-.04v-.056l.048.076a2.821 2.821 0 0 1 .208-.8l-.264.269-.083.31c0-.014 0-.021-.014-.027v-.171c.01-.043.04-.059.072-.089l.026-.024v-.007l-.027.023a.731.731 0 0 1 .313-.348c-.013.014-.01.047-.023.062.189-.23.29-.23.365-.161.021.662.2.592.343.405a.084.084 0 0 0 .029-.009v-.018a1.458 1.458 0 0 0 .141-.182c0 .053.008.1.012.152a.233.233 0 0 1-.152.047 2.389 2.389 0 0 1 .213.734v.063a.472.472 0 0 1-.124.4 6.695 6.695 0 0 0-.192-.267zm.206.278c.045.031.12.085.147.083l.009.111a1.415 1.415 0 0 1-.158-.197zm1.56.509c.014.2.026.337.041.53a4.169 4.169 0 0 1-.059-.415c.007-.048.005-.077.016-.121zm-.005 1.369l-.049-.623c.039.146.085.388.118.612a.223.223 0 0 1-.071.009zm4.731-3.84a6 6 0 0 0-.246-1.13 4.129 4.129 0 0 1 .425 1.058 1.079 1.079 0 0 0-.182.069zm4.18-10.21c.177-.175.353-.341.533-.5-.038.058-.091.112-.142.178-.131.109-.265.211-.393.319zm.5 6.269c.012-.008 0 0 .011-.016s.029-.022.028-.038a.074.074 0 0 0 .017.049c-.046.011-.017-.016-.059.002zm.164.094a.69.69 0 0 1-.1.034c0-.028.009-.05.007-.078a.306.306 0 0 0 .089.041zm-.022-.451c.011-.037.009-.064.02-.1-.075.112-.152.209-.146.286a.749.749 0 0 0-.1.143.722.722 0 0 1 .262-.465.039.039 0 0 0-.013.037.216.216 0 0 1 .058-.1c.026-.022.04-.04.065-.062.013 0 0 .014.014.013-.056.083-.125.174-.163.246zm1.756-7.341l-.079.019a1.389 1.389 0 0 1 .288-.093c-.073.024-.141.051-.212.072zm.318-.114a1.081 1.081 0 0 0-.1.037.475.475 0 0 1 .097-.039zm-.2 4.394a.852.852 0 0 1-.312-.807l.1.379.069.165c.018.055.021.091.039.146l.018.019-.02-.041.018.006-.04-.117.013-.008.04.117.012-.009-.014-.027.024-.016v.029l.012-.016-.017-.048.05.08v-.034h.014c-.017.06.002.14-.009.18zm.012-.19c-.021-.1-.038-.137-.057-.216l-.018-.011c-.094-.289-.158-.4-.181-.339l-.064-.149c0-.043-.019-.072-.008-.107.308-.152.382.436.326.819z" class="cls-4" data-name="Path 3517" transform="translate(-921.902 -9.432)"/>
                            <path id="Path_3518" d="M940.978 14.055a.843.843 0 0 1-.094.05v-.019l-.013.008.011-.037h-.013v-.028c-.027.008-.011.035-.04.052v-.021l-.036.051c-.028.039-.082.071-.079.106l-.04.024c0 .008 0 0 .014 0s.013 0 .013.007.013-.009.031 0l-.028.042.084-.041a.214.214 0 0 0 .238-.1z" class="cls-4" data-name="Path 3518" transform="translate(-924.186 -14.031)"/>
                            <path id="Path_3519" d="M948.577 70.135l.075.037v-.012l-.106-.062.236.086-.074-.035.086.021c-.574-.606-.962-.668-1.215-.535-.141-.06-.259-.124-.392-.186l.057.718v.038l.059.749c.112-.038.209-.063.313-.1.25.126.637.074 1.189-.332l.042-.033-.488.159v-.014l-.168.049-.014-.02c.278-.091.556-.19.86-.291-.163-.072-.312-.163-.46-.237z" class="cls-4" data-name="Path 3519" transform="translate(-923.487 -8.082)"/>
                            <path id="Path_3520" d="M943.953 67.276c-.164-.106-.327-.2-.493-.308a1.467 1.467 0 0 0 .184.155c.073.052.222.103.309.153z" class="cls-4" data-name="Path 3520" transform="translate(-923.887 -8.348)"/>
                            <path id="Path_3521" d="M945.78 68.642a8.8 8.8 0 0 0-1.875-1.4 10.375 10.375 0 0 1 .813.749z" class="cls-4" data-name="Path 3521" transform="translate(-923.839 -8.318)"/>
                            <path id="Path_3522" d="M942.236 66.434l2.22 1.371a9.891 9.891 0 0 0-.681-.625c-.475-.245-.936-.499-1.539-.746z" class="cls-4" data-name="Path 3522" transform="translate(-924.018 -8.405)"/>
                            <path id="Path_3523" d="M990.464 47.328c-.045.539-.083.951-.134 1.388.145-.514.3-.987.416-1.483a2.31 2.31 0 0 1-.282.095z" class="cls-4" data-name="Path 3523" transform="translate(-918.855 -10.467)"/>
                            <path id="Path_3524" d="M992.226 56.718c-.014.009-.016 0-.029.01l-.2-.04.011-.017-.3-.074a.266.266 0 0 0-.161-.039l-.144-.038c.014.012.014.019.029.033-.027 0-.041-.012-.083 0-.113.1-.145.23-.281.331l.093-.1v-.016l-.131.144.217-.311-.079.093.063-.114a4.627 4.627 0 0 0-.619 1.112c-.012.016-.013.009-.012.021v.023c-.149.445-.06.687.172.74a3.21 3.21 0 0 1 .064.642c.151-.257.287-.506.446-.759a1.053 1.053 0 0 0 .588-1.018c.1-.188.21-.343.295-.522l.064-.1h-.014zm-1.226.764c-.018.311-.1.21-.2.133l.214-.362c.006.08-.045.161-.014.229z" class="cls-4" data-name="Path 3524" transform="translate(-918.834 -9.47)"/>
                            <path id="Path_3525" d="M944.241 67.672a.407.407 0 0 0 .071.065c.054.03.109.063.163.1s.117.074.175.112l.11.068c-.029-.021-.048-.047-.078-.065z" class="cls-4" data-name="Path 3525" transform="translate(-923.803 -8.272)"/>
                            <path id="Path_3526" d="M969.744 75.378l.206-.058-.026.016v.013l.043-.01-.084.05h.044l-.029.03c.382-.065.585-.177.61-.24.048-.011.069-.02.112-.031-.018-.032-.065 0-.083-.028l.048-.032-.082.027a.578.578 0 0 0-.334-.074l-.283.1a.317.317 0 0 0-.142.237z" class="cls-4" data-name="Path 3526" transform="translate(-921.065 -7.482)"/>
                            <path id="Path_3527" d="M930.677 24.854a.464.464 0 0 0 .328-.006.132.132 0 0 1-.01-.019z" class="cls-4" data-name="Path 3527" transform="translate(-925.259 -12.872)"/>
                            <path id="Path_3528" d="M930.286 25.48c-.012.016 0 .022-.01.043.305-.65.488-1.012.01-.043z" class="cls-4" data-name="Path 3528" transform="translate(-925.302 -12.866)"/>
                            <path id="Path_3529" d="M938.021 18.8h-.016l-.014-.01z" class="cls-4" data-name="Path 3529" transform="translate(-924.474 -13.519)"/>
                            <path id="Path_3530" d="M928.592 38.676l.01-.029-.01.029z" class="cls-4" data-name="Path 3530" transform="translate(-925.483 -11.388)"/>
                            <path id="Path_3531" d="M930.3 32.538z" class="cls-4" data-name="Path 3531" transform="translate(-925.3 -12.045)"/>
                            <path id="Path_3532" d="M958.724 74.241v.05c-.014 0-.016-.012-.016-.02s.017-.021.016-.03z" class="cls-4" data-name="Path 3532" transform="translate(-922.249 -7.567)"/>
                            <path id="Path_3533" d="M955.488 73.593z" class="cls-4" data-name="Path 3533" transform="translate(-922.595 -7.637)"/>
                            <path id="Path_3534" d="M955.43 73.7h-.013l.068-.03a.106.106 0 0 1-.055.03z" class="cls-4" data-name="Path 3534" transform="translate(-922.603 -7.629)"/>
                            <path id="Path_3535" d="M955.491 73.59c-.682.371-.5-.112 0 0z" class="cls-4" data-name="Path 3535" transform="translate(-922.643 -7.639)"/>
                            <path id="Path_3536" d="M959.152 76.419h-.144.057c.035-.002.057-.004.087 0z" class="cls-4" data-name="Path 3536" transform="translate(-922.218 -7.334)"/>
                            <path id="Path_3538" d="M959.044 73.235c0 .006 0 .006-.012.014v-.05z" class="cls-4" data-name="Path 3538" transform="translate(-922.215 -7.679)"/>
                            <path id="Path_3539" d="M959.031 73.245z" class="cls-4" data-name="Path 3539" transform="translate(-922.215 -7.674)"/>
                            <path id="Path_3540" d="M929.878 43.978l-.015-.019z" class="cls-4" data-name="Path 3540" transform="translate(-925.346 -10.818)"/>
                            <path id="Path_3541" d="M929.721 43.937l.014.007h-.013z" class="cls-4" data-name="Path 3541" transform="translate(-925.362 -10.82)"/>
                            <path id="Path_3542" d="M929.694 43.939c.016.013.016 0 .031 0l.014.007z" class="cls-4" data-name="Path 3542" transform="translate(-925.364 -10.82)"/>
                            <path id="Path_3543" d="M929.776 43.94l.013.006h-.03z" class="cls-4" data-name="Path 3543" transform="translate(-925.358 -10.82)"/>
                            <path id="Path_3544" d="M929.734 43.943c.013.006.013 0 .028 0l.019.021z" class="cls-4" data-name="Path 3544" transform="translate(-925.36 -10.82)"/>
                            <path id="Path_3545" d="M987.811 63.542c.017-.008.016-.014.016-.021.073-.087.066-.061-.016.021z" class="cls-4" data-name="Path 3545" transform="translate(-919.125 -8.724)"/>
                            <path id="Path_3546" d="M987.188 57.882l-.085.019c.029-.009.043-.01.085-.019z" class="cls-4" data-name="Path 3546" transform="translate(-919.201 -9.323)"/>
                            <path id="Path_3547" d="M989.235 60.52v.016h-.013c.014-.007.014-.007.013-.016z" class="cls-4" data-name="Path 3547" transform="translate(-918.974 -9.04)"/>
                            <path id="Path_3548" d="M989.262 60.681v.05z" class="cls-4" data-name="Path 3548" transform="translate(-918.97 -9.023)"/>
                            <path id="Path_3549" d="M990.794 58.9l-.014.029c0-.012.016-.021.014-.031z" class="cls-4" data-name="Path 3549" transform="translate(-918.807 -9.214)"/>
                            <path id="Path_3551" d="M993.958 51.608c.073.044.08.13 0 0z" class="cls-4" data-name="Path 3551" transform="translate(-918.466 -9.997)"/>
                            <path id="Path_3552" d="M929.766 32.535a.5.5 0 0 1-.068.04v.007z" class="cls-4" data-name="Path 3552" transform="translate(-925.364 -12.045)"/>
                            <path id="Path_3553" d="M929.706 32.571a.392.392 0 0 0-.083.049l.068-.048z" class="cls-4" data-name="Path 3553" transform="translate(-925.372 -12.041)"/>
                            <path id="Path_3555" d="M929.675 37.416z" class="cls-4" data-name="Path 3555" transform="translate(-925.367 -11.521)"/>
                            <path id="Path_3556" d="M928.592 38.673v.008z" class="cls-4" data-name="Path 3556" transform="translate(-925.483 -11.386)"/>
                            <path id="Path_3557" d="M991.318 56.507v.016l-.058-.017z" class="cls-4" data-name="Path 3557" transform="translate(-918.755 -9.471)"/>
                            <path id="Path_3558" d="M992.061 56.706l.014.006z" class="cls-4" data-name="Path 3558" transform="translate(-918.669 -9.45)"/>
                            <path id="Path_3559" d="M929.726 42.183c-.027 0 0-.028-.016-.027l.029.012z" class="cls-4" data-name="Path 3559" transform="translate(-925.363 -11.012)"/>
                            <path id="Path_3561" d="M929.685 42.147l.012-.022c.014.013 0 .028.016.034z" class="cls-4" data-name="Path 3561" transform="translate(-925.365 -11.015)"/>
                            <path id="Path_3563" d="M929.668 42.123l.016-.023a.026.026 0 0 0 .015.028z" class="cls-4" data-name="Path 3563" transform="translate(-925.367 -11.018)"/>
                            <path id="Path_3564" d="M973.817 71.41v-.01c.015-.005.015-.005 0 .01z" class="cls-4" data-name="Path 3564" transform="translate(-920.628 -7.872)"/>
                            <path id="Path_3565" d="M973.759 71.471v.028l-.014-.013z" class="cls-4" data-name="Path 3565" transform="translate(-920.635 -7.865)"/>
                            <path id="Path_3566" d="M929.7 26.754v-.011l.014.016h-.014z" class="cls-4" data-name="Path 3566" transform="translate(-925.364 -12.666)"/>
                            <path id="Path_3567" d="M929.713 26.752v.006z" class="cls-4" data-name="Path 3567" transform="translate(-925.362 -12.665)"/>
                            <path id="Path_3569" d="M929.673 26.728l-.015-.013.015.013z" class="cls-4" data-name="Path 3569" transform="translate(-925.368 -12.669)"/>
                            <path id="Path_3570" d="M929.66 26.715z" class="cls-4" data-name="Path 3570" transform="translate(-925.369 -12.669)"/>
                            <path id="Path_3571" d="M929.672 26.727l.032.018-.016-.006z" class="cls-4" data-name="Path 3571" transform="translate(-925.367 -12.668)"/>
                            <path id="Path_3572" d="M929.65 26.711v.007l-.019-.02z" class="cls-4" data-name="Path 3572" transform="translate(-925.371 -12.671)"/>
                            <path id="Path_3573" d="M935.815 19.557h-.015l.028-.017h.013z" class="cls-4" data-name="Path 3573" transform="translate(-924.709 -13.44)"/>
                            <path id="Path_3574" d="M935.834 19.541l-.068.04.069-.033z" class="cls-4" data-name="Path 3574" transform="translate(-924.713 -13.439)"/>
                            <path id="Path_3575" d="M935.876 19.549c-.937.555-1.11.186 0 0z" class="cls-4" data-name="Path 3575" transform="translate(-924.783 -13.439)"/>
                            <path id="Path_3576" d="M932.057 28.4l.019-.1-.016.117z" class="cls-4" data-name="Path 3576" transform="translate(-925.111 -12.5)"/>
                            <path id="Path_3577" d="M931.355 25.31c.848 1.584-.058 1.815 0 0z" class="cls-4" data-name="Path 3577" transform="translate(-925.186 -12.82)"/>
                            <path id="Path_3578" d="M931.35 25.245z" class="cls-4" data-name="Path 3578" transform="translate(-925.187 -12.827)"/>
                            <path id="Path_3579" d="M932.584 23.9c0 .008-.014.009-.013.016v-.007s-.001-.004.013-.009z" class="cls-4" data-name="Path 3579" transform="translate(-925.056 -12.971)"/>
                            <path id="Path_3580" d="M933.448 21.951a.151.151 0 0 0-.029.023c.014-.022.028-.031.04-.053-.012.016-.012.022-.011.03z" class="cls-4" data-name="Path 3580" transform="translate(-924.965 -13.184)"/>
                            <path id="Path_3581" d="M935.862 19.521l.029-.016z" class="cls-4" data-name="Path 3581" transform="translate(-924.702 -13.443)"/>
                            <path id="Path_3582" d="M932.062 28.295v-.02l.009-.048z" class="cls-4" data-name="Path 3582" transform="translate(-925.11 -12.507)"/>
                            <path id="Path_3583" d="M929.443 27.141l-.012.03c0-.013.013-.014.012-.03z" class="cls-4" data-name="Path 3583" transform="translate(-925.393 -12.624)"/>
                        </g>
                    </g>
                </g>
            </g>
        </g>
    </g>
</svg>
