<svg id="Layer_1" data-name="Layer 1" xmlns="http://www.w3.org/2000/svg" viewBox="0 0 528 193"><defs><style>.the-dream{fill:#fff}</style></defs><path class="the-dream" d="M220.17 23.26h.56c-.9 10.54-1.2 19.13-1.69 30v1.77c0 1.84.56 8.09 1 8.08.08 0-.05-1.45.19-1.45s.28 1.27.77 1.42a2 2 0 0 1 .2-1.29s.31 2.32.63 2.31c0 .08 0-1.85.19-1.69s.4 2.47.8 2.46a4.64 4.64 0 0 1-.22-1.84c.17.16.78 1.74 1 1.66 0-.16.08-.33.07-.49.09.16.33.31.33.23l-.18-.55c.48 0 .26.47.83.78a6.13 6.13 0 0 1-.2-1.28.54.54 0 0 1 .23-.49 2.17 2.17 0 0 0 1.17 1.89c0-.4.06-1 0-1.53.34.72.44 1.44.52 1.35a4.35 4.35 0 0 1 .22-.81c1.58-14.49 2.86-25.44 4-40.73.9-.17 4.87-.51 6.37-.58-1.27 11.45-2.7 23.69-3.76 34.7-.24 2.65.7 4.63 1.36 5a2.36 2.36 0 0 0-.18-.64c0-.48.31-.17.29-.81h.33c-.08 0 .26.39.34.47.09.32.35 1 .42.79s-.1-.72-.11-1.12a.68.68 0 0 1 .07-.32c0 .24.17.39.18.47v.08c.32.08.33.48.49.47 0-.32-.09-.48-.11-1a.71.71 0 0 0 .26.4c0-.16 0-.49.14-.57s.18.56.26.63v.08c0 .16 0 .32.09.32s.08-.08.07-.32c.16 0 .25.15.33.15v-.06a2.87 2.87 0 0 1-.1-.4c0-.08.08-.16.08-.24 0 .16 1 .13 1 .13s-.87.27-.87.43.82.46.9.45c0-.4.06-.64.14-.64s.17.07.17.07a.07.07 0 0 0 .07-.08.28.28 0 0 0-.08-.16c.08 0 .07-.16.07-.16.09.32.17.31.25.31-.09-.4.07-.32.07-.56l.24.23.08-.24c.09.4.09.48.18.56l.54-.58v-.08c.08.16.64.06.65.22v.32c0 .16 0 .24.08.24s.31-.33.39-.49v.4c.16 0 .23-.41.3-.66v.25c0 .24 0 .4.33.39a15.65 15.65 0 0 1 .64-3c.31-.17 1.71-1.74 1.69-2.38v-.16c2.3-3.52 6.46-12.07 11-16.78a14.09 14.09 0 0 1 .24 2.64c.11 3.61-.49 7.88-.39 11.33.12 5.44 2.67 7.44 5.8 7.44a9.41 9.41 0 0 0 5-1.92c.78-.58 4.93-4.24 4.82-5.12 0-.08 0-.16-.08-.15a3.55 3.55 0 0 0 .38-.41 11.81 11.81 0 0 0 3.7 5.58c.48.07 1 .62 1.62.52 0 0 .09.15.17.15h.08a.27.27 0 0 1-.09-.16h.08a2.4 2.4 0 0 0 1.14.37c-.09-.16-.49-.23-.66-.38a13.24 13.24 0 0 0 3.31.38c0-.16 0-.08-.49-.07.24-.16.24 0 .48-.17h-.88a3.69 3.69 0 0 1-2.67-.64 11.54 11.54 0 0 1 1.54.44h.32c.24 0 .4 0 .48.14.16 0 .08-.16.16-.16.24 0 .73.14 1 .13.56 0 1-.19 1.68-.21v.08a.08.08 0 0 1-.08.08c0 .08.16.08.16.08 3.93-.12 9.09-4.68 11.88-8.22-.08.09 1.16-1.48 1.14-2l-.09-.24a2 2 0 0 0 .54-.65h.08a3.42 3.42 0 0 0 .61-1.22l.08.16c.07-.32.69-1.22.61-1.22a.28.28 0 0 0 .17.23c.75-1.62 1.47-1.89 1.53-2.29h-.16c1-1.4 1.3-2.21 1.46-2.21v.24c-.21.07-.06.39-.23.69l-.54.65c0 .16.08.16.08.16-1 1.72-2.61 4.09-3.61 5.49v-.16a3 3 0 0 0-.69 1.3c.08 0 .08 0 .16-.09 1.62-2.29 5.1-6.73 5.59-9.07a.51.51 0 0 1-.17-.24c0-.24.39-.41.38-.73 0-.08 0-.16-.08-.16v-.32s0-.24-.09-.24a6.24 6.24 0 0 1-1 2.36c0-.24.23-.33.22-.57V40a7.66 7.66 0 0 1-1.31 2c1.36-2.93 1.35-3.17 1.51-3.18h.08a.93.93 0 0 0-.14.57 2 2 0 0 0 .44-1.38c0-.08-.08 0-.08-.08a.32.32 0 0 0 .07-.24c0-.24-.17-.32-.17-.4s.07-.16.23-.32a.67.67 0 0 1-.42-.63c-.24 0-.63.42-.71.42-6.58 8.3-10.85 15.73-17.51 15.92-3.05.09-5.26-1.45-5.35-4.57a8.47 8.47 0 0 1 .4-2.58 18.72 18.72 0 0 0 3.14.23c7.46-.22 9.07-5.57 9-8.14-.06-2.08-1-2.78-1.14-3.41-.18-.4-.12-1.12-.37-1.6v.16c0 .08 0 .08-.08.08l-.25-.31c0 .08.09.16.09.24s0 .08-.08.08-.08 0-.16-.15a.67.67 0 0 0 .09.23c-1.14-.52-1.17-1.41-2.69-1.36-6.24.18-11.54 6.67-13.35 12.74-3.62 5.24-7.17 10.17-8.36 10.37-.08 0-.08-.07-.09-.23a1.4 1.4 0 0 1 .07-.57 78.57 78.57 0 0 0 .73-10.29c-.14-5-1.55-9.19-6.84-9-6.42.19-10 8-12.88 12.58 1.51-11.52 7.64-40.44 5.95-43.2-.06-2.09-3.57-1.5-5.42-1.45-3.29.1-5.51 3.62-5.82 6.84-.36 3.6-.77 7.4-1.21 11.31A17.41 17.41 0 0 0 231 20a81.67 81.67 0 0 0 .47-8.28 12.86 12.86 0 0 0-.23-2.56 1.56 1.56 0 0 0 .14-.73c-.05-1.6-3.67-1.81-5-1.77s-3 .49-3.55 2.19c-.8 2.83-1.18 9.1-1.68 11.2-1.6.13-6.41.35-6.39.91.01 1.82 3.24 2.37 5.41 2.3zm79.21 16.21c-.15.4-1.16 1.64-1.15 1.88a.07.07 0 0 0 .08.07c-.31.33-.22.65-.37 1.06 0-.16 0-.24-.08-.24s-.39.57-.47.66v-.24c-.04-1.13 1.52-2.66 1.99-3.19zm-4 6.29l.09.16c.61-.9.67-1.7 1.06-2.2V44c.16 0 .16-.08.24-.24a5.62 5.62 0 0 1-.83 2c.23-.33.77-1.23.77-1.15v-.16c.38-.57.44-1.3.91-1.55-.15.32-.46.57-.53 1v.1c0 .16-.07.32-.07.48v.16c-.08.25-.24.33-.31.49.07-.16-.17-.23-.09-.23a5.62 5.62 0 0 0-.76 1.38c-.08 0-.08 0-.16-.07-.32.25-.31.65-.7.9.16-.17.15-.41.31-.49h-.16a.59.59 0 0 1-.24.25v-.08c.02-.37.34-.54.48-1.03zm-6.79-9.91c-.25-.15-.34-.63-.51-.87a1.93 1.93 0 0 0 .18.64 2.31 2.31 0 0 1-.52-1.27 3.13 3.13 0 0 1 .86 1.5zm-3.47-.7c-.68 3.2-5.71 5.84-7.11 6.85 0 0 .06-.09.08-.14l-.23.24a16.66 16.66 0 0 1 3.14-5.38 5.7 5.7 0 0 1 3.32-1.63 2.94 2.94 0 0 1 .81.06zm-3.67-1.9a5.62 5.62 0 0 1 1.74-.85v.08a.08.08 0 0 0 .08.08 1.78 1.78 0 0 1 .64-.1l-.08.08c0 .08-.31.25-.47.26a5.3 5.3 0 0 0-.56-.07 4 4 0 0 1-1.34.52zm2.2-1.43l.16-.08a2.06 2.06 0 0 1 .64.06l-1.35.28c-.1-.16.57-.08.56-.26zm-.94.59c0-.08.47-.25.71-.26a.32.32 0 0 1 .24.07.65.65 0 0 0 .4-.09.73.73 0 0 1 .33.07 6.79 6.79 0 0 0-3.73 1.4 4 4 0 0 1 2.06-1.19zm-26 20.92c.16 0 .16 0 .17.31-.18.01-.19-.31-.19-.31zm.49.3c.24 0 .24.08.25.32-.27-.24-.27-.24-.27-.32zm.2-1.45c0-.16 0-.24-.09-.23v-.65h.08c.09.24.09.16.09.24s-.08.08-.08.16.3.47-.02.48zm-.08-2.56s.15-.33.31-.33v.08c.02 1.2-.33.25-.33.25zm.13-1.13c.15-.17.32.07.32-.09s.08 0 .08.08c-.15.4-.25-.24-.22.57h-.16c-.03-.05-.2-.56-.04-.56zm-.19-1a.08.08 0 0 0 .08-.08c-.08.84-.47 1.1-.1.12zm-.18 2.17c0 .25.1.4.1.56s-.24-.07-.24-.07a2.66 2.66 0 0 1 .12-.45zm-.46.74c0 .08.16-.24.16-.16l.16.15a4.27 4.27 0 0 0-.12 1.37c.24 0 .06-.89.22-.81 0 .4.13 1.52-.28 1.53.09.08.09.08.09.16v.16c-.24-.31-.17-.39-.09-.48 0-.32-.1-.72-.11-1V51c.2-.33-.2-.39-.05-.56zm0 5.06v.08c-.08-.08-.16-.16-.16-.24s0-.32-.18-.39c.13.03.31.43.31.59zM237.08 22.1v.06H237z"/><path class="the-dream" d="M275.05 58.24c-.08-.07-.17-.23-.33-.31.01.24.28.24.33.31zM22.66 190.24s.07 0 0 0zM21.3 159.55c0 .47-.22.71-.22.94.5-.01.49-.24.22-.94z"/><path class="the-dream" d="M79.58 45.34C64.85 29.2 30.7 27.6 13.78 36c-3.63 1.5-8.26 2.32-9.11 6.54-.19 1.87 4.48 2.21 6 2.63 3.43.14 7.13.5 10.31.41a.83.83 0 0 1 .5.22A33.41 33.41 0 0 0 20 54.93C17.35 88.34 9.06 137.29 9 168.06c.06 1.86-.62 3.51-.31 5.6l.9-2.59c1.29 2.06-.38 3.51.17 5.59-1 .72-.75-.45-.78-1.38a5.43 5.43 0 0 0-.18 1.87c.32 2.56 1.86 4.61 1.68 6.95.25 0 0 .23 0 .46h.24c.29 1.39.58 2.78 2.08 3.67-.46.94.05 1.63.07 2.33h.49c1.32 3 1.52 1.36 2.49 1.1.54 1.61.73 0 0-.24v-.89a2.26 2.26 0 0 0 1.25.63c0-.7-.53-1.39-.55-1.85 1.24.43 1.29 2.06 1.83 3.44-.1-3 .62-3.51.71-.72.71-.72 1.21-.5 2 .65.24-.24-.06-1.87-.08-2.56.5.22.54 1.38.55 1.85l.48-.48c-.21-.37-.25-.45-.26-.58 0 .08.05 0 .22-.59a2.48 2.48 0 0 1 .65-.06c-.06-.05-.12-.25.3-.9.8 1.84.56 2.32 1.55 2.29 0 0-.51-.45 0-.7.26.23.29 1.39.78 1.38v-1.17c1.18-1.2 1 1.14 1.75 1.35a9.51 9.51 0 0 0-.8-2.07c.75.21 2.54 2.49 3 2 0-1.16-2.76-2-.55-1.85.5.22.77 1.15 1 1.14.22-.94 1-.49 1.23.2 0-.7 1.19-1.2 1.22-.27.22-.71 1.21-.5 1.23 0 1 .2 8.34 0 9.32 0-.26-.46-2-1.58-.31-2.09.24 0-.23.47 0 .46.24-.24.24-.24.49-.24-.24.24-.24.24 0 .7.47-.48.75.67 1 .67a22.89 22.89 0 0 1-.39-4.65c1.28 1.59.58 3 1.6 4.15l.19-1.87c.26.69.06 1.86.57 2.55-.32-2.33.25-7.7.14-11.2 9.75-2.13 18.71-5.88 25.62-12.37a104.64 104.64 0 0 0 21.6-31.14c.2-1.64 1.14-2.83 1.6-4a28.64 28.64 0 0 0 1.32-4.93 7 7 0 0 0 1.11-3.53c.24-.24-.26-.69 0-1.63 0-.46.7-1.18.92-2.12 0-.93.43-1.88.16-2.8 3.43-22.55-2.04-56.43-18.72-72.28zm-62.24 97.31c-.49 0 0-.7 0-.7-.49 0-.48.25-.47.71a1.07 1.07 0 0 1-.74-.21 2 2 0 0 1 .91-2.12c0 .7-.2 1.4.3 1.62.23-.01-.01.23 0 .7zm0-8.86c-.21 1.17.33 2.79-.87 3.52a8.28 8.28 0 0 1 .84-3.52zM16 139.66c.51.68-.69 1.41-.42 2.34a.23.23 0 0 0-.25-.23c-.01-.93.21-1.87.67-2.11zm-1.1 11.22c0-.47.45-1.18.66-2.35a7.55 7.55 0 0 0 .29 1.39c.23-.48 0-.7.2-1.41v-.46c-.25 0-.26-.46-.28-1.16.51.68 0 0 .49 0v.69c.31 2.09-.33 5.37-.51 7.24-.49 0 0 .94-.46 1.18v-.23a10.13 10.13 0 0 1 .4-3c-.24 0-.24 0 0-.47a1.77 1.77 0 0 0-.41 2.58c-.48.48-.46 1.18-1.16 2.13a6.38 6.38 0 0 0-.9 2.82l.56-5.84a4 4 0 0 1-.91 2.35l2-7.74c0 1.16-.18 2.33-.15 3.26.45-.06.18-.98.18-.98zm-1.24-.44c.26.46-.45 1.42-.68 1.89h-.49c.16-2.79-.06-1.85 1.17-1.89zm-1.17 25.44a11.36 11.36 0 0 0 .38-3.27h.25a14.2 14.2 0 0 0 .08 3.26c-.2-.03-.01-.46-.71.01zm2.86-18.26l-.69 9.38c-.26-.7-.05-1.63-.78-1.38-.46.71-.42 2.11-.63 3.28-.49 0-.48.48-.74 0 .88-3.29 1.63-3.08-.09-3a31.51 31.51 0 0 0 1.11-3.76c.25.23-.21 1.17.3 1.63.21-.94.45-1.18.43-1.65.48-.48.73-.48 0-.7 0-.7.72-.48.71-.95 0-.23-.25-.23-.26-.46a1.43 1.43 0 0 0 0-1.4v-.23c.23-.47.71-1 .69-1.42.44.42-.05.66-.05.66zm1.57 3l.09 3c0 .69-.18 2.1-.16 2.57a2.38 2.38 0 0 1 0 1.86s.28.92-.21.94l-.09-2.8c0-1.16-.5-.22-.22.71l-.49.24c.22-.93-.3-1.85.67-2.35.7-1.18-1-.9-1 .26a8.52 8.52 0 0 1 .2-1.63c.71-.95 1.53-6.11.37-3.74-.48.24 0-.7 0-.7l.44-1.64a14.49 14.49 0 0 1 .66-2.59c-.25 0-1.44 1 0-.46h-.49c-.28-1.16.93-1.66 1.14-2.83.49 0 0 .24.5.22.11 2.59-1.02 5.65-1.41 8.93zm3 16.23c.21-.94-.27-.69-.5-.22.23-.47.21-1.17.7-1.18s.47.67-.24 1.39zm1.62-11c-1 .26-.72.49-.72.72-.49 0-1.22 0-1.21.5a.46.46 0 0 1-.5-.45.47.47 0 0 0-.48.48l.21-1.17c.5.22.53 1.38.48-.25.73-.25.93-1.66.2-1.64.48-.24.46-.94.18-1.87l.52.92a9.15 9.15 0 0 0 .38-3.74h.24c0-.46.22-.93.2-1.63 0 .46.28 1.16.3 1.85a.84.84 0 0 0 .5.22c0 .24.06 1.87-.66 2.35.29 1.61.48 0 1.19-.49 0 0-.22.13-.24-.47.47-.48.22-.7.21-.94-.26-.45 0-.69.22-.93-.21-5.38 1.04 3.21-1.06 6.53zm56.05-51.45c-3.21 15-13.55 29.75-25 39.16-1.99 1.44-3.42 2.88-5.59 4.34.94-9.35 1.9-17.77 3.6-26.21 3.82-19.69 5.4-39.31 8.25-58.5 1-6.32 2.51-14 2.33-19.88v-.46l.72-.26c14.54 10.09 20.37 39.99 15.65 61.8zM22.33 161.63zM158.5 98.37c.69-1.42 2.4-1.93 3.35-2.66.44-1.64 5.53-3.65 4.29-4.31 2.17-1 2.13-2.4 4.07-3.15.94-1.42 3.11-2.42 4.55-3.62-11.9-3.86-28.26 14.31-34.65 22 .15-3 .82-5.15 1.21-8.43 1.16-2.13 2.81-12.2 2.73-15-.14-4.43-1.52-9.28-10.78-7.16-2 .06-4.84 2-6.28 3.21-2.2.06-5.95 5.76-6.86 7.88-9.93 20.09-10.7 58.57-11.06 86.32a9.92 9.92 0 0 1 .53 1.38c.76.68 1.25.9 1.27 1.37.27.92.76.67 1.28 1.83l1 .9c1.23 0 1.47 0 2 .64.24-.47 1.93-1.22 2.9-1.48.23-.7.71-1 1.19-1.43h.73c.48-.25.71-.72 1.44-1 .49 0 0-.93 1.18-1.43v.93c.72-.72.94-1.43 1.19-1.43v.46l.48-.48c.49 0 .69-1.42 1.16-1.89v1.39a2.67 2.67 0 0 1 .72-.25c0 .23-.23.24 0 .7a.46.46 0 0 1 .47-.48c0 .46.49 0 .52.92.49 0 .71-.72.71-.72.48-.48 1.48.19 1.47-.28.73-.25 1.17-1.66 1.88-2.61.48-.48.79 1.84 1.27 1.36.73-8.18 1.67-17.3 2.84-27.12 1.94-16.37 9.34-31 21.46-43.72.83-.52.78-1.91 1.74-2.64zM171.67 167a3.66 3.66 0 0 0-1-.9c.01.69.75.67 1 .9zM259.08 121.89l.14-.21a.24.24 0 0 0-.14.21z"/><path class="the-dream" d="M474.09 120.41a15.57 15.57 0 0 1-5.36-1c-11.39 16.72-22.87 31.26-27.21 31.38-.49 0-.77-1.15-.83-3.24-.18-5.59.85-20.07.55-29.62-.58-18.63-11.4-19.49-19.73-19.26-11.53.32-24 31.91-29.72 38.59-1.58-11.37-1.54-26.06-3.07-35.57-1.2-7.19-6.35-7-15.74-9.35a8.9 8.9 0 0 0-2.46-.17c-12.75.36-24.13 28.88-31.35 41.21a103.47 103.47 0 0 1 6.57-33.29c1.59-4.24 3-7.3 2.64-9.86-.12-3.73-7.21-3.06-12.11-2.92-11.52.32-16.87 9.79-18.35 17.53-1 5-2 9.65-2.75 14.16-10.19 14.28-27.36 36.46-31.32 34.11-2.87-5.28-4.1-37.18-4.31-51.86a27.42 27.42 0 0 0 .14-3.27 13.15 13.15 0 0 1 .39-3.27c0-1.17-1-.9-1.05-2.3a2.39 2.39 0 0 0 2.42-1c0-.24.94-1.43-1.3-2.53-5.24-2.65-14.12-4.27-19.2-1.79-9.18 4.45-15.07 12.31-19.75 19.43a94.6 94.6 0 0 0-6.05 11.48c-14.49 18.15-26.18 32.34-42.63 32.8-9.31.26-16.08-4.21-16.36-13.29a23.42 23.42 0 0 1 1.24-7.49 57.16 57.16 0 0 0 9.59.66c22.8-.64 27.71-16.16 27.48-23.61-.19-6.06-3-8.08-3.5-9.93-.52-1.15-.34-3.25-1.12-4.63V93c0 .23 0 .23-.24.24l-.76-.91c0 .23.26.46.27.69s0 .23-.24.24c0 0-.25 0-.51-.45a2.35 2.35 0 0 0 .27.69c-3.48-1.54-3.56-4.1-8.22-4-24 .68-43.46 30.36-42.85 50.15a34.4 34.4 0 0 0 13.09 26.44c1.48.19 3 1.78 5 1.49 0 0 .26.46.51.45h.24a.79.79 0 0 1-.25-.46h.24a7.44 7.44 0 0 0 3.47 1.07c-.26-.46-1.49-.66-2-1.11a41.9 41.9 0 0 0 10.09 1.12c0-.47 0-.24-1.47-.2.72-.48.73 0 1.45-.5l-2.69.07c-2.95.09-6.14-.06-8.16-1.87a35.62 35.62 0 0 1 4.7 1.27h1c.74 0 1.23 0 1.49.43.49 0 .23-.47.47-.48.74 0 2.22.4 3 .38 1.72-.05 3.17-.55 5.13-.61v.23a.23.23 0 0 1-.24.24c0 .24.5.22.5.22 11.69-.32 26.94-12.89 35.6-23 .14 3.91 1.49 7.56 5.2 9.76a11 11 0 0 0 10.33.88c1.69-1 1.89-2.39 3.56-4.07 3.45.37 15.27-21.87 18.58-33.62a5.76 5.76 0 0 1 .91-2.35c-.4 11 .15 28.43 3.56 35.79 2.38 5.53 9.19 11.4 15.5 9.13.49 0 1 .43 5.13-.61 3.63-1.74 5.1-1.55 7.47-4.41a5.86 5.86 0 0 1 2.88-2.18c1-.49 8.29-9.55 8.29-9.55a13.93 13.93 0 0 0 1.64-2.38c.25.23 1.19-1.2.94-1.19.13-.27.25-.52.36-.77v5c.28 9.09 8.49 20.51 20.25 20.18 11.52-.32 19.48-36.44 30.54-51.44l.44 14c.61 19.79 4.14 30.65 18.11 30.26 16.42-.46 25.89-27.3 32-35.63v.93c.11 3.49-.83 12.61-.58 20.76.49 15.84 10.91 19.51 19.73 19.26 9.07-.25 16.33-3.49 21.58-8.29 7.24-6.78 14.3-16.36 19.93-24.94a15.14 15.14 0 0 1-1.31-5.48 11.58 11.58 0 0 1 .32-3.46zM213.08 102c-.75-.45-1-1.84-1.55-2.52a5.2 5.2 0 0 0 .54 1.85 6.47 6.47 0 0 1-1.58-3.69 9 9 0 0 1 2.59 4.36zM198 90.27l.49-.25a7.19 7.19 0 0 1 2 .18l-4.19.8c-.3-.44 1.7-.26 1.7-.73zM195.1 92c0-.23 1.45-.74 2.19-.76a1 1 0 0 1 .74.21 2.35 2.35 0 0 0 1.22-.26 1.89 1.89 0 0 1 1 .2 21.74 21.74 0 0 0-11.41 4A12.47 12.47 0 0 1 195.1 92zm3.69.13l-.24.24c0 .23-1 .73-1.45.74s-1-.2-1.72-.18a12.46 12.46 0 0 1-4.13 1.51c1.19-1.2 4.6-2.23 5.32-2.48v.23a.24.24 0 0 0 .25.23 5.79 5.79 0 0 1 1.97-.31zm-8.94 12.37c2.63-2.17 6.23-4.6 10.16-4.71a7.89 7.89 0 0 1 2.45.16c-2.15 9.62-18.59 17.54-22.18 20.21 1.79-5.44 5.54-11.16 9.57-15.68zM256 125.7c0-.23.24-.23.48-.47v.23a.74.74 0 0 1-.48.24zm1.54 2.29c-.23.48-.23.48-.47.48a1.36 1.36 0 0 0 .21-.94.76.76 0 0 1 .49-.24c.23-.01.02.46-.22.71zm1.37-3.3s0 .23-.47.48c.47-.71.47-.71.45-1.18.26.01.27.46.03.7zm.66-2.58l-1.64 2.61c-1-.21-.72.48-1.46.27l2.13-2.39.47-.71c-.48.25-.72.49-1 .49.46-.94.9-2.35.92-1.89.24 0 .5.45.49.22s.24-.47.47-.71v.46l-.8 1.22a.29.29 0 0 1 .1 0c.57.19.33.43.33.43zm-2.44.53c0-.23.48-.48.72-.72.24 0 0 .24 0 .47-.24.24-.72.49-.71.72zm2.75 1.56c.46-1 1.64-2.38.94-1.43 0 .24.26.46.26.69-.49 0-1 .73-1 .73zm.76.68l-.26-.23 1.68-1.45c-.22.71-1.18 1.2-1.41 1.68zm.49.21c.49-.24.95-1.19 1.68-1.44-.23.24-.67 1.88-1.67 1.44zm1-8l.5.22c-.23.47-1 .49-1.2.73a.75.75 0 0 0 .23-.47 2.44 2.44 0 0 1 1.43-1.2 9.57 9.57 0 0 1-.97.77zm-.29-1.39c-.49-.22-.26-.46-.26-.46a8.49 8.49 0 0 0 .44-1.64c.26.22.26.22.25 0a3.45 3.45 0 0 0 .72-.48c0-.24 0-.24.23-.48v.47c-.95 1-.92 1.7-1.39 2.64zm3.95-7.1l.71-1c.25.22.72-.49.72-.49-.47 1.05-1.22 1.76-1.44 1.54zm1.73-7.51c-9 16.8-15.51 29.81-24.32 46.14-.23.47-.48.47-.73.25 2.19-8.45 7.21-20.72 11.83-29.7 4.62-9.22 11.9-19.91 17.2-22.86-.97.78-3.8 4.35-3.99 6.22zm46.43 25.74c-.23.24-1.12 3.29-1.88 2.61-.27-.64 1.13-2.77 1.87-2.56zm-2.29 5c.45-1.18 1.16-1.9.21-.94a5.37 5.37 0 0 1 1.42-1.67.86.86 0 0 1 0 1.16c0 .23-1.67 1.45-1.18 1.67 0 .7-.23.47-.68 1.65-.25 0-.48.24-.74 0 .26.65-1 2.38-1.75 2.58a.21.21 0 0 0 .11-.21h-.25c.97-1.38 3.07-4.94 2.85-4.23zm-2.25 6.59l.47-.48c.24-.24.23-.71.7-1.19l.51.45c-.23.48-.46.95-1.21.74v.46c.01.25-.24.02-.48.03zm2.68-.54l.24-.24c.5.45-.71.95 0 1.39-.73.26-1 .73-1.43 1.44l-.7 1.19c-.26-.46-.26-.69 0-.7 0-.23.23-.47.72-.49-1.24-.66 0-1.16-.53-1.38.47-.71 1.92-1.45 2.36-3.1.04 1.18.04.94-.67 1.9zm.17-2.34l.23-.71c-.25 0-.94 1.66-1.18 1.67 0 0 0-.23-.51-.69 0 0 .23-.47.24-.24.24 0 .23-.47.49 0a9.09 9.09 0 0 1 1.81-2.78c-.05.67-.11 1.33-.15 2a2.61 2.61 0 0 1-.94.76zM527.82 130.83a1.33 1.33 0 0 0-.81.42c0-.4-.17-.06-.18-.26s-.57-.05-.65.22c-.08 0-.08-.07-.16-.07s-.4.41-.56.55c0-.46.31-.54.55-.74a.3.3 0 0 0-.17-.07.09.09 0 0 0-.06 0c.14-.31 1.05-.55 1.34-1.32l-1.46.64c-1.65 0-2.35 1.32-3.82 1.83-7.09 4.9-12.66 11.16-18.47 17.42-2.12-3.67-6-11.34-10.58-14a14.24 14.24 0 0 1-4.05.61c-.42 0-.84 0-1.25-.06a4.66 4.66 0 0 0-1.57 1.11c-.16.2-.72.68-.79 1-.49.14-1 .75-1.37 1-.89.62-.54 1.08-1.11 1.49-.4.28-.21.94-.21 1.07 0 1 .81 2.17 2.1 3.92a137.3 137.3 0 0 1 9.82 15.85c-2.53 3.26-8.9 12.85-8.76 17.36 0 .07-.13.87.28.85.66 0 1.45-1 1.67-1.77 0 0 .33.06.34.26-.16.07-.16.14-.16.2s.09.27.1.4c1.06-.3.85-1.55 1.58-1.84a4.06 4.06 0 0 0 .12 1.06h.08a3.06 3.06 0 0 1 2.39-1.76l1.19-1.43a1.39 1.39 0 0 0 .81-.28c.16-.21.32-.21.32-.48a.78.78 0 0 0 .15-.33.29.29 0 0 0 .16-.07c.08 0 .09.06.09.13v.13a.32.32 0 0 1 .17.06c.25 0 2.19-3.77 3.7-5.41 1.14 2.23 9.61 17.19 11 20.8v-.93h.09q.24 0 .24-.21c0-.13-.1-.4-.1-.53s0-.2.15-.27c0 .47 0 .66.27.66.58 0 .15-.47 1-.49 1.16 0 .72-.69.87-1.35.17.19.66.11.75.24a8.93 8.93 0 0 1 1.31-2.89 7.87 7.87 0 0 0 1 .51V184c0-.13-.26-.46-.27-.66a.2.2 0 0 1 .08-.13 5.58 5.58 0 0 0 .68.71v-.53c0-.13 0-.2.16-.27 0 .2.17.13.35.59.24-.28 0-.87.29-1.27.09.53.19.79.35.78s.32-.34.46-1c0 .79.37 1.11 1.19 1.09.41 0 .4-.41.38-1.07-.22-6.76-10.36-22.47-11.37-25.69 3.39-5 16.28-19.23 16.27-19.56.48-.48.07-.33-.34-.12-.08.07.64-.62 1.12-1.23h.08c.08 0 .17 0 .16-.14.4-.47.3-.87.22-.73s-2.06 2.51-2.72 2.53l-.47.54c-.58 0-.15.6-.81.62 0-.73 1.61-1.24 1.59-2a6.56 6.56 0 0 0-.72.69c.84-1.67 3.98-4.15 5.97-6.32z"/></svg>