<?xml version="1.0" standalone="no"?>
<!DOCTYPE svg PUBLIC "-//W3C//DTD SVG 20010904//EN"
 "http://www.w3.org/TR/2001/REC-SVG-20010904/DTD/svg10.dtd">
<svg version="1.0" xmlns="http://www.w3.org/2000/svg"
 width="127.000000pt" height="127.000000pt" viewBox="0 0 127.000000 127.000000"
 preserveAspectRatio="xMidYMid meet">
<metadata>
Created by potrace 1.14, written by Peter Selinger 2001-2017
</metadata>
<g transform="translate(0.000000,127.000000) scale(0.100000,-0.100000)"
fill="#000000" stroke="none">
<path d="M539 1256 c-2 -2 -21 -7 -42 -10 -102 -16 -234 -93 -320 -186 -307
-331 -178 -862 247 -1016 36 -13 87 -26 115 -30 l51 -7 0 95 0 94 -52 13
c-160 41 -282 160 -323 316 -43 165 17 342 152 451 56 46 152 87 216 93 4 1 7
44 7 96 0 93 -1 95 -23 95 -13 0 -26 -2 -28 -4z"/>
<path d="M683 1167 l-1 -95 64 -17 c161 -43 276 -166 320 -340 3 -11 5 -47 5
-81 -2 -148 -72 -279 -193 -362 -45 -31 -147 -72 -177 -72 -16 0 -18 -10 -19
-96 l-1 -97 48 6 c219 26 428 200 501 416 98 294 -22 605 -293 755 -65 36
-142 62 -212 72 l-41 5 -1 -94z"/>
</g>
</svg>
