<svg xmlns="http://www.w3.org/2000/svg" width="67.416" height="40.248" viewBox="0 0 67.416 40.248"><g fill="#000e1f" data-name="BNO Lid_zwart"><path d="M13.223 12.113a5.747 5.747 0 0 0 4.1-5.389c0-4.233-3.186-6.165-7.772-6.165H0V25.06h8.647c4.793 0 9.279-1.435 9.279-6.9a6.123 6.123 0 0 0-4.703-6.047ZM3.186 3.223h6.156c3.43 0 4.73 1.571 4.73 3.746 0 2.482-1.787 3.917-4.973 3.917H3.186ZM9.17 22.368H3.186v-8.783h5.84c4.342 0 5.632 1.886 5.632 4.414 0 2.897-1.678 4.368-5.487 4.368Z" data-name="Path 1674"/><path d="M38.208 18.378v3.082L25.779.56h-4.793v24.506h3.186V3.647L36.98 25.066h4.45V.56h-3.222Z" data-name="Path 1675"/><path d="M55.8 0c-6.616 0-11.617 5.109-11.617 12.808S49.22 25.58 55.8 25.58s11.617-5.073 11.617-12.772S62.452 0 55.8 0Zm0 22.926c-4.973 0-8.259-3.854-8.259-10.118S50.935 2.7 55.8 2.7c4.9 0 8.259 3.854 8.259 10.118S60.773 22.926 55.8 22.926Z" data-name="Path 1676"/><path d="M1.219 30.671H0v9.369h6.1v-1.029H1.219Z" data-name="Path 1677"/><path d="M6.869 33.586h1.155v6.454H6.869z" data-name="Rectangle 72"/><path d="M6.77 30.987h1.327v1.381H6.77z" data-name="Rectangle 73"/><path d="M14.289 33.939v.523a2.394 2.394 0 0 0-2.076-1.083c-1.832 0-3 1.489-3 3.439 0 2.193 1.282 3.43 2.97 3.43a2.43 2.43 0 0 0 2.1-1.1v.9h1.146v-9.377h-1.155v3.267Zm-1.9 5.407c-1.182 0-1.986-1.02-1.986-2.527s.821-2.527 1.986-2.527 1.986.975 1.986 2.518-.835 2.535-1.991 2.535Z" data-name="Path 1678"/></g></svg>