<svg xmlns="http://www.w3.org/2000/svg" width="140.399" height="33.806" viewBox="0 0 140.399 33.806"><g fill="#fff" data-name="Group 54"><path d="M32.859.948a3.235 3.235 0 0 0-4.576 0L.829 28.4h.006a3.232 3.232 0 0 0 4.566 4.572v.006l.12-.12L32.859 5.523a3.235 3.235 0 0 0 0-4.576" data-name="Path 1589"/><path d="M32.859.948a3.235 3.235 0 0 0-4.576 0L.829 28.4h.006a3.232 3.232 0 0 0 4.566 4.572v.006l.12-.12L32.859 5.523a3.235 3.235 0 0 0 0-4.576" data-name="Path 1590"/><path d="M3.236 0A3.236 3.236 0 0 0 0 3.236v27.319a3.236 3.236 0 0 0 6.472 0V3.236A3.236 3.236 0 0 0 3.236 0" data-name="Path 1591"/><path d="M30.572 0a3.236 3.236 0 0 0-3.236 3.236v27.319a3.236 3.236 0 0 0 6.472 0V3.236A3.236 3.236 0 0 0 30.572 0" data-name="Path 1592"/><path d="m32.973 28.408.006-.006-.118-.118L5.524.948A3.236 3.236 0 1 0 .949 5.523l27.452 27.455.006-.006a3.231 3.231 0 0 0 4.564-4.564" data-name="Path 1593"/><path d="M52.496 25.989h-4.587V8.874h4.553v.959a8.58 8.58 0 0 1 4.279-1.369q3.422 0 4.724 2.02t1.3 6.231v9.276h-4.587v-9.142a7.706 7.706 0 0 0-.513-3.235 2.062 2.062 0 0 0-2.054-1.044 7.765 7.765 0 0 0-2.7.479l-.412.137Z" data-name="Path 1594"/><path d="M71.443 21.658a3.4 3.4 0 0 0 2.311.7q3.182 0 5.682-.205l.959-.1.068 3.389a30.39 30.39 0 0 1-7.121.957q-3.869 0-5.614-2.053t-1.745-6.675q0-9.208 7.564-9.209 7.463 0 7.463 7.736l-.342 3.184H70.604a2.957 2.957 0 0 0 .839 2.276m5.048-5.768a4.675 4.675 0 0 0-.651-2.858 3.587 3.587 0 0 0-4.57.034 4.735 4.735 0 0 0-.7 2.823Z" data-name="Path 1595"/><path d="M82.652 8.873h4.895l2.739 5.306 2.772-5.306h4.895l-4.86 8.387 4.86 8.728h-4.895l-2.772-5.236-2.739 5.236h-4.895l4.689-8.591Z" data-name="Path 1596"/><path d="M100.521 2.027h4.587v4.655h-4.587Zm0 6.846h4.587v17.115h-4.587Z" data-name="Path 1597"/><path d="M110.277 10.807q1.813-2.343 6.058-2.345t6.058 2.345a10.549 10.549 0 0 1 1.815 6.59q0 9-7.873 9t-7.873-9a10.549 10.549 0 0 1 1.815-6.59m3.543 10.458a3.184 3.184 0 0 0 5.031 0 8.127 8.127 0 0 0 .7-3.869 7.91 7.91 0 0 0-.7-3.833 3.24 3.24 0 0 0-5.031 0 7.91 7.91 0 0 0-.7 3.833 8.127 8.127 0 0 0 .7 3.869" data-name="Path 1598"/><path d="M139.851 13.153a54.445 54.445 0 0 0-5.939-.547 4.894 4.894 0 0 0-2.191.308 1.062 1.062 0 0 0-.5.976.928.928 0 0 0 .667.923 25.9 25.9 0 0 0 3.423.753 7.527 7.527 0 0 1 3.919 1.627 4.927 4.927 0 0 1 1.165 3.662q0 5.545-6.881 5.545a29.8 29.8 0 0 1-5.476-.617l-1.1-.205.137-3.833a54.524 54.524 0 0 0 5.9.547 5.3 5.3 0 0 0 2.259-.325 1.048 1.048 0 0 0 .6-.976 1.011 1.011 0 0 0-.634-.959 16.333 16.333 0 0 0-3.286-.752 8.474 8.474 0 0 1-3.954-1.507q-1.3-1.061-1.3-3.782a4.812 4.812 0 0 1 1.849-4.108 7.717 7.717 0 0 1 4.758-1.386 31.974 31.974 0 0 1 5.511.651l1.13.205Z" data-name="Path 1599"/></g></svg>