<svg xmlns="http://www.w3.org/2000/svg" width="158.521" height="65.168" data-name="Group 21" viewBox="0 0 158.521 38.168"><defs><clipPath id="a"><path fill="none" d="M0 0h158.52v38.168H0z" data-name="Rectangle 10"/></clipPath></defs><g fill="#1a1818" clip-path="url(#a)" data-name="Group 20"><path d="M37.1 1.07a3.652 3.652 0 0 0-5.166 0l-31 31 .007.006A3.649 3.649 0 0 0 6.1 37.228l.006.007.135-.135L37.1 6.236a3.652 3.652 0 0 0 0-5.166" data-name="Path 1589"/><path d="M37.1 1.07a3.652 3.652 0 0 0-5.166 0l-31 31 .007.006A3.649 3.649 0 0 0 6.1 37.228l.006.007.135-.135L37.1 6.236a3.652 3.652 0 0 0 0-5.166" data-name="Path 1590"/><path d="M3.654 0A3.654 3.654 0 0 0 0 3.654V34.5a3.654 3.654 0 0 0 7.308 0V3.654A3.654 3.654 0 0 0 3.654 0" data-name="Path 1591"/><path d="M34.517 0a3.654 3.654 0 0 0-3.654 3.654V34.5a3.654 3.654 0 0 0 7.308 0V3.654A3.654 3.654 0 0 0 34.517 0" data-name="Path 1592"/><path d="m37.228 32.075.007-.007-.134-.134L6.236 1.07A3.653 3.653 0 0 0 1.07 6.236l31 31 .007-.007a3.648 3.648 0 0 0 5.153-5.153" data-name="Path 1593"/><path d="M59.271 29.343h-5.179V10.019h5.14V11.1a9.688 9.688 0 0 1 4.829-1.546q3.863 0 5.333 2.281t1.467 7.034v10.474h-5.175V19.025a8.7 8.7 0 0 0-.579-3.652 2.328 2.328 0 0 0-2.319-1.179 8.767 8.767 0 0 0-3.053.54l-.465.154Z" data-name="Path 1594"/><path d="M80.667 24.453a3.84 3.84 0 0 0 2.609.793q3.592 0 6.416-.232l1.082-.116.073 3.827a34.313 34.313 0 0 1-8.04 1.081q-4.368 0-6.338-2.318t-1.97-7.537q0-10.4 8.54-10.4 8.428.003 8.428 8.738l-.386 3.595H79.715a3.338 3.338 0 0 0 .947 2.57m5.7-6.512a5.279 5.279 0 0 0-.735-3.226 3.14 3.14 0 0 0-2.57-.909 3.131 3.131 0 0 0-2.59.946 5.346 5.346 0 0 0-.791 3.188Z" data-name="Path 1595"/><path d="M93.319 10.018h5.526l3.093 5.991 3.13-5.991h5.526l-5.488 9.47 5.488 9.854h-5.526l-3.13-5.912-3.092 5.912h-5.527l5.295-9.7Z" data-name="Path 1596"/><path d="M113.494 2.289h5.179v5.256h-5.179Zm0 7.73h5.179v19.324h-5.179Z" data-name="Path 1597"/><path d="M124.509 12.201q2.048-2.645 6.84-2.647t6.84 2.647q2.05 2.649 2.049 7.44 0 10.165-8.889 10.165t-8.889-10.165q0-4.792 2.049-7.44m4 11.808a3.6 3.6 0 0 0 5.681 0 9.176 9.176 0 0 0 .793-4.368 8.931 8.931 0 0 0-.793-4.328 3.659 3.659 0 0 0-5.681 0 8.931 8.931 0 0 0-.793 4.328 9.176 9.176 0 0 0 .793 4.368" data-name="Path 1598"/><path d="M157.901 14.85a61.472 61.472 0 0 0-6.708-.614 5.525 5.525 0 0 0-2.474.347 1.2 1.2 0 0 0-.56 1.1 1.047 1.047 0 0 0 .753 1.042 29.239 29.239 0 0 0 3.865.851 8.5 8.5 0 0 1 4.425 1.837 5.563 5.563 0 0 1 1.315 4.135q0 6.26-7.77 6.261a33.645 33.645 0 0 1-6.183-.7l-1.237-.232.154-4.328a61.561 61.561 0 0 0 6.667.618 5.982 5.982 0 0 0 2.551-.367 1.183 1.183 0 0 0 .677-1.1 1.142 1.142 0 0 0-.716-1.082 18.441 18.441 0 0 0-3.71-.849 9.567 9.567 0 0 1-4.465-1.7q-1.468-1.2-1.468-4.27a5.433 5.433 0 0 1 2.088-4.638 8.713 8.713 0 0 1 5.372-1.565 36.1 36.1 0 0 1 6.223.735l1.275.232Z" data-name="Path 1599"/></g></svg>