<svg xmlns="http://www.w3.org/2000/svg" width="79.342" height="30" viewBox="0 0 79.342 30"><g fill="#fff" data-name="Group 47"><path d="M10.284.004V9.94H0v9.936h10.284v9.937h10.284v-9.937h10.283V9.94H20.568V.004Z" data-name="Path 1302"/><path d="M53.705 13.055a4.785 4.785 0 0 0 4.856-5 4.716 4.716 0 0 0-4.856-5 4.786 4.786 0 0 0-4.854 5 4.713 4.713 0 0 0 4.854 5m0-8.338c1.714 0 2.987 1.219 2.987 3.343s-1.273 3.341-2.987 3.341-2.985-1.219-2.985-3.341 1.272-3.343 2.985-3.343" data-name="Path 1303"/><path d="M66.638 12.587a.248.248 0 0 0 .282.281h1.211a.247.247 0 0 0 .279-.281V.282A.248.248 0 0 0 68.131 0h-1.242a.249.249 0 0 0-.282.282V4.61a3.474 3.474 0 0 0-3.082-1.548c-2.674 0-4.574 2.031-4.574 5.028 0 2.967 1.869 4.964 4.512 4.964a3.528 3.528 0 0 0 3.176-1.644ZM63.681 11.4c-1.711 0-2.862-1.218-2.862-3.341s1.151-3.343 2.862-3.343 2.987 1.219 2.987 3.343-1.274 3.341-2.987 3.341" data-name="Path 1304"/><path d="M68.258 17.103h-1.43a.248.248 0 0 0-.281.282v1.435a.245.245 0 0 0 .281.278h1.43a.245.245 0 0 0 .281-.278v-1.435a.248.248 0 0 0-.281-.282" data-name="Path 1305"/><path d="M68.167 20.193h-1.244a.25.25 0 0 0-.282.282v9.051a.25.25 0 0 0 .282.282h1.244a.249.249 0 0 0 .279-.282v-9.051a.248.248 0 0 0-.279-.282" data-name="Path 1306"/><path d="M39.164 12.868h1.275a.249.249 0 0 0 .282-.282V8h2.116l3.327 4.653a.506.506 0 0 0 .436.219h1.492c.28 0 .311-.252.186-.408l-3.45-4.782a3.613 3.613 0 0 0 3.109-3.652c0-2.749-2.209-4.03-4.545-4.03h-4.228a.249.249 0 0 0-.28.282v12.3a.248.248 0 0 0 .28.282M40.721 1.78h2.518c1.805 0 2.8.845 2.8 2.251s-1 2.248-2.8 2.248h-2.518Z" data-name="Path 1307"/><path d="M64.438 20.193h-1.249a.247.247 0 0 0-.279.282v5.185a2.392 2.392 0 0 1-2.457 2.651c-1.432 0-2.367-.935-2.367-2.651v-5.185a.248.248 0 0 0-.28-.282h-1.243a.247.247 0 0 0-.278.282v5.5a3.776 3.776 0 0 0 3.859 4.029 3.038 3.038 0 0 0 2.8-1.469v1a.249.249 0 0 0 .28.282h1.215a.249.249 0 0 0 .281-.282v-9.06a.249.249 0 0 0-.281-.282" data-name="Path 1308"/><path d="M74.925 3.061c-2.459 0-4.45 2-4.45 5a4.791 4.791 0 0 0 8.462 3.278.262.262 0 0 0-.031-.406l-.713-.718a.265.265 0 0 0-.406 0 3.49 3.49 0 0 1-2.579 1.218 2.835 2.835 0 0 1-2.873-2.624h6.7c.282 0 .313-.217.313-.623 0-3.185-1.772-5.123-4.417-5.123m-2.6 4.248c.239-1.857 1.383-2.623 2.6-2.623a2.6 2.6 0 0 1 2.584 2.623Z" data-name="Path 1309"/><path d="M74.993 24.224c-1.183-.345-2.242-.658-2.242-1.527 0-.654.622-1.062 1.834-1.062a4.721 4.721 0 0 1 2.428.686.291.291 0 0 0 .406-.122l.463-.94a.278.278 0 0 0-.123-.4 7.327 7.327 0 0 0-3.267-.845c-2.053 0-3.545 1.03-3.545 2.812 0 1.9 1.742 2.467 3.329 2.934 1.275.375 2.148.626 2.148 1.437 0 .657-.531 1.186-1.995 1.186a5.705 5.705 0 0 1-2.986-.935c-.187-.094-.311-.063-.4.124l-.466.937a.3.3 0 0 0 .06.375 7.049 7.049 0 0 0 3.914 1.113c2.209 0 3.674-1.093 3.674-2.905 0-1.967-1.711-2.436-3.236-2.871" data-name="Path 1310"/><path d="m43.383 22.629 4.98-5.275c.125-.156.093-.406-.188-.406h-1.492a.563.563 0 0 0-.465.218l-5.507 5.845V17.23a.249.249 0 0 0-.282-.282h-1.274a.248.248 0 0 0-.279.282v12.3a.248.248 0 0 0 .279.282h1.276a.249.249 0 0 0 .282-.282v-4.176l1.37-1.443 4.359 5.683a.559.559 0 0 0 .465.219h1.495c.28 0 .311-.25.186-.408Z" data-name="Path 1311"/><path d="M54.875 20.005a3.648 3.648 0 0 0-3.487 2.435v-1.966a.248.248 0 0 0-.279-.282h-1.215a.246.246 0 0 0-.278.282v9.056a.247.247 0 0 0 .278.282h1.247a.249.249 0 0 0 .28-.282v-3.466c0-2.53 1.369-4.091 3.454-4.091a.248.248 0 0 0 .279-.283v-1.4a.247.247 0 0 0-.279-.282" data-name="Path 1312"/></g></svg>