<svg xmlns="http://www.w3.org/2000/svg" width="130.359" height="65.529" data-name="Group 15" viewBox="0 0 130.359 48.529"><defs><clipPath id="a"><path fill="none" d="M0 0h130.359v48.529H0z" data-name="Rectangle 7"/></clipPath></defs><path d="M16.077.007v16.076H0V32.16h16.077v16.078h16.078V32.16H48.23V16.083H32.155V.007Z" data-name="Path 1302"/><g data-name="Group 14"><g clip-path="url(#a)" data-name="Group 13"><path d="M88.394 20.409a7.48 7.48 0 0 0 7.591-7.81c0-4.685-3.21-7.812-7.591-7.812a7.482 7.482 0 0 0-7.589 7.812c0 4.687 3.209 7.81 7.589 7.81m0-13.036c2.679 0 4.67 1.906 4.67 5.226s-1.991 5.222-4.67 5.222-4.667-1.906-4.667-5.222 1.988-5.226 4.667-5.226" data-name="Path 1303"/><path d="M110.498 19.677a.388.388 0 0 0 .441.439h1.894a.386.386 0 0 0 .437-.439V.441a.388.388 0 0 0-.436-.441h-1.943a.39.39 0 0 0-.441.441v6.765a5.431 5.431 0 0 0-4.819-2.42c-4.18 0-7.151 3.175-7.151 7.861 0 4.638 2.922 7.761 7.053 7.761a5.515 5.515 0 0 0 4.965-2.57Zm-4.622-1.857c-2.675 0-4.474-1.9-4.474-5.222s1.8-5.226 4.474-5.226 4.67 1.906 4.67 5.226-1.992 5.222-4.67 5.222" data-name="Path 1304"/><path d="M113.03 27.733h-2.235a.388.388 0 0 0-.439.441v2.244a.383.383 0 0 0 .439.434h2.235a.383.383 0 0 0 .439-.434v-2.244a.388.388 0 0 0-.439-.441" data-name="Path 1305"/><path d="M112.885 33.198h-1.942a.39.39 0 0 0-.441.441v14.156a.391.391 0 0 0 .441.441h1.942a.389.389 0 0 0 .436-.441V33.639a.388.388 0 0 0-.436-.441" data-name="Path 1306"/><path d="M64.745 20.117h1.993a.39.39 0 0 0 .441-.44V12.5h3.308l5.2 7.274a.791.791 0 0 0 .682.343h2.336c.438 0 .487-.394.29-.637l-5.4-7.469c3.11-.682 4.861-2.831 4.861-5.709 0-4.3-3.454-6.3-7.1-6.3h-6.611a.39.39 0 0 0-.438.441v19.234a.388.388 0 0 0 .438.44m2.434-17.335h3.936c2.822 0 4.38 1.32 4.38 3.519s-1.557 3.514-4.38 3.514h-3.936Z" data-name="Path 1307"/><path d="M105.754 33.198h-1.947a.386.386 0 0 0-.436.441v8.106c0 2.438-1.413 4.145-3.841 4.145-2.239 0-3.7-1.462-3.7-4.145v-8.106a.387.387 0 0 0-.438-.441h-1.949a.387.387 0 0 0-.434.441v8.592c0 3.708 2.48 6.3 6.032 6.3a4.749 4.749 0 0 0 4.372-2.3v1.562a.389.389 0 0 0 .438.441h1.9a.39.39 0 0 0 .439-.441V33.639a.389.389 0 0 0-.439-.441" data-name="Path 1308"/><path d="M123.453 4.786c-3.844 0-6.957 3.127-6.957 7.813s3.113 7.81 7.348 7.81a7.28 7.28 0 0 0 5.88-2.685.409.409 0 0 0-.049-.634l-1.114-1.123a.414.414 0 0 0-.635 0 5.457 5.457 0 0 1-4.032 1.9 4.432 4.432 0 0 1-4.491-4.1h10.467c.441 0 .489-.339.489-.974 0-4.98-2.77-8.008-6.906-8.008m-4.065 6.64c.374-2.9 2.162-4.1 4.065-4.1 2.144 0 3.8 1.513 4.039 4.1Z" data-name="Path 1309"/><path d="M123.559 39.497c-1.85-.539-3.5-1.028-3.5-2.395 0-1.022.972-1.66 2.866-1.66a7.38 7.38 0 0 1 3.8 1.072.455.455 0 0 0 .635-.191l.724-1.469a.435.435 0 0 0-.193-.631 11.454 11.454 0 0 0-5.108-1.321c-3.209 0-5.542 1.61-5.542 4.4 0 2.976 2.723 3.857 5.2 4.586 1.993.586 3.359.979 3.359 2.246 0 1.028-.83 1.855-3.118 1.855a8.919 8.919 0 0 1-4.668-1.461c-.293-.147-.487-.1-.632.194l-.728 1.464a.464.464 0 0 0 .094.586 11.02 11.02 0 0 0 6.129 1.757c3.453 0 5.743-1.708 5.743-4.542 0-3.075-2.675-3.808-5.059-4.488" data-name="Path 1310"/><path d="m71.359 37.007 7.785-8.246c.2-.244.145-.635-.294-.635h-2.335a.879.879 0 0 0-.727.341l-8.609 9.138v-9.039a.39.39 0 0 0-.44-.441h-1.994a.388.388 0 0 0-.437.441v19.23a.388.388 0 0 0 .437.44h1.994a.389.389 0 0 0 .44-.44v-6.527l2.136-2.26 6.814 8.884a.874.874 0 0 0 .727.343h2.337c.438 0 .487-.391.292-.637Z" data-name="Path 1311"/><path d="M90.038 32.905a5.7 5.7 0 0 0-5.45 3.807v-3.073a.388.388 0 0 0-.437-.44h-1.9a.385.385 0 0 0-.434.44v14.158a.386.386 0 0 0 .434.441H84.2a.389.389 0 0 0 .438-.441v-5.419c0-3.955 2.14-6.4 5.4-6.4a.388.388 0 0 0 .437-.442v-2.191a.387.387 0 0 0-.437-.44" data-name="Path 1312"/></g></g></svg>