<svg xmlns="http://www.w3.org/2000/svg" width="138" height="25.948" viewBox="0 0 138 25.948"><g fill="#fff" data-name="Group 49"><path d="M71.719 24.356a1.422 1.422 0 0 1-1.411 1.432H60.029a1.422 1.422 0 0 1-1.411-1.432V1.488A1.422 1.422 0 0 1 60.029.056h10.278a1.422 1.422 0 0 1 1.411 1.432Z" data-name="Path 1651"/><path d="M103.106.056h-23.7a1.432 1.432 0 0 0-1.432 1.432v22.868a1.432 1.432 0 0 0 1.432 1.432h.628l24.505-24.416a1.432 1.432 0 0 0-1.433-1.316" data-name="Path 1664"/><path d="M95.308 14.215 83.742 25.74h19.365a1.435 1.435 0 0 0 1.432-1.432v-.824Z" data-name="Path 1665"/><path d="M.908.057.565.318a1.422 1.422 0 0 0-.279 1.991l.869 1.181 15.33 20.673v-.086a3.523 3.523 0 0 0 5.931-.02v.1L36.331.057Z" data-name="Path 1666"/><path d="m54.77.318-.348-.261h-14.08l-.622 1.075-8.88 15.325 5.718 7.713v-.086a3.523 3.523 0 0 0 5.931-.021v.1L54.354 3.638 48.17 14.322l6.92-11.981a1.528 1.528 0 0 0-.316-2.023" data-name="Path 1668"/><path d="M121.444 0a12.974 12.974 0 0 0 0 25.948h.076V.003Z" data-name="Path 1669"/><path d="M138 12.974A12.974 12.974 0 0 0 125.1.004v25.944a12.971 12.971 0 0 0 12.9-12.97" data-name="Path 1670"/></g></svg>