<svg xmlns="http://www.w3.org/2000/svg" width="125.637" height="48.66" viewBox="0 0 125.637 48.66"><g fill="#fff" data-name="Group 48"><path d="M44.272 16.265h6.497v4.525h-6.497z" data-name="Rectangle 44"/><path d="M20.678 37.152a9.032 9.032 0 0 1-5.677-2.019 8.732 8.732 0 0 1-5.615 2.019 8.883 8.883 0 0 1-8.888-8.893V0h6.5v28.07a2.4 2.4 0 0 0 4.794 0V0h6.5v28.07a2.4 2.4 0 0 0 4.794 0V0h6.5v28.259a8.883 8.883 0 0 1-8.908 8.893" data-name="Path 1627"/><path d="M95.55 37.152a8.883 8.883 0 0 1-8.894-8.893V8.895a8.894 8.894 0 1 1 17.788 0v13.372H93.151v5.8a2.4 2.4 0 0 0 4.8 0v-2.142h6.5v2.334a8.884 8.884 0 0 1-8.894 8.893m2.4-28.068a2.4 2.4 0 0 0-4.8 0v7.379h4.8Z" data-name="Path 1628"/><path d="M119.141 36.71V9.084a2.4 2.4 0 0 0-4.795 0V36.71h-6.5V8.895a8.894 8.894 0 1 1 17.787 0V36.71Z" data-name="Path 1629"/><path d="M44.272 28.07a2.4 2.4 0 0 1-4.793 0V9.084a2.4 2.4 0 1 1 4.793 0V9.3h6.5v-.41a8.894 8.894 0 1 0-17.787 0v19.369a8.894 8.894 0 0 0 17.787 0v-.515h-6.5Z" data-name="Path 1630"/><path d="M54.175 27.744h6.497v8.966h-6.497z" data-name="Rectangle 45"/><path d="M74.358 0a8.733 8.733 0 0 0-5.615 2.02A9.024 9.024 0 0 0 63.073 0a8.884 8.884 0 0 0-8.9 8.895V9.3h6.5v-.22a2.4 2.4 0 1 1 4.793 0v27.63h6.5V9.084a2.4 2.4 0 1 1 4.791 0V36.71h6.5V8.895A8.884 8.884 0 0 0 74.358 0" data-name="Path 1631"/><path d="M54.175 16.265h6.497v4.525h-6.497z" data-name="Rectangle 46"/><path d="M44.272 10.378h16.416v4.813H44.272z" data-name="Rectangle 47"/><path d="M44.272 21.859h16.395v4.813H44.272z" data-name="Rectangle 48"/><path d="M0 41.771h2.411a3.859 3.859 0 0 1 1.443.261 3.36 3.36 0 0 1 1.117.717 3.2 3.2 0 0 1 .722 1.075 3.492 3.492 0 0 1 .256 1.345 3.414 3.414 0 0 1-.265 1.35 3.256 3.256 0 0 1-.731 1.075 3.409 3.409 0 0 1-1.113.713 3.719 3.719 0 0 1-1.4.261H0Zm1.62 1.508v3.771h.745a2.136 2.136 0 0 0 .805-.144 1.817 1.817 0 0 0 .615-.4 1.74 1.74 0 0 0 .391-.6 2 2 0 0 0 .135-.736 2.086 2.086 0 0 0-.13-.745 1.716 1.716 0 0 0-.382-.6 1.748 1.748 0 0 0-.619-.4 2.291 2.291 0 0 0-.843-.144Z" data-name="Path 1632"/><path d="M9.488 48.661a3.294 3.294 0 0 1-1.141-.186 2.336 2.336 0 0 1-.861-.54 2.426 2.426 0 0 1-.549-.866 3.272 3.272 0 0 1-.2-1.173v-4.125h1.648v4.125a1.218 1.218 0 0 0 .293.875 1.049 1.049 0 0 0 .8.307 1.083 1.083 0 0 0 .8-.307 1.184 1.184 0 0 0 .308-.875v-4.125h1.648v4.125a3.272 3.272 0 0 1-.2 1.173 2.426 2.426 0 0 1-.549.866 2.332 2.332 0 0 1-.866.54 3.305 3.305 0 0 1-1.136.186" data-name="Path 1633"/><path d="M14.934 43.27h-1.843v-1.5h5.251v1.5h-1.825v5.3h-1.583Z" data-name="Path 1634"/><path d="M22.066 48.661a3.59 3.59 0 0 1-1.425-.275 3.273 3.273 0 0 1-1.806-1.853 3.691 3.691 0 0 1-.25-1.364 3.616 3.616 0 0 1 .261-1.383 3.314 3.314 0 0 1 1.83-1.844 3.757 3.757 0 0 1 2.332-.144 3.677 3.677 0 0 1 .838.34 3.3 3.3 0 0 1 .708.531 3.46 3.46 0 0 1 .54.684l-1.425.9a1.859 1.859 0 0 0-.633-.722 1.7 1.7 0 0 0-.959-.265 1.816 1.816 0 0 0-.745.149 1.782 1.782 0 0 0-.577.4 1.835 1.835 0 0 0-.377.605 2.1 2.1 0 0 0 0 1.471 1.767 1.767 0 0 0 1.685 1.15 1.643 1.643 0 0 0 1.024-.312 2 2 0 0 0 .623-.8l1.5.8a3.653 3.653 0 0 1-.531.772 3.516 3.516 0 0 1-.712.61 3.305 3.305 0 0 1-.876.4 3.633 3.633 0 0 1-1.019.14" data-name="Path 1635"/><path d="M29.75 45.951h-2.228v2.616h-1.63v-6.8h1.629v2.579h2.229v-2.579h1.629v6.8H29.75Z" data-name="Path 1636"/><path d="M37.912 48.661a3.785 3.785 0 0 1-1.49-.279 3.286 3.286 0 0 1-1.83-1.871 3.768 3.768 0 0 1 .014-2.719 3.287 3.287 0 0 1 1.825-1.843 3.613 3.613 0 0 1 1.415-.27 3.652 3.652 0 0 1 1.7.372 3.6 3.6 0 0 1 1.2 1l-1.359.959a1.653 1.653 0 0 0-.629-.587 1.911 1.911 0 0 0-.907-.2 1.836 1.836 0 0 0-.736.149 1.88 1.88 0 0 0-.6.41 1.937 1.937 0 0 0-.4.619 2.007 2.007 0 0 0-.149.777 2.136 2.136 0 0 0 .14.791 1.811 1.811 0 0 0 .4.614 1.733 1.733 0 0 0 .61.4 2.084 2.084 0 0 0 .773.14 1.683 1.683 0 0 0 .987-.279 1.555 1.555 0 0 0 .577-.782h-1.89v-1.508h3.649v.773a3.493 3.493 0 0 1-.237 1.28 3.173 3.173 0 0 1-1.713 1.792 3.29 3.29 0 0 1-1.345.27" data-name="Path 1637"/><path d="M42.083 41.771h4.692v1.508h-3.072v1.117h3.072v1.508h-3.072v1.154h3.072v1.508h-4.692Z" data-name="Path 1638"/><path d="M47.754 41.771h1.694l2.56 4.078v-4.078h1.546v6.8h-1.573l-2.672-4.274v4.274h-1.555Z" data-name="Path 1639"/><path d="M54.578 41.771h2.411a3.861 3.861 0 0 1 1.443.261 3.367 3.367 0 0 1 1.117.717 3.205 3.205 0 0 1 .722 1.075 3.5 3.5 0 0 1 .256 1.345 3.414 3.414 0 0 1-.265 1.35 3.257 3.257 0 0 1-.731 1.075 3.406 3.406 0 0 1-1.113.713 3.717 3.717 0 0 1-1.4.261h-2.439Zm1.62 1.508v3.771h.745a2.139 2.139 0 0 0 .806-.144 1.815 1.815 0 0 0 .614-.4 1.742 1.742 0 0 0 .391-.6 2.01 2.01 0 0 0 .135-.736 2.086 2.086 0 0 0-.13-.745 1.717 1.717 0 0 0-.382-.6 1.742 1.742 0 0 0-.619-.4 2.289 2.289 0 0 0-.843-.144Z" data-name="Path 1640"/><path d="M61.383 41.771h4.693v1.508h-3.073v1.117h3.073v1.508h-3.073v1.154h3.073v1.508h-4.693Z" data-name="Path 1641"/><path d="M67.053 41.771h2.924a2.968 2.968 0 0 1 1.089.186 2.391 2.391 0 0 1 .8.5 2.1 2.1 0 0 1 .493.74 2.444 2.444 0 0 1 .168.908 2.376 2.376 0 0 1-.293 1.178 2.144 2.144 0 0 1-.805.824l1.266 2.458h-1.788l-.959-2.039h-1.275v2.039h-1.62Zm1.62 1.48v1.806h1.182a1 1 0 0 0 .768-.265.916.916 0 0 0 .247-.647.858.858 0 0 0-.252-.656 1.077 1.077 0 0 0-.763-.237Z" data-name="Path 1642"/><path d="M75.479 41.771h2.719a2.806 2.806 0 0 1 1.08.2 2.52 2.52 0 0 1 .829.545 2.4 2.4 0 0 1 .531.805 2.672 2.672 0 0 1 0 1.96 2.478 2.478 0 0 1-.526.815 2.53 2.53 0 0 1-.829.559 2.747 2.747 0 0 1-1.094.21h-1.08v1.7H75.48Zm1.629 1.471v2.113h1.009a1.055 1.055 0 0 0 .759-.289 1 1 0 0 0 .3-.763 1.021 1.021 0 0 0-.3-.768 1.047 1.047 0 0 0-.759-.293Z" data-name="Path 1643"/><path d="M81.68 41.771h1.629v5.242h2.96v1.555h-4.59Z" data-name="Path 1644"/><path d="M89.254 41.771h1.564l2.514 6.8h-1.648l-.354-1.015h-2.6l-.354 1.015h-1.639Zm-.019 4.367h1.6l-.8-2.281Z" data-name="Path 1645"/><path d="M94.482 43.27H92.64v-1.5h5.251v1.5h-1.825v5.3h-1.583Z" data-name="Path 1646"/><path d="M98.783 41.771h4.677v1.527h-3.054v1.21h3.054v1.5h-3.054v2.56h-1.62Z" data-name="Path 1647"/><path d="M107.749 48.661a3.38 3.38 0 0 1-1.359-.275 3.533 3.533 0 0 1-1.1-.745 3.537 3.537 0 0 1-.74-3.831 3.483 3.483 0 0 1 1.843-1.857 3.5 3.5 0 0 1 2.719 0 3.537 3.537 0 0 1 1.108.75 3.478 3.478 0 0 1 .745 1.108 3.512 3.512 0 0 1-.74 3.831 3.524 3.524 0 0 1-1.1.745 3.4 3.4 0 0 1-1.369.275m0-1.6a1.817 1.817 0 0 0 .74-.149 1.779 1.779 0 0 0 .587-.41 1.931 1.931 0 0 0 .386-.6 1.9 1.9 0 0 0 .14-.731 1.938 1.938 0 0 0-.14-.736 1.883 1.883 0 0 0-.391-.605 1.835 1.835 0 0 0-.591-.41 1.867 1.867 0 0 0-1.462 0 1.734 1.734 0 0 0-.582.41 1.968 1.968 0 0 0-.382.605 1.931 1.931 0 0 0-.14.736 1.959 1.959 0 0 0 .135.731 1.863 1.863 0 0 0 .382.6 1.78 1.78 0 0 0 1.317.559" data-name="Path 1648"/><path d="M112.088 41.771h2.924a2.968 2.968 0 0 1 1.089.186 2.39 2.39 0 0 1 .8.5 2.1 2.1 0 0 1 .493.74 2.445 2.445 0 0 1 .168.908 2.376 2.376 0 0 1-.293 1.178 2.144 2.144 0 0 1-.805.824l1.266 2.458h-1.788l-.959-2.039h-1.275v2.039h-1.62Zm1.62 1.48v1.806h1.182a1 1 0 0 0 .768-.265.917.917 0 0 0 .247-.647.858.858 0 0 0-.252-.656 1.078 1.078 0 0 0-.763-.237Z" data-name="Path 1649"/><path d="M118.4 41.771h1.546l1.834 2.542 1.89-2.542h1.48v6.8h-1.583V44.26l-1.8 2.411-1.778-2.4v4.3h-1.592Z" data-name="Path 1650"/></g></svg>