<svg xmlns="http://www.w3.org/2000/svg" width="133.354" height="33.806" viewBox="0 0 133.354 33.806"><g fill="#fff" data-name="Group 51"><path d="M24.287 18.336a4.748 4.748 0 0 0 1.94-1.248 4.822 4.822 0 0 0 .391-2.391V3.865a4.869 4.869 0 0 0-.376-2.391 4.751 4.751 0 0 0-1.94-1.249v-.21h9.908v.211a4.753 4.753 0 0 0-1.94 1.249 4.869 4.869 0 0 0-.376 2.391v10.831a4.822 4.822 0 0 0 .391 2.391 4.749 4.749 0 0 0 1.94 1.248v.211h-9.912Z" data-name="Path 1600"/><path d="m58.668 12.23-.737 6.317H41.295v-.211a4.75 4.75 0 0 0 1.94-1.248 4.823 4.823 0 0 0 .391-2.391V3.865a4.868 4.868 0 0 0-.376-2.391A4.752 4.752 0 0 0 41.31.225v-.21h9.912v.211a4.753 4.753 0 0 0-1.94 1.249 4.868 4.868 0 0 0-.376 2.391V16.11c0 .436.286.782.857 1.053a5.468 5.468 0 0 0 2.316.406h.361a4.823 4.823 0 0 0 3.459-1.579 12.627 12.627 0 0 0 2.572-3.76Z" data-name="Path 1601"/><path d="M81.836 6.287h-.211a8.947 8.947 0 0 0-2.316-3.76 5.593 5.593 0 0 0-4.061-1.58h-.346v13.735a4.822 4.822 0 0 0 .391 2.391 4.748 4.748 0 0 0 1.94 1.248v.211h-9.957v-.211a4.75 4.75 0 0 0 1.94-1.248 4.823 4.823 0 0 0 .391-2.391V.948h-.471a5.5 5.5 0 0 0-4.031 1.58 9.485 9.485 0 0 0-2.346 3.76h-.211l.557-6.272h18.14Z" data-name="Path 1602"/><path d="m107.435 12.215-.737 6.317H87.254v-.211a4.749 4.749 0 0 0 1.94-1.248 4.824 4.824 0 0 0 .391-2.392V3.85a4.869 4.869 0 0 0-.376-2.391A4.75 4.75 0 0 0 87.269.21V0h16.139l.557 6.272h-.226a9.065 9.065 0 0 0-2.331-3.73A5.593 5.593 0 0 0 97.347.963h-2.482v8.844h2.527a4.53 4.53 0 0 0 4.061-2.407h.15v6.017h-.15a5.367 5.367 0 0 0-1.684-1.94 3.874 3.874 0 0 0-2.362-.752l-2.527.06v5.325c0 .436.286.782.857 1.053a5.468 5.468 0 0 0 2.316.406h.948c2.231 0 4.225-.123 5.682-1.579a12.632 12.632 0 0 0 2.572-3.76Z" data-name="Path 1603"/><path d="M130.647 18.846a14.044 14.044 0 0 0 2.707 2.963v.211h-6.723q-3.226-5.234-6.046-10.529l-1.414.06v3.13a4.823 4.823 0 0 0 .391 2.392 4.753 4.753 0 0 0 1.94 1.248v.211h-9.912v-.211a4.754 4.754 0 0 0 1.94-1.248 4.824 4.824 0 0 0 .391-2.392V3.85a4.869 4.869 0 0 0-.376-2.391 4.748 4.748 0 0 0-1.94-1.248V0h10.288a11.668 11.668 0 0 1 6.3 1.459 4.47 4.47 0 0 1 2.3 3.926 4.851 4.851 0 0 1-1.354 3.4 7.211 7.211 0 0 1-3.535 2.046q2.166 3.723 5.069 8Zm-11.491-8.288h1.88a3.848 3.848 0 0 0 3.068-1.324 5.479 5.479 0 0 0 1.158-3.7q0-4.58-4.5-4.587h-1.594Z" data-name="Path 1604"/><path d="m17.222 15.703-.737 6.317H0v-.617L11.251.993h-3.73a5.594 5.594 0 0 0-4.062 1.579 9.067 9.067 0 0 0-2.331 3.73H.917L1.474.03h15.583v.616L5.836 21.012h5.144a4.823 4.823 0 0 0 3.46-1.579 12.63 12.63 0 0 0 2.572-3.76Z" data-name="Path 1605"/><path d="M25.167 27.799h1.242l1.575 3.351h.062l1.568-3.347h1.207v5.9h-.937v-4.042l.053-.4h-.079l-1.515 3.109h-.7l-1.515-3.109h-.079l.053.4v4.042h-.933Z" data-name="Path 1606"/><path d="M38.162 32.344h-2.255l-.405 1.356h-1l1.9-5.9h1.295l1.9 5.9h-1.031Zm-.247-.837-.846-2.774h-.07l-.837 2.774Z" data-name="Path 1607"/><path d="m44.86 31.05-.634.749v1.9h-.933v-5.9h.933v2.7h.062l2.264-2.7h1.1l-2.158 2.519 2.193 3.382h-1.118Z" data-name="Path 1608"/><path d="M52.219 28.65v1.647h2.413v.845h-2.413v1.7h2.748v.854h-3.669v-5.9h3.673v.854Z" data-name="Path 1609"/><path d="M62.37 32.837v.863h-3.5v-5.9h.933v5.038Z" data-name="Path 1610"/><path d="M69.423 32.344h-2.255l-.405 1.356h-1l1.9-5.9h1.295l1.9 5.9h-1.031Zm-.246-.837-.846-2.774h-.07l-.837 2.774Z" data-name="Path 1611"/><path d="M77.74 32.344h-2.255L75.08 33.7h-.995l1.9-5.9h1.295l1.9 5.9h-1.031Zm-.246-.837-.846-2.774h-.07l-.837 2.774Z" data-name="Path 1612"/><path d="M85.073 31.613h-1.269V33.7h-.934v-5.9h2.475a1.926 1.926 0 0 1 .669 3.708l1.29 2.192h-1.083Zm-1.268-.854h1.453a1.05 1.05 0 0 0 0-2.1h-1.454Z" data-name="Path 1613"/><path d="M95.444 29.895v1.709a2.052 2.052 0 0 1-2.255 2.1h-2.14v-5.9h2.14a2.052 2.052 0 0 1 2.255 2.1m-.924.035a1.223 1.223 0 0 0-1.356-1.269h-1.18v4.175h1.18a1.223 1.223 0 0 0 1.356-1.268Z" data-name="Path 1614"/><path d="M99.394 27.799h.933V33.7h-.933z" data-name="Rectangle 11"/><path d="M104.199 32.051v-.352h.925v.326a1.008 1.008 0 0 0 2.008 0v-4.227h.924v4.253a1.938 1.938 0 0 1-3.858 0" data-name="Path 1615"/></g></svg>