<svg xmlns="http://www.w3.org/2000/svg" width="159.102" height="65.333" data-name="Group 23" viewBox="0 0 159.102 40.333"><defs><clipPath id="a"><path fill="none" d="M0 0h159.102v40.333H0z" data-name="Rectangle 12"/></clipPath></defs><g clip-path="url(#a)" data-name="Group 22"><path d="M28.977 21.877a5.664 5.664 0 0 0 2.315-1.489 5.753 5.753 0 0 0 .467-2.853V4.612a5.809 5.809 0 0 0-.449-2.853A5.668 5.668 0 0 0 29 .269V.018h11.826v.251a5.671 5.671 0 0 0-2.315 1.49 5.809 5.809 0 0 0-.449 2.853v12.922a5.753 5.753 0 0 0 .467 2.853 5.666 5.666 0 0 0 2.315 1.489v.252H29.013Z" data-name="Path 1600"/><path d="m69.995 14.591-.879 7.537H49.268v-.252a5.667 5.667 0 0 0 2.315-1.489 5.754 5.754 0 0 0 .467-2.853V4.612a5.809 5.809 0 0 0-.449-2.853 5.67 5.67 0 0 0-2.315-1.49V.018h11.826v.251a5.67 5.67 0 0 0-2.315 1.49 5.808 5.808 0 0 0-.449 2.853v14.609c0 .52.341.933 1.023 1.256a6.523 6.523 0 0 0 2.764.485h.431a5.755 5.755 0 0 0 4.127-1.884 15.065 15.065 0 0 0 3.069-4.486Z" data-name="Path 1601"/><path d="M97.636 7.501h-.251a10.674 10.674 0 0 0-2.763-4.486 6.673 6.673 0 0 0-4.845-1.885h-.413v16.386a5.753 5.753 0 0 0 .467 2.853 5.664 5.664 0 0 0 2.315 1.489v.251h-11.88v-.251a5.667 5.667 0 0 0 2.315-1.489 5.755 5.755 0 0 0 .466-2.853V1.131h-.556a6.561 6.561 0 0 0-4.809 1.885 11.316 11.316 0 0 0-2.8 4.486h-.251l.663-7.484h21.642Z" data-name="Path 1602"/><path d="m128.179 14.573-.879 7.537h-23.2v-.251a5.667 5.667 0 0 0 2.315-1.489 5.755 5.755 0 0 0 .466-2.853V4.594a5.809 5.809 0 0 0-.449-2.853 5.668 5.668 0 0 0-2.315-1.49V0h19.255l.664 7.483h-.269a10.815 10.815 0 0 0-2.782-4.45 6.673 6.673 0 0 0-4.845-1.884h-2.961V11.7h3.015a5.4 5.4 0 0 0 4.845-2.871h.179v7.178h-.179a6.4 6.4 0 0 0-2.01-2.315 4.621 4.621 0 0 0-2.818-.9l-3.015.072v6.354c0 .52.341.933 1.023 1.256a6.524 6.524 0 0 0 2.763.484h1.131c2.661 0 5.041-.146 6.779-1.884a15.07 15.07 0 0 0 3.069-4.486Z" data-name="Path 1603"/><path d="M155.873 22.485a16.754 16.754 0 0 0 3.23 3.535v.251h-8.022q-3.849-6.245-7.214-12.562l-1.687.072v3.734a5.754 5.754 0 0 0 .467 2.853 5.671 5.671 0 0 0 2.315 1.489v.251h-11.826v-.251a5.672 5.672 0 0 0 2.315-1.489 5.755 5.755 0 0 0 .466-2.853V4.594a5.81 5.81 0 0 0-.449-2.853 5.666 5.666 0 0 0-2.314-1.49V0h12.275a13.921 13.921 0 0 1 7.519 1.741 5.333 5.333 0 0 1 2.746 4.684 5.788 5.788 0 0 1-1.615 4.056 8.6 8.6 0 0 1-4.217 2.441q2.584 4.441 6.048 9.547ZM142.159 12.6h2.243a4.59 4.59 0 0 0 3.661-1.579 6.536 6.536 0 0 0 1.382-4.415q0-5.464-5.366-5.473h-1.9Z" data-name="Path 1604"/><path d="m20.547 18.735-.879 7.534H0v-.736L13.423 1.184h-4.45a6.674 6.674 0 0 0-4.846 1.885 10.817 10.817 0 0 0-2.781 4.45h-.251L1.759.036H20.35v.733l-13.387 24.3H13.1a5.755 5.755 0 0 0 4.128-1.884 15.069 15.069 0 0 0 3.072-4.486Z" data-name="Path 1605"/><path d="M30.026 33.166h1.481l1.881 3.993h.074l1.87-3.993h1.439v7.04h-1.114v-4.823l.063-.473h-.094l-1.807 3.709h-.841l-1.807-3.709h-.094l.063.473v4.823h-1.114Z" data-name="Path 1606"/><path d="M45.531 38.589h-2.69l-.484 1.618H41.17l2.27-7.04h1.54l2.27 7.04h-1.23Zm-.294-1-1.009-3.31h-.084l-1 3.31Z" data-name="Path 1607"/><path d="m53.523 37.044-.757.893v2.27h-1.114v-7.04h1.114v3.215h.074l2.7-3.215h1.313l-2.575 3.005 2.616 4.035H55.56Z" data-name="Path 1608"/><path d="M62.303 34.186v1.965h2.879v1.009h-2.879v2.028h3.278v1.019h-4.378v-7.04h4.382v1.019Z" data-name="Path 1609"/><path d="M74.413 39.177v1.03h-4.172v-7.04h1.114v6.01Z" data-name="Path 1610"/><path d="M82.821 38.589h-2.69l-.484 1.618H78.46l2.27-7.04h1.545l2.27 7.04h-1.224Zm-.294-1-1.009-3.31h-.084l-1 3.31Z" data-name="Path 1611"/><path d="M92.751 38.589h-2.69l-.484 1.618H88.39l2.27-7.04h1.545l2.27 7.04h-1.23Zm-.294-1-1.009-3.31h-.084l-1 3.31Z" data-name="Path 1612"/><path d="M101.499 37.718h-1.513v2.49h-1.114v-7.04h2.953a2.3 2.3 0 0 1 .8 4.424l1.534 2.617h-1.294Zm-1.513-1.019h1.734a1.251 1.251 0 0 0 0-2.5h-1.734Z" data-name="Path 1613"/><path d="M113.873 35.668v2.039a2.448 2.448 0 0 1-2.69 2.5h-2.553v-7.04h2.553a2.448 2.448 0 0 1 2.69 2.5m-1.1.042a1.459 1.459 0 0 0-1.618-1.514h-1.412v4.981h1.408a1.459 1.459 0 0 0 1.618-1.513Z" data-name="Path 1614"/><path d="M118.586 33.167h1.114v7.04h-1.114z" data-name="Rectangle 11"/><path d="M124.318 38.242v-.42h1.1v.389a1.2 1.2 0 0 0 2.4 0v-5.044h1.1v5.075a2.312 2.312 0 0 1-4.6 0" data-name="Path 1615"/></g></svg>