<?xml version="1.0" standalone="no"?>
<!DOCTYPE svg PUBLIC "-//W3C//DTD SVG 20010904//EN"
 "http://www.w3.org/TR/2001/REC-SVG-20010904/DTD/svg10.dtd">
<svg version="1.0" xmlns="http://www.w3.org/2000/svg"
 width="512.000000pt" height="512.000000pt" viewBox="0 0 512.000000 512.000000"
 preserveAspectRatio="xMidYMid meet">
<metadata>
Created by potrace 1.14, written by Peter Selinger 2001-2017
</metadata>
<g transform="translate(0.000000,512.000000) scale(0.100000,-0.100000)"
fill="#000000" stroke="none">
<path d="M2320 5110 c-406 -39 -821 -184 -1154 -404 -642 -422 -1046 -1069
-1148 -1836 -16 -123 -16 -509 0 -625 65 -459 233 -873 501 -1230 92 -122 304
-341 426 -440 368 -299 822 -493 1305 -557 123 -16 509 -16 625 0 459 65 873
233 1230 501 122 92 341 304 440 426 299 368 493 822 557 1305 16 123 16 509
0 625 -69 486 -254 922 -551 1294 -406 507 -1012 845 -1671 931 -115 15 -443
21 -560 10z m2308 -2249 c81 -41 92 -146 21 -206 -57 -48 -107 -45 -165 8 -65
59 -52 148 28 197 41 25 69 25 116 1z m-3781 -37 l-22 -46 -122 4 -123 5 0
-79 0 -78 115 0 115 0 0 -46 0 -46 -117 3 -118 4 -3 -117 -3 -118 -44 0 -45 0
0 188 c0 104 3 230 6 280 l7 92 188 0 189 0 -23 -46z m203 -199 l0 -234 138
-3 137 -3 3 -42 3 -43 -118 0 c-65 0 -148 3 -185 7 l-68 6 0 273 0 274 45 0
45 0 0 -235z m690 190 l0 -46 -152 3 -153 3 -3 43 -3 42 155 0 156 0 0 -45z
m261 -55 c34 -55 65 -100 68 -100 3 0 35 43 70 95 l65 95 43 0 c24 0 43 -2 43
-5 0 -3 -38 -64 -85 -136 -47 -71 -85 -132 -85 -134 0 -2 39 -65 86 -140 47
-75 84 -138 82 -139 -2 -2 -22 -1 -46 2 -42 4 -45 7 -105 98 -34 51 -65 94
-70 94 -4 0 -35 -43 -68 -95 l-61 -95 -54 0 c-30 0 -54 2 -54 3 0 2 41 62 90
133 50 70 90 133 90 140 0 6 -38 70 -85 142 -47 73 -85 134 -85 137 0 3 22 5
49 5 l50 0 62 -100z m804 54 c-8 -20 -15 -38 -15 -40 0 -2 -60 -4 -134 -4
-152 0 -172 -8 -183 -72 -5 -31 -1 -40 22 -62 27 -25 34 -26 140 -26 100 0
116 -2 146 -23 87 -58 69 -253 -27 -293 -24 -10 -80 -14 -199 -14 l-165 0 0
40 0 40 148 0 c129 0 151 3 180 20 27 17 32 25 32 58 0 63 -21 74 -160 84
-137 9 -160 19 -184 79 -35 86 -12 183 53 226 32 22 44 23 198 23 l163 0 -15
-36z m555 27 c0 -5 -7 -25 -15 -46 l-16 -37 -72 4 -72 3 -3 -238 -2 -237 -46
0 -46 0 4 238 3 237 -82 3 -83 3 0 33 c0 18 3 36 7 39 10 10 423 8 423 -2z
m316 -258 c48 -148 89 -274 92 -281 3 -10 -7 -12 -43 -10 -48 3 -48 3 -65 53
l-17 50 -51 3 c-49 3 -53 5 -72 43 l-20 39 55 0 c33 0 55 4 55 11 0 19 -72
240 -77 236 -2 -3 -37 -101 -78 -219 l-73 -213 -46 -3 -46 -3 95 277 c52 153
95 279 95 281 0 2 25 3 55 3 l54 0 87 -267z m560 231 c53 -39 68 -70 72 -144
5 -88 -18 -132 -89 -164 l-47 -22 28 -45 c15 -25 42 -71 60 -102 l32 -57 -49
0 -48 0 -91 143 -91 142 83 3 c78 3 84 4 108 33 29 34 33 67 12 108 -21 40
-56 51 -166 51 l-100 0 0 -240 0 -240 -45 0 -45 0 0 78 c0 42 3 168 7 280 l6
203 168 -3 c151 -3 170 -5 195 -24z m-2496 -240 l0 -47 -52 7 c-29 3 -99 6
-155 6 l-103 0 0 40 0 40 155 0 155 0 0 -46z m-2 -231 l-3 -38 -157 -3 -158
-3 0 41 0 40 161 0 160 0 -3 -37z"/>
<path d="M4511 2846 c-32 -18 -50 -53 -51 -99 0 -31 7 -46 34 -73 28 -28 42
-34 76 -34 34 0 48 6 76 34 28 28 34 42 34 76 0 34 -6 48 -34 76 -27 27 -42
34 -72 34 -22 -1 -50 -7 -63 -14z m107 -38 c17 -17 15 -44 -3 -62 -14 -14 -14
-18 0 -46 21 -41 -4 -42 -28 0 -10 17 -22 30 -28 30 -5 0 -9 -13 -9 -30 0 -20
-5 -30 -15 -30 -12 0 -15 15 -15 75 l0 75 43 0 c24 0 48 -5 55 -12z"/>
<path d="M4550 2775 c0 -22 4 -26 23 -23 14 2 22 10 22 23 0 13 -8 21 -22 23
-19 3 -23 -1 -23 -23z"/>
</g>
</svg>
