<svg xmlns="http://www.w3.org/2000/svg" xmlns:xlink="http://www.w3.org/1999/xlink" width="50.002" height="50.002" viewBox="0 0 50.002 50.002">
  <defs>
    <clipPath id="clip-path">
      <path id="Path_2266" data-name="Path 2266" d="M0-47.085H50v-50H0Z" transform="translate(0 97.087)" fill="#e8e8e8"/>
    </clipPath>
  </defs>
  <g id="Group_954" data-name="Group 954" transform="translate(-149 -1000)">
    <g id="Group_939" data-name="Group 939" transform="translate(149 1000)">
      <g id="Group_934" data-name="Group 934" transform="translate(0 0)">
        <g id="Group_869" data-name="Group 869" transform="translate(0 0)" clip-path="url(#clip-path)">
          <g id="Group_868" data-name="Group 868" transform="translate(0 0)">
            <path id="Path_2265" data-name="Path 2265" d="M-23.542-47.085a25,25,0,0,0,25-25,25,25,0,0,0-25-25,25,25,0,0,0-25,25,25,25,0,0,0,25,25" transform="translate(48.543 97.087)" fill="#e8e8e8"/>
          </g>
        </g>
      </g>
    </g>
    <path id="payments_FILL0_wght400_GRAD0_opsz24" d="M55.221-789.463a3.387,3.387,0,0,1-2.488-1.024,3.387,3.387,0,0,1-1.024-2.488,3.387,3.387,0,0,1,1.024-2.488,3.387,3.387,0,0,1,2.488-1.024,3.387,3.387,0,0,1,2.488,1.024,3.387,3.387,0,0,1,1.024,2.488,3.387,3.387,0,0,1-1.024,2.488A3.387,3.387,0,0,1,55.221-789.463Zm-8.2,3.512a2.255,2.255,0,0,1-1.654-.688,2.255,2.255,0,0,1-.688-1.654v-9.367a2.255,2.255,0,0,1,.688-1.654A2.255,2.255,0,0,1,47.025-800H63.416a2.255,2.255,0,0,1,1.654.688,2.255,2.255,0,0,1,.688,1.654v9.367a2.255,2.255,0,0,1-.688,1.654,2.255,2.255,0,0,1-1.654.688Zm2.342-2.342H61.075a2.255,2.255,0,0,1,.688-1.654,2.255,2.255,0,0,1,1.654-.688v-4.683A2.255,2.255,0,0,1,61.762-796a2.255,2.255,0,0,1-.688-1.654H49.366A2.255,2.255,0,0,1,48.679-796a2.255,2.255,0,0,1-1.654.688v4.683a2.255,2.255,0,0,1,1.654.688A2.255,2.255,0,0,1,49.366-788.292Zm12.879,7.025h-19.9a2.255,2.255,0,0,1-1.654-.688A2.255,2.255,0,0,1,40-783.609v-12.879h2.342v12.879h19.9Zm-15.221-7.025v0Z" transform="translate(121.122 1815.635)" fill="#274052"/>
  </g>
</svg>
