<svg xmlns="http://www.w3.org/2000/svg" xmlns:xlink="http://www.w3.org/1999/xlink" width="50.002" height="50.002" viewBox="0 0 50.002 50.002">
  <defs>
    <clipPath id="clip-path">
      <path id="Path_2266" data-name="Path 2266" d="M0-47.085H50v-50H0Z" transform="translate(0 97.087)" fill="#e8e8e8"/>
    </clipPath>
  </defs>
  <g id="Group_955" data-name="Group 955" transform="translate(23072 -3156)">
    <g id="Group_934" data-name="Group 934" transform="translate(-23072 3156)">
      <g id="Group_869" data-name="Group 869" transform="translate(0 0)" clip-path="url(#clip-path)">
        <g id="Group_868" data-name="Group 868" transform="translate(0 0)">
          <path id="Path_2265" data-name="Path 2265" d="M-23.542-47.085a25,25,0,0,0,25-25,25,25,0,0,0-25-25,25,25,0,0,0-25,25,25,25,0,0,0,25,25" transform="translate(48.543 97.087)" fill="#e8e8e8"/>
        </g>
      </g>
    </g>
    <text id="_" data-name="£" transform="translate(-23047 3173)" fill="#274052" font-size="12" font-family="Gilroy-Heavy, Gilroy" font-weight="800" letter-spacing="-0.01em"><tspan x="-3" y="12">£</tspan></text>
    <path id="cycle_FILL0_wght400_GRAD0_opsz24" d="M9.495,23.507A12.412,12.412,0,0,1,4.3,19.051a11.813,11.813,0,0,1-2-6.729q0-.8.077-1.567a10.51,10.51,0,0,1,.261-1.506l-1.413.83L0,7.959l5.869-3.38,3.38,5.838L7.1,11.646,5.439,8.758a8.986,8.986,0,0,0-.507,1.721,9.874,9.874,0,0,0-.169,1.844,9.566,9.566,0,0,0,1.629,5.424,9.742,9.742,0,0,0,4.333,3.61ZM18.9,8.6V6.146h3.349a9.865,9.865,0,0,0-3.411-2.719A9.883,9.883,0,0,0,11.4,2.981,9.981,9.981,0,0,0,8.635,4.456L7.405,2.3A13.194,13.194,0,0,1,10.755.615,11.881,11.881,0,0,1,14.6,0a12.163,12.163,0,0,1,8.6,3.534V1.844h2.458V8.6ZM18.1,27.04,12.23,23.66l3.38-5.838,2.12,1.229-1.751,3.011a9.586,9.586,0,0,0,6.038-3.288,9.552,9.552,0,0,0,2.412-6.484q0-.338-.015-.63a4.173,4.173,0,0,0-.077-.6h2.489q.031.307.046.6t.015.63a12.261,12.261,0,0,1-8.911,11.83l1.352.8Z" transform="translate(-23066.064 3182.514) rotate(-45)" fill="#274052"/>
  </g>
</svg>
