<svg xmlns="http://www.w3.org/2000/svg" width="149.221" height="49.996" viewBox="0 0 149.221 49.996"><g fill="#efeded" data-name="Group 459"><g data-name="Group 458"><path d="M66.865 30.328a5.2 5.2 0 0 1-4.026-1.534 5.366 5.366 0 0 1-1.419-3.8 6.074 6.074 0 0 1 .575-2.645 4.593 4.593 0 0 1 1.84-1.994 5.493 5.493 0 0 1 3.029-.805 5.33 5.33 0 0 1 3.834 1.572l-.882.843a4.052 4.052 0 0 0-2.914-1.15 3.845 3.845 0 0 0-3.067 1.227 4.278 4.278 0 0 0-1.074 2.991 4.455 4.455 0 0 0 1.074 2.914 3.825 3.825 0 0 0 3.067 1.189 4.078 4.078 0 0 0 2.991-1.227l.92.882a5.562 5.562 0 0 1-3.948 1.537Z" data-name="Path 1785"/><path d="m78.406 30.213-.038-1.342a2.684 2.684 0 0 1-1.15 1.112 3.181 3.181 0 0 1-1.572.383 3.825 3.825 0 0 1-2.722-1.035 4.185 4.185 0 0 1 0-5.6 3.762 3.762 0 0 1 2.726-1.033 3.328 3.328 0 0 1 1.61.383 2.832 2.832 0 0 1 1.15 1.074v-1.342h1.189v7.361l-1.189.038Zm-2.684-6.365a2.573 2.573 0 0 0-1.879.728 2.876 2.876 0 0 0 0 3.911 2.573 2.573 0 0 0 1.879.728 2.843 2.843 0 0 0 1.3-.307 2.177 2.177 0 0 0 .882-.767 3.1 3.1 0 0 0 .422-1.035 2.9 2.9 0 0 0 0-1.15 3.1 3.1 0 0 0-.422-1.035 2.177 2.177 0 0 0-.882-.767 2.068 2.068 0 0 0-1.3-.307Z" data-name="Path 1786"/><path d="m83.16 22.774.077 1.112a2.353 2.353 0 0 1 2.262-1.227 2.512 2.512 0 0 1 1.725.537l-.537 1.035a2.225 2.225 0 0 0-2.837.192 2.11 2.11 0 0 0-.613 1.61v4.141H82.01v-7.361l1.15-.038Z" data-name="Path 1787"/><path d="M94.931 28.986a3.516 3.516 0 0 1-1.419 1 4.809 4.809 0 0 1-1.764.345 3.822 3.822 0 0 1-2.8-1.035 3.854 3.854 0 0 1 2.761-6.633 3.752 3.752 0 0 1 2.837 1.112 3.879 3.879 0 0 1 .843 3.221h-6.288a2.383 2.383 0 0 0 .843 1.61 2.739 2.739 0 0 0 1.84.613 3.9 3.9 0 0 0 1.3-.23 2.465 2.465 0 0 0 1.035-.69l.805.69Zm-.728-3.029a2.216 2.216 0 0 0-.728-1.649 2.639 2.639 0 0 0-1.764-.575 2.752 2.752 0 0 0-1.725.575 2.411 2.411 0 0 0-.882 1.61l5.1.038Z" data-name="Path 1788"/><path d="M101.487 19.707h3.8a6.3 6.3 0 0 1 2.3.422 4.386 4.386 0 0 1 1.649 1.15 5.465 5.465 0 0 1 .958 1.649 5.259 5.259 0 0 1 .345 1.879 6.524 6.524 0 0 1-.307 1.955 5.553 5.553 0 0 1-.92 1.687 4.536 4.536 0 0 1-1.649 1.227 5.786 5.786 0 0 1-2.339.46h-3.8V19.707Zm6.748 7.975a4.243 4.243 0 0 0 1-2.876 3.89 3.89 0 0 0-1.035-2.722 3.7 3.7 0 0 0-2.914-1.15h-2.499v7.936h2.5a3.579 3.579 0 0 0 2.948-1.188Z" data-name="Path 1789"/><path d="M113.104 23.695a3.854 3.854 0 1 1 0 5.559 3.668 3.668 0 0 1-1.074-2.761 3.816 3.816 0 0 1 1.074-2.798Zm4.639.843a2.685 2.685 0 0 0-3.757 0 2.722 2.722 0 0 0-.728 1.994 2.6 2.6 0 0 0 .728 1.917 2.787 2.787 0 0 0 3.757 0 2.794 2.794 0 0 0 .767-1.917 2.845 2.845 0 0 0-.767-1.994Z" data-name="Path 1790"/><path d="m122.765 22.774.077 1.112a2.353 2.353 0 0 1 2.262-1.227 2.512 2.512 0 0 1 1.725.537l-.537 1.035a2.225 2.225 0 0 0-2.837.192 2.11 2.11 0 0 0-.613 1.61v4.141h-1.227v-7.361l1.15-.038Z" data-name="Path 1791"/><path d="M132.888 24.421a3.091 3.091 0 0 0-2.07-.728 2.539 2.539 0 0 0-1.3.268.868.868 0 0 0-.5.805c0 .575.613.959 1.84 1.074.345.038.652.077.844.115a4.417 4.417 0 0 1 .805.23 2.858 2.858 0 0 1 .767.383 2.047 2.047 0 0 1 .5.613 1.805 1.805 0 0 1 .192.92 1.91 1.91 0 0 1-.882 1.649 3.861 3.861 0 0 1-2.185.575 3.966 3.966 0 0 1-3.3-1.38l.69-.843a3.19 3.19 0 0 0 2.645 1.15 2.834 2.834 0 0 0 1.3-.268.911.911 0 0 0 .575-.882.8.8 0 0 0-.5-.805 5.212 5.212 0 0 0-1.5-.383 6.813 6.813 0 0 1-1.074-.192 4.5 4.5 0 0 1-.92-.345 1.9 1.9 0 0 1-.728-.613 1.555 1.555 0 0 1-.23-.959 1.836 1.836 0 0 1 .46-1.265 2.678 2.678 0 0 1 1.112-.728 4.237 4.237 0 0 1 1.419-.192 4.029 4.029 0 0 1 2.8 1l-.767.805Z" data-name="Path 1792"/><path d="M142.358 28.986a3.516 3.516 0 0 1-1.419 1 4.809 4.809 0 0 1-1.764.345 3.822 3.822 0 0 1-2.8-1.035 3.854 3.854 0 0 1 2.761-6.633 3.752 3.752 0 0 1 2.837 1.112 3.879 3.879 0 0 1 .844 3.221h-6.288a2.383 2.383 0 0 0 .844 1.61 2.739 2.739 0 0 0 1.84.613 3.9 3.9 0 0 0 1.3-.23 2.464 2.464 0 0 0 1.035-.69l.805.69Zm-.728-3.029a2.216 2.216 0 0 0-.728-1.649 2.639 2.639 0 0 0-1.764-.575 2.752 2.752 0 0 0-1.725.575 2.412 2.412 0 0 0-.882 1.61l5.1.038Z" data-name="Path 1793"/><path d="M146.69 22.813h2.3v1.035h-2.3v3.911c0 .959.383 1.419 1.15 1.419a2.087 2.087 0 0 0 1.035-.268l.345 1.035a3.346 3.346 0 0 1-1.419.345c-1.572.038-2.339-.805-2.339-2.53v-3.911h-1.5v-1.036h1.5v-2.032l1.227-.153Z" data-name="Path 1794"/></g><path d="M26.953 0v7.553a17.549 17.549 0 0 1 0 34.89V50a25.068 25.068 0 0 0 0-50Z" data-name="Path 1795"/><path d="M23.2 42.4a17.549 17.549 0 0 1 0-34.89V0a25.049 25.049 0 0 0-.038 49.958L23.2 42.4Z" data-name="Path 1796"/></g></svg>