<svg xmlns="http://www.w3.org/2000/svg" viewBox="0 0 72.56 96.71"><defs><style>.cls-1{fill:#b0c741;}</style></defs><g id="Layer_2" data-name="Layer 2"><g id="Layer_1-2" data-name="Layer 1"><path class="cls-1" d="M71.56,82V80.22H62.31V96h9.25V94.2H64.09V88.73h6.48V87H64.09V82Zm-11.4-1.75H49.24V82h4.58V96H55.6V82h4.56ZM40.58,94.38a6.3,6.3,0,1,1,6.3-6.28A6.3,6.3,0,0,1,40.58,94.38Zm0,1.79a8.09,8.09,0,1,0-8.08-8.06A8.1,8.1,0,0,0,40.58,96.17Zm-16.23,0c3.35,0,5.83-2.68,5.83-6.36V80.22H28.39v9.62c0,2.64-1.72,4.57-4,4.57s-4.05-1.92-4.05-4.57V80.22H18.52v9.63C18.52,93.53,21,96.21,24.35,96.21ZM1.8,88.1a6.29,6.29,0,1,1,10,5.05C10,91.34,8.94,88.82,5.9,88.7l-.17,1.55c2.12.07,3.2,2,4.69,3.68A6.28,6.28,0,0,1,1.8,88.1Zm14.38,0a8.09,8.09,0,1,0-8.1,8.06,8,8,0,0,0,3.72-.91,6.42,6.42,0,0,0,4,1.45L16.05,95a6.07,6.07,0,0,1-2.76-.7A8,8,0,0,0,16.18,88.11ZM63,68.32V62H66a3.18,3.18,0,1,1,0,6.35ZM72.56,76l-4.68-6.35a4.62,4.62,0,0,0,3.31-4.38,5.17,5.17,0,0,0-5.3-5H61.24V76H63V69.82H66L70.36,76Zm-20.3.24c3.35,0,5.83-2.68,5.83-6.36V60.22H56.3v9.62c0,2.64-1.72,4.57-4,4.57s-4-1.92-4-4.57V60.22H46.43v9.63C46.43,73.53,48.92,76.21,52.26,76.21ZM36,74.38a6.3,6.3,0,1,1,6.3-6.28A6.3,6.3,0,0,1,36,74.38Zm0,1.79a8.09,8.09,0,1,0-8.08-8.06A8.1,8.1,0,0,0,36,76.17ZM21.25,76H23V69.28l5.57-9.06h-2l-4.45,7.07-4.45-7.07h-2l5.56,9.06Zm51-35.75H61.31V42h4.58V56h1.78V42h4.56ZM59.65,42V40.22H50.4V56h9.25V54.2H52.18V48.73h6.47V47H52.18V42ZM47.83,47.63H40.35v1.6H46a2.91,2.91,0,0,1,0,.31c0,2.78-2.43,4.84-5.5,4.84a6.3,6.3,0,1,1-.15-12.59,7.29,7.29,0,0,1,4.72,2.06l1-1.48A9,9,0,0,0,40.37,40a8.09,8.09,0,1,0,.07,16.17,7.29,7.29,0,0,0,7.46-7.43A9.73,9.73,0,0,0,47.83,47.63Zm16-13.25a6.3,6.3,0,1,1,6.31-6.28A6.3,6.3,0,0,1,63.78,34.38Zm0,1.79a8.09,8.09,0,1,0-8.08-8.06A8.1,8.1,0,0,0,63.78,36.17Zm-8.62-16H44.24V22h4.58V36H50.6V22h4.56ZM70.37,16h2.19L65.88,8,72,.22H69.91L63.76,8.05Zm-8.62,0h1.78V.22H61.75Zm-7.56.2a7.5,7.5,0,0,0,5.4-2.31l-1-1.43A6.17,6.17,0,0,1,47.89,8.11a6.38,6.38,0,0,1,6.22-6.3,6.28,6.28,0,0,1,4.44,2l1-1.4A7.91,7.91,0,0,0,54.18,0a8.17,8.17,0,0,0-8.09,8.11A8.13,8.13,0,0,0,54.19,16.17ZM41.83,16H43.6V.22H41.83ZM31.94,14.2V.22H30.17V16h9.49V14.2Zm-9.33,2A7.5,7.5,0,0,0,28,13.86l-1-1.43a6.32,6.32,0,0,1-4.42,2,6.35,6.35,0,0,1-6.25-6.27,6.38,6.38,0,0,1,6.22-6.3,6.28,6.28,0,0,1,4.44,2l1-1.4A7.91,7.91,0,0,0,22.6,0a8.16,8.16,0,0,0-8.09,8.11A8.13,8.13,0,0,0,22.61,16.17Z"/></g></g></svg>