<svg xmlns="http://www.w3.org/2000/svg" viewBox="0 0 144.45 79.8"><defs><style>.cls-1{fill:#c0d000;}.cls-2{fill:#111;}</style></defs><g id="Layer_2" data-name="Layer 2"><g id="Layer_1-2" data-name="Layer 1"><path class="cls-1" d="M39.9,0H37.3a41.42,41.42,0,0,0-5.15.67h0L32,.78h-.77L31,1l1.12,4.88A34.57,34.57,0,0,1,39.9,5V0ZM22.5,4q-.86.42-1.68.87h0l-.07,0h-.31l-.05,0h0l-.05,0h0a40.43,40.43,0,0,0-5,3.36h0l-.15.11h0l0,0h0l0,0h-.05l0,0,3.14,3.9a34.88,34.88,0,0,1,6.63-4.21L22.5,4ZM8.59,15.17c-.28.35-.56.71-.83,1.08h0l0,.06h0l0,.05h0v0h0l0,0h0v0h0l0,0h0v0H7.32l0,0h0l0,0h0l0,0h0l0,0h0l0,0H7l0,0H7l0,0h0l0,0h0l0,0h0l0,0h0l0,.06h0a41.93,41.93,0,0,0-2.32,3.94h0L4.23,22h0l0,.08h0v0h0l0,.06h0l0,.08h0l0,.08H4l0,.07H4l0,.06h0l0,.05h0l0,.06h0l0,0,4.52,2.15a34.58,34.58,0,0,1,4.15-6.67l-3.92-3.1ZM.93,31.29C.74,32.17.57,33.07.44,34h0v0h0v0h0v0h0l0,.1h0v0h0v0h0v.07h0v0h0v0h0v0h0v0h0v.07h0v.09h0v0h0v0h0v.1h0v0h0v0h0v.06h0v0h0V36h0v0h0v0h0v.13h0v0h0v0h0v0h0v.11h0v0h0v0h0v0h0v.12h0v0h0v0h0v0h0v0h0v.08h0v0h0v0h0v.13h0v0h0v0h0v.1h0v0h0v.08h0v0h0v.06h0v0h0v0h0v0h0v.1H0v0H0v0H0v.06H0v0H0v0H0v0H0v0H0v0H0v0H0v0H0v0H0v0H0v0H0v.28l5,0V39.9a34.56,34.56,0,0,1,.82-7.54L.93,31.29ZM5.94,48,1.08,49.14c.08.35.17.7.26,1h0v0h0l0,0h0v0h0v0h0v0h0v0h0l0,.06h0v0h0v0h0v0h0v0h0v0h0v0h0v0h0v0h0v0h0v0h0v0h0v0h0v0h0l0,0h0v0h0v0h0v0h0l0,.06h0v0h0l0,.09h0l0,.09h0v0h0l0,.11h0a40.91,40.91,0,0,0,2.22,5.47L8.6,55.36A34.61,34.61,0,0,1,5.94,48Zm6.92,14L9,65.13a40.21,40.21,0,0,0,6.43,6.28l3.07-4A35.23,35.23,0,0,1,12.86,62Zm12.33,9.59-2.11,4.53.56.25h0l.05,0h.06l0,0H24l0,0h0l.08,0h0a39.35,39.35,0,0,0,7.4,2.34l1-4.89a35,35,0,0,1-7.44-2.48Zm23.07,2.23a35.17,35.17,0,0,1-7.8,1l.08,5a40.18,40.18,0,0,0,8.91-1.14l-1.19-4.86Zm13.92-7a35.58,35.58,0,0,1-6.56,4.32l2.25,4.46A40.36,40.36,0,0,0,63.63,72h0l.05,0h0l.08-.06h0l.05,0h0l0,0h.47v0h.06l0,0h0l0,0h.05l0,0h0l.07-.06h0l.07,0h0l.52-.43-3.2-3.85Zm9.49-12.4a34.33,34.33,0,0,1-4,6.73l4,3,.44-.58h0l0-.05h.22l0-.05h0A39.76,39.76,0,0,0,74.91,59h0v0h0l0,0h0l0,0h.07l0-.05h0v0h0c.39-.73.76-1.47,1.1-2.23l-4.55-2.07Zm8.11-15.42-5,.12c0,.28,0,.57,0,.85a35.56,35.56,0,0,1-.7,7l4.9,1h0v0h0v0h0v0h0v0h0v0h0a38.58,38.58,0,0,0,.69-5.93h0v0h0v0h0v0h0v0h0v0h0v0h0v0h0v0h0v0h0v0h0v0h0v0h0V39.9h0v0h0c0-.17,0-.35,0-.53h0v0h0a1.48,1.48,0,0,0,0-.21Zm-4.4-17.29-4.44,2.29a34.45,34.45,0,0,1,2.78,7.34L78.57,30l0-.08h0v0h0l0-.05h0v0h0v0h0l0-.05h0v0h0v0h0v0h-.06v0h0v0h0v0h0v0h0v0h0v0h0v0h0v0h0v0h0l0-.07h0v0h0l0-.09h0l-.06-.21h0c-.27-.92-.58-1.82-.92-2.72h0l0-.08h0v0h0v0h0l0-.08h0l0-.07h0v0h0l0-.08h0v0h0v0h0l0-.05h0v0h0l0-.05h0v0h0l0,0h0v0h0v0h0v0h0v0h0v0h0v0h0v0h-.12l0-.05h0v0h0v0h0l0-.05h0l0-.08h0q-.51-1.2-1.11-2.34ZM63.87,8l-3,4a34.82,34.82,0,0,1,5.71,5.41l3.82-3.23c-.43-.51-.88-1-1.34-1.51h0L69,12.6h0l0,0h0l0,0h-.05l0,0h0l0,0h-.4l0,0h0l0,0h0l0,0h0l0-.05h0L68,11.58h0l0-.05h0l-.07-.08h0a40.63,40.63,0,0,0-4-3.43ZM47.57.74l-1,4.9A34.45,34.45,0,0,1,54.09,8l2-4.57c-.65-.29-1.3-.56-2-.82h0l-.11,0h0l-.06,0h0l-.07,0h-.39l-.06,0h-.07l0,0h-.16l-.07,0H53l-.07,0h-.16l-.05,0h-.07l0,0h0l-.08,0h0l-.07,0h-.05l-.06,0h-.06l-.07,0h0l-.07,0h0l-.08,0h0l-.07,0h-.05l-.09,0h0l-.08,0h0l-.09,0h0l-.08,0h-.05l-.07,0h0l-.09,0h0l-.07,0h0l-.08,0h0l-.07,0h-1C49,1,48.29.88,47.57.74Z"/><path class="cls-1" d="M45.18,32.74,57,34.46l-8.55,8.33,2,11.77L39.9,49,29.33,54.56l2-11.77L22.8,34.46l11.81-1.72L39.9,22Z"/><path class="cls-1" d="M104.55,0a39.9,39.9,0,1,0,39.9,39.9A39.89,39.89,0,0,0,104.55,0Zm3.3,49.34-7.61,7.6-7.61-7.6h0L82.38,39.08,90,31.47l10.25,10.26,18.88-18.88,7.61,7.61L107.85,49.34Z"/><polygon class="cls-2" points="107.85 49.34 107.85 49.34 100.24 56.95 107.85 49.34"/><polygon class="cls-2" points="92.63 49.34 100.24 56.95 92.63 49.34 92.63 49.34"/></g></g></svg>