<svg xmlns="http://www.w3.org/2000/svg" viewBox="0 0 160.49 79.8"><defs><style>.cls-1{fill:#c0d000;}</style></defs><g id="Layer_2" data-name="Layer 2"><g id="Layer_1-2" data-name="Layer 1"><path class="cls-1" d="M130.81,24.6H5.43A5.43,5.43,0,0,0,0,30V73.6H15.61a11.67,11.67,0,0,1-.07-1.32V51.53A12.51,12.51,0,0,1,28.06,39h80.12A12.52,12.52,0,0,1,120.7,51.53V72.28c0,.44,0,.88-.07,1.32h15.61V30A5.43,5.43,0,0,0,130.81,24.6Z"/><path class="cls-1" d="M111.76,44.92a6.92,6.92,0,0,0-1.34-.57,7.24,7.24,0,0,0-1.47-.3,6.51,6.51,0,0,0-.77,0H28.06a7.52,7.52,0,0,0-7.52,7.52V72.28a8.2,8.2,0,0,0,.12,1.32,7.53,7.53,0,0,0,7.4,6.2h80.12c.26,0,.52,0,.77,0a8,8,0,0,0,1.47-.3,7.55,7.55,0,0,0,5.16-5.86,8.2,8.2,0,0,0,.12-1.32V51.53A7.5,7.5,0,0,0,111.76,44.92Z"/><rect class="cls-1" x="128.31" width="5" height="9.61"/><rect class="cls-1" x="150.88" y="27.53" width="9.61" height="5"/><rect class="cls-1" x="144.24" y="9.02" width="9.45" height="5" transform="translate(35.47 108.69) rotate(-44.99)"/></g></g></svg>