<svg xmlns="http://www.w3.org/2000/svg" viewBox="0 0 160.49 79.8"><defs><style>.cls-1{fill:#c0d000;}</style></defs><g id="Layer_2" data-name="Layer 2"><g id="Layer_1-2" data-name="Layer 1"><path class="cls-1" d="M34.74,39.25H28.17V31.36H12v7.89H5.45a5.21,5.21,0,0,0-3.85,1.6A5.21,5.21,0,0,0,0,44.7V74.54a4.92,4.92,0,0,0,1.6,3.75A5.37,5.37,0,0,0,5.45,79.8H34.74a5.38,5.38,0,0,0,3.85-1.51,5,5,0,0,0,1.6-3.75V44.7a5.46,5.46,0,0,0-5.45-5.45ZM28.89,59.53,15.55,72.44a.66.66,0,0,1-1.11-.6l2-10.35a.67.67,0,0,0-.65-.79H11.76a.66.66,0,0,1-.46-1.14L24.64,46.65a.66.66,0,0,1,1.11.6l-2,10.36a.66.66,0,0,0,.65.78h4.06A.66.66,0,0,1,28.89,59.53Z"/><path class="cls-1" d="M94.89,23.57H88.32V15.68H72.17v7.89H65.6A5.46,5.46,0,0,0,60.15,29V74.54a4.92,4.92,0,0,0,1.6,3.75A5.37,5.37,0,0,0,65.6,79.8H94.89a5.38,5.38,0,0,0,3.85-1.51,5,5,0,0,0,1.6-3.75V29a5.46,5.46,0,0,0-5.45-5.44ZM89,51.67,75.7,64.58a.66.66,0,0,1-1.11-.6l2-10.36a.67.67,0,0,0-.65-.79H71.91a.66.66,0,0,1-.46-1.13L84.79,38.79a.66.66,0,0,1,1.11.6l-2,10.35a.66.66,0,0,0,.65.79h4.06A.66.66,0,0,1,89,51.67Z"/><path class="cls-1" d="M158.89,9.48A5.25,5.25,0,0,0,155,7.89h-6.57V0H132.32V7.89h-6.57a5.45,5.45,0,0,0-5.45,5.44V74.54a4.92,4.92,0,0,0,1.6,3.75,5.37,5.37,0,0,0,3.85,1.51H155a5.38,5.38,0,0,0,3.85-1.51,5,5,0,0,0,1.6-3.75V13.33A5.28,5.28,0,0,0,158.89,9.48Zm-9.7,34.34L135.85,56.74a.66.66,0,0,1-1.11-.6l2-10.36a.67.67,0,0,0-.65-.79h-4.06a.66.66,0,0,1-.46-1.13l13.34-12.92a.66.66,0,0,1,1.11.61L144,41.9a.66.66,0,0,0,.65.79h4.06A.66.66,0,0,1,149.19,43.82Z"/></g></g></svg>