<svg xmlns="http://www.w3.org/2000/svg" viewBox="0 0 160.22 79.53"><defs><style>.cls-1{fill:#c0d000;}</style></defs><g id="Layer_2" data-name="Layer 2"><g id="Layer_1-2" data-name="Layer 1"><polygon class="cls-1" points="160.22 79.53 0 79.53 0 0 5 0 5 74.53 160.22 74.53 160.22 79.53"/><path class="cls-1" d="M150.94,79.53c-10.47,0-15.32-10.62-20-20.9-4.22-9.24-8.21-18-15.47-18-7.91,0-11.69,3.41-16.07,7.35S89.8,56.67,80,56.67c-10.54,0-15.37-11.69-20-23-4.23-10.23-8.23-19.9-15.43-19.9-7,0-11.4,16.48-15.32,31C24.35,62.66,19.79,79.53,9,79.53v-5c7,0,11.4-16.49,15.33-31C29.16,25.65,33.71,8.78,44.49,8.78c10.54,0,15.38,11.69,20.05,23C68.78,42,72.77,51.67,80,51.67c7.91,0,11.69-3.41,16.07-7.36s9.58-8.64,19.42-8.64c10.48,0,15.33,10.62,20,20.89,4.21,9.24,8.2,18,15.46,18Z"/></g></g></svg>