<svg xmlns="http://www.w3.org/2000/svg" viewBox="0 0 116.74 103.18"><defs><style>.cls-1{fill:#c0d000;}</style></defs><g id="Layer_2" data-name="Layer 2"><g id="Layer_1-2" data-name="Layer 1"><path class="cls-1" d="M78.55,11.82V8.41a1.35,1.35,0,0,0-2.7,0v3.41A39.54,39.54,0,0,0,37.79,48.51a10.75,10.75,0,0,0-.35,2.62A1.3,1.3,0,0,0,38,52.21a1.34,1.34,0,0,0,2.32-.92c0-.79.08-1.57.12-2.34A8,8,0,0,1,56.1,51.12a1.35,1.35,0,0,0,1.35,1.35l.14,0,.13,0a1.34,1.34,0,0,0,1.34-1.35,8,8,0,0,1,16,0,1.41,1.41,0,0,0,.13.58V71.9c-3.92,0-7.84,0-11.76,0-1.16,0-1.42.4-1.45,1.47-.12,3.64-.33,7.29-.51,10.94-.06,1.19-.14,2.39-.22,3.65,1.51.4,2.95.73,4.34,1.17a2.29,2.29,0,0,0,2.66-.57c1.89-1.85,4.89-1.11,5.32,1.31a17.84,17.84,0,0,1,0,5,2.5,2.5,0,0,1-2.21,2.11A4.93,4.93,0,0,1,67,95.51c-.7-.6-1.33-1.28-2.06-2L60.3,97.82c2.91,3.8,6.58,5.75,11.33,5.29,5-.48,8-3,9-7.56a17,17,0,0,0-.15-7.73c-1-4.1-3.76-6.3-8-6.2a31.63,31.63,0,0,0-4.63.75c.06-1,.21-2.07.19-3.19,0-.91.36-1.1,1.18-1.09,3.14,0,6.29,0,9.44,0,.78,0,1.11-.22,1.07-1.06a35.13,35.13,0,0,1,0-3.84c.06-1-.27-1.34-1.3-1.33h-.58V49.75a8,8,0,0,1,15.83,1.37,1.35,1.35,0,0,0,1.35,1.35l.13,0,.14,0a1.35,1.35,0,0,0,1.35-1.35,8.45,8.45,0,0,1,16.88,0,1.34,1.34,0,0,0,1.16,1.31,1.29,1.29,0,0,0,.67.21,1.35,1.35,0,0,0,1.35-1.35A39.55,39.55,0,0,0,78.55,11.82Z"/><path class="cls-1" d="M48.11,16.84a6.34,6.34,0,0,0,6.33-6.32c0-3.06-4.38-8.86-5.26-10a1.34,1.34,0,0,0-2.13,0c-.87,1.13-5.26,6.93-5.26,10A6.33,6.33,0,0,0,48.11,16.84Z"/><path class="cls-1" d="M28.83,14.45a1.32,1.32,0,0,0-1.07.53c-.88,1.13-5.25,6.94-5.25,10a6.32,6.32,0,0,0,12.64,0c0-3-4.37-8.86-5.26-10A1.32,1.32,0,0,0,28.83,14.45Z"/><path class="cls-1" d="M5.25,33.79C4.38,34.93,0,40.73,0,43.79a6.33,6.33,0,0,0,12.65,0c0-3.06-4.38-8.86-5.27-10A1.39,1.39,0,0,0,5.25,33.79Z"/><path class="cls-1" d="M5.25.53C4.38,1.66,0,7.46,0,10.52a6.33,6.33,0,0,0,12.65,0c0-3.06-4.38-8.86-5.27-10A1.39,1.39,0,0,0,5.25.53Z"/><path class="cls-1" d="M49.29,83a38.67,38.67,0,0,0-4.61,1,32.54,32.54,0,0,1,2.11-2.74C49,78.87,51.88,77.78,55,77c-.56-1.75-1-3.35-1.59-4.91a1.21,1.21,0,0,0-1-.57c-5.71,1.16-10.22,4.06-12.85,9.4a23.41,23.41,0,0,0-2.15,12.91c.61,6.24,4.77,9.8,11,9.36,4.7-.33,8-2.89,9.08-7a14.75,14.75,0,0,0,0-7.26A7.38,7.38,0,0,0,49.29,83Zm1.48,11.66a3,3,0,0,1-3.18,2.62,2.72,2.72,0,0,1-3-2.57,14.14,14.14,0,0,1,0-3.56,2.57,2.57,0,0,1,2.66-2.4c1.93-.11,2.91.47,3.37,2.11a15.62,15.62,0,0,1,.33,2C50.88,93.53,50.86,94.07,50.77,94.61Z"/><path class="cls-1" d="M25.31,72.07c-3.51-.29-7.06-.09-10.59-.19-1,0-1.31.27-1.31,1.3,0,9.44,0,18.88,0,28.31,0,.37.05.74.08,1.2,2.24,0,4.37,0,6.5,0,.68,0,.73-.4.72-.91V91.51c1.47,0,2.71,0,3.94,0,4.42-.2,7.44-2.61,8.31-6.77a15.88,15.88,0,0,0,.3-4.51C32.89,75.16,30.37,72.48,25.31,72.07Zm.05,12.29c-1,1.75-2.88,1-4.55,1.09V78c1.63.15,3.51-.64,4.53,1A5.18,5.18,0,0,1,25.36,84.36Z"/><path class="cls-1" d="M7.87,71.9c-1.8,0-3.5,0-5.21,0-1,0-1.32.25-1.32,1.29,0,9.44,0,18.88,0,28.32,0,.38,0,.75.07,1.1H8.2a.65.65,0,0,0,.64-.65V72.87A1,1,0,0,0,7.87,71.9Z"/></g></g></svg>