<svg xmlns="http://www.w3.org/2000/svg" viewBox="0 0 96 96"><defs><style>.cls-1{fill:#b0c741;}</style></defs><g id="Layer_2" data-name="Layer 2"><g id="Layer_1-2" data-name="Layer 1"><rect class="cls-1" x="45.62" y="62" width="4.81" height="30.5"/><polygon class="cls-1" points="28.36 77.12 31.88 80.4 48 63.04 64.12 80.4 67.64 77.12 48 56 28.36 77.12"/><path class="cls-1" d="M48,0A48,48,0,1,0,96,48,48,48,0,0,0,48,0Zm0,4.81A43.19,43.19,0,1,1,4.81,48,43.26,43.26,0,0,1,48,4.81Z"/><path class="cls-1" d="M69.42,49.5V7.5H64.57v42ZM26.5,51.93H67V47.08H26.5ZM24.07,7.5v42h4.85V7.5ZM67,49.5v2.43h2.42V49.5Zm-40.5,0H24.07v2.43H26.5Z"/><rect class="cls-1" x="36" y="14.15" width="23" height="4.85"/><rect class="cls-1" x="36" y="24.15" width="23" height="4.85"/><rect class="cls-1" x="36" y="34.15" width="23" height="4.85"/></g></g></svg>