<svg xmlns="http://www.w3.org/2000/svg" viewBox="0 0 160.42 79.8"><defs><style>.cls-1{fill:#c0d000;}</style></defs><g id="Layer_2" data-name="Layer 2"><g id="Layer_1-2" data-name="Layer 1"><rect class="cls-1" y="11.28" width="38.21" height="8"/><rect class="cls-1" y="44.1" width="38.21" height="8"/><rect class="cls-1" y="27.69" width="19.1" height="8"/><rect class="cls-1" y="60.51" width="19.1" height="8"/><rect class="cls-1" x="136.13" y="18.78" width="8" height="42.24"/><rect class="cls-1" x="136.13" y="18.78" width="8" height="42.24" transform="translate(35.51 141.3) rotate(-60)"/><rect class="cls-1" x="119.01" y="35.9" width="42.24" height="8" transform="translate(-1.17 75.41) rotate(-30)"/><path class="cls-1" d="M88.73,50.88V8.48a8.49,8.49,0,0,0-17,0v42.4a15.71,15.71,0,1,0,17,0ZM80.24,70.32A6.23,6.23,0,0,1,74,64.09a6.4,6.4,0,0,1,.07-.88,6.25,6.25,0,0,1,4.16-5V27.58a2,2,0,0,1,4,0v30.6a6.24,6.24,0,0,1,4.17,5,6.4,6.4,0,0,1,.07.88A6.23,6.23,0,0,1,80.24,70.32Z"/></g></g></svg>