<?xml version="1.0" standalone="no"?>
<!DOCTYPE svg PUBLIC "-//W3C//DTD SVG 20010904//EN"
 "http://www.w3.org/TR/2001/REC-SVG-20010904/DTD/svg10.dtd">
<svg version="1.0" xmlns="http://www.w3.org/2000/svg"
 width="260.000000pt" height="260.000000pt" viewBox="0 0 260.000000 260.000000"
 preserveAspectRatio="xMidYMid meet">
<metadata>
Created by potrace 1.11, written by Peter Selinger 2001-2013
</metadata>
<g transform="translate(0.000000,260.000000) scale(0.100000,-0.100000)"
fill="#000000" stroke="none">
<path d="M1120 2590 c8 -5 18 -6 22 -4 4 3 8 0 8 -7 0 -10 3 -10 12 -1 15 15
28 15 28 1 0 -5 -4 -8 -9 -4 -5 3 -12 1 -16 -5 -4 -6 -11 -8 -16 -5 -5 4 -9
-2 -10 -12 0 -14 -2 -14 -9 5 -11 26 -23 30 -13 5 6 -15 4 -16 -9 -5 -12 10
-18 9 -28 -3 -7 -8 -16 -13 -20 -10 -4 3 -14 -3 -21 -12 -8 -9 -9 -14 -3 -10
6 3 11 0 11 -7 0 -8 -6 -12 -14 -9 -7 3 -13 10 -13 16 0 6 -3 7 -6 4 -4 -4 -1
-13 5 -21 9 -11 9 -16 0 -22 -8 -4 -9 -3 -5 4 4 7 1 12 -8 12 -9 0 -16 -5 -16
-11 0 -5 -6 -7 -12 -3 -9 5 -8 2 1 -9 12 -15 12 -17 -4 -11 -13 5 -16 4 -11
-4 10 -16 -26 -16 -44 1 -12 10 -12 9 -2 -4 6 -9 9 -19 5 -23 -4 -4 1 -4 12
-1 16 5 15 3 -3 -7 -12 -8 -19 -18 -15 -22 4 -5 -3 -3 -17 4 l-25 13 19 -22
c19 -21 19 -21 1 -15 -13 5 -16 4 -11 -4 4 -7 1 -12 -9 -12 -10 0 -13 5 -9 13
4 7 3 9 -2 4 -5 -5 -9 -14 -9 -20 -1 -7 -5 -11 -11 -10 -5 1 -10 -7 -10 -18 0
-19 1 -19 16 2 13 16 17 18 17 5 0 -9 -4 -16 -9 -16 -5 0 -7 -4 -4 -8 3 -5 -1
-9 -9 -10 -8 -1 -22 -3 -30 -4 -8 -1 -12 -5 -9 -10 3 -5 9 -6 14 -3 5 3 12 0
16 -6 5 -8 3 -9 -5 -5 -8 5 -11 3 -9 -7 2 -9 -1 -16 -7 -16 -5 -1 -10 3 -10 8
0 5 -4 13 -8 18 -5 4 -7 1 -5 -7 2 -8 -3 -14 -10 -12 -8 1 -11 -2 -7 -8 3 -6
11 -8 16 -5 13 9 11 -9 -3 -23 -8 -8 -8 -15 3 -28 12 -15 12 -17 0 -9 -11 6
-13 3 -8 -14 4 -18 3 -20 -8 -11 -30 25 -35 -1 -34 -191 1 -154 4 -189 15
-189 8 0 14 5 14 11 0 5 5 7 12 3 8 -5 2 -12 -17 -20 -17 -7 -24 -13 -17 -14
7 0 10 -4 7 -10 -3 -5 -1 -10 4 -10 6 0 11 6 12 13 1 17 17 -24 18 -46 1 -11
-4 -15 -10 -11 -6 3 4 -16 23 -43 21 -32 38 -48 48 -45 9 3 7 -2 -5 -12 -11
-10 -14 -15 -8 -11 8 4 18 -4 24 -19 7 -14 15 -23 19 -21 5 3 7 -8 6 -25 -2
-25 0 -27 13 -17 12 10 14 9 8 -5 -3 -10 -2 -20 4 -23 5 -4 6 -11 3 -17 -4 -7
-2 -8 5 -4 9 6 9 11 1 21 -8 10 -8 15 2 21 7 4 10 4 6 -1 -4 -4 4 -23 19 -41
20 -27 22 -34 9 -34 -9 0 -16 -5 -16 -11 0 -5 4 -8 9 -5 5 4 16 3 25 0 14 -5
14 -9 4 -22 -12 -14 -10 -14 12 -2 24 13 24 12 10 -5 -13 -17 -13 -18 1 -13
10 4 23 -2 34 -14 15 -18 15 -20 1 -15 -9 4 -16 2 -16 -3 0 -6 7 -10 16 -10 8
0 12 -4 9 -10 -3 -6 1 -7 10 -4 11 5 14 2 8 -12 -4 -12 -3 -15 6 -10 12 8 81
-58 81 -77 0 -4 -11 5 -24 20 -13 15 -26 26 -28 23 -2 -3 11 -20 28 -38 23
-24 34 -30 39 -21 5 8 4 10 -3 5 -8 -5 -10 -1 -6 9 6 14 10 12 24 -9 9 -15 19
-24 21 -22 3 3 6 -7 7 -22 l2 -27 -16 30 c-20 38 -20 39 -28 20 -3 -9 -2 -13
4 -10 6 3 15 -6 20 -20 5 -14 14 -24 19 -20 12 7 33 -30 23 -40 -4 -3 0 -5 8
-3 9 2 14 -3 12 -12 -3 -10 3 -9 19 5 12 11 19 14 15 7 -4 -7 -1 -15 8 -18 9
-3 16 -10 16 -15 0 -6 -10 -5 -22 1 -22 11 -22 10 -4 -4 16 -13 22 -13 35 -3
11 9 13 9 8 0 -4 -7 0 -16 10 -22 10 -6 14 -11 8 -11 -5 0 -3 -5 5 -10 10 -7
11 -10 2 -10 -7 0 -15 7 -18 15 -4 8 -13 15 -22 15 -13 0 -11 -4 6 -16 12 -8
20 -19 17 -23 -2 -5 7 -7 21 -5 21 2 24 -1 18 -19 -6 -19 -5 -20 9 -9 12 10
17 10 23 1 4 -7 3 -9 -3 -6 -6 4 -13 1 -16 -7 -6 -15 9 -16 31 -2 7 4 12 4 11
-1 -1 -4 0 -10 1 -13 8 -22 7 -39 -3 -34 -7 4 -7 1 1 -7 11 -12 14 -12 23 1 8
12 9 10 4 -7 -6 -23 16 -68 28 -56 4 3 7 1 7 -6 0 -7 5 -9 12 -5 7 5 8 3 4 -5
-5 -7 -14 -10 -22 -7 -8 3 -14 0 -14 -5 0 -7 11 -9 27 -6 26 5 26 4 8 -9 -16
-12 -16 -14 -3 -14 9 0 20 -9 23 -20 4 -11 11 -17 17 -14 7 5 8 2 3 -6 -6 -10
-11 -9 -22 5 -7 11 -13 14 -13 8 0 -17 28 -35 41 -27 8 5 9 3 3 -7 -15 -24
-13 -58 3 -52 11 5 14 -2 13 -28 -1 -19 -1 -38 0 -44 1 -5 2 -13 1 -18 0 -4 3
-7 8 -7 5 0 11 -9 14 -19 3 -13 0 -18 -7 -15 -7 3 -13 -2 -13 -11 0 -11 6 -13
20 -9 14 4 18 2 15 -7 -3 -8 -13 -13 -22 -13 -9 1 -16 -2 -16 -7 0 -5 8 -9 18
-10 10 0 12 -3 4 -6 -6 -2 -9 -9 -6 -14 3 -6 7 -28 8 -49 2 -34 1 -38 -12 -27
-13 10 -14 9 -3 -12 10 -17 10 -22 1 -16 -9 5 -10 1 -5 -14 4 -15 2 -20 -7
-18 -7 2 -10 2 -5 0 4 -3 5 -9 2 -13 -3 -5 0 -12 6 -16 8 -5 9 -3 4 6 -5 9 -4
11 3 6 16 -10 15 -14 -8 -26 -11 -6 -19 -7 -18 -3 2 4 -1 9 -7 11 -5 1 -10 -2
-10 -7 0 -5 -3 -13 -7 -17 -4 -4 -2 -14 5 -22 10 -13 9 -15 -4 -10 -9 4 -16 1
-16 -8 0 -7 5 -10 11 -7 6 3 5 0 -2 -8 -11 -12 -14 -12 -23 1 -7 11 -8 8 -5
-12 3 -20 1 -25 -10 -21 -8 3 -14 0 -14 -6 0 -6 5 -11 12 -11 6 0 8 -3 4 -7
-4 -5 -14 1 -22 11 -10 14 -14 16 -14 5 0 -8 -10 -25 -21 -39 -17 -21 -19 -22
-10 -3 17 34 12 40 -9 13 -17 -21 -21 -23 -30 -10 -8 12 -10 11 -10 -7 0 -13
-5 -23 -11 -23 -6 0 -9 7 -6 15 4 8 1 17 -5 21 -7 5 -8 2 -3 -6 6 -10 4 -12
-8 -7 -9 3 -19 1 -23 -5 -4 -6 -3 -8 4 -4 6 3 14 1 18 -6 4 -7 4 -10 -1 -6 -4
4 -16 3 -25 -2 -14 -7 -17 -6 -16 7 0 9 -6 18 -14 20 -10 3 -11 2 -3 -4 8 -6
9 -14 3 -23 -6 -8 -10 -10 -10 -4 0 7 -12 19 -26 29 -15 9 -23 12 -20 6 4 -6
0 -14 -8 -17 -9 -3 -13 -11 -9 -18 4 -7 1 -7 -9 1 -8 7 -19 9 -23 5 -5 -4 -6
-2 -3 3 3 6 2 19 -3 30 -6 17 -8 17 -8 3 -1 -10 -6 -18 -12 -18 -6 0 -9 7 -5
15 7 18 -5 20 -23 3 -7 -7 -12 -8 -11 -3 2 6 2 19 1 30 -1 16 -3 17 -10 6 -7
-11 -15 -12 -32 -5 -20 9 -21 11 -5 17 10 4 15 3 11 -3 -3 -6 -1 -10 4 -10 15
0 14 13 -4 36 -15 19 -15 19 -9 -1 7 -19 6 -19 -15 2 -11 12 -22 33 -23 47 -1
13 -5 23 -9 21 -3 -3 -5 -16 -4 -30 2 -14 -1 -23 -5 -20 -5 3 -7 12 -3 20 3
10 -1 15 -13 15 -17 0 -17 1 1 13 14 11 15 16 5 22 -9 5 -11 4 -6 -3 4 -7 1
-12 -9 -12 -9 0 -14 4 -10 9 3 6 -3 15 -12 21 -15 9 -14 10 7 6 14 -3 19 -3
12 0 -10 5 -10 9 0 22 12 15 11 16 -5 3 -12 -10 -21 -11 -28 -4 -8 8 -7 13 2
18 8 6 10 4 4 -5 -5 -9 -4 -11 4 -6 17 11 3 26 -17 19 -15 -6 -16 -5 -2 12 9
11 10 16 3 11 -7 -4 -13 -2 -13 3 0 6 5 11 12 11 6 0 8 3 5 6 -4 4 -14 1 -24
-7 -11 -9 -14 -10 -9 -1 4 7 2 12 -6 13 -7 1 -2 5 12 9 17 5 19 8 8 9 -21 1
-24 31 -5 50 6 8 -1 5 -18 -5 l-30 -18 19 22 c11 12 15 22 10 22 -5 0 -2 5 6
11 13 9 13 10 0 6 -8 -2 -14 -10 -12 -17 3 -11 0 -11 -12 0 -16 13 -22 25 -8
16 4 -2 12 7 19 20 6 13 7 22 3 19 -5 -3 -10 -2 -13 2 -2 5 -2 3 -1 -4 2 -7
-1 -15 -5 -17 -5 -3 -8 5 -8 17 -1 49 -3 58 -15 51 -7 -4 -8 -3 -4 5 6 9 11 9
22 0 10 -8 14 -8 14 0 0 6 -5 11 -11 11 -5 0 -7 4 -4 10 3 5 0 7 -8 4 -10 -4
-14 2 -12 20 2 18 -1 23 -11 19 -10 -4 -12 0 -8 13 6 17 5 17 -10 -1 -10 -11
-15 -15 -12 -9 3 7 -2 11 -12 10 -9 0 -16 5 -14 12 1 8 -2 11 -8 7 -11 -7 2
-30 25 -47 7 -5 6 -8 0 -8 -6 0 -16 5 -22 11 -7 7 -10 3 -7 -16 1 -15 5 -29 8
-32 3 -4 0 -13 -7 -21 -10 -13 -9 -15 8 -8 15 5 17 4 8 -5 -6 -6 -9 -18 -6
-27 4 -9 2 -13 -4 -9 -6 4 -10 -1 -9 -11 0 -9 -5 -16 -11 -14 -7 1 -13 -3 -13
-9 0 -6 6 -9 13 -6 6 2 21 1 32 -4 18 -7 18 -8 -4 -8 -24 -1 -24 -1 -5 -17 19
-15 18 -15 -3 -9 -25 7 -41 -12 -24 -28 9 -9 10 -8 5 7 -5 14 -3 17 7 14 8 -3
12 -12 10 -19 -7 -23 -8 -119 -1 -119 3 0 12 6 20 13 11 9 11 8 0 -7 -12 -15
-12 -20 -2 -24 10 -3 10 -7 1 -19 -10 -12 -10 -16 2 -24 8 -5 9 -9 4 -9 -6 0
-17 6 -24 13 -10 10 -10 7 0 -15 7 -16 17 -28 22 -28 6 0 7 -3 4 -6 -4 -4 -14
-1 -22 6 -14 12 -15 11 -4 -13 7 -15 17 -27 22 -27 6 0 7 -3 4 -6 -4 -4 -14
-1 -22 6 -13 11 -16 11 -13 -1 2 -8 10 -20 18 -27 13 -11 12 -12 -7 -7 -12 3
-24 2 -27 -3 -3 -6 2 -9 12 -8 11 1 16 -5 14 -16 -1 -9 3 -20 9 -24 8 -5 10
-2 5 7 -4 8 0 5 8 -6 9 -11 14 -25 12 -31 -5 -13 31 -7 50 7 6 5 11 3 11 -6 0
-8 -4 -12 -8 -9 -4 2 -10 0 -13 -5 -10 -16 20 -6 38 12 21 20 33 23 17 4 -6
-8 -8 -17 -4 -20 3 -4 12 1 20 11 11 15 12 14 3 -10 -8 -23 -7 -26 7 -21 9 4
14 2 11 -3 -4 -5 20 -9 53 -10 39 0 56 3 52 10 -4 6 -1 6 8 -1 18 -14 401 -15
421 0 9 6 8 7 -4 3 -10 -3 -18 -1 -18 4 0 5 -8 7 -17 3 -19 -7 -18 -5 11 17
17 13 18 13 11 1 -6 -11 -4 -13 7 -8 9 3 21 0 27 -6 9 -9 10 -8 5 7 -6 15 -4
17 7 11 12 -8 12 -6 0 9 -12 15 -12 17 0 14 8 -2 20 -10 26 -18 11 -13 12 -12
6 4 -5 15 -3 17 8 11 12 -8 12 -6 0 8 -12 15 -12 17 3 11 13 -5 15 -2 10 12
-6 17 -5 17 10 -1 14 -16 17 -17 12 -3 -6 20 9 34 19 17 5 -7 15 -3 31 12 13
12 21 26 18 31 -9 14 32 58 43 47 7 -7 9 -2 8 15 -2 15 1 24 6 20 5 -3 7 -9 4
-14 -3 -5 0 -12 7 -16 7 -4 10 -3 5 1 -4 5 1 17 10 28 10 12 12 17 4 12 -9 -5
-12 -3 -9 6 3 8 10 14 15 14 6 0 15 4 20 9 4 5 3 6 -3 3 -15 -9 -25 15 -14 32
5 9 10 10 14 2 4 -6 2 -11 -5 -11 -7 0 -10 -3 -6 -6 14 -15 27 8 16 29 -12 22
-12 22 10 3 11 -11 24 -16 28 -13 3 4 1 7 -5 7 -6 0 -17 10 -23 23 -12 21 -11
21 7 7 10 -8 16 -10 12 -6 -4 5 -2 16 5 24 10 13 8 14 -13 8 -25 -6 -25 -6 -2
5 12 7 22 16 22 21 0 5 -6 6 -12 2 -8 -4 -9 -3 -5 2 5 5 18 9 30 9 18 0 22 6
23 43 1 35 -2 42 -15 37 -13 -4 -13 -2 2 9 15 12 17 33 17 186 0 167 -1 172
-20 167 -11 -3 -18 -1 -14 4 3 5 12 9 20 9 8 0 14 5 14 11 0 7 -9 9 -21 6 -12
-3 -18 -3 -15 0 3 4 1 12 -5 20 -6 7 -8 13 -3 13 5 0 2 5 -6 11 -13 9 -13 10
0 6 8 -2 14 -10 12 -16 -1 -7 2 -10 8 -6 5 3 10 1 10 -4 0 -6 5 -11 12 -11 6
0 2 10 -10 23 -11 12 -20 24 -19 27 3 12 -38 48 -47 43 -6 -4 -5 0 2 9 10 12
11 22 3 36 -6 11 -7 23 -3 27 4 5 1 5 -6 1 -7 -4 -9 -12 -6 -18 4 -7 2 -8 -5
-4 -7 5 -9 16 -5 28 5 16 3 20 -10 15 -8 -3 -18 -1 -22 5 -4 6 -3 8 4 4 7 -4
10 1 9 14 -1 11 -10 23 -20 26 -12 4 -17 12 -14 24 6 24 -27 52 -43 37 -8 -9
-10 -8 -5 6 4 9 12 17 18 17 6 0 7 3 4 6 -4 4 -14 1 -24 -7 -11 -9 -14 -10 -9
-1 4 7 2 12 -4 12 -7 0 -9 8 -4 22 6 19 5 21 -8 11 -15 -13 -38 0 -38 22 0 5
5 3 11 -5 9 -13 10 -13 6 0 -2 8 -11 14 -20 14 -9 -1 -14 2 -12 7 3 5 -3 14
-15 21 -11 7 -20 17 -20 22 0 5 9 1 20 -9 11 -10 23 -15 27 -12 3 4 1 7 -6 7
-7 0 -9 5 -5 12 4 7 3 8 -4 4 -6 -3 -16 3 -22 14 -6 11 -16 20 -23 20 -7 0 -6
-4 3 -10 13 -8 13 -11 1 -22 -9 -8 -11 -9 -7 -1 3 6 2 15 -4 18 -6 4 -8 16 -5
28 5 17 4 19 -4 7 -8 -12 -11 -12 -11 -1 0 9 -7 11 -21 8 -16 -4 -18 -3 -8 9
11 14 1 20 -26 14 -5 -1 -1 8 10 20 14 16 15 19 3 15 -18 -7 -51 22 -42 36 3
5 0 8 -8 7 -7 -2 -12 3 -10 10 1 8 -2 11 -7 7 -6 -3 -8 -13 -4 -23 3 -10 -1
-8 -12 6 -9 13 -18 34 -19 47 -1 17 -6 22 -24 20 -17 -2 -21 2 -17 15 4 11 -3
20 -20 28 -14 6 -25 15 -24 19 3 19 -2 33 -12 33 -5 0 -7 -4 -4 -10 3 -5 1
-10 -4 -10 -15 0 -14 33 2 50 10 12 9 12 -5 2 -17 -14 -30 -4 -34 26 -4 22
-11 24 -18 7 -4 -11 -2 -14 7 -9 6 4 9 3 4 -1 -4 -5 0 -16 9 -26 9 -10 14 -24
11 -31 -4 -8 -6 -7 -6 5 -1 9 -5 17 -9 17 -4 0 -16 14 -26 31 -11 18 -14 29
-8 25 8 -5 10 -1 6 8 -8 21 -24 20 -25 -1 0 -15 -2 -15 -8 2 -5 12 -4 26 3 34
9 12 8 13 -3 6 -11 -6 -13 -4 -8 8 8 21 -10 32 -27 18 -9 -8 -13 -7 -13 4 0 8
4 12 9 9 4 -3 8 0 8 5 0 10 -14 15 -33 12 -5 -1 -6 3 -2 9 3 6 11 7 17 4 7 -5
8 -2 4 5 -5 7 -15 10 -23 7 -8 -3 -11 -2 -8 3 3 5 1 12 -5 16 -6 4 -8 11 -5
16 3 5 8 25 9 44 3 30 2 34 -10 24 -16 -13 -19 -23 -5 -15 11 7 8 -20 -3 -31
-4 -4 -6 -1 -4 7 2 9 -3 14 -11 12 -11 -2 -12 0 -3 11 7 8 9 17 5 21 -4 3 -8
16 -10 28 -3 18 -1 19 13 7 16 -13 16 -12 4 8 -8 12 -19 19 -25 15 -5 -3 -4 2
4 11 7 9 10 17 5 17 -4 0 1 7 12 16 18 14 18 15 -4 4 -12 -6 -20 -16 -16 -22
4 -7 3 -8 -4 -4 -6 4 -8 14 -5 23 5 12 3 14 -8 8 -11 -7 -12 -6 -2 7 7 8 10
18 6 21 -3 4 -1 7 6 7 8 0 11 -6 7 -16 -3 -8 -2 -12 4 -9 15 9 3 58 -17 72 -9
7 -11 13 -5 13 7 0 12 6 12 14 0 8 6 17 13 19 10 4 10 6 0 6 -7 1 -13 6 -13
12 0 6 9 8 23 4 22 -7 22 -7 2 9 l-20 15 20 1 c18 1 18 2 3 11 -20 11 -13 39
9 39 8 0 11 5 8 10 -3 6 -1 10 4 10 6 0 11 8 11 18 0 14 2 15 10 2 6 -9 10
-10 10 -3 0 6 -4 14 -10 18 -5 3 -6 13 -3 21 5 15 7 15 15 0 5 -9 14 -16 21
-16 8 0 8 3 2 8 -14 10 -17 32 -4 32 5 0 7 6 3 13 -5 7 0 6 11 -3 10 -8 16
-10 12 -4 -4 6 2 19 13 29 16 14 20 15 21 4 1 -8 5 -3 9 11 6 18 8 20 9 7 1
-10 6 -15 11 -12 6 4 8 10 5 15 -3 5 0 12 7 16 20 13 78 15 78 3 0 -6 4 -8 10
-4 5 3 6 13 3 22 -6 15 -5 16 9 3 10 -9 13 -19 7 -24 -17 -19 -9 -26 9 -8 11
9 17 20 15 24 -2 4 2 5 10 2 8 -3 20 -15 26 -27 10 -20 11 -19 6 8 -4 24 -3
27 5 13 6 -10 16 -18 21 -18 6 0 8 4 5 8 -3 5 1 9 9 9 10 0 10 -6 -3 -26 l-17
-26 35 25 c24 16 30 19 21 6 -13 -16 -13 -17 4 -14 10 1 20 -4 22 -12 4 -13 3
-13 -7 0 -10 13 -11 12 -6 -3 3 -10 6 -22 6 -25 0 -4 4 -1 9 7 11 17 41 7 41
-14 0 -9 -5 -13 -10 -10 -6 4 -7 11 -4 17 4 7 2 8 -5 4 -9 -6 -9 -11 0 -22 7
-9 16 -11 23 -5 7 6 18 4 30 -5 16 -11 17 -14 4 -14 -9 0 -18 6 -21 13 -3 6
-5 3 -4 -9 1 -12 7 -21 17 -20 8 1 15 -6 15 -14 0 -8 5 -18 10 -22 6 -4 10
-11 10 -15 1 -4 6 -18 13 -30 7 -13 10 -23 7 -23 -3 0 2 -11 10 -24 10 -15 12
-25 5 -28 -5 -1 -1 -9 11 -16 12 -8 18 -9 14 -3 -3 6 -2 11 4 11 11 0 9 -39
-3 -58 -9 -16 6 -15 24 1 7 6 3 -3 -10 -22 -13 -19 -19 -31 -12 -27 8 5 12 0
13 -13 3 -40 5 -46 18 -43 7 1 20 -5 28 -15 13 -17 13 -16 4 4 -15 31 -15 31
27 27 20 -1 30 -1 20 2 -9 3 -19 12 -22 21 -5 13 -4 14 8 4 13 -11 15 -9 11 8
-2 12 -7 26 -10 31 -14 23 -14 49 1 43 8 -3 14 0 14 6 0 6 -3 11 -8 11 -4 0
-13 10 -21 23 -13 20 -13 21 3 8 9 -8 20 -10 24 -6 4 4 1 10 -5 12 -7 3 -13 9
-13 15 0 6 7 8 14 5 10 -4 13 -1 9 9 -3 8 -11 13 -18 11 -6 -3 -12 1 -12 9 0
8 6 13 14 10 7 -3 13 -1 13 3 0 5 -6 12 -12 14 -10 4 -10 6 0 6 10 1 9 5 -3
18 -16 15 -15 17 7 30 12 8 16 12 8 10 -10 -3 -16 2 -17 14 -1 10 3 19 8 19 6
0 3 7 -5 16 -22 22 -20 34 7 35 l22 0 -22 9 c-16 6 -21 14 -16 26 6 16 7 16
18 0 7 -9 16 -16 20 -16 5 0 1 8 -8 18 -13 15 -14 21 -4 32 10 10 9 11 -3 4
-18 -10 -44 -15 -36 -7 9 9 -15 34 -25 27 -14 -8 -10 3 6 20 9 9 11 17 5 21
-5 3 -10 1 -10 -5 0 -6 -5 -8 -10 -5 -6 4 -8 10 -6 14 3 4 -129 8 -292 9 -179
1 -291 -2 -282 -8z m571 -17 c8 -8 7 -13 -2 -18 -8 -6 -10 -4 -4 5 5 8 3 11
-6 8 -8 -3 -24 -1 -36 3 -16 6 -23 5 -23 -3 0 -6 -3 -9 -6 -5 -3 3 -3 10 0 15
7 12 64 8 77 -5z m-597 -28 c-4 -8 -10 -15 -16 -15 -5 0 -6 -4 -3 -10 10 -16
-1 -11 -16 7 -8 9 -9 14 -3 10 7 -4 17 0 24 8 16 19 21 19 14 0z m-34 -185 c0
-5 -5 -10 -11 -10 -5 0 -7 5 -4 10 3 6 8 10 11 10 2 0 4 -4 4 -10z m538 -3
c-1 -2 3 -11 11 -20 7 -10 10 -17 5 -17 -5 0 -2 -5 6 -10 8 -5 16 -14 16 -20
1 -5 2 -11 4 -12 1 -2 3 -11 5 -21 3 -14 0 -16 -10 -7 -7 6 -12 19 -10 28 1 9
-3 20 -9 24 -6 4 -12 12 -12 18 -1 5 -2 11 -4 13 -4 5 -8 38 -3 34 2 -3 3 -7
1 -10z m-832 -212 c1 -8 -2 -15 -6 -15 -5 0 -8 9 -7 20 1 21 10 18 13 -5z
m249 5 c3 -6 -1 -7 -9 -4 -18 7 -21 14 -7 14 6 0 13 -4 16 -10z m672 -35 c0
-8 -4 -12 -9 -9 -5 3 -6 10 -3 15 9 13 12 11 12 -6z m7 -55 c-6 -6 -10 -3 -10
10 0 13 4 16 10 10 7 -7 7 -13 0 -20z m-879 -380 c-3 -5 -1 -10 6 -10 7 0 10
-3 6 -6 -9 -9 -28 6 -22 17 4 5 8 9 11 9 3 0 2 -4 -1 -10z m475 -80 c0 -5 -2
-10 -4 -10 -3 0 -8 5 -11 10 -3 6 -1 10 4 10 6 0 11 -4 11 -10z m393 -436 c-7
-19 -10 -18 -16 5 -3 13 -1 18 9 14 7 -2 10 -11 7 -19z m-449 -20 c3 -8 2 -12
-4 -9 -6 3 -10 10 -10 16 0 14 7 11 14 -7z m22 -19 c-3 -8 -1 -15 4 -15 6 0
10 -5 10 -11 0 -8 -4 -8 -14 1 -13 10 -12 40 1 40 3 0 3 -7 -1 -15z m449 -5
c3 -5 1 -10 -4 -10 -6 0 -11 5 -11 10 0 6 2 10 4 10 3 0 8 -4 11 -10z m65 -94
c0 -2 -7 -7 -16 -10 -8 -3 -12 -2 -9 4 6 10 25 14 25 6z m37 -72 c-3 -3 -12
-4 -19 -1 -8 3 -5 6 6 6 11 1 17 -2 13 -5z m-333 -100 c3 -8 2 -12 -4 -9 -6 3
-10 10 -10 16 0 14 7 11 14 -7z m96 -174 c0 -5 -5 -10 -11 -10 -5 0 -7 5 -4
10 3 6 8 10 11 10 2 0 4 -4 4 -10z m-760 -56 c0 -8 -19 -13 -24 -6 -3 5 1 9 9
9 8 0 15 -2 15 -3z m780 -24 c0 -5 -5 -10 -11 -10 -5 0 -7 5 -4 10 3 6 8 10
11 10 2 0 4 -4 4 -10z m246 -140 c0 -12 -4 -16 -9 -11 -5 5 -6 14 -3 20 10 15
12 14 12 -9z m-2 -39 c-2 -2 -10 1 -17 7 -8 7 -17 9 -21 5 -4 -4 -4 0 -1 9 6
15 8 15 24 0 10 -9 16 -19 15 -21z m-1037 -16 c0 -8 -4 -15 -9 -15 -10 0 -11
14 -1 23 9 10 10 9 10 -8z m4 -48 c-13 -13 -26 -3 -16 12 3 6 11 8 17 5 6 -4
6 -10 -1 -17z m762 -120 c-5 -8 -8 -7 -11 1 -2 7 -9 9 -14 6 -7 -4 -8 -2 -4 4
4 6 13 9 21 6 8 -4 12 -11 8 -17z m87 -91 c0 -3 -4 -8 -10 -11 -5 -3 -10 -1
-10 4 0 6 5 11 10 11 6 0 10 -2 10 -4z m-405 -45 c3 -5 1 -12 -5 -16 -5 -3
-10 1 -10 9 0 18 6 21 15 7z m-274 -55 c5 3 9 2 8 -3 -4 -22 3 -25 17 -7 8 10
13 14 10 7 -8 -15 10 -27 19 -13 3 5 12 10 18 10 22 -1 -28 -24 -53 -25 -33
-1 -50 12 -43 33 4 10 8 12 11 4 2 -7 8 -10 13 -6z"/>
<path d="M1732 2544 c10 -10 20 -15 24 -12 3 4 -5 12 -18 18 -22 12 -22 12 -6
-6z"/>
<path d="M1215 2491 c-3 -5 -1 -12 5 -16 5 -3 10 1 10 9 0 18 -6 21 -15 7z"/>
<path d="M1265 2489 c-4 -6 -5 -12 -2 -15 2 -3 7 2 10 11 7 17 1 20 -8 4z"/>
<path d="M1151 2434 c0 -11 3 -14 6 -6 3 7 2 16 -1 19 -3 4 -6 -2 -5 -13z"/>
<path d="M1756 2428 c3 -5 10 -6 15 -3 13 9 11 12 -6 12 -8 0 -12 -4 -9 -9z"/>
<path d="M1040 2300 c-9 -6 -10 -10 -3 -10 6 0 15 5 18 10 8 12 4 12 -15 0z"/>
<path d="M754 2213 c15 -4 16 -7 5 -15 -11 -7 -11 -9 -1 -6 20 5 16 23 -5 25
-15 2 -15 1 1 -4z"/>
<path d="M1634 2170 c0 -13 4 -16 10 -10 7 7 7 13 0 20 -6 6 -10 3 -10 -10z"/>
<path d="M1760 2140 c6 -11 13 -20 16 -20 2 0 0 9 -6 20 -6 11 -13 20 -16 20
-2 0 0 -9 6 -20z"/>
<path d="M1735 2040 c3 -5 8 -10 11 -10 2 0 4 5 4 10 0 6 -5 10 -11 10 -5 0
-7 -4 -4 -10z"/>
<path d="M1070 1920 c-9 -16 -8 -22 5 -26 9 -4 19 -4 22 0 4 3 -1 6 -11 6 -14
0 -15 4 -6 20 6 11 8 20 6 20 -3 0 -10 -9 -16 -20z"/>
<path d="M740 1731 c0 -6 4 -13 10 -16 6 -3 7 1 4 9 -7 18 -14 21 -14 7z"/>
<path d="M852 1555 c6 -14 15 -25 20 -25 5 0 1 11 -8 25 -9 14 -18 25 -20 25
-2 0 2 -11 8 -25z"/>
<path d="M1361 1534 c0 -11 3 -14 6 -6 3 7 2 16 -1 19 -3 4 -6 -2 -5 -13z"/>
<path d="M923 1455 c-10 -11 -9 -13 6 -12 11 1 17 7 14 14 -6 16 -5 16 -20 -2z"/>
<path d="M1005 1359 c-4 -6 -5 -12 -2 -15 2 -3 7 2 10 11 7 17 1 20 -8 4z"/>
<path d="M1830 961 c0 -6 4 -13 10 -16 6 -3 7 1 4 9 -7 18 -14 21 -14 7z"/>
<path d="M1401 916 c-10 -12 -8 -13 8 -9 12 3 18 9 15 14 -7 12 -10 11 -23 -5z"/>
<path d="M752 606 c7 -8 15 -12 17 -11 5 6 -10 25 -20 25 -5 0 -4 -6 3 -14z"/>
<path d="M748 573 c5 -10 7 -25 5 -33 -4 -13 -3 -13 6 -1 9 14 -2 51 -15 51
-2 0 -1 -8 4 -17z"/>
<path d="M1570 420 c0 -5 5 -10 11 -10 5 0 7 5 4 10 -3 6 -8 10 -11 10 -2 0
-4 -4 -4 -10z"/>
<path d="M1826 378 c3 -5 10 -6 15 -3 13 9 11 12 -6 12 -8 0 -12 -4 -9 -9z"/>
<path d="M762 291 c-11 -6 -10 -10 4 -15 20 -8 32 0 18 14 -5 5 -15 5 -22 1z"/>
<path d="M753 235 c0 -8 4 -12 9 -9 5 3 6 10 3 15 -9 13 -12 11 -12 -6z"/>
<path d="M753 195 c0 -8 4 -12 9 -9 5 3 6 10 3 15 -9 13 -12 11 -12 -6z"/>
<path d="M1671 176 c-15 -17 -1 -28 19 -15 11 6 12 9 2 9 -7 0 -10 5 -7 10 9
15 -1 12 -14 -4z"/>
<path d="M1181 123 c-1 -17 16 -25 25 -12 4 7 3 9 -4 5 -5 -3 -13 0 -15 6 -4
9 -6 10 -6 1z"/>
<path d="M757 88 c19 -21 31 -25 14 -5 -6 8 -9 16 -6 19 3 2 -2 5 -10 5 -13 0
-13 -3 2 -19z"/>
<path d="M880 18 c-12 -8 -12 -9 2 -5 9 3 19 1 22 -6 3 -9 5 -9 5 0 1 18 -13
23 -29 11z"/>
</g>
</svg>
