<svg xmlns="http://www.w3.org/2000/svg" xmlns:xlink="http://www.w3.org/1999/xlink" width="20" height="25" viewBox="0 0 20 25">
    <defs>
        <path id="prefix__a" d="M0 0L20 0 20 25 0 25z"/>
    </defs>
    <g fill="none" fill-rule="evenodd">
        <mask id="prefix__b" fill="#fff">
            <use xlink:href="#prefix__a"/>
        </mask>
        <path fill="#4E2F6B" d="M10 3.907c-3.221 0-5.833 2.448-5.833 5.468s2.612 5.47 5.833 5.47 5.833-2.45 5.833-5.47c0-3.02-2.612-5.468-5.833-5.468M10 25c-.26 0-.508-.107-.678-.33L2.796 16.05c-.17-.224-.234-.309-.3-.394-.634-.826-1.259-1.642-1.707-2.633-.256-.567-.453-1.164-.587-1.784C.07 10.625 0 10.002 0 9.375c0-2.589 1.12-4.932 2.93-6.63.918-.86 2.02-1.556 3.249-2.033C7.36.253 8.65 0 10 0c1.349 0 2.64.253 3.821.712 1.23.477 2.332 1.173 3.25 2.034C18.88 4.443 20 6.786 20 9.375c0 .627-.07 1.25-.2 1.863-.136.62-.333 1.217-.588 1.784-.448.991-1.074 1.807-1.707 2.633-.067.085-.131.17-.3.394l-6.527 8.621c-.17.223-.418.33-.678.33" mask="url(#prefix__b)"/>
    </g>
</svg>
