<?xml version="1.0" encoding="utf-8"?>
<!-- Generator: Adobe Illustrator 27.8.0, SVG Export Plug-In . SVG Version: 6.00 Build 0)  -->
<svg version="1.1" id="Layer_1" xmlns="http://www.w3.org/2000/svg" xmlns:xlink="http://www.w3.org/1999/xlink" x="0px" y="0px"
	 viewBox="0 0 133.99 133.69" style="enable-background:new 0 0 133.99 133.69;" xml:space="preserve">
<style type="text/css">
	.st0{fill:#EFEDED;}
</style>
<path id="Path_5184" class="st0" d="M127.35,37.64l-17.48,10.09c10.43,23.7-0.32,51.38-24.03,61.81
	c-20.13,8.86-43.71,2.54-56.71-15.2l-17.48,10.09c20.84,30.57,62.51,38.45,93.07,17.62C132.12,103.38,141.73,67.5,127.35,37.64z"/>
<path id="diversity_1_FILL0_wght400_GRAD0_opsz24" class="st0" d="M39.41,68.44c-0.73-1.46-1.32-2.99-1.75-4.56
	c-0.41-1.53-0.62-3.1-0.62-4.69c-0.11-4.4,1.61-8.66,4.75-11.75c3.09-3.14,7.35-4.86,11.75-4.75c2.59-0.01,5.15,0.56,7.5,1.66
	c2.32,1.06,4.37,2.63,6,4.59c1.63-1.96,3.68-3.53,6-4.59c2.35-1.1,4.91-1.66,7.5-1.66c4.4-0.11,8.66,1.61,11.75,4.75
	c3.14,3.09,4.86,7.35,4.75,11.75c0,1.58-0.21,3.16-0.62,4.69c-0.43,1.58-1.02,3.1-1.75,4.56c-0.45-0.78-0.99-1.49-1.62-2.13
	c-0.63-0.63-1.37-1.14-2.19-1.5c0.36-0.91,0.65-1.85,0.88-2.81c0.21-0.92,0.31-1.87,0.31-2.81c0.07-3.07-1.13-6.03-3.31-8.19
	c-2.16-2.19-5.12-3.39-8.19-3.31c-3.37,0-5.97,0.93-7.78,2.78c-1.81,1.85-3.72,3.93-5.72,6.22c-2-2.33-3.91-4.42-5.72-6.25
	s-4.41-2.75-7.78-2.75c-3.07-0.07-6.03,1.13-8.19,3.31c-2.19,2.15-3.39,5.12-3.31,8.19c0,0.95,0.1,1.89,0.31,2.81
	c0.22,0.96,0.51,1.9,0.88,2.81c-0.81,0.36-1.56,0.87-2.19,1.5C40.41,66.95,39.86,67.66,39.41,68.44z M37.04,90.19v-3.94
	c0.02-1.88,1.1-3.58,2.78-4.41c2.21-1.19,4.71-1.76,7.22-1.66c0.54,0,1.06,0.01,1.56,0.03c0.48,0.02,0.96,0.07,1.44,0.16
	c-0.58,0.82-1.02,1.73-1.31,2.69c-0.3,0.99-0.44,2.03-0.44,3.06v4.06L37.04,90.19z M52.04,90.19v-4.06c0-2.71,1.39-4.9,4.16-6.56
	s6.39-2.5,10.84-2.5c4.5,0,8.12,0.83,10.88,2.5s4.12,3.85,4.12,6.56v4.06H52.04z M85.79,90.19v-4.06c0.01-1.03-0.13-2.06-0.41-3.06
	c-0.27-0.95-0.68-1.86-1.22-2.69c0.46-0.08,0.93-0.14,1.41-0.16c0.48-0.02,0.97-0.03,1.47-0.03c2.52-0.11,5.03,0.46,7.25,1.66
	c1.67,0.84,2.73,2.54,2.75,4.41v3.94H85.79z M67.04,82.06c-2.16-0.03-4.31,0.28-6.37,0.94c-1.87,0.63-2.98,1.35-3.31,2.19h19.44
	c-0.37-0.83-1.49-1.56-3.34-2.19C71.37,82.34,69.21,82.03,67.04,82.06z M47.04,77.69c-1.33,0.02-2.61-0.51-3.53-1.47
	c-0.96-0.92-1.49-2.2-1.47-3.53c-0.03-1.34,0.5-2.63,1.47-3.56c0.93-0.94,2.21-1.46,3.53-1.44c1.34-0.03,2.62,0.49,3.56,1.44
	c0.95,0.94,1.47,2.23,1.44,3.56c0.02,1.32-0.5,2.6-1.44,3.53C49.67,77.19,48.38,77.72,47.04,77.69z M87.04,77.69
	c-1.33,0.02-2.61-0.51-3.53-1.47c-0.96-0.92-1.49-2.2-1.47-3.53c-0.03-1.34,0.5-2.63,1.47-3.56c0.93-0.94,2.21-1.46,3.53-1.44
	c1.34-0.03,2.62,0.49,3.56,1.44c0.95,0.94,1.47,2.23,1.44,3.56c0.02,1.32-0.5,2.6-1.44,3.53C89.67,77.19,88.38,77.72,87.04,77.69z
	 M67.04,75.19c-2,0.04-3.92-0.76-5.31-2.19c-1.43-1.39-2.22-3.32-2.19-5.31c-0.05-2.01,0.74-3.95,2.19-5.34
	c1.4-1.41,3.32-2.19,5.31-2.16c2-0.05,3.94,0.73,5.34,2.16c1.43,1.41,2.21,3.34,2.16,5.34c0.04,1.99-0.74,3.91-2.16,5.31
	C70.99,74.44,69.05,75.24,67.04,75.19z M67.04,65.19c-0.67-0.02-1.31,0.24-1.78,0.72c-0.48,0.47-0.74,1.11-0.72,1.78
	c-0.02,0.67,0.24,1.31,0.72,1.78c0.47,0.48,1.11,0.74,1.78,0.72c0.67,0.02,1.31-0.24,1.78-0.72c0.48-0.47,0.74-1.11,0.72-1.78
	c0.02-0.67-0.24-1.31-0.72-1.78C68.35,65.43,67.71,65.17,67.04,65.19z"/>
</svg>
