<?xml version="1.0" encoding="utf-8"?>
<!-- Generator: Adobe Illustrator 27.8.0, SVG Export Plug-In . SVG Version: 6.00 Build 0)  -->
<svg version="1.1" id="Layer_1" xmlns="http://www.w3.org/2000/svg" xmlns:xlink="http://www.w3.org/1999/xlink" x="0px" y="0px"
	 viewBox="0 0 133.99 133.69" style="enable-background:new 0 0 133.99 133.69;" xml:space="preserve">
<style type="text/css">
	.st0{fill:#EFEDED;}
</style>
<path id="Path_5190" class="st0" d="M11.65,29.22l17.48,10.09c15.31-20.89,44.65-25.41,65.54-10.1c17.74,13,24.06,36.58,15.2,56.71
	l17.48,10.09c16.05-33.33,2.05-73.36-31.28-89.41C66.2-7.78,30.32,1.83,11.65,29.22z"/>
<path id="chat_FILL0_wght400_GRAD0_opsz24" class="st0" d="M48.99,77.96h24v-6h-24V77.96z M48.99,68.96h36v-6h-36V68.96z
	 M48.99,59.96h36v-6h-36V59.96z M36.99,101.96v-54c-0.02-1.6,0.61-3.13,1.76-4.24c1.11-1.15,2.64-1.79,4.24-1.76h48
	c1.6-0.02,3.13,0.62,4.24,1.76c1.15,1.11,1.79,2.64,1.76,4.24v36c0.02,1.6-0.62,3.13-1.76,4.24c-1.11,1.15-2.64,1.79-4.24,1.76h-42
	L36.99,101.96z M46.44,83.96h44.55v-36h-48v39.37L46.44,83.96z M42.99,83.96L42.99,83.96z"/>
</svg>
