<svg xmlns="http://www.w3.org/2000/svg" width="18" height="15" viewBox="0 0 18 15">
    <path fill-rule="evenodd" d="M18 1.776c-.661.3-1.373.505-2.12.596.762-.468 1.348-1.21 1.623-2.095-.714.434-1.503.749-2.346.918C14.485.459 13.525 0 12.462 0 10.424 0 8.77 1.696 8.77 3.787c0 .296.032.585.095.862-3.069-.158-5.79-1.664-7.612-3.958-.318.561-.5 1.213-.5 1.906 0 1.313.652 2.472 1.643 3.152-.604-.019-1.175-.191-1.673-.473v.047c0 1.835 1.273 3.366 2.963 3.713-.31.089-.636.133-.973.133-.238 0-.47-.023-.695-.067.47 1.504 1.833 2.599 3.45 2.628C4.204 12.746 2.61 13.352.88 13.352c-.298 0-.593-.017-.881-.052C1.634 14.373 3.576 15 5.66 15c6.794 0 10.508-5.77 10.508-10.774 0-.164-.003-.329-.01-.49.722-.534 1.349-1.2 1.842-1.96"/>
</svg>
