<svg width="40" height="40" viewBox="0 0 40 40" fill="none" xmlns="http://www.w3.org/2000/svg"><path d="M13 3.333h14c5.333 0 9.667 4.334 9.667 9.667v14A9.667 9.667 0 0 1 27 36.667H13c-5.333 0-9.667-4.334-9.667-9.667V13A9.667 9.667 0 0 1 13 3.334zm-.333 3.334a6 6 0 0 0-6 6v14.667c0 3.316 2.683 6 6 6h14.666a6 6 0 0 0 6-6V12.667c0-3.317-2.683-6-6-6H12.667zm16.083 2.5a2.083 2.083 0 1 1 0 4.167 2.083 2.083 0 0 1 0-4.167zm-8.75 2.5a8.333 8.333 0 1 1 0 16.667 8.333 8.333 0 0 1 0-16.667zM20 15a5 5 0 1 0 0 10 5 5 0 0 0 0-10z"/></svg>