<svg width="40" height="40" viewBox="0 0 40 40" fill="none" xmlns="http://www.w3.org/2000/svg"><path d="M16.667 25l8.65-5-8.65-5v10zm19.266-13.05c.217.784.367 1.834.467 3.167.117 1.333.167 2.483.167 3.483l.1 1.4c0 3.65-.267 6.334-.734 8.05-.416 1.5-1.383 2.467-2.883 2.883-.783.217-2.217.367-4.417.467-2.166.117-4.15.167-5.983.167l-2.65.1c-6.983 0-11.333-.267-13.05-.734-1.5-.416-2.467-1.383-2.883-2.883-.217-.783-.367-1.833-.467-3.166a40.098 40.098 0 0 1-.167-3.484l-.1-1.4c0-3.65.267-6.333.734-8.05.416-1.5 1.383-2.466 2.883-2.883.783-.217 2.217-.367 4.417-.467a111.09 111.09 0 0 1 5.983-.166l2.65-.1c6.983 0 11.333.266 13.05.733 1.5.416 2.467 1.383 2.883 2.883z"/></svg>