<svg id="Layer_1" data-name="Layer 1" xmlns="http://www.w3.org/2000/svg" viewBox="0 0 30 41"><defs><style>.calendar{fill:#15bb98}</style></defs><path class="calendar" d="M2.65 16.45V6.59A2.71 2.71 0 0 1 5 3.79a3.24 3.24 0 0 1 .44 0h3.3c.23 0 .31-.06.31-.29C9 2.9 9 2.32 9 1.74a.9.9 0 0 1 .05-.36.56.56 0 0 1 1.06 0 1.42 1.42 0 0 1 0 .36V3.4c0 .36 0 .36.36.36h9.71c.24 0 .33-.06.32-.3V1.77a1.62 1.62 0 0 1 0-.31.56.56 0 0 1 1.1 0 1.63 1.63 0 0 1 0 .31v1.67c0 .24.07.33.32.33h3.3a2.7 2.7 0 0 1 2.77 2.76v19.92a2.73 2.73 0 0 1-2.83 2.78H5.57A2.75 2.75 0 0 1 3 27.8a2.82 2.82 0 0 1-.34-1.43zm12.73-5.91H4.19c-.39 0-.39 0-.39.39v15.5a1.53 1.53 0 0 0 1.65 1.65h19.87A1.53 1.53 0 0 0 27 26.43V10.92c0-.38 0-.38-.39-.38zm0-1.15H26.6c.36 0 .36 0 .36-.36v-2.5a1.79 1.79 0 0 0 0-.46 1.6 1.6 0 0 0-1.66-1.18h-3.22c-.26 0-.32.08-.32.33v1.87a.57.57 0 1 1-1.13 0 1 1 0 0 1 0-.25V5.17c0-.22-.06-.31-.31-.31h-9.83c-.23 0-.31.07-.3.29v1.8a.66.66 0 0 1-.21.56.51.51 0 0 1-.58.09.6.6 0 0 1-.4-.55V5.16c0-.2-.06-.27-.27-.27H5.41a1.58 1.58 0 0 0-1.61 1.7v2.39c0 .41 0 .41.42.41z"/><path class="calendar" d="M15.38 12.55h1.14a1.64 1.64 0 0 1 1.67 1.63v2.31a1.61 1.61 0 0 1-1.52 1.65 18.23 18.23 0 0 1-2.56 0 1.61 1.61 0 0 1-1.53-1.66v-2.26a1.64 1.64 0 0 1 1.68-1.67zm0 4.47h1.12c.37 0 .55-.17.55-.53v-2.26a.45.45 0 0 0-.5-.52h-2.32a.45.45 0 0 0-.5.5v2.29a.46.46 0 0 0 .53.52zM5.76 15.36V14.2a1.62 1.62 0 0 1 1.59-1.65h2.39a1.63 1.63 0 0 1 1.61 1.64v2.2a1.61 1.61 0 0 1-1.59 1.76 16.83 16.83 0 0 1-2.56 0 1.59 1.59 0 0 1-1.44-1.6zm2.79-1.66H7.46c-.39 0-.58.18-.58.57v2.18a.5.5 0 0 0 .56.56h2.23c.37 0 .55-.19.55-.57v-2.18c0-.38-.17-.55-.55-.56zM15.37 25.25h-1.12a1.61 1.61 0 0 1-1.67-1.61v-2.36a1.63 1.63 0 0 1 1.66-1.61h2.29a1.63 1.63 0 0 1 1.66 1.63v2.31a1.61 1.61 0 0 1-1.68 1.64c-.38.01-.76 0-1.14 0zm-1.64-2.78v1.14a.46.46 0 0 0 .53.52h2.23c.37 0 .55-.17.55-.54v-2.25a.49.49 0 0 0-.52-.55h-2.26a.49.49 0 0 0-.53.56c-.01.37 0 .74 0 1.12zM25 15.35v1.06a1.6 1.6 0 0 1-1.58 1.74 17.23 17.23 0 0 1-2.59 0 1.58 1.58 0 0 1-1.42-1.56v-2.41A1.63 1.63 0 0 1 21 12.55h2.41A1.63 1.63 0 0 1 25 14.18zM22.21 17h1.12a.5.5 0 0 0 .56-.56v-2.2a.49.49 0 0 0-.55-.55h-2.22c-.4 0-.57.18-.58.57v2.18a.5.5 0 0 0 .56.56zM8.54 25.25H7.32a1.59 1.59 0 0 1-1.56-1.56v-2.44a1.61 1.61 0 0 1 1.55-1.58H9.8a1.62 1.62 0 0 1 1.55 1.61v2.39a1.59 1.59 0 0 1-1.59 1.58c-.41.01-.76 0-1.22 0zm0-1.12h1.14a.5.5 0 0 0 .55-.55v-2.2a.52.52 0 0 0-.57-.59H7.44a.53.53 0 0 0-.56.58v2.2a.5.5 0 0 0 .56.56c.37.01.73 0 1.09 0zM22.22 25.25H21a1.59 1.59 0 0 1-1.58-1.57v-2.41a1.62 1.62 0 0 1 1.58-1.6h2.46A1.62 1.62 0 0 1 25 21.26v2.42a1.59 1.59 0 0 1-1.57 1.57c-.43.01-.8 0-1.21 0zm0-1.12h1.09a.51.51 0 0 0 .58-.57v-2.18a.53.53 0 0 0-.57-.59h-2.21a.54.54 0 0 0-.57.59v2.18a.51.51 0 0 0 .59.57c.36.01.72 0 1.09 0z"/><path fill="none" stroke="#939393" stroke-miterlimit="10" d="M5.65 38h20"/></svg>