<svg xmlns="http://www.w3.org/2000/svg" width="72.281" height="44.195" viewBox="0 0 72.281 44.195"><path d="M37.392 9.658a.434.434 0 01.021-.115zm-.1 11.039c0-.084-.022-.119-.039-.123.014.078.025.142.039.124zm-.2 1.885l.012-.111a.152.152 0 00-.012.111zm.3-12.924l-.056.295c.056.021.043-.151.056-.295zm-1.357-3.041h-.09a.5.5 0 00-.075.073zm-3.588-.184a.273.273 0 01-.184.1.184.184 0 00.038.108c.083.01.113-.142.145-.205zm-6.068-.056l-.1.021c.021-.007.068-.013.099-.021zm10.835 1.089a.111.111 0 00-.054.034.076.076 0 00.053-.035zM21.859 6.261l-.06.008a.4.4 0 00-.013.085zm15.042 19.771v-.015c-.014-.092-.009-.04 0 .019zM17.576 37.18c.358.136-.584.175-.044.326-.05-.061.491-.238.044-.327zm19.417-3.2a.225.225 0 00.066-.081c-.016.002-.035.02-.067.08zm.216-5.921l-.021.146a.707.707 0 00.021-.147zm-.014 8.966a.287.287 0 00.013-.031.107.107 0 00-.016.03zm0 0a.082.082 0 000 .073.045.045 0 00.019-.01.073.073 0 01-.022-.064zm-2.176.35a.591.591 0 00.06.03l.1-.008zm2.254-9.138a.41.41 0 01.037.109c-.018-.073-.018-.181-.037-.11zm-30.8-17.291v-.008a.023.023 0 00.004.008zm.017 2.927s.002.003.002 0zm30.468 11.949a.923.923 0 00-.013-.128.984.984 0 00.017.128zm.35 2.53a.034.034 0 000-.007zM6.453 11.167l.048.053v-.081a.375.375 0 01-.011-.062.915.915 0 00-.034.09zm30.979-1.665c-.007.013-.012.013-.018.022v.02a.124.124 0 01.021-.042zm-8.138-2.911c.739.175-.152-.131.616-.108l-.586-.044c.105.058.239.137-.032.151zm2.434-.022c-.315.027 0 .085-.013.118.202-.051.25-.068.015-.119zm5.564 7.057l-.138-.032c.023.242.056.002.138.031zm-.29 3.889l.05.405-.03-.3zm-1.41 19.721l.074.171c.16-.027.194-.219-.074-.171zm-10.062.117a4.2 4.2 0 00.537.056.588.588 0 00-.54-.052zm-18.8-8.281l.057.192-.047-.361zm-6.467.154a.672.672 0 00-.021.148zm2.651 13.7c-.1-.055-.152-.065-.165-.054.092.047.173.082.159.055zm2.394.995l-.151-.036a.286.286 0 00.145.037zM.241 29.376l-.056.38c.052.028.037-.193.05-.378zm-.145-6.272v-.116a.59.59 0 00-.073-.1zm.185-4.625a.384.384 0 01-.1-.237.165.165 0 00-.108.049c-.017.11.135.145.201.19zm.055-7.821l-.014-.094a.355.355 0 00.008.096zm-.014-.094c0-.016 0-.03-.007-.042zM.009 26.592c.019 0 .037-.017.055-.044a.113.113 0 00-.062.047zM.455 4.818l.02-.076a.311.311 0 00-.074-.045zm9.371 39.365h-.02c-.123.017-.057.014.013.003zm34.061-10.495c-.136.462-.174-.753-.326-.057.053-.061.231.637.319.06zm-23.819 10.4a.291.291 0 00-.1-.067c-.008.015.016.035.093.067zm-7.631-.211l.189.02a1.243 1.243 0 00-.196-.021zm11.675.006a.552.552 0 00.195 0 .2.2 0 00-.042-.019.318.318 0 01-.16.018zm0 0c-.024 0-.05-.009-.083-.012a.673.673 0 00.076.011zm4.041-.016a.818.818 0 00-.076-.031l-.131.008zm-15.487-.055a.647.647 0 01.141-.037c-.099.018-.239.015-.147.037zm.149-.039zM24.742.173h-.011zm-.013 43.59l.009-.011c-.011.006-.015.01-.015.014zM28.515.156s-.003.004-.007.003zM9.556 44.122a1.494 1.494 0 00-.164.013.62.62 0 00.157-.01zm-1.279-.906a1.351 1.351 0 01.568-.293l.233-.064.207.049h.19c.077 0 .153-.005.225-.005a1.477 1.477 0 01.8.2 2.627 2.627 0 01.549-.051h.112q.083-.026.176-.048l.169-.04.181.025a1.992 1.992 0 01.882-.188c.071 0 .149-.008.232-.015l.67-.053.07.158.036.007a2.269 2.269 0 00.383.053.442.442 0 00.081-.007l.2-.038.2.046c.036.008.07.018.1.028v-.022l.119-.035.071-.021a.74.74 0 00-.171.083 1.252 1.252 0 01.224.1v-.007l.459-.117.079-.151h-.016.02a2.081 2.081 0 00.256-.029 3.794 3.794 0 01.573-.053 2.2 2.2 0 01.518.059l.765.182-.005.108.105-.013c.228-.028.478-.059.759-.073a1.625 1.625 0 01.66-.115c.074 0 .154 0 .236.005h.193a.792.792 0 00.109 0l.793-.118.036-.08.169.05.475-.071-.058.193.572.168h.022a1.29 1.29 0 00.466-.092c.109-.036.236-.077.388-.112l.017-.286.52.214h.287l.026.128.222.092.078-.012a3.7 3.7 0 01.565-.059 1.529 1.529 0 01.627-.123h.06l.26.007.189.119.082-.2a3 3 0 00.846.089c.153 0 .31 0 .463-.007s.329-.007.486-.007a4.377 4.377 0 011.11.112c.671-.038 1.3-.064 1.753-.071h.188a1.689 1.689 0 01.781-.171 3.061 3.061 0 01.387.027l.116.015.108.043a1.562 1.562 0 01.143.064l.778-.012-.151.138a2.159 2.159 0 01.607.1c.092-.01.2-.026.311-.043a6.437 6.437 0 01.972-.091h.147a13.037 13.037 0 011.913-.228l.089-.006a2.22 2.22 0 01.367-.052l.2-.013.188.069c.038.013.086.025.136.038a2.73 2.73 0 01.591.21h.227l.214.014a1.359 1.359 0 00.216-.077l.03-.014c.134-.061.281-.127.474-.195l.137-.051.024-.02a2.3 2.3 0 01.23-.166 1.561 1.561 0 01.24-.137 1.435 1.435 0 01.4-.116l.4-.42.3.125.054-.053.231-.27.085-.1.053-.074.134-.184.069-.092c.018-.024.036-.046.049-.065l.072.027.092-.165c.126-.226.256-.459.389-.717l.578-1.131.068.065.1-.355a3.391 3.391 0 01.186-.6c-.023-.6-.019-1.148.014-1.728l.02-.36c.014-.255.029-.514.038-.778l-.255.067-.047-.75h-.226l.2-1a1.211 1.211 0 01.039-.2l.2-1.029.034-.084q.018-.046.04-.088a2.594 2.594 0 01.085-1.372.822.822 0 00.021-.508l.074-.018c-.007-.136-.011-.286-.017-.449a6.913 6.913 0 00-.125-1.384l-.2-.39.167-.405a1.525 1.525 0 01.079-.161c-.013-.359-.046-.74-.078-1.113a9.682 9.682 0 01-.03-2.245 1.636 1.636 0 01.029-.7 2.818 2.818 0 01-.025-.862l.1-.009a6.027 6.027 0 00-.136-1.237 9.1 9.1 0 01-.16-1.2l-.053-1h.354q.027-.23.055-.569l.031-.386a18.217 18.217 0 00-.15-1.821c-.051-.431-.1-.877-.138-1.372l-.013-.18.055-.172a10.029 10.029 0 00.131-1.964c.006-.479.013-.969.042-1.429a1.633 1.633 0 01-.168-.582l-.012-.122.014-.093c0-.041-.013-.122-.021-.178a1.339 1.339 0 01.183-1.058l-.5-.141.3-.932a3.1 3.1 0 00.113-.826v-.565c-.007-.18-.012-.335-.032-.516l-.041-.425-.018-.1a15.66 15.66 0 01-.077-.492l-.007-.051a4.333 4.333 0 01-.094-.782l-.036-.075-.044-.1-.05-.089-.064-.114a1.979 1.979 0 00-.123-.2l-.9-1.025.345-.131a3.847 3.847 0 00-.85-.76l.015-.035h-.055a3.318 3.318 0 01-.409-.025l-.079-.013a2.1 2.1 0 01-.558-.154l-.418-.187-.063-.245a5.585 5.585 0 00-1.033-.281l-.228-.037a.527.527 0 00-.076-.009h-.026a6.512 6.512 0 00-.381-.012h-.045a2.313 2.313 0 00-.254.017 4.036 4.036 0 00-.31.047l-1.913.379L35.786 0l-1.237.6a.792.792 0 00.5.318h-.036a9.527 9.527 0 00-1.1.134l-2.085.33.092-.157h-.067a2.946 2.946 0 01-.371-.025l-.079-.01-.116.044-.086.015a2.387 2.387 0 01-.412.033 3.324 3.324 0 01-.869-.1 2.164 2.164 0 01-.556.074 2.089 2.089 0 01-.25-.015l-.371-.045-.049-.059c-.1.008-.2.021-.3.034a4.8 4.8 0 01-.619.05 2.625 2.625 0 01-.611-.07l-.513-.121c-.066 0-.13-.008-.192-.015l-.161-.018-.027-.013-.042.009-.1-.013.01.058a2.413 2.413 0 01-.8.146h-.087c-.065.038-.13.075-.188.1l-.439.223-.435-.231a3.91 3.91 0 00-.558-.183 5.63 5.63 0 01-.465-.144c-.178.013-.359.023-.538.033a6.128 6.128 0 00-1.5.187l-.14.071-.155.023a1.589 1.589 0 01-.225.017 1.254 1.254 0 01-.6-.146 8.44 8.44 0 00-.29.02l-.142.233-.619-.087a1.425 1.425 0 01-.676-.254 3.543 3.543 0 00-.415-.024 7.626 7.626 0 00-1.214.131c-.163.026-.327.053-.5.076l.177.218-2.213-.183c-.417-.035-.88-.051-1.418-.051-.5 0-1.009.014-1.506.027s-1.036.028-1.557.028a16.656 16.656 0 01-2.189-.123 1.883 1.883 0 00-.168-.009.415.415 0 00-.2.043c-.081.03-.193.07-.336.107l-.59.153-.116-.143-.067.022-.057.012a5.188 5.188 0 01-1.031.082h-.246l-1.072.5a3.488 3.488 0 00-.514.34l-.021.016-.092.069c-.063.048-.127.1-.2.144a1.238 1.238 0 01-.388.328 4.442 4.442 0 00-.248.451l-.041.086-.058.076a2.189 2.189 0 01-.281.318l-.173.667.089.078-.19.515v6.9l-.214-.238c0 .013 0 .026.006.04a2.459 2.459 0 01.036.631l.171.174v1.2l-.113.147v.032l.155.339-.1.337a2.957 2.957 0 00-.02.53c0 .141.005.3-.006.467.016.064.031.132.042.206l.1.651-.157.088a2.043 2.043 0 01-.049.777l-.1.375a6.121 6.121 0 01-.035.21l-.021.121a1.576 1.576 0 01.089.386 6.3 6.3 0 01.021.65c0 .231 0 .471.02.672l.189 1.949-.336-.217c0 .031 0 .062-.008.092a3.659 3.659 0 01.127.968c0 .114.009.228.018.332l.105 1.2-.159-.025.038.484.2.107v2.237l-.143-.042-.005.126-.124-.006a1.907 1.907 0 01-.023.262v.687a1.309 1.309 0 01-.089.478c0 .082.01.172.014.275s.01.223.018.311h.117a1.09 1.09 0 01.02.118 8.55 8.55 0 01.018 1.939 9.1 9.1 0 00-.032 1.2l.072 1.043h-.064a3.069 3.069 0 00.059.515l.033.122v.127a1.587 1.587 0 01-.124.614 3.708 3.708 0 01-.034 1.007h-.117a1.338 1.338 0 00.047.542l-.92.386.91.078a8.624 8.624 0 010 .95l-.063 1.526c.014.023.026.046.039.07l.013.026.011.026q.053.12.1.236l.169.144.087.215a4.059 4.059 0 01.146.455l.014.05c.049.155.088.3.12.427.057.2.092.29.1.319a.75.75 0 00.108.142l.049.025.109.056c.087.044.188.1.306.169a1.822 1.822 0 01.867.284l.024.014.023.016a1.836 1.836 0 01.734.82 2.678 2.678 0 00.421.153l.037.011c.073.024.163.045.267.069l.067.016a1.019 1.019 0 01.216-.023 1.1 1.1 0 01.185.016h.027l.042.009c.1.022.189.043.243.052h.036a1.946 1.946 0 01.75-.123h.118l.115.028a1.462 1.462 0 01.334.124l.045-.005.121.018a1.483 1.483 0 01.558.187c.234.02.441.056.619.087zm29.2-4.887h-.062l-.009.211h-.031a2.1 2.1 0 01-.4-.043l-.058-.011c-.046-.008-.089-.018-.136-.023h-.537c-.129 0-.258.007-.382.007a3.157 3.157 0 01-.914-.109c-.228.016-.455.03-.664.041a7.5 7.5 0 01-3.178.59c-.244 0-.51-.006-.813-.019-.961-.04-1.916-.146-2.838-.248a73.28 73.28 0 00-1.443-.151 1.256 1.256 0 01-.189.014 1.225 1.225 0 01-.318-.042l-.61.233-.168-.288-.184-.006c-.283.05-.518.083-.717.1l-.022-.071a4.7 4.7 0 01-.827.069l-1.221-.008.017-.071-1.308.039-1.173.036c-1.352.042-2.75.085-4.135.085a36.653 36.653 0 01-6.794-.536 9.974 9.974 0 00-.282.064 5.94 5.94 0 01-.988.169l-1.022.071.006-.718a1.175 1.175 0 01-.165-.3 1.038 1.038 0 01-.056-.466 2.748 2.748 0 01-.522-1.5c-.223-5.6-.1-11.289.028-16.787l.057-2.624v-.007a2.312 2.312 0 01.021-.966v-.192a1.653 1.653 0 01-.018-.6l.032-.205.008-.439a2.214 2.214 0 01.011-.71q.01-.651.017-1.3a1.63 1.63 0 01-.014-.168l-.053-.076-.348-.53.358-.523a.95.95 0 00.069-.151q.005-.692.005-1.384a2.716 2.716 0 01.037-.445.11.11 0 01-.006-.017l-.1-.159-.035-.187a1.185 1.185 0 01.1-.757l-.332-.354.306-.594a1.034 1.034 0 01.923-.585h.029l.046-.018.354-.578.1.4.78-.306-.057.514.158-.033c.193-.04.409-.083.645-.112a2.233 2.233 0 011.28-.419 2.1 2.1 0 01.251.015 51.657 51.657 0 006.2.338 2.2 2.2 0 01.331-.025 2.421 2.421 0 01.331.023c1.459-.011 2.931-.06 4.231-.111l.028-.1h2.281c2.1-.089 4.152-.169 6.194-.169a51.057 51.057 0 017.3.459c.06.009.119.02.179.034a1.044 1.044 0 01.214-.1l.75-.254.383.693a1.63 1.63 0 01.18.716l.015.282a2.915 2.915 0 01.283 1.079 72.438 72.438 0 01-.481 11.968 2.037 2.037 0 01.079.361l.012.088v.088a1.585 1.585 0 01-.233.783l-.091.774.236-.286-.147 1.053a1.915 1.915 0 01.064.429l.008.165-.048.159a1.381 1.381 0 01-.109.26l-.018.094a1.484 1.484 0 01-.1.318l-.077.549a1.394 1.394 0 01.168.335l.1.294-.069.225v.073a1.613 1.613 0 01-.168.891 2.211 2.211 0 01.025.364v.005c.012.032.023.065.033.1l.064.214-.016.093a1.8 1.8 0 01.169.727c0 .052.007.109.014.17l.077.75-.221.075a.747.747 0 00-.019.1l.058.236-.056.183.019.049-.02-.044-.019.062a1.266 1.266 0 01-.077.195l.138.421-.1.016.161.107a.364.364 0 00.042-.166c0 .022.014.087.022.133a2.008 2.008 0 01-.016 1.025l-.215.7h-.021c.016.109.031.226.041.351a1.688 1.688 0 01.115.816c0 .052-.005.128 0 .161l.089.465.2.071-.125.329.106.554-.29-.068-.118.311a.781.781 0 00.063.178c.027.065.059.141.089.227l.492.023-.368.692v.159l-.049.865a1.092 1.092 0 01-.011.2l-.114 2.017zM24.994.148a.66.66 0 01-.08.011c.04.013.078.025.116.034l.069-.048zM.266 29.227a.168.168 0 01.021-.054c-.007.017-.012.017-.019.028zM.234 15.213l.044-.756c-.059.132-.138.306-.152-.038-.185.955.122-.194.098.796zm-.085 2.343c-.027-.406-.085 0-.119-.017.044.26.062.322.109.02zm0 16.932l-.138-.041c.008.315.043.005.127.043zM.02 39.669c.078.172.149.343.233.513-.062-.126-.111-.253-.167-.38zM27.42 44l-.095-.17c-.218.032-.263.223.088.171zm13.075-.786c-.279.11-.572.172-.709.229a.945.945 0 00.706-.227zm3.446-35.622l-.009.219.057.247zm21.918 23.657a.122.122 0 00-.021.056zm-2.283 1.446c.034.024.059.021.07.01-.043-.014-.074-.026-.077-.009zm-.566-.751c.011.017.022.03.033.045-.012-.025-.022-.046-.041-.044zm2.829-.639l-.057.144c.051.012.036-.072.049-.142zm-.146-2.374v-.044a.517.517 0 00-.073-.036zm.185-1.751a.152.152 0 01-.1-.09.338.338 0 00-.107.019c-.02.042.132.057.199.072zm.056-2.961l-.021-.051a.094.094 0 00.013.052zm-.273 6.016a.155.155 0 00-.054.017.106.106 0 00.046-.016zm.389-8.222l-.008-.029a.783.783 0 00-.085-.006zm-4.184 8.682v.007c.04.018.019.003-.008-.005zM53.31 20.638c-.1 0-.088-.07-.081-.14s.009-.137-.13-.108c.045.034.005.315.203.246zm5.552 7.665a.122.122 0 00.014-.076.183.183 0 00-.022.078zm2.055 1.978l-.041-.062a.191.191 0 00.033.064zm-3.328-2.908a.22.22 0 00.016.03.123.123 0 00-.023-.028zm-.055-.048a.07.07 0 000 .025.057.057 0 01.055.023.085.085 0 00-.063-.046zm-1.105-.947a.3.3 0 000 .042l.042.026zm8.416-16.024a.074.074 0 01-.016 0 .021.021 0 00.007.002zM61.907 30.81a.24.24 0 00.053.029.25.25 0 00-.062-.027zm3.778-18.832l-.048-.025v.038a.111.111 0 01.011.03.41.41 0 00.028-.041zm.2 19.25a.11.11 0 01-.018.011v.01a.066.066 0 01.006-.019zm-.054-5.285l.044-.286c-.059.05-.138.116-.152-.014-.186.362.121-.073.097.302zm-.085.887c-.027-.154-.085 0-.119-.006.042.099.056.123.108.012zm-.129 6.28l-.126-.057c-.025.094.038.022.114.059zm-.876.269a.53.53 0 00.093.03.124.124 0 00.033 0c-.016 0-.038-.007-.058-.011a.279.279 0 01-.08-.017zm-8.01-6.92l-.085.152c.068.032.206-.101.073-.15zm-3.711-3.123a.676.676 0 01.057.126c.019.039.037.071.061.08a.188.188 0 00-.011-.138.107.107 0 00-.119-.068zm7.653-8.974l.1-.152-.068.047zm11.211 4.716a.255.255 0 00.021-.089zm.12-8.588c0 .07.022.093.039.1-.024-.054-.035-.112-.051-.097zm-.19-1.559c0 .032.008.058.012.087-.006-.034-.006-.068-.024-.082zm.092 10.058l.056-.227c-.07-.013-.055.12-.07.23zm.145 3.746v.069a.45.45 0 00.073.057zm-.184 2.762a.206.206 0 01.1.142.23.23 0 00.108-.029c-.002-.063-.154-.086-.22-.11zm-.056 4.671l.021.081c-.019-.019-.024-.054-.033-.079zm.272-9.49a.123.123 0 00.055-.026.084.084 0 00-.066.028zm-.391 12.978v.047a.531.531 0 00.081.03zM70.665 6.289l.006.012c.049.055.021.021-.017-.009zm-20.8 8.253c.3-.082-.221.429.191.266-.084-.016.11-.426-.206-.263zm14.84-10.9a.2.2 0 00.072.062c-.018-.012-.034-.03-.085-.058zm4.552 1.659c-.027-.03-.053-.063-.082-.091a.648.648 0 00.067.095zm-7.033-.846a.224.224 0 00-.111.052.117.117 0 00.032.005.134.134 0 01.063-.053zm0 0l.054-.012a.285.285 0 00-.07.016zm-2.1 1.411a.41.41 0 00.054-.007l.054-.057zm8.979-.6a.3.3 0 01-.079-.017c.038.023.094.064.068.017zm1.7 1.285a.733.733 0 00-.07-.075.578.578 0 00.053.075zm-1.789-1.306h.011zm-1.915 33.5l.039-.02.04-.016a1.976 1.976 0 00.2-.107l.158-.089.112-.061c.1-.054.193-.1.264-.153l.028-.018a8.67 8.67 0 01.464-.271c.119-.077.24-.149.362-.217.015-.047.033-.1.057-.159l.331-.81.2.065a1.866 1.866 0 01.229-.235l.564-.821c.02-.037.06-.131.085-.188a3.032 3.032 0 01.139-.3 1.059 1.059 0 01.161-.353l.016-.173.014-.172.074-.156c.022-.046.045-.09.069-.131v-.088l-.164-.081.162-.664v-5.246l-.139-.182.217-.45v-.319l-.019-.065-.225-.857.257-.086a1.305 1.305 0 01.1-.359l.065-.142a1.3 1.3 0 01-.038-.156 2.706 2.706 0 01-.031-.5 2.416 2.416 0 00-.011-.3l-.266-1.629.305.117c-.01-.081-.015-.153-.019-.211s-.007-.1-.014-.153l-.113-.769-.075-.024v-2.059l.167.029.006-.089h.122v-.19a1.128 1.128 0 01.035-.269l-.056-.149a.986.986 0 01-.042-.145 3.676 3.676 0 01-.029-1.363 2.86 2.86 0 00.031-.58l-.124-1.076h.021v-.073a1.2 1.2 0 01.106-.483 2.158 2.158 0 01.066-.617l.091-.4h-.021a3.739 3.739 0 010-.684l.067-.962-.158-.182.028-.393a2.28 2.28 0 01.242-.814 2.008 2.008 0 01-.039-.08 1.338 1.338 0 01-.4-.787l-.021-.12.011-.121a1.52 1.52 0 01.245-.722l-.037-.124a.991.991 0 01-.2-.381l-.013-.048a1.516 1.516 0 01-.308-.452l-.085-.181v-.2a1.311 1.311 0 01.018-.242 1.325 1.325 0 01-.023-.363l-.038-.089a1.358 1.358 0 01-.231-.125l-.294-.2-.059-.218a1.515 1.515 0 01-.337-.652 1.62 1.62 0 01-.088-.081l-.017-.007-.261-.118-.009-.013a1.551 1.551 0 01-.456-.216c-.042-.026-.078-.05-.111-.067l-.744-.385.06-.159h-.014l-.235-.268h-.176l.036-.19h-.054c-.032 0-.074 0-.127.007l.006-.1-.267.124a.57.57 0 00.332.256l-.046-.007h-.029l-.057-.008a1.585 1.585 0 01-.843-.333l-.3-.245h-.121a1.262 1.262 0 01-.458.081c-.091 0-.174-.008-.241-.014l-.056-.005-.124.033c-.711.652-1.4 1.347-2.077 2.023l-.175.176a46.122 46.122 0 01-4.809 4.281 63.462 63.462 0 01-6.111 4.008l-.346.3c-.7.607-1.422 1.215-2.12 1.8s-1.4 1.178-2.09 1.777a3.063 3.063 0 01-.149.306 1.209 1.209 0 01-.142.4 1.6 1.6 0 01-.135.563l-.084.187c0 .028.006.058.011.088.011.081.025.162.04.241a41.459 41.459 0 002.232 3.995c.288.3.622.653.966 1a33.318 33.318 0 003.686 3.085c.861.654 1.752 1.331 2.59 2.055 1.189 1.026 2.3 2.154 3.368 3.246a72.65 72.65 0 002.3 2.276c.887.831 1.8 1.637 2.729 2.4l.826.04h.105a3.2 3.2 0 001.43-.376zm-2.405-4.031l-.389.041-.01-.086-.418-.429a1.247 1.247 0 01-.217-.307h-.023a1.175 1.175 0 01-.238-.024l-.253.125-.073-.24-.137-.066-.122-.133a1.117 1.117 0 01-.083-.1l-.021.117-.548-.839a1.345 1.345 0 01-.135-.084l-.266-.186-.1-.31a1.087 1.087 0 01-.03-.124l-.5-.044-.115-.375a1.134 1.134 0 01-.219-.293l-.2-.033-.02-.035a1.411 1.411 0 01-.31-.156l-.036-.022-.861-.48.107-.175a1.176 1.176 0 01-.73-.764l-.019-.062a1.1 1.1 0 01-.272-.154l-.608.5-.16-.815-.728.8-.039-1.679-.1-.105a1.12 1.12 0 01-.2-.16l-.345-.35.013-.073-.086-.094a.433.433 0 00.095.218c-.019-.018-.077-.064-.116-.095a1.953 1.953 0 01-.537-.574c-.074-.05-.152-.1-.229-.161a1.139 1.139 0 01-.85-.585l-.1-.179-.375-.3.14-.069-.056-.037a3.146 3.146 0 01-.659-.306 1.232 1.232 0 01-.255-.12l-.411-.254v-.018l-1.263-.741.16-.051-.642-.108.492-.69a1.067 1.067 0 01-.061-.093l-1.175-1.973 1.156.3h.032q.013-.04.031-.082a1.257 1.257 0 01.108-.213l.019-.076a1.432 1.432 0 01.184-.419l-.2-.158.148-.219-.615-.61 1.532-.371a.946.946 0 01.19-.046l.223-.054a1.184 1.184 0 01.678-.307l.032-.034-.081-.944.843.093a2.4 2.4 0 01.73-.715 1.045 1.045 0 01.2-.156 1.12 1.12 0 01.375-.291 2.132 2.132 0 01.342-.568l.716-.828.317.367c.038-.056.078-.12.124-.2a5.27 5.27 0 01.354-.521l.277-.349.343-.007c.075-.049.2-.147.281-.216l.2-.16a1.113 1.113 0 01.127-.256l.116-.172-.564-.81 1.684-.022c.045-.045.1-.116.149-.167a2.189 2.189 0 01.625-.55l.485-1.522.414.518a1.113 1.113 0 01.178-.216l.546-.518.226.149.187-.195.618-1.586.3.509.561-1.32.506.877.059.006h.084a1.066 1.066 0 01.939.584l.046.048.165.123-.038.053a1.066 1.066 0 01.119.3l.022.1a1.114 1.114 0 01.114.917l.008.019.962.71-1.042.742-.018.021.006.033.11.082.1.257a1.049 1.049 0 01.051.183l.366.084-.378 1.012a1.168 1.168 0 01-.06.137l.012.125.39-.119-.277 1.266.047.477-.129-.094a3.841 3.841 0 00.005.809 4.923 4.923 0 01-.037 1.372l.122.178.217-.11-.047.357.388.565-.482.148-.089.67v.05a2.144 2.144 0 01.005.289 1.018 1.018 0 010 .241l.086.227.146.021v3.232l1.046 2.492-.983-.651.272.657-.519.11-.034.065a1.877 1.877 0 01.025.315v.077l.387 1.5-.341-.083v.02l.142.029v.583l.083.357h-.083v.443l.023.113-.023-.007v.5l-.2-.022-.007.062h-.036a2.111 2.111 0 01.029 1.111c-.011.062-.026.145-.029.183l.178 1.135-.228-.012a1.055 1.055 0 01-.241.352 1.41 1.41 0 01-.341.416l-1.426 1.236zm-2.77-29.986v.013a.019.019 0 00-.016-.005zm-2.443 32.894a.255.255 0 01.043.022.642.642 0 00-.03-.071l-.062.01zm12.4-18.529v-.015a.086.086 0 01-.021.032c-.002-.007.003-.007.01-.014zm.035 8.354l-.044.451c.059-.079.138-.182.152.023.168-.566-.143.115-.119-.471zm.085-1.4c.027.242.085 0 .119.01-.065-.15-.079-.188-.128-.007zm0-10.111l.139.024c-.031-.183-.065.002-.148-.024zm.24-3.3l.03.23.02.081zM60.373 5.48l.155.094c.074-.109-.023-.278-.165-.096zm-5.437 4.938a.364.364 0 00-.349.228c.122-.1.29-.158.339-.229zm-6.172 18.239l.239.15-.091-.094z" data-name="Path 4635" fill="#fff"/></svg>