<svg xmlns="http://www.w3.org/2000/svg" viewBox="0 0 15.002 24.001"><g data-name="-e-arrow right copy 2"><g data-name="-e-arrow right copy 2"><g data-name="Group 14"><path d="M.259 11.448L12.27.241a.852.852 0 011.185 0l1.29 1.2a.757.757 0 01.257.553.8.8 0 01-.257.553L4.616 11.998l10.129 9.451a.722.722 0 010 1.106l-1.29 1.2a.852.852 0 01-1.185 0L.259 12.548a.722.722 0 010-1.106z" data-name="Path 36" fill="#b7b7b7"/></g></g><path d="M12.271 23.76L.259 12.552a.72.72 0 010-1.1L12.271.244a.852.852 0 011.184 0l1.29 1.2a.758.758 0 01.257.556.8.8 0 01-.256.553L4.615 12l10.13 9.451a.724.724 0 010 1.1l-1.29 1.2a.848.848 0 01-1.184 0z" data-name="Color Overlay" fill="#fff" opacity=".98"/></g></svg>