<svg xmlns="http://www.w3.org/2000/svg" viewBox="0 0 15.001 24.001"><g data-name="-e-arrow right copy"><g data-name="-e-arrow right copy"><g data-name="Group 12"><path d="M14.744 12.553L2.733 23.76a.852.852 0 01-1.185 0l-1.29-1.2a.757.757 0 01-.257-.553.8.8 0 01.257-.553l10.129-9.451L.258 2.552a.722.722 0 010-1.106l1.29-1.2a.852.852 0 011.185 0l12.011 11.207a.722.722 0 010 1.106z" data-name="Path 34" fill="#b7b7b7"/></g></g><path d="M1.548 23.761l-1.29-1.2A.76.76 0 01.001 22a.8.8 0 01.257-.553l10.129-9.452L.258 2.544a.722.722 0 010-1.105l1.29-1.2a.849.849 0 011.184 0l12.012 11.208a.722.722 0 010 1.105L2.732 23.76a.852.852 0 01-1.184 0z" data-name="Color Overlay" fill="#fff" opacity=".98"/></g></svg>