<svg xmlns="http://www.w3.org/2000/svg" viewBox="0 0 61 61">
    <g id="Group_713" data-name="Group 713" transform="translate(-644 -555)">
        <path id="Path_4569" d="M-1034.143 4448.351a1.984 1.984 0 0 0-.227-.3c-.682-.515-1.376-1.013-2.039-1.553a21.263 21.263 0 0 1-1.693-1.538 44.354 44.354 0 0 1-1.887-2.058 1.174 1.174 0 0 0-.85-.482c-.165-.009-.272-.007-.361.166a.344.344 0 0 1-.621.023c-.037-.052-.07-.106-.13-.2a2.081 2.081 0 0 0 .166 1.162 1.387 1.387 0 0 1-.229-.073c-.153-.086-.3-.185-.453-.272a.4.4 0 0 0-.5.105.3.3 0 0 0-.023.387 5.043 5.043 0 0 0 .391.662 15.172 15.172 0 0 0 2.965 2.965c.125.1.226.225.342.333.2.188.409.372.613.558l-.025.074h-1.093l.142.16c-.281.028-.542.063-.8.079a6.1 6.1 0 0 1-1.283.042 8.486 8.486 0 0 0-2.051-.026 2.466 2.466 0 0 0-.481.14 1.1 1.1 0 0 1-.289.078c-.43 0-.861-.032-1.29-.022-.708.018-1.415.059-2.122.087-.31.014-.62.029-.93.032a.885.885 0 0 1-.253-.063c-.05-.016-.1-.058-.147-.059-.065 0-.131.039-.2.037-.66-.017-1.319-.043-1.979-.056a14.4 14.4 0 0 1-2.641-.154c-.078-.016-.171.053-.259.08a3.69 3.69 0 0 1-.648.187 5.478 5.478 0 0 1-.7-.033c-.348-.007-.7 0-1.045 0-1.308-.02-2.616-.045-3.923-.064a1.121 1.121 0 0 0-.3.045 2.1 2.1 0 0 1-.423.132 24.459 24.459 0 0 0-2.783.132c-.536.09-1.089.073-1.633.109-.076 0-.156 0-.235.006a4.552 4.552 0 0 1-.153.429 3.682 3.682 0 0 0-.025.469c.065.008.131.017.2.028a.5.5 0 0 1 .328.229.492.492 0 0 0 .479.338c.411.007.822.011 1.234.014a.3.3 0 0 1 .3.164.654.654 0 0 0 .531.3c-.033-.04-.065-.075-.093-.114-.138-.19-.1-.292.125-.323a1.048 1.048 0 0 1 .141-.008c.661 0 1.321 0 1.981.011 2.386.05 4.773.106 7.159.157.213 0 .427-.018.641-.028v-.07c-.11-.01-.219-.024-.329-.028-.343-.015-.687-.019-1.03-.042-.073 0-.142-.068-.213-.1l.021-.081c.13-.018.26-.041.39-.052a11.633 11.633 0 0 0 1.761-.146 5.453 5.453 0 0 1 1.506.041c.234.015.465.073.7.11v.066a15.733 15.733 0 0 1-2.492.286c.192.033.385.04.577.057a18.217 18.217 0 0 1 2.11-.057.138.138 0 0 0 .059-.011l.716-.157a.442.442 0 0 1 .319-.317.338.338 0 0 1-.015-.132c0-.053-.1-.123-.17-.165a1.188 1.188 0 0 0-.224-.086l.019-.071 1.154.169-.05.216a11.37 11.37 0 0 1 1.264.028h.218a.617.617 0 0 1 .185.033l.42.035a.454.454 0 0 0 .048-.118.183.183 0 0 1 .23-.16q1.36.1 2.721.188v.086l-.505.042a.535.535 0 0 1 .13.138l3.589-.185c-.072.1-.108.154-.153.2q-.553.587-1.11 1.17c-.612.643-1.235 1.273-1.831 1.931a8.428 8.428 0 0 0-.668.92.545.545 0 0 0-.034.222c-.018.155-.027.312-.056.463s-.076.29-.115.435h.283a2.96 2.96 0 0 0 .36-.181 1.922 1.922 0 0 1 1.076-.518.511.511 0 0 0 .244-.092c.383-.233.758-.482 1.146-.7a2.779 2.779 0 0 1 .518-.192 1.27 1.27 0 0 0 .266-.072c.172-.107.326-.243.5-.354.864-.566 1.732-1.126 2.6-1.695.276-.182.539-.382.807-.576.1-.074.2-.148.319-.088a8.5 8.5 0 0 1 .651-.594 11.357 11.357 0 0 1 1.181-1.4l.014-.013a2.5 2.5 0 0 0 .1-.477.628.628 0 0 0-.128-.4zm-7.087-4.387a.808.808 0 0 1 .542.449.837.837 0 0 1-.542-.449zm-16.252 6.556v-.037h.722v.037zm1.1-.021c.288-.067.6-.155.91-.207a4.044 4.044 0 0 1 .616-.006 3.053 3.053 0 0 1-1.527.214zm5.982-.133a2.142 2.142 0 0 1-1.053-.258 4.938 4.938 0 0 1 1.751.035.751.751 0 0 1-.698.223zm6.809-.321l-2.446-.15v-.076a12 12 0 0 1 2.446.153c.002.028 0 .049-.001.073zm4.765-1.218v.061h-.515v-.061zm-1.91 3.333a2.828 2.828 0 0 1 .26-.326c.35-.328.708-.645 1.063-.967a.269.269 0 0 0 .053-.063c.048-.082.091-.166.14-.247.009-.015.034-.022.054-.026.17-.038.34-.074.537-.116a9.119 9.119 0 0 1-2.109 1.745zm3.746-3.847c.009-.129.079-.156.176-.085a.546.546 0 0 1 .194.476.485.485 0 0 1-.372-.391z" class="cls-2" data-name="Path 4569" transform="rotate(90.97 1710.68 3366.563)"/>
    </g>
</svg>
