<svg xmlns="http://www.w3.org/2000/svg" width="40.898" height="44.421" viewBox="0 0 40.898 44.421"><g data-name="Group 323" transform="translate(0 1)"><g data-name="Group 108"><path d="M40.898 34.822a9.568 9.568 0 01-.293 2.048 11.274 11.274 0 01-.609 1.988q-.612 1.456-3.545 3.08a11.253 11.253 0 01-5.4 1.482 11.079 11.079 0 01-1.524-.1 12.9 12.9 0 01-1.671-.364c-.621-.175-1.083-.315-1.381-.418s-.837-.306-1.611-.6-1.246-.462-1.425-.52a26.27 26.27 0 01-5.081-2.415 42.955 42.955 0 01-7.683-6.258 43.082 43.082 0 01-6.26-7.682 26.442 26.442 0 01-2.413-5.084c-.057-.175-.23-.648-.522-1.422s-.487-1.31-.6-1.614-.243-.758-.419-1.378a12.557 12.557 0 01-.363-1.671 11.137 11.137 0 01-.1-1.523 11.278 11.278 0 011.479-5.4q1.629-2.933 3.082-3.544a11.044 11.044 0 011.989-.613 9.688 9.688 0 012.045-.29 1.632 1.632 0 01.61.088q.526.172 1.54 2.21.32.55.872 1.564t1.017 1.849c.309.552.61 1.069.9 1.551q.09.119.509.73a8.123 8.123 0 01.629 1.028 1.959 1.959 0 01.2.829 2.42 2.42 0 01-.831 1.452 14.327 14.327 0 01-1.8 1.6 18.032 18.032 0 00-1.8 1.537 2.233 2.233 0 00-.826 1.34 1.952 1.952 0 00.145.654c.1.26.181.457.249.593s.2.369.405.7.317.511.334.552a28.825 28.825 0 0011.88 11.881c.041.016.225.129.552.331s.56.339.7.407a5.888 5.888 0 00.594.246 1.963 1.963 0 00.654.148 2.223 2.223 0 001.337-.829 17.767 17.767 0 001.54-1.8 14.513 14.513 0 011.6-1.8 2.411 2.411 0 011.452-.829 1.944 1.944 0 01.826.2 8.256 8.256 0 011.031.626c.407.282.651.451.727.509.482.287 1 .591 1.554.9s1.165.648 1.846 1.015 1.2.662 1.567.875q2.031 1.017 2.21 1.537a1.643 1.643 0 01.082.604z" data-name="Path 22" /></g><circle cx="5.758" cy="5.758" data-name="Ellipse 22" transform="translate(25.316)" fill="none" stroke="#bcc3c2" stroke-miterlimit="10" stroke-width="2" r="5.758"/></g></svg>