<svg id="Layer_1" data-name="Layer 1" xmlns="http://www.w3.org/2000/svg" viewBox="0 0 43 43"><defs><style>.polhawn3{fill:#fff}</style><linearGradient id="linear-gradient" x1="21.47" y1="1.5" x2="21.47" y2="43.45" gradientTransform="matrix(1 0 0 -1 0 44)" gradientUnits="userSpaceOnUse"><stop offset=".01" stop-color="#009dd2"/><stop offset=".63" stop-color="#146e9a"/><stop offset=".99" stop-color="#205177"/></linearGradient><clipPath id="clip-path"><circle cx="21.47" cy="21.53" r="20.97" fill="none"/></clipPath></defs><circle cx="21.47" cy="21.53" r="20.97" fill="url(#linear-gradient)"/><path class="polhawn3" d="M36.76 15.56a20.18 20.18 0 0 0-7.06-4.18l-.08-.05.11-.26a8.24 8.24 0 0 0 .75-2.91v-.57l-.54-.14a2.57 2.57 0 0 0-.83-.07 3.76 3.76 0 0 0-2.37 1.21l-.53.51.55.51a1 1 0 0 0 .47.24c-.06.22-.12.45-.19.65a33.2 33.2 0 0 0-11.6-1.28c-3.93.26-13.11 1.66-13.3 9.08a8.18 8.18 0 0 0 2 5.55 5.61 5.61 0 0 0 4.15 1.7 4.19 4.19 0 0 0 1.11-.21l2.12-.72-2.2-.62a3.75 3.75 0 0 0-1.1-.16 2.62 2.62 0 0 1-.56 0 3.37 3.37 0 0 1-1.51-1.2 7.57 7.57 0 0 1-1.45-4.4c.13-3.6 3.15-5.92 9-6.89a23.61 23.61 0 0 1 2.39-.27 27 27 0 0 1 10.21 1.4c-.72 2-1.72 4.09-2.66 6.32-1.17 2.69-2.38 5.46-3.33 8.07A16.62 16.62 0 0 0 19.06 33a6.49 6.49 0 0 0 1.48 4.53 3.52 3.52 0 0 0 2.35 1h.17a2.43 2.43 0 0 0 1.06-.32L26.35 37H23.8c-.93 0-1.84-.33-2.18-2.59a13.59 13.59 0 0 1 .77-6c.18-.59.38-1.2.59-1.79l1.11.36a10.8 10.8 0 0 0 4 .46c3.81-.26 7.78-2.14 9.43-4.49a6.41 6.41 0 0 0 1.13-2.56 5.68 5.68 0 0 0-1.89-4.83zm-13.7 10.77c1-2.78 2.31-5.5 3.58-8.14.81-1.69 1.57-3.27 2.23-4.83l.16.07a24.83 24.83 0 0 1 3.66 1.89 7.43 7.43 0 0 1 3.1 3.48c.62 1.95-.74 3.54-1.61 4.33a10.55 10.55 0 0 1-6.13 2.56 7.54 7.54 0 0 1-2-.13l-.27-.06a3.16 3.16 0 0 0-1-.14 1.66 1.66 0 0 0-.93.35z"/><g opacity=".4"><g opacity=".53" clip-path="url(#clip-path)"><path class="polhawn3" d="M3.86 23.6a.2.2 0 0 0 0-.11.2.2 0 0 1 0 .11zM4.23 31.72a14.46 14.46 0 0 1-1.78-1.33c.08.18.17.35.25.53a10.18 10.18 0 0 1 1 1.45 5.48 5.48 0 0 1 .4.85c.35.35.7.7 1 1.06v-.56c.34.15.56.62.68 1.33l.09.13.13-.12c-.13-.92-.52-1.09-.7-1.89.79.2.83 2 1.19 2.37a.66.66 0 0 1-.12.27l.1.14a16.43 16.43 0 0 0 5 .21c.06-.28.14-.46.32-.31 0-.9.54-1 1-1.15.09.52.36.65.67.64v.46c3-1 4.72-4.57 4.72-4.57-1.13 1.19-8.1 4.18-13.95.49zM42.05 18.73l-.41-.08-.88-1.09h1a9.42 9.42 0 0 0-.41-1.12 2.29 2.29 0 0 1-.65-.55c.2.09.31.07.37 0a7.74 7.74 0 0 0-2.17-2.62 4.81 4.81 0 0 0 .05.8 4.37 4.37 0 0 1-.48-1.16 7.5 7.5 0 0 0-4.6-1.06h-.29a4.69 4.69 0 0 0-.07 1.4c.25-.12.27-.59.58-.59a6.42 6.42 0 0 0 0 1.24c.24-.55.42-.05.51.76A7 7 0 0 1 40.29 20c1.53 6.35-3 7.22-6.25 7.47-2.46.19-13.18-6.87-18-10.09v.45h-.24a.83.83 0 0 1 0-.6c-1.28-.83-2.09-1.41-2.13-1.41-.21 1-1.35.5-1.62-.08-.33.53-.41.56-1 .61.23-.42.07-.51-.2-1.21.19-.29.7 0 1.11-.14-5.28-2.32-8.32-.3-8.32-.3a16.8 16.8 0 0 0-2.34 1.52 7.53 7.53 0 0 1-.12 1.35L1 18.7a6.71 6.71 0 0 1 3.3-2.36c0-.07-.07-.09-.09-.17a1.38 1.38 0 0 0 .24.14 7.21 7.21 0 0 1 1.73-.23c.16-.45.31-.95.8-.85-.06.73-.09.71.17.94a11.67 11.67 0 0 1 4.32 1.55l3.75 2.56 8.89 5.13.32-.92 1.25-.49 1.33.55-.63.17.06.78.2.07.67.23.62.09c-.17-.11-.28-.38-.51-.42 0-.65.57-.27.56.43l.52.07v.52l-.34.53-1.56.25 1 .83a10.37 10.37 0 0 0 6.46 2.07c-.28-.48-.58-.93-1-1-.23-.73.49 0 .27-.73.25.88.72.48 1 1.67.43-.13.68 0 .38-1.26.51 0 .08-.31 0-.71.28-.11.39.18.5.49a11.68 11.68 0 0 0-.15 1.45h.19c5.95-1.1 6.84-6.67 6.92-9.32 0-.68-.06-1.33-.12-2.03zm-3-3.41c0-.6.07.49.28.16a3.69 3.69 0 0 0 .07.87c-.21.02-.14-.81-.31-1.03zm-35 .16a4.14 4.14 0 0 0 0-.72 2.48 2.48 0 0 1 .44 1c-.16.07-.25-.21-.44-.28zm1.59.57c-.29-.3-.29-1.3-.47-1.89.52-.06.77.52 1.1.95-.07.56-.6.38-.63.94zm5.18.09c-.17-.06-.21-.49-.48-.31-.08-.49.49.1.42-.39.24 0 .07.56.06.7zM42 17.56h-.18c.1.29.18.58.25.87-.07-.29-.07-.63-.07-.87z"/><path class="polhawn3" d="M4.09 23.14a2.29 2.29 0 0 1 0 .37c3.95-2.16 6.22.57 9.86 3.33a61.53 61.53 0 0 0 9.4 5.77 3.12 3.12 0 0 1 0-1.14c.23-.15.21.34.39.32a1.53 1.53 0 0 1-.15.92c.25.12.52.27.79.39a1.61 1.61 0 0 0 0-.31c.19 0 .27.2.29.43A37.17 37.17 0 0 0 32.73 36a11.35 11.35 0 0 0 1.93.17c0-.38.31-.11.41-.22v.29a9.82 9.82 0 0 0 2-.27 26.08 26.08 0 0 0 1.49-2.27c-3.24 1-5.62-.75-10.08-2C22.45 30 17.1 24.8 11.7 21.22c-4.54-3-6.91.61-7.61 1.92zm29.56 10.62a.36.36 0 0 0 .29.16c.07.7-.29.72-.14 1.59-.49-.29-.15-1.15-.15-1.75zm-9.42-3.6a2.12 2.12 0 0 1 .09 1.22c-.19 0-.16-.47-.4-.32 0-.43 0-.91.33-.9zm-1-.45v.53c-.26.61-.45-.29-.64-.47 0-.38.53-.22.62-.06zm-2-.36c-.06.26-.2.4-.44.39-.09-.6.28-.65.45-.39zm-9.68-6.05c.26-.17.21.44.39.49 0 .39-.47.06-.38-.49zM33.8 14.6h.44a.51.51 0 0 0-.26-.47c-.18-.13-.13.32-.18.47zM35.26 9.51a2.36 2.36 0 0 0 0 .65.82.82 0 0 0 0-.65zM12.54 15.19a.44.44 0 0 0-.09.29c.11.11.31 0 .53-.07a2.58 2.58 0 0 0-.44-.22zM29.3 12.91a1 1 0 0 1 0 .25c-.13.09-.18 0-.23-.13a8.78 8.78 0 0 0-4.49 4.47 13.34 13.34 0 0 1 9.07-2.9c0-.22 0-.6-.36-.36.52-.62-.41-2 .35-2.31a13.23 13.23 0 0 0-4.34.98zm-1.7 2.33c0-.2-.05-.3-.12-.34.09-.52.41-.3.47.31z"/></g></g></svg>