<svg xmlns="http://www.w3.org/2000/svg" viewBox="0 0 42.109 42.042">
    <g id="T03eqR" transform="translate(-490.621 -950.406)">
        <g id="Group_642" data-name="Group 642" transform="translate(490.621 950.406)">
            <path id="Path_4521" d="M523.442 966.162a16.691 16.691 0 0 1-2.889 9.953.577.577 0 0 0 .084.9q5.681 5.647 11.333 11.324a2.363 2.363 0 1 1-3.37 3.3q-4.147-4.14-8.288-8.285c-1.026-1.025-2.059-2.044-3.072-3.082a.456.456 0 0 0-.709-.064 16.072 16.072 0 0 1-10.488 3.005 15.77 15.77 0 0 1-9.713-3.953 16.03 16.03 0 0 1-5.677-13.532 16.418 16.418 0 0 1 31.072-6.245 15.424 15.424 0 0 1 1.717 6.679zm-16.381-12.717a13.387 13.387 0 1 0 13.352 13.455 13.355 13.355 0 0 0-13.352-13.455z" class="cls-1" data-name="Path 4521" transform="translate(-490.621 -950.406)"/>
        </g>
    </g>
</svg>
