<svg id="Layer_1" data-name="Layer 1" xmlns="http://www.w3.org/2000/svg" viewBox="0 0 16 444"><defs><style>.cls-1{fill:#0d80a9}</style></defs><path class="cls-1" d="M3.75 137.19c0 .22 0 .5-.06.81zM3.43 215.56c0-.59-.05-.84-.1-.87.03.55.06 1 .1.87zM2.92 228.8v-.78a2.67 2.67 0 0 0 0 .78zM3.69 138l-.15 2.07c.16.15.12-1.07.15-2.07zM3.31 103.81v-.63a3.52 3.52 0 0 0-.19-.52zM3.24 77.57c0 .59.38.8.55 1a3.59 3.59 0 0 1-.27-1.3c-.07.02-.16.1-.28.3zM3.91 35.55v-.32zM3.92 35.66zM3.94 36v-.3zM3.23 122.59a.55.55 0 0 0-.15.24s.1-.1.15-.24zM4.35 4.1h.39a.57.57 0 0 0 .08-.24zM2.41 253v-.1c-.04-.61-.03-.25 0 .1zM11.64 409.51c-.36 2.52-.46-4.1-.85-.31.15-.35.62 3.45.85.31zM2.82 308.3s-.09.15-.17.57a2.17 2.17 0 0 0 .17-.57zM3.21 267.27v1a10.31 10.31 0 0 0 0-1zM3.18 330.92a6.09 6.09 0 0 0 0 1.06v-.23a3.23 3.23 0 0 1 0-.83zM3.18 330.92v-.45a3.91 3.91 0 0 0 0 .45zM3.21 353c0-.12.06-.28.08-.41s0-.49 0-.72zM3.51 334.34zM2.57 251.56v-.89c-.03.33-.02.66 0 .89z"/><path class="cls-1" d="M11.69 405.29c.06-4 .36-1.66.59-4.28-.31.54-.44-1.38-.32-3.63l-.4 3.17c-.46-5.52.72-4.77.27-10.35l.27 1.8c-.16-2.86 0-10.55-.69-13.35.1-.51.34-1.17.4.08.1-6.83-.74-15.21-.31-20.52l.21.52a16.54 16.54 0 0 1-.18-3.82c.08.08.21.51.22-.08a35 35 0 0 1-.25-5.07l.24 1.44c.28-6.67-.58-10.23-.72-15.82.62 0 .82-5.23.92-7.85l.09.09c.07-7.76-.52-13.19-.76-20.38.67-4.46.28-15.11.66-22.29-.11 1.1-.48-.17-.55-1.45.13-1.68-.43-4.65.14-4.39v.6c.56-1.26.41-4.72.43-7.42l-.75-.45c1.09-7.06-.4-18.51.57-22.36-.18-1.71-.18-3.82-.37-5.51l.4.09c.11-4.72.16-7.08.06-12.92l.29 1.19c0-3.29-1.16-4.16-1.18-7.2l.6-.91c0-5.74.51-11.56 0-17.24.09.1.26.27.28 1.2 0-2.62.38-10-.33-9.55.4-.63 0-6-.26-9l.39.48a28 28 0 0 1-.78-6.36c.05-.87.31-.76.21.39.21-2.89-.37-2.25-.16-5.75l.25 1.3a13.66 13.66 0 0 0-.4-4.37c-.15-1.87.1-5.63.46-6.07a9.66 9.66 0 0 1-.4-3.78c.13-.24.21.4.25.72.27-5-.45-7.39-.07-10.81.13-.07.2-.29.24-.57 0 3.62 0 6.59-.06 6.82.36 0 .43-3.17.93-.65a69.3 69.3 0 0 1-.7-10 2 2 0 0 1 .12-.41v.32a12.43 12.43 0 0 0 0-2c.06-1 .1-1.63.1-2.58.31-.37.17-3.65.18-5.24-.39.13-.33-1.9-.65-.06a11 11 0 0 1 .05 1.41c0 .24 0 .52.05.68v-.11 4a14.3 14.3 0 0 1-.15-4.33c-.26-.82-.52-1.71-.64-2.22.55-2.18.85-6.37 1.19-7-.22-4.86-.15-11.44-.89-14.49a4 4 0 0 1 .33-2.1c.07.79.06 1.74.17 2.17-.19-2.76-.08-8.18-.6-8.83.24-3.48.48 2 .4-2.83l.16.65c.83-9.41-1.33-15.29-.26-25.71a4.31 4.31 0 0 1-.19 1.23c.47-11.89-.44-24.49.31-36.22a21.21 21.21 0 0 0-.44-5.73l.43-.72-.49-3.48c-.36-4.93 1-8.54.36-14.78l-.28.8c.05-2.24-.17-7.1.16-6.73a3 3 0 0 1-.15-1.61l.22-.07-.38-5.51c.08-2.09.29-2 .5-2s.2-.12.27-.56v-.51-.89c0-.7.05-1.61.05-2.78H11c-.89 0-2 .08-3 .15l-.59.06L6.9 3l-.9.1c-1.16.19-1.95.38-1.55.46.87 0 2.22.15 2.28.39L5.21 4H4.74l-.08.14h-.31v.44a.41.41 0 0 0 0 .56v24L4.24 29l.11.75V33a2.14 2.14 0 0 1-.19-1c-.29 2.35.2 2.08-.12 4.1 0 .22-.08.12-.1-.09l.17 2.3c-.12-.45-.41.38-.33-1-.34 4.13.44 6.65 0 8.2v-.34c.15 4.28.32 2.47.61 3.08v2.67l-.73 2 .43.57c0 .59 0 1.75-.22 1.54.29 2.19.19-.38.46.9-.39 2.84.19 7.83-.5 8.47.33 1 .25-2.72.48.32-.74.86.13 3.5-.21 6.1-.38-.8-.18-3.26-.52-.66.64 1.57-.14 5 0 7.24.51.11.22 4.76.39 8.44-.18-.24-.29 6.91-.47 10.33L3.35 96c.52.66.42 4.18.53 6.75-.31-.1-.43-.56-.57-2v2.41a11.71 11.71 0 0 1 .31 2.89l-.38-.61c0 3.21.45 6.47.19 10.6.25.16.62-1.4.92-1.07v2.24c-.13-.08-.24-.32-.28-.91a10.72 10.72 0 0 1 .08 2.09l-.33-1.74c-.14 1.88.28 1 .25 2.49-.28 0-.2 1.11-.42.89a14.81 14.81 0 0 0 0-1.89 25.14 25.14 0 0 1-.42 4.43c.15-.15.37 0 .41 1.24 0 3.21-.34 1.1-.48 3 .19.78 0 2.83.41 2.88a3.17 3.17 0 0 1-.31 1.48c.18 1.66.05 7.76.5 5.89v-.42.27c.42 5.44-.23 11.31 0 16.72h-.15c.16 3.23.09 7.18.39 9.49 0 1-.25 2.25-.42 1.84a39 39 0 0 1 0 6.31c-.24-2.48-.22.85-.18-2.54a36.38 36.38 0 0 0 0 7.37c-.36-1.17-.45 2.41-.34 3.93l.25-2.24c.05 1.71 0 3.21 0 4.73l-.47-.82c-.57 6.56 1 11.82 0 16.82.33 1.73.23-3.56.61-2-.06 3-.73 6.16-.74 7.1-.26 4.13.69 3.86.51 8.18.17-.55.62-1.07.78 2.16-.07 3-.71 3.71-.84 1.8 0-.72 0-1.07.09-1-.06-1-.13-2.25-.31-1.06l.17.39c-.17 1.5-.16 5.65-.43 4.68.16 2.28.27 1 .36-.72-.24 3.88 0 6.05-.17 10 .09-.63.29-1.22.29-.59-.21 5.85.32 2.58.39 6.54-.26 2.25-.61-.81-.4 3.18-.17 2.43-.44.51-.58-.45a59 59 0 0 1-.27 8.86l-.13-1.91c.08 1.14.07 2.08.07 3l.34-1.09c-.06 1.12-.06 2.07-.2 2 .22 1.16.56-.88.86 1.41-.17 1.5.18 4.57-.27 5.08.14-4.27-.34-.37-.48-2.57v1.94c0 .17-.09-.16-.12-.47-.4 4.51.5 2.08.49 6.75-.25-.6-.47 1.08-.42 1.84 0-1.88.42-.9.61.83a37.8 37.8 0 0 0 .12 4.82l.1-1.79a20.33 20.33 0 0 1 .29 4.2c-.19.17-.13-1.9-.22-1.16.44 2.32-.45 5.24-.16 8.48-.17 1.49-.47.14-.58 1.46.32 3.62-.35 3.92-.08 7.73.34-1.1.26-1.29.58 1.39l-.23-6.26.49 4c0-1.89-.21-4-.16-5.12.28 1.91.19 1.72.47.81-.5 2.59.3 5.13 0 8.12l-.84-.09c-.37 4.49.43 8 .22 13.81l.15-1.8c.33.78 0 3.6.18 5.49-.28-.17-.38 1-.56 1.81.21-.1 0 4.27.54 4.8L3 315.71c-.15 4.71.8 5.37.7 9.9-.3-1.36-.5.7-.71-2.34 0 1.52-.06 2.88.14 2.9-.18.88.37 4.19.11 5.58a6.83 6.83 0 0 1 .39 2.55c0 .11-.08.08-.11 0 .12.34.18 2.49.47 1.12-.87 4.66.06 13-.69 17.08.1 3.3.19 7.27.21 10.27-.09-.19-.14 0-.11-.58-.26 4.13.8 2.54.51 7.24-.45 2.41-.25-2.49-.42-1-.92.65.13 5.67-.41 8.83v-.76c-.31 2.42.34 5.9.28 9.85 0 0-.08-.19-.14 0A109.74 109.74 0 0 1 3.91 398c-.36-1.18-.19-1.73-.55-1 .05 1.7.58-.5.69 2.9-.2 1.1-.37 3.56-.76 3.88v-3.21c-.51 1.65 0 4.16-.07 5.85L3 406.2c.07 4.92.62 5 .58 10.27l.17-.54c.55 2.89-.31 2.42.1 5.3l-.56.87c.14 1.91.54 6.68.65 10.1-.42-1.94-.63-5.94-.87-8.42a57.37 57.37 0 0 0 .31 7.41 14.63 14.63 0 0 1-.1-2.47 35.67 35.67 0 0 1 .49 4c0 .76.09 1.57.12 2.42V438c-.3-.13-.45.79-.54 2.51.48 0 1.05.06 1.68.07h1.9l4.19.05V436.59a10.14 10.14 0 0 1 .3-2c-.4-6.66.17-13.21.11-21-.84 2.75 0-2.27-.89-1.79a17.46 17.46 0 0 1 0-2.65v.38-.4l.51-5.46c.4-1.23.34 1.78.54 1.62zm0-261a3.45 3.45 0 0 1-.11 1.56c0-.5 0-1.08-.05-1.85v-.12a1.3 1.3 0 0 1 .17.44zM4.28 37a1.44 1.44 0 0 1 .07-.31V38c-.03-.32-.05-.66-.07-1zM11.15 161.63z"/><path class="cls-1" d="M11.11 141.07V141a.22.22 0 0 0 0 .07zM11.17 142.42v-.43q-.06.31-.09.63c0 .13.08.26.12.37-.02-.19-.02-.39-.03-.57zM3.75 137.19a1.72 1.72 0 0 1 0-.29v.15zM3.66 60.8l.12-4.12c-.16.72-.36 1.67-.4-.21-.46 5.19.34-1.07.28 4.33zM3.44 73.57c-.07-2.21-.22 0-.31-.09.14 1.4.18 1.74.31.09zM3.44 165.87l-.36-.22c.05 1.7.14.01.36.22zM2.73 193.94l-.05-.75.13 2.85-.08-2.1zM2.86 349l.45-.51c-.08-1.21-.58-1.49-.45.51zM3.31 415.87a10.44 10.44 0 0 0-.14 3.77c.03-1.5.2-3 .14-3.77zM11.75 268.44l.15 1.35-.12-2.54-.03 1.19z"/></svg>