<svg id="Layer_1" data-name="Layer 1" xmlns="http://www.w3.org/2000/svg" viewBox="0 0 56 56"><defs><style>.cls-1{fill:#fff;}</style></defs><title>pinterest-icon</title><path class="cls-1" d="M28.1,55.79a27.44,27.44,0,0,1-7.92-1.16,23.12,23.12,0,0,0,2.84-6s.33-1.24,2-7.66c.95,1.85,3.78,3.48,6.79,3.48,9,0,15.08-8.17,15.08-19.14,0-8.25-7-16-17.69-16C15.94,9.37,9.25,18.88,9.25,26.8c0,4.8,1.82,9.08,5.7,10.68a1,1,0,0,0,1.38-.73c.15-.47.44-1.7.59-2.21a1.38,1.38,0,0,0-.4-1.56,8.1,8.1,0,0,1-1.86-5.49c0-7,5.27-13.36,13.73-13.36C35.88,14.13,40,18.7,40,24.84c0,8-3.56,14.82-8.87,14.82a4.32,4.32,0,0,1-4.39-5.37c.83-3.53,2.47-7.34,2.47-9.89,0-2.28-1.23-4.21-3.78-4.21-3,0-5.37,3.09-5.37,7.23a11.72,11.72,0,0,0,.9,4.43C17.93,44.78,17.39,47,17.39,47a24.09,24.09,0,0,0-.47,6.43A27.92,27.92,0,1,1,28.1,55.79Z"/></svg>