<svg data-name="Layer 1" xmlns="http://www.w3.org/2000/svg" viewBox="0 0 56 56"><path d="M56 45.5A10.5 10.5 0 0 1 45.48 56h-35A10.51 10.51 0 0 1 0 45.5v-35A10.51 10.51 0 0 1 10.49 0h35A10.5 10.5 0 0 1 56 10.5zM42.24 18.81a7.76 7.76 0 0 0 3.39-4.26 15.48 15.48 0 0 1-4.89 1.86A7.56 7.56 0 0 0 35.17 14a7.66 7.66 0 0 0-7.66 7.66 7.27 7.27 0 0 0 .18 1.75 21.75 21.75 0 0 1-15.82-8 7.77 7.77 0 0 0-1.06 3.87 7.53 7.53 0 0 0 3.32 6.38 9.15 9.15 0 0 1-3.64-.95v.07a7.79 7.79 0 0 0 6.3 7.51 6.19 6.19 0 0 1-1.86.3 9.78 9.78 0 0 1-1.42-.15 7.71 7.71 0 0 0 7.15 5.33A15.51 15.51 0 0 1 11.14 41a15.34 15.34 0 0 1-1.82-.11 21.82 21.82 0 0 0 11.74 3.42c14.07 0 21.8-11.66 21.8-21.8a8 8 0 0 0 0-1 14.67 14.67 0 0 0 3.83-4 16.11 16.11 0 0 1-4.45 1.3z" fill="#fff"/></svg>