<svg xmlns="http://www.w3.org/2000/svg" width="42.491" height="40.88" viewBox="0 0 42.491 40.88"><path d="M33.491 30.29c-.08.09-.2-.81-.05-.72l.11-.11c-.06-.06-.02.88-.06.83zm4.84-7.07c0-.19-.16-.08-.17.06-.01.26.17.06.17-.06zm-5.46 3.31c-.06-.06-.02-.11-.06-.17-.08.09-.2.19-.06.28zm-16.46 13.55a.188.188 0 00.34.11c-.12-.14-.23-.19-.34-.11zm1.51-3.76c-.13-.17-.26-.11-.39.06.13.16.26.22.39.05-.03-.04-.05-.08 0-.11zm3.77-5.35c-.05.11-.36.22-.22.34l.17-.17c.02-.05.1-.11.05-.17zm-8.15 7.82c-.11-.19-.32-.38 0-.56.13.08.26.42.4.17-.09-.22-.58-.65-.84-.39.07.13.21.26.17.39l-.23.23c.16.16.33.39.5.16zm-4.44-1.41a.45.45 0 01.5.62c-.28.04-.2-.41-.45-.22.27.34.62.5.73.73.11-.11.25.1.34.11s.19-.1.28-.06c.12.09.06.19.17.28.32-.04.64.29.96.28.19.26.38.08.56.34.15-.24.3-.13.45-.34-.25-.25-.29-.41-.45-.45-.19-.04-.33-.07-.34-.22-.09.07-.19.23-.28.17-.07-.05-.15-.17-.22-.11-.16.15-.41-.24-.51-.28-.05-.02-.15.04-.22 0-.11-.06.03-.13-.11-.11a.915.915 0 01-.28-.17.474.474 0 01-.17-.28c-.13.1-.26-.04-.39-.05.05-.06.02-.11.05-.17.21-.25.41.07.62-.06-.23-.14-.24-.39-.39-.51-.09-.07-.15.02-.23 0s-.14-.19-.22-.11c-.2.01-.1-.25-.34-.11.25.24-.14.48-.06.72zm2.81.68a.419.419 0 00-.51-.28c.01.17.33.56.51.28zm13.04-15.4l.11.11c.29.08.11-.45-.11-.11zM8.481 36.99c-.09-.04-.13-.19-.22-.22-.04-.02-.17.08-.23 0l-.34.33c.3.14.6.23.9.34a.479.479 0 00.22-.34c-.06-.13-.22-.06-.33-.11zm-1.29-1.07c.12-.08.06-.23.17-.17-.17.25.5.2.17.39.21.2.42.16.56.22-.02-.01-.05.08 0 .11a.191.191 0 01.11 0c.03.02.12.01.11 0 .02.01.06.13 0 .11.16.04.28.1.45-.11a1.132 1.132 0 00-.39-.28c-.26-.16-.22-.17-.28-.28-.15-.25-.38-.1-.5-.28-.18-.19-.06-.37-.34-.56-.19.05-.08.23-.11.34-.03.09-.09.16-.11.22-.01.04.03.05 0 .11s-.12.11-.06.17c.07-.06.14.06.22.01zm4.77-7.93a1.129 1.129 0 00.11.22.419.419 0 00.11.22c.38.23.7-.27.95-.62l-.34-.34c.21-.11.07-.23.23-.34-.24-.17-.21-.34-.28-.51a.337.337 0 01-.34.11c.1-.23-.03-.45-.22-.67a.757.757 0 00-.45 0c-.03 0-.09-.12-.11-.11-.27.08-.27.32-.45.56.13.21.07.15.28.28a.694.694 0 000 .45c.08-.06.15-.12.22 0-.08.13-.22.26-.06.4.09.09.19-.13.28-.06-.09.11-.34.22-.11.34.21-.07.07-.4.28-.28.19.14-.09.27-.1.35zm11.02-11.57c.05.23.36-.03.22-.11-.04.03-.08.06-.11 0zm-7.14 6.46l-.11-.11-.11.11.11.11zm2.03-6.86c-.13.08-.26.02-.39.17.09.18.47 0 .39-.17zm-.85.28c.08 0 .23-.26.17-.28-.18-.03-.22.28-.17.28zm-11.24 9.78c-.11.19-.05.37-.11.56-.03.06-.11.11-.06.17.12-.13.25-.23.39-.39.11-.12.22-.34.28-.28-.05.07-.02.15 0 .23a.474.474 0 01.28-.17.4.4 0 010-.34c-.19-.07-.37-.3-.56-.34a.723.723 0 00-.34-.56c-.24.12-.13.12-.34.34.21.26-.11.53.11.79.13 0 .24-.2.35-.01zm.17-.05l.11-.11.11.11-.11.11zm10.12-11.81a.392.392 0 00-.17.39c.08-.13.42-.26.17-.39zM5.161 25.35c.15-.13.09-.26.17-.39-.31-.18-.18-.19-.34-.45-.31.19-.08.38-.22.56.25.09.2.24.39.28zm4.61-6.29c.15-.05.59-.03.56-.34-.22.04-.22-.05-.34-.23.02-.15.16-.3.11-.45-.15.24-.3.13-.45.34.21.08-.07.2-.06.28s.21.14.23.22c.02.06-.13.13-.05.18zm-4.44 4.44c-.13-.16-.26-.03-.39.06.12.09.06.19.17.28a.581.581 0 00.22-.34zm.06-1.52c-.19.02-.37-.09-.56 0 .06.19-.18.38-.11.56.18 0 .15.25.45.23.04.11-.21.23-.11.34a1.389 1.389 0 00.68-.45.558.558 0 00-.23-.34c-.12-.11.07-.23-.12-.34zm-.34 1.24c-.11.1-.23-.15-.34 0a.353.353 0 01.11.22c.06-.16.36-.02.23-.22zm3.6-4.27a.474.474 0 01.17.28c.15.01.36-.19.23-.34-.14.16-.27-.18-.4.06zm1.29-1.07c.29-.26.33-.52.67-.79a.4.4 0 01.06-.51c-.24-.11-.05-.23-.11-.34-.05.08-.12.05-.17.06s-.16-.02-.22 0c0-.3-.24-.1-.39-.28l-.45.45c.32.17.07.34.17.51.1-.06.16-.03.17-.17.07.06.15.12.22 0 .07-.07-.05-.15 0-.22a.568.568 0 01.28-.06c.11.13-.02.26-.17.39.14.15.09.3.11.45-.07-.06-.15.03-.22.11-.19-.04-.38-.19-.56 0 .23.13.08.26.17.39.14-.2.29-.01.44.01zm8.38-8.83c.09-.07.19 0 .28-.06-.07-.16-.4-.1-.28.06zm-7.99 7.08c.15-.09.3-.02.45-.22.11.13.22.13.34 0-.11-.09-.08-.19.06-.28l-.22-.23c-.21.1-.71.17-.73.51.23-.13.04.17.1.22zm-6.18 5.85a.331.331 0 00.22.11 2.195 2.195 0 00.45-.79c-.19-.17-.14-.34-.39-.51-.33.3-.02.6-.11.9-.15.09-.21.03-.23-.11-.23.13.11.26-.06.39-.23.1-.24.17-.17.39.25.02.27-.22.29-.38zm1.29-1.74l.11-.11-.22-.23-.11.11zm-4.55 4.21a.331.331 0 01-.22.11l.22.23a.352.352 0 00.11-.23zm-.45-.22c0 .12.24-.15.28-.17.1-.05.28.13.34 0-.13-.08-.05-.21-.17-.28-.28-.18-.89.08-.56.45.1-.06.11-.12.11 0zm11.3-11.07c-.06-.06-.02-.11-.06-.17-.08.07-.15.01-.22.11a.224.224 0 00.28.06zM.271 23.05c-.06.03-.11.02-.17-.06-.23.24-.03.47.23.45-.1-.13.04-.26-.06-.39zM22.421.79l.11-.11-.11-.11-.11.11zm-6.13 4.44c.12-.11.22.08.34-.11-.02-.2-.08-.07-.23-.22a.341.341 0 00-.11.33zm4.11-4.78c-.17.07-.34-.01-.5.17.12.33.55.05.5-.17zm-1.13.45l.11-.11-.11-.11-.11.11zm-.5.06c.25-.09.37-.28.17-.51-.15.12-.59 0-.56.34.12-.04.25.02.39.17zm-9.84 9.72c.04-.02.03-.13 0-.11.06-.04.13-.02.17-.06s.1.01.11 0c.15-.1.04-.17.17-.17.06 0 .17-.19.22-.22.09-.05.15-.02.23-.11a.681.681 0 00.22-.45c.03-.14.08-.22.11-.34 0-.35-.18.06-.34-.11-.05-.05 0-.27-.06-.28-.04-.02-.21.04-.27.05a.4.4 0 01-.11 0c-.08.03-.68.3-.45.45.11.19.22-.31.33-.11-.07.16-.17.6-.44.56 0-.27.18-.28-.12-.11-.17.1-.42.01-.39.17a5.3 5.3 0 00.5.84c.01-.07.12 0 .12 0zm-.06-.73l.22.22c-.1.14-.19.11-.28.17-.03-.13-.09-.26.06-.39zm2.93-2.47c-.13-.26-.08-.35-.39-.39-.23.19-.29.38-.11.56a.378.378 0 00.5-.17zm1.4-5.57c0 .27.19.02.34.23l.23-.22c-.12-.37-.51-.19-.79 0-.13-.03-.26-.09-.39.06-.01.21-.28.41-.06.62.25-.3.57-.34.67-.69zm10.51-.73c.12.11.21-.11.4.06.07.06.06-.01.11 0a1.984 1.984 0 01.84.51.751.751 0 01.45 0c.13.01.24-.25.34-.11.06.26.35.22.45.22s.14.1.23.11c.04.01.12-.06.17-.06a2.25 2.25 0 01.22.11c.06.03.04.16.11.23-.01-.01.08-.02.11 0 .23.14.21.03.39.06.07.08 0 .15.11.23.11-.23.22.02.34.11.15-.17.37.08.51.17.05.04.13.02.17.06.09.09 0 .17.17.17.23 0 .16.15.28.28.01.02.11-.03.17.06.03.04-.04.09.06.17.02.02.19-.03.23.11.26-.05.52.03.79 0-.08.1.1.18.17.28s.08.28.22.34c.22.02.52.28.62.28.25 0 .27.22.39.39.12-.09.23-.34.34-.11.11.08-.1.14-.11.22-.01.05.14.11.06.17l.28.28c.12.1.23-.15.34 0 .09.3.23.14.45.23.02.16-.1.4.17.39-.2.15-.14.3-.22.45.29.18.26.5.51.51-.07.22.13.45.22.67.32-.23.8.18.96.51.53-.01.87.73 1.12 1.01-.17.15-.31.3-.11.45.11.1.22-.15.34 0a.618.618 0 00.17.39c.14.15-.11.25.11.22.07-.01 0 .12 0 .11.06.22.1.33.28.39a.4.4 0 000 .34.381.381 0 01.34.11c.08.08-.03.16 0 .22.09.17.28.02.34.22l-.23.23c.35.38.24.75.56 1.12-.25.17.06.34.06.51-.06.06-.12.17 0 .11.02-.14.08-.2.22-.11.01.21.41.41.06.62.26.19.08.37.34.56-.02.17-.11.34.06.51.15.2.3-.04.45.23-.24.25-.34.18-.34.45.16.09.62.33.45.56-.09.06-.19.03-.28.17.09.17 0 .34-.06.51a.549.549 0 01.23.34c-.4.12-.37.66.06.96a2.46 2.46 0 01-.11.45 1.493 1.493 0 01.23.67c-.22.19-.04.38-.23.56.1.05.07.18.11.22.06.06-.01.07 0 .11.05.14.13.14.17.28-.35.3-.04.6-.45.9-.08.14-.44-.18-.34.11.19-.07.38.14.56.34-.06.06-.02.11-.06.17-.14.29-.56.26-.5.5.2.01.1-.25.34-.11-.06.07.03.15.11.22-.35.28-.13.56-.39.84-.06.03-.11.02-.17-.06a7.733 7.733 0 01-.39.96c.19.22.07.45 0 .67.11.14.16.28.11.34-.14.15.1.22 0 .34.01.15-.19.3-.33.45.17.18-.11.5-.17.62a6.982 6.982 0 01-.62.84c.03.19.15.52.06.62-.06.07 0 .05 0 .11a1.614 1.614 0 010 .22c-.01.11-.14.15-.17.28s.02.3 0 .45a.86.86 0 01-.17.5c-.17.07-.33 0-.5.17-.25.28-.22.56-.39.84-.29.07-.24.3-.4.28-.18-.02-.49.61-.45.56-.07.08-.14.01-.22.11a.191.191 0 010 .11c-.18.34-.47.24-.45.45 0 .02-.1.09-.11.11-.15.2-.2.21-.23.34a.949.949 0 01-.34.45c-.19-.12-.38-.09-.56-.22a.629.629 0 01-.39.39c.06.08.17.15.11.23l-.23.22c-.49.08-.97-.12-1.46.45-.42-.02-.71.31-1.01.67.23.33-.09.44-.34.67-.19.12-.38-.1-.56.11-.01.11.19.23 0 .34-.38.1-.75.57-1.12.79a.244.244 0 00-.22 0c-.06-.08-.03-.2-.17-.06-.26.17-.01.34-.17.51-.24.15-.13.3-.34.45-.12-.15.05-.3 0-.45a.213.213 0 01-.28-.06c.02-.13.15-.26.06-.39-.15.2-.3.02-.45 0-.24.4-.49.23-.73.4.09.38-.34.37-.56.56.25.13.41.08.28.39a.337.337 0 01-.34.11c-.33-.17.04-.34-.17-.51a1.311 1.311 0 00-.51.73c-.09.07-.19 0-.28.06-.09-.09-.19.13-.28.06-.21-.13.05-.26-.17-.39-.11.05-.22.36-.34.22-.34-.31.14-.32 0-.56-.47.15-.41.91-.95.84-.18-.25-.18-.28-.45-.34-.2.18.2.18 0 .45-.34-.19-.48.77-.9.45-.02-.26-.04-.2-.28-.39-.3.35-.6.26-.9.22a.554.554 0 00-.22-.34c-.23.1-.45.24-.68.11l-.28.28c-.32-.1-.64.12-.95-.28-.21.24-.41-.01-.62-.06-.23.19-.14.37-.11.56.09-.08.19-.2.28-.06.06.15-.13.21.11.23-.1.13.04.26.06.39l-.17.17c.21.16.41-.02.62-.05a.5.5 0 00.28.17.568.568 0 01.28-.06 4.291 4.291 0 00.79.11c.17-.19.34-.34.51-.28.16.11-.29.22 0 .34.19.17.38-.13.56-.11a.474.474 0 01.17.28c.19-.27.33-.24.45-.23a1.764 1.764 0 00.23 0c.16-.11.02-.22.22-.34.13.13.07.26.28.39.06-.03.11-.02.17.06.13-.15.26-.09.39-.17.26.2.53-.11.79.11.21-.3.41-.15.62-.28l.17.17c.19-.18.38-.06.56-.34.13.03.26.17.39-.06.19.11.38.05.56.11l.22-.23c.15.06.32-.02.51-.06.06-.01.16.02.22 0 .04-.01.07-.1.11-.11s.13.07.17.06a3.672 3.672 0 00.62-.5 1.825 1.825 0 01.05-.4c.04-.13.01-.32.23-.45a7.523 7.523 0 00.34.79.771.771 0 01.95-.06c.27-.16.58-.33.79-.45.03-.02.12-.01.11 0 .12-.09.21-.26.34-.34.02-.01.06.03.11 0a.684.684 0 01.23-.11.779.779 0 00.51-.4.694.694 0 01.39-.28c.25-.14.53-.39.68-.45a.147.147 0 00.05-.06c.06-.06.08.01.12 0 .25-.11.35-.3.56-.45.14-.1.33-.12.45-.22a7.57 7.57 0 00.9-1.13c.14-.04.26-.1.34-.11.25-.05.54-.35.67-.34.04 0 .19-.11.23-.11.2-.04.28-.21.5-.39.09-.07.16-.06.28-.17.27-.25.28-.46.45-.68a.755.755 0 00.34-.11c.11-.09.12-.24.22-.34-.01.01.08.02.11 0a2.241 2.241 0 00.62-.73c.11.1.22-.16.34-.11-.03-.16.09-.19.11-.34.02-.1-.1-.23 0-.34.24.03.27-.28.39-.39-.02.01.09.01.11 0a.686.686 0 00.17-.17c.19-.27.19-.9.56-1.12-.06-.43.37-.86.73-1.29-.16-.24-.02-.49.28-.73-.15-.19-.03-.26.05-.39.04-.06-.01-.09 0-.11a2.881 2.881 0 01.62-.96.235.235 0 010-.23c.06-.07-.01-.06 0-.11.03-.13.16-.31.17-.4.04-.31-.12-.61 0-.9a1.49 1.49 0 00.45-1.13c.06-.2.11-.1.23-.34-.03-.06-.02-.11.06-.17a1.32 1.32 0 01-.06-.39.435.435 0 00.17-.4 11.414 11.414 0 01.17-1.4c-.23-.1-.21-.17-.28-.39.21 0 .14-.13.28-.28a.474.474 0 01-.17-.28c.2-.15-.05-.3.23-.45-.13-.32.07-.64.28-.96-.31-.22-.02-.48-.17-.62-.02-.02-.24.09-.28-.06.19-.17-.06-.34-.06-.51-.06.03-.11.11-.17.05.06-.09.03-.19.17-.28-.33-.21-.01-.45-.11-.56-.01 0-.21.17-.23 0 .32-.17-.1-.34.17-.51l-.28-.28c.08-.32-.3-.64-.28-.95.07-.09.23-.19.17-.28-.24.14-.13-.12-.34-.11.05-.15-.11-.3 0-.45l-.28-.13c.06-.11.06-.23.11-.34a.44.44 0 01-.17-.39c.01-.09-.29-.19-.17-.28l.28-.28c-.13-.21-.26.05-.39-.17-.08-.13.06-.26-.17-.39.02-.17.1-.34-.06-.51-.13.04-.26-.1-.39-.17a.4.4 0 010-.34c-.21-.13-.15-.07-.28-.28.02-.15.2-.3 0-.45-.56-.29-.72-.89-1.24-1.24.3-.09.14-.23.22-.45a2.059 2.059 0 00-.79-.67c.07-.21-.21-.35-.28-.51-.01-.03.01-.18 0-.23a.419.419 0 00-.11-.22c-.07.06-.15.17-.22.11.02-.2-.26-.28-.34-.45-.01-.02.06-.14.06-.17-.01-.06-.13-.11-.06-.17a4.538 4.538 0 01-.62-.62c-.05-.05.01-.1 0-.11-.04-.07-.14-.01-.17-.06-.06-.1-.01-.18-.06-.28-.08.2-.38-.04-.39-.06-.07-.06-.06.01-.11 0-.25-.05-.07-.1-.11-.23-.15-.45-.78-.15-.73-.62-.11.09-.17-.02-.28-.06a.739.739 0 01-.33-.09c-.15-.09-.03-.18-.17-.17-.03 0-.08-.1-.11-.11-.01 0-.04.06-.05.06-.16.02-.28-.41-.45-.45-.05.07-.07.01-.11 0a.4.4 0 00-.11 0c-.09-.02-.13-.09-.22-.11-.05-.01-.17.02-.22 0-.54-.16-1.03-1-1.52-1.29a2.956 2.956 0 01-.51-.06.578.578 0 00-.34-.23 2.6 2.6 0 01-.46-.11c-.16-.06-.22-.19-.34-.22-.01 0-.04.05-.06.06s-.08-.11-.11-.11c-.11-.02-.24.07-.4.06-.08-.01-.15-.1-.22-.11a1.065 1.065 0 00-.39.06c-.08.01-.14-.01-.22 0-.14.01-.3.08-.45 0 .04-.29-.4-.22-.56-.34-.08-.06.01-.16-.11-.22-.22.18-.45-.09-.67-.11.03-.06.02-.11-.06-.17.06-.08.12-.15 0-.23-.14.13-.27.26-.4.15-.13 0-.26-.13-.39-.28-.06.03-.17.05-.22 0-.11-.1-.26-.01-.34 0-.04 0-.08-.11-.11-.11-.05 0-.18.1-.23.11a1.772 1.772 0 01-.17-.06c-.03 0-.08.11-.11.11a2.074 2.074 0 01-.5-.06c-.04-.01-.07-.11-.11-.11s-.08.1-.11.11c-.19.07-.27-.38-.45-.11-.04-.03-.08-.06-.11 0 .06.06.02.11.06.17-.19.19.12.2.17.28a.131.131 0 000 .11c.12.21.14.18.22.34a.428.428 0 01.37.06zm-3.88 38.96c-.08.15-.14.02-.22 0-.12-.02-.31-.02-.28-.17.11-.05.22-.06.34-.11.1.09.05.18.16.28zm1.07.17a.224.224 0 01.06-.28.226.226 0 01-.06.28zm4.16-.79c-.15-.2-.3-.06-.45.11-.14-.02-.07-.29 0-.34.04-.03.25.08.28.05.07-.05.06-.26.23-.34.02-.01.05.05.11 0s.11.02.17.06c-.11.16-.12.31-.34.46zm-16.86-8.66a5.25 5.25 0 001.12 1.24c.19.12.27.19.34.22.19.12.18.06.34.11.09.03.14.13.22.11.34-.26-.03-.53.23-.79.15.27.3-.12.45.11-.24.19-.33.38-.22.56.11-.13.22.17.34.22.09.06.19.03.28.17-.31.18-.11.32-.11.45 0 .09-.18.19-.06.28.17-.01.34-.24.51-.17-.03.2 0 .48.28.39-.29-.15-.04-.3.11-.45.2.24.41.37.62.28-.14-.11-.2-.23-.11-.34.16.02.4.04.39.28.17-.02.34-.1.51.06-.08.13-.02.26-.17.39-.13.1-.26-.04-.39-.06-.12.07-.06.23-.17.17-.06-.03-.11-.02-.17.06-.02-.09-.08-.34-.22-.11-.13.15.17.21.22.23a1.32 1.32 0 01.39-.06c.09.13.19.04.28.06.16.11.02.22.23.34.24-.18.14.18.28.05.12-.11.34.1.45.23a.224.224 0 01.28-.06c-.11.18.22.22.23.23.18.04.23.21.39.28.03.01.17-.01.22 0a.487.487 0 01.23.11c.02.34.38.19.56.45a.474.474 0 00.17-.28 5.252 5.252 0 001.01.23c.19.19.37.01.56.22l.23-.22c.11.29.22-.16.34 0 .24-.2.1-.77.5-.62-.15.15-.36.3-.22.45.19-.06.28.02.28-.17 0-.09-.02-.06.05-.17.08-.09.21-.21.28-.17.09.2-.21.34-.11.45s-.16.25 0 .34c.24 0 .49.07.73.06.19.08.14.1.39.28.17.01.34-.2.51.06.23-.19-.08-.38.23-.56-.3-.03-.37-.56 0-.56-.31.34.23.5.28.73a1.445 1.445 0 00.62-.17c.13.15.26.09.39.17.16-.11.02-.23.22-.34.22.14.45.04.67.11l.17-.17c.35.14.71-.17 1.06-.06a.99.99 0 01.45-.34c.02-.01.04-.04.06-.06.06-.05.08.02.11 0 .23-.1.16-.19.34-.11-.02-.01 0 .21.11.22l.28-.28a.5.5 0 00.28.17 1.771 1.771 0 00.73-.73c.03.33.42-.1.62-.17.26.29.53.06.79-.11-.06-.07-.17-.15-.11-.22.17.22.34-.28.5-.17.02.15-.12.3-.11.45.17-.05.37-.22.45-.22.39-.01.46-.52.45-.68.08.07.15.01.23.11-.06.06.03.12.11 0 .08-.06-.05-.11-.06-.17 0-.03.11-.08.11-.11 0-.09-.18-.26 0-.34.09-.14.2-.04.28-.06.1-.02.19-.09.28-.06.27-.19.27-.37.45-.56a.388.388 0 01.51.17c.23-.08.13-.28.22-.45s.3-.32.39-.51c.03-.05-.1-.22.06-.28.15-.24.3-.13.45-.34-.15-.2-.34.04-.34-.22.22-.23.45-.39.68-.11.13-.21.26-.15.39-.28-.03-.05-.02-.11.06-.17-.29-.21-.04-.41-.06-.62a4.935 4.935 0 00.79-.45c.05-.25-.4-.29-.28-.39.06.04.1.01.17-.05.11-.1.36.15.45 0-.09-.11-.03-.23.11-.34a.224.224 0 01-.06-.28c.22-.1.13-.27.23-.34.03-.02.29.11.34-.11-.06-.08.03-.15.11-.22-.15-.11-.2-.22-.11-.34a2.393 2.393 0 00.67-.9c-.15-.13-.29-.07-.17-.28l.45-.45c.11-.01.22.19.34 0-.06-.09.06-.19.06-.28a.224.224 0 01-.06-.28c-.06-.07-.17-.15-.11-.22l.28-.28-.28-.28a2.438 2.438 0 00.28-.73c.13.11.26-.02.39-.17-.03-.06-.02-.11.06-.17-.08-.09-.23-.19-.17-.28a1.518 1.518 0 01.5-.39 1.517 1.517 0 00.06-.51c0-.08.11-.15.11-.22 0-.09-.1-.13-.11-.22a.8.8 0 01.17-.51 1.182 1.182 0 01-.22-.79.479.479 0 00-.34-.22c.16-.3-.2-.6-.22-.9l.22-.23c-.02-.15-.16-.3-.11-.45.18-.15.09-.3.11-.45-.13-.23-.26.11-.39-.06-.07-.09 0-.19-.06-.28-.07.04-.4-.02-.28-.17.15-.14.3.18.45-.11-.01-.32-.33-.23-.5-.28a1.4 1.4 0 00.22-.56.568.568 0 01.06-.28l-.4-.39a.294.294 0 000-.45c-.09.07-.19.23-.28.17s.03-.18 0-.22c-.05-.08-.21-.08-.23-.11-.02-.06.07-.21.06-.28-.03-.16-.29-.2-.11-.34.05-.11.36-.23.23-.34-.02.06-.23.02-.23 0s.12-.11.11-.11c-.17-.19-.25-.03-.22-.22.01-.06-.26-.01-.28-.06a.4.4 0 000-.34c-.08.06-.15.12-.22 0 .08-.21.28-.52.11-.67-.03-.02-.24.1-.28-.06.09-.2-.12-.21-.17-.39-.03-.1.09-.22 0-.34a.851.851 0 01-.17.06c-.2-.01-.21-.16-.28-.28-.01-.02-.04-.04-.06-.06s-.02-.13 0-.11c-.21-.2-.26.03-.34-.11-.04-.08.18-.17.17-.28-.01-.07-.19-.16-.23-.23-.01-.02.01-.19 0-.22-.03-.09-.13-.14-.11-.23-.32.38-.25-.02-.39-.06-.05-.01-.12.14-.17.06.11-.22-.35-.45-.11-.67a1.228 1.228 0 00-.68-.45.213.213 0 01.06-.28c-.16-.13-.25-.06-.39-.17.03.02.01-.09 0-.11-.05-.08-.12-.06-.17-.06-.07 0 0-.21-.11-.23-.2.2-.11-.01-.23-.11l-.05.05c-.03 0-.09-.1-.11-.11-.09-.05-.14-.12-.22-.11.14-.11.2-.23.11-.34-.11.05-.22.35-.34.22-.02-.31-.37-.27-.56-.56-.23.19-.34.44-.45.34-.07-.07-.16.04-.23.11-.08.09.1.19-.06.28l-.17.17c-.05-.11-.36.08-.22-.11.11-.16.23-.02.34-.23-.23-.13.1-.26.06-.39.21-.02.59-.38.23-.57-.2.1-.14.48-.39.4.01-.23.3-.45.23-.68-.28.34-.56-.07-.84-.17-.34.21-.67.98-1.01.67.13-.13.26-.07.39-.28-.21-.35-.41.25-.62.17a.842.842 0 01.06-.62c.24.07.34-.33.34-.45-.38-.13-.42-.33-.79-.56-.13.15-.26.09-.39.06-.15-.2-.3-.14-.45-.23-.13-.06-.26.27-.39.17-.15-.1.05-.21-.15-.33-.13.15-.26.28-.39.17-.23-.13-.09-.26-.17-.39-.15.04-.23.15-.39.06s-.08-.06-.22 0c-.02.01-.14-.06-.17-.06-.13.01-.21.08-.34 0 0-.26-.29-.27-.45-.45a.226.226 0 01-.28.06.6.6 0 01-.29.05c-.07-.07-.01-.15-.11-.22-.21.01-.41.15-.62.06-.17-.23-.34.06-.51-.17-.06.03-.11.11-.17.06-.19.19-.38.41-.56.34-.13-.19.17-.37.23-.56a1.23 1.23 0 00-1.24.22c-.11-.05-.22-.06-.34-.11l-.28.28c-.15-.03-.48-.07-.56 0s-.07-.01-.11 0a4.741 4.741 0 01-.79.1c-.03.01-.08-.12-.11-.11a1.5 1.5 0 00-.22.11c-.11.1-.36 0-.45.11.07.13-.07.24-.11.34s0 .32-.17.39c-.19-.02-.46.08-.62-.06-.08-.06 0-.16-.11-.22-.3.29-.6.08-.9.45-.04-.1-.12.06-.17.06-.03 0-.09-.12-.11-.11-.2.08-.27.35-.39.51-.07.21.33.1.22.34a.394.394 0 01-.39-.06c-.1-.06-.07-.17-.11-.22 0 0-.22.01-.11-.11.11.13.22.13.34 0-.21-.12-.27-.26-.39-.28-.17-.03-.08.14-.23.11.05.01-.06-.16-.17-.17-.18.22-.18.36-.45.45a1.81 1.81 0 01-.96 1.29.928.928 0 01-.39.73c-.08-.06-.15-.12-.22 0a.294.294 0 00-.45 0c.06.08.17.15.11.22-.16-.03-.4.31-.39-.06-.23.25-.45.16-.68.45.16.31.07.27.34.56.09-.11.19-.08.28.06.19-.25.37-.17.56-.45-.09-.15.03-.21 0-.34.01.05-.18-.07-.06-.17.21-.2.41.32.62.28.28-.16.11-.29.17-.39.08-.16.22-.21.28-.39.17-.09.34.44.5.17.19-.12-.31-.23-.12-.34.19-.25.24-.64.56-.45-.12.31.33.32.34.56.39-.16.79.01 1.18-.51a.758.758 0 00.5-.17c.21-.15-.04-.3.23-.45.21-.21.41.07.62-.28.15.24.3.17.45.23.11-.15.12-.3.34-.45.26.35.55-.02.79 0 .07.01.02.23.17.17a1.458 1.458 0 01.51-.06c.03 0 .07.12.11.11s.08-.1.11-.11.13.06.17.06a.809.809 0 01.22 0c.04 0 .08-.11.12-.11s.08.11.11.11.07-.11.11-.11a1.567 1.567 0 01.28.06c.04.01.07.11.11.11.25.01.54-.16.79 0 .22-.1.13-.27.23-.34.03-.02.29.11.34-.11.11.19.22 0 .34.11-.09.09-.2.19-.06.28.06-.03.11-.02.17.05.41-.64.83-.1 1.24-.45-.02-.15.13-.3.11-.45-.15-.02-.3.17-.45 0 .15-.21.3-.22.45-.34-.04-.05-.12-.1-.07-.16.09.13.19.03.28.06.38.2.33.3.45.56.06-.03.11-.11.17-.06-.15.27-.3.02-.45.23.13.15.05.27.17.39.1.11.18.06.34.11s.28.17.39.17l.45-.45a.474.474 0 01-.17-.28.224.224 0 01-.28.06c.09-.16-.14-.15-.23-.23-.01-.01.07-.06 0-.11-.03-.02-.06.08-.11 0a.216.216 0 010-.22.568.568 0 01.28-.06.568.568 0 00-.06.28 1.593 1.593 0 01.56.11.794.794 0 01.5-.17c-.3.29-.03.1.06.17 0 0-.05.05-.05.06 0 .29.33.34.45.45-.03.06-.11.11-.06.17.11-.14.22-.2.34-.11a.388.388 0 01-.17.51c.03-.17-.29-.06-.34-.23-.01-.02.14-.15.06-.17-.04-.01-.12.17-.17.17-.08-.13.06-.26-.17-.39-.18.24-.5.21-.5.51a.213.213 0 00-.28.06 1.709 1.709 0 00.62.17 1.053 1.053 0 00.39.06c.06.11.24.17.28.28.02.04-.18.17 0 .22.19-.26.39.15.56.22.08.04.24-.1.34 0 .06.06.02.11.06.17.32-.2-.04-.41.28-.62.06.06.11.02.17.06-.06.32.36.51.62.62.06.13-.27.26-.17.39.17-.08.24.19.39.28.13.08.23.06.34.11-.2.19.09.14.17.28.01.02-.03.05 0 .11.1.17.03.26.11.34 0 0 .16-.06.17-.06a.986.986 0 01.23.11c.09.06.14.16.22.23.11-.14.23-.2.34-.11a.352.352 0 00.23.11c-.04.23.29.28.34.34-.01-.01-.02.08 0 .11a2.63 2.63 0 00.28.39c.24.04.49-.28.73-.05-.3.41.14.66.5.96-.21.11-.07.22-.23.34.08.11.04.26.12.34.03.04.01.12 0 .11.08.1.16 0 .17.17 0 .22.14.18.28.28.34.25.37.55.5.73.07.09.19.06.23.11a.674.674 0 00-.06.17c.04.09.18-.01.22.11-.07.09 0 .19-.05.28a1.542 1.542 0 01.39 1.29 1.019 1.019 0 01.34.79c.17.35.65.35.56.45-.25.19-.18.37-.45.56.2.34.2.67.56 1.01-.02.13-.15.26-.17.39.16.24.06.49.39.73-.05.11-.06.23-.11.34a.474.474 0 00.28.17c-.02.13-.15.26-.05.39.31-.08.05-.44.22-.34.3.41-.18.82.22 1.24.09.09.19-.12.28-.06-.09.13.06.26-.17.39.07.13.2.26.17.39l-.22.22c.14.22.01.45-.22.67a.694.694 0 010 .45c-.31.26-.09.52-.34.79-.04.11.21.23.11.34-.24-.04-.11.21-.23.34.04-.04-.34.11-.34.22a3.055 3.055 0 010 .68 2.25 2.25 0 01-.11.22c-.01.02.01.07 0 .11-.08.35-.68.7-.96 1.07-.06.08 0 .14 0 .22s-.31.29-.34.34c0 .01.03.07 0 .11-.17.28-.16.26-.34.34-.16.07-.37.29-.51.17-.07-.08-.01-.15-.11-.23a1.994 1.994 0 01-.51.62c.09.12.19.06.28.17a3.772 3.772 0 01-.62.84 1.146 1.146 0 01-.45.79c.09.17 0 .34-.06.51-.26.02-.52.3-.79.23-.26.28-.52.44-.79.34-.13.24-.55.48-.84.84-.07.15.33.3.23.45-.13.04-.26-.02-.39-.17-.3.26-.6-.03-.9.45-.28-.23-.56-.06-.84.28a2.46 2.46 0 01-.45-.11c-.23.17-.21.34-.28.51-.19.02-.37-.21-.56 0-.18.15-.05.3-.23.45-.15.03-.2.11-.34.11s-.32-.13-.39-.06c-.1.09-.25.02-.33 0-.3.34-.6.3-.9.56l-.17-.17c-.24.26-.47.1-.56.45-.46-.12-.59-.38-1.01-.56-.25.09-.17.23-.45.45a1.013 1.013 0 00-.79.45c-.13-.21-.07-.15-.28-.28-.09.09-.19-.12-.28-.06.06.06-.03.17-.11.11a3.308 3.308 0 00-.05-.62c-.23.1.06.48-.17.39-.12-.09-.06-.19-.17-.28-.13-.05-.26.29-.39.06.16-.13.22-.26.06-.39a1.024 1.024 0 01-.62-.06c-.24.09-.49.26-.73.17.01-.08-.09-.44-.23-.34.06.09-.06.19-.06.28-.23.04-.47-.21-.56-.45a.474.474 0 01-.28.17c-.19-.15-.35-.08-.62-.17 0 0 .05-.05.05-.06 0-.05-.25-.03-.28-.06-.07-.06-.07.01-.11 0-.07-.02-.1-.14-.17-.17-.05-.02-.15.03-.23 0-.12-.05-.23-.19-.34-.23-.14-.04-.3.14-.39-.06-.01-.27-.33-.33-.51-.51-.11-.04-.23.21-.34.11.24-.46.07-.19-.17-.28.15-.11.2-.22.12-.34-.15-.07-.3.33-.45.23-.03-.06-.02-.11.06-.17a7.046 7.046 0 01-.62-.39c-.1.29-.41.29-.51.62-.13-.2.03-.41.28-.62-.06-.07-.17-.15-.11-.22-.19-.16-.41-.13-.62-.28-.08-.05-.14-.18-.22-.22a1.772 1.772 0 00-.17.06c-.17 0-.27-.17-.39-.28-.15.02-.3.16-.45.11-.28.15-.2.5-.45.34-.17-.44.61-.66.56-1.01-.19.03-.24-.35-.56-.45.15-.09-.15-.21-.2-.32-.01-.11.19-.23 0-.34-.17-.09-.34.04-.51-.06 0-.22-.29-.17-.45-.34.22-.34.04-.5-.28-.73-.3.24-.01.49-.28.73-.15.21-.3-.05-.45.22.14.31.23.73.62.73.16-.19.06-.72.45-.56-.07.19.01.38-.23.56a.479.479 0 00.34.22c-.09.17 0 .34.06.51.26 0 .53-.59.79-.45-.33.19.2.37.11.56-.07.07-.15-.05-.22 0a.217.217 0 01-.22 0c.06-.16-.27-.22-.17-.06.04-.03.07-.06.11 0a3.227 3.227 0 01-.12.47zm5.28 3.37c-.11-.13.02-.26.17-.39.07.16.01.4-.17.39zm15.4-26.98c.04.38-.36.02 0 0zm-17.98 1.58c-.21-.17.09-.56.28-.28a3.7 3.7 0 00-.28.28zm9.33-3.49c-.08-.05.07-.12.06-.17-.02-.12-.2-.19-.11-.34.13-.17.26-.03.4.06a.463.463 0 01-.35.45zm2.13 0a.558.558 0 00-.34.23c-.17-.24-.42-.62-.73-.39-.11-.48.79-.59 1.07-.39-.03.18-.11.36 0 .55zm4.05 1.46c-.26-.2.18-.59.28-.62.3.25-.07.53-.28.62zm7.93 8.72c-.01-.15.15-.3 0-.45l.28-.28a1.088 1.088 0 01-.28.73zm.67-.79l-.11.11c-.15-.09-.03-.19.06-.28.03.06-.01.11.05.17zm-.73-.06c-.3-.31.16-.27.33-.56.17.19-.18.37-.33.56zm-1.29-2.53c-.04-.37.36-.02 0 0zm.73-.39c-.19.33-.38-.02-.56.11-.04-.15.05-.3.23-.45.14.21.33.1.33.34zm-.39-.96c.14.15-.08.34-.23.34a.261.261 0 01.23-.34zm-4.05-2.13c-.08-.08.08-.14.11-.23s-.08-.22-.06-.28c.07-.18.25-.25.34-.45.29.15-.01.3 0 .45a4.429 4.429 0 00.51.06c.06.08-.06.15-.11.23l-.12-.11a1.743 1.743 0 01-.67.33zm4.66 5.79c.14-.15-.18-.3.11-.45-.19-.38-.38.11-.56-.11.23-.2.13-.62.51-.73.26.17.1.34.06.5a1.918 1.918 0 01.23.45c-.25.19-.18.37-.45.56-.24.14.02-.17.1-.22zm.12.45c.1.13.04.26.06.39-.22.09-.31-.29-.06-.39zm.28 1.07l-.11.11c-.17-.15.43-.41.11-.11zm.5-.17c.04.2-.11.59-.28.62-.19-.22.11-.53.28-.62zm.51 4.89c-.01-.09-.11-.19-.06-.28.17-.33.34.04.51-.17a.474.474 0 00.17.28c-.07.25-.26.64-.56.45-.11-.1-.04-.18-.06-.28zm-2.08 7.59c.1-.11-.15-.22-.11-.34.09-.06.19.09.28.17-.11.09-.05.19-.17.28-.06-.04-.03-.08 0-.11zm-.23.45c-.04-.32.43-.03 0 0zm-1.63 1.63c-.09.14-.19.11-.28.17-.15-.17.13-.35.28-.17zm-6.57 4.1l.11.11-.28.28c-.07-.1-.01-.48.17-.39zm-8.27.51a1 1 0 01.51.06l.23-.23c.13.13.07.26.28.39-.19.14-.38-.02-.56.23-.28-.19-.21-.19-.46-.45zm-1.06.28a.318.318 0 01.06-.51c.18.17.04.34-.06.51zm-.45-.68c.13.05.26-.29.39-.05-.09.16-.23.45-.45.45-.18-.14.16-.27.06-.4zm-5.06-3.15c.2.15.06.3-.11.45-.05-.15-.1-.3.11-.45zm-2.03-1.68c-.13-.24.17-.05.23-.11.13.19-.17 0-.23.11zm-.78-.79a.365.365 0 01.11-.34c.08.12.03.23-.11.34zm3.99-15.46c-.24-.09-.1.29-.28.39.01.22.1.45.11.67-.13.13-.26.07-.39.28.1.36.41.18.5.51.28-.17 0-.34.28-.51.15-.11.3.09.45-.11-.03-.17-.11-.34.06-.5.2-.15.3-.1.45-.22.31-.25.23-.42.39-.62.06-.07.14-.03.22-.11s.04-.17.17-.28c.25-.22.5-.32.62-.62.2.21.41.02.62.06.3-.28.49-.73.67-.9.04-.04.11 0 .11 0 .14-.1.04-.18.17-.17.01 0 .23-.11.23-.11.19-.12.19-.04.34 0 .29-.32.68-.64.95-.96.09-.11.1-.36.28-.28a.392.392 0 00-.17.39c.3-.12.6-.02.9-.34.2.28.41-.15.62.17.36-.39.71.01 1.07-.51.25.29.53.29.62.62.08-.06.15-.12.23 0 .16-.11.02-.23.23-.34.17.17.34.1.51.17.11-.05.23-.36.34-.23-.06.07-.17.15-.11.23.3-.15.1.13.28.28.06-.09.11.05.17.05.14.01.2-.18.34-.11.06.09.03.19.17.28.26-.3.53-.2.79.11.15-.2.3-.02.45 0 .07.09 0 .19.06.28.16-.02.2.07.34.11.1.03.26-.01.34.11.24.15.13.3.34.45a.705.705 0 01.73.06c.08.04.04.15.06.17.12.15.32.02.39.17-.06.09.06.19.06.28.09-.07.19.09.28.17.09-.1.13.08.23.11.07.02.2-.1.28.05-.04.26.18.27.17.4 0 .03.1.08.11.11 0 .01-.06.04-.06.06-.01.11.33.21.39.28s.05.16.17.28c.19.19.29.19.45.34 0 .08.1.14.12.23 0 .02-.12.09-.12.11.08.17.3.22.45.45.11-.16.22-.02.34-.22.01.32.33.15.5.17.06.09.03.19.17.28-.13.08-.26-.06-.39.17.02.13.16.26.06.39-.06.07-.12.15 0 .22.14.18.07-.35.28-.17a1.064 1.064 0 010 .56.352.352 0 00.23.11c.06.07.17.01.11.11a.554.554 0 00-.34.22c.19.27.38.27.56.45-.15.2-.4.14-.11.22a6.311 6.311 0 01-.39.84c.11.25.23-.14.34.11-.27.15.08.3 0 .45l.45.45c-.14.15.14.3 0 .45-.1.25-.18.14-.4.39a.213.213 0 01-.06.28c.02.15.16.3.11.45-.2.11-.06.23-.22.34a.424.424 0 010 .45c-.06.07.01.06 0 .11a1.01 1.01 0 01-.39.62c.06.07.17.15.11.23a5.18 5.18 0 00-.11.79.578.578 0 01.06.73c-.13.08-.26.02-.4.17a.758.758 0 01-.17.5 1.578 1.578 0 00-.73.62.593.593 0 010 .23c0 .09.08.19-.06.28-.11-.13-.22-.13-.34 0-.22.13.05.26-.17.39-.01.08.1.14.11.22 0 .03-.11.08-.11.11 0 .07.22.26 0 .34-.09-.08-.19.1-.28-.06-.11.1-.22-.16-.34-.11-.38.26-.19.53-.56.79-.19.12-.37-.09-.56.11-.11.15-.12.3-.34.45-.15-.02-.3.02-.45 0-.17.26-.34.2-.51.39-.09-.14-.2-.04-.28-.06s-.26-.17-.34 0c-.04.11.21.22.11.34-.3.11-.1.12-.11.34-.09-.08-.18.1-.28-.06-.18-.13.35-.26.17-.39-.13.08-.26.02-.39.17-.22.13.05.26-.17.39-.13-.22-.26.12-.39-.17-.15.08-.3.44-.45.34-.15-.13-.09-.26-.17-.4-.21.13-.07.26-.28.4.09.12.19.06.28.17-.15.13-.09.26-.06.39.09-.05.13-.03.23-.11.07-.06.07.01.11 0 .09-.03.22-.14.34-.11-.14.15-.28.3-.11.45a.338.338 0 01.45-.11c-.22.13.05.26-.17.39-.09.06-.19.03-.28.17-.06-.1-.03-.16-.17-.17-.32.3-.58.57-.56.79.01.08-.29.19-.17.28a1.706 1.706 0 00.39-.17c.03-.01.13.07.17.06.15-.05.22-.27.39-.17a.474.474 0 00.28.17c.19-.19.38-.37.56-.11a4.293 4.293 0 00.5-1.07c.36-.03.71-.37 1.07-.28a1.645 1.645 0 011.35-.56c.09-.19.28-.5.51-.28.07-.28.37-.35.56-.56.08-.09.12-.25.22-.34.18-.15.45-.22.62-.39.09-.19-.08-.37.23-.56a.286.286 0 00.28.28c.31-.2.38-.53.56-.79.09-.13.24-.21.34-.34.05-.06.02-.11.06-.17.08-.14.18-.15.17-.28 0-.03.1-.08.12-.11a.845.845 0 01.05-.17c.09-.14.18-.04.17-.17 0-.02.1-.09.11-.11.1-.16.1-.31.23-.45.24-.17.25-.2.56-.45a1.31 1.31 0 010-1.01c-.08-.13-.42-.07-.17-.28.13-.17.07.37.28.06.02-.13-.04-.26.06-.39.11-.16.22-.02.34-.23-.06-.07.03-.15.11-.22.03-.39-.15-.79.06-1.18.26-.02.2-.04.39-.28l-.17-.17c.24-.28-.08-.56.17-.84-.03-.06-.11-.11-.06-.17-.26-.24-.51-.49-.4-.73a1.6 1.6 0 00.23-.45c-.11-.15-.12-.3-.34-.45.07-.07.01-.15.11-.23-.03-.04-.09-.07-.11-.11s-.01-.13 0-.11c-.09-.11-.22-.07-.17-.17.09.07.19-.09.28-.17a1.937 1.937 0 00-.45-1.01c.08-.22.12-.22-.11-.34.11-.26-.06-.52 0-.79l-.34-.34c.04-.22-.12-.28-.23-.34a1.309 1.309 0 01-.39-.51c-.04-.04 0-.11 0-.11-.09-.12-.19-.06-.28-.17.05-.11.36-.23.23-.34a.221.221 0 01-.28-.05.522.522 0 00-.17-.39c-.05-.05.01-.09 0-.11-.29-.49-.47-.38-.84-.51-.2.05-.07.36-.22.22.08-.13-.06-.26.17-.39-.18-.15-.21-.35-.39-.51-.1-.09-.28-.09-.39-.17-.22-.17-.24-.46-.5-.51l.17-.17c-.21-.29-.54-.27-.68-.34-.23-.11-.45-.34-.56-.34a.383.383 0 01-.34-.34 2.911 2.911 0 01-.39.05c-.03 0-.08-.1-.11-.11-.05-.02-.17.02-.22 0a4.73 4.73 0 01-.39-.28c-.01 0-.05.06-.06.06s-.23-.11-.23-.11c-.14-.08-.08-.06-.23 0s-.26-.29-.39-.17c-.07.06-.16-.04-.23-.11-.11-.04-.23.21-.34.11-.11-.24-.12-.13-.34-.34-.11.05-.22.35-.34.22-.11-.24-.12-.13-.34-.34-.33.05-.36.31-.73.28-.02-.37-.37-.12-.56-.45-.06.03-.11.11-.17.06-.22.17 0 .34-.06.51-.33-.16-.36-.48-.73-.62-.15.15-.3.36-.45.22.06-.07.17-.15.11-.22-.31.02-.32.37-.56.56-.09-.05-.13-.03-.22-.11-.06-.06-.07.02-.11 0-.09-.03-.22-.14-.34-.11.08.19.18.37-.11.56 0-.23-.14-.08-.28-.17a.806.806 0 00-.45-.56.982.982 0 00-.62.39c-.15.11-.3-.09-.45.11-.09.06.02.17 0 .22-.04.09-.2.14-.23.23-.02.05.17.17 0 .23-.13.16-.26.22-.39.06.11-.05.47-.34.28-.51-.17-.1-.21.2-.28.28s-.15 0-.22.11c-.01.02.01.2 0 .22.05-.03.11-.02.17.06a.612.612 0 00-.51.28c-.13-.1-.26.04-.39-.06-.07-.09 0-.19-.06-.28-.22.15-.22.3-.34.45-.09-.13-.18-.03-.28-.06-.23.13.03.26-.06.39-.13-.13-.26-.07-.39-.28-.4.56-.79.19-1.18.62.03.06.02.11-.06.17.16.13.22.26.06.39-.19.08-.37-.08-.56.22.17.15.31.3.11.45-.19 0-.38-.08-.56.11.28.49.56-.12.84.17a.533.533 0 01-.23.34c-.13-.17-.26.17-.39-.06-.25.17-.15.34-.39.51-.09-.34-.23-.12-.45-.11-.1-.14.2-.56-.17-.51-.02.2.04.33.02.46zm12.19 16.14a.224.224 0 01-.28-.06c.07-.11.15-.04.23-.11.03.05 0 .11.05.17zm7.43-5.74c.04 0 .08.08.11 0 .07.48-.56.02-.11 0zm.44-4.49c-.07.11-.15.04-.22.11-.13-.09.17-.34.22-.11zm-3.65-7.7a.224.224 0 01-.28-.06.2.2 0 01.28.06zm2.08 2.86l-.17.17c0-.17-.3-.34-.06-.5.17.11.03.22.23.33zm-2.25-2.36c-.02.17.1.34-.17.51-.23-.17 0-.34.17-.51zm1.02 1.69c.11.01.22-.19.34 0l-.34.34c0-.12-.19-.23 0-.34zm-7.26-4.33c.19-.31.37.01.56-.22a.328.328 0 010 .56c-.11-.07-.04-.15-.11-.23-.15-.05-.3.16-.45-.11zm-3.65.28c-.12-.14.02-.28.17-.28.06.09-.1.18-.17.28zm-.39-.17l.34-.34a.5.5 0 01-.22.56.483.483 0 00-.12-.22zm-3.27 1.57l.23.22c-.17.27-.43.66-.73.39.29-.19.26-.4.5-.61zm-.11.79c.04.11-.02.22-.11.34-.22-.12.03-.23.11-.34zm-.78.56c.06.02-.09.28-.17.28-.05 0-.02-.31.17-.28zm.5 26.93c.04.11-.21.23-.11.34.12-.07.06.08.17.17.16-.11.02-.23.23-.34.11.13.22.13.34 0 .13-.09.03-.19.06-.28.13.23.26-.03.39.06.08.17.27.34.17.51-.15-.12-.28.22-.17.28.2-.08.48.18.62.17.03 0 .08.1.11.11.01.01.05-.05.06-.05.04 0 .08.11.11.11.07.01.15-.22.23-.11-.06.08.03.15.11.23l.28-.28c-.15-.13-.09-.26-.06-.39a.294.294 0 010-.45c.03.03.11.02.06-.06-.19.1-.55-.03-.56-.22-.23.2-.45-.01-.68-.11-.11-.11.08-.22-.11-.34a2.092 2.092 0 00-.95.39.575.575 0 00-.62.17c.1.17.21-.02.32.09zm3.82-13.04c.03.02.26-.02.34 0 .15.03.2.12.34.11.11-.05.22-.36.34-.22a.558.558 0 01-.23.34c.23.16.41.45.62.51.15.04.25-.12.39-.06l.22.23c.2-.14.18-.3.28-.39s.32.02.34-.22a.712.712 0 00.62.28.581.581 0 00.22.34c.16-.24.28.11.4.17a1.772 1.772 0 00.17-.06c.03 0 .08.1.11.11.1.03.18.03.28.06-.06.06.03.12.11 0-.3-.09-.14-.23-.22-.45-.19.19-.45-.21-.62-.28-.05-.02-.15.05-.23 0 .01.01.04-.14-.05-.06a.221.221 0 01.05-.28l.17.17c.29-.32.51-.05.67.22.2-.15.06-.34-.11-.34.2-.19.07-.34.11-.45-.01.02.14.03.06-.06-.19.04-.38-.12-.56-.22.08-.21.12-.22-.11-.34.42-.22-.03-.45.23-.68a.68.68 0 01.67.56c.06-.03.11-.11.17-.06-.07.07.05.15 0 .22-.22 0-.29.24-.39.4.09.12.18.05.28.06a2.8 2.8 0 01.28.06c.09.07.19 0 .28.06-.06.08-.12.15 0 .22.3-.15.6-.07.9-.34.11.16.23-.29.34 0 .13.11-.18.22-.23.34-.11-.09-.23-.34-.34-.11-.18.13.35.26.17.39a1.929 1.929 0 01-.34 0c-.04-.01-.26-.02-.28-.06 0 .01.08-.12 0-.11-.13.01-.16.18-.28.17-.06 0-.02-.16-.06-.17l-.5.51a2.46 2.46 0 00.11.45c.19-.07.37.14.56.34.17-.2.56-.01.67-.11.06-.06.07.01.11 0 .11-.04.18-.21.28-.28.17-.12.35-.08.34-.23 0-.07.21-.1.22-.11.07-.04.1-.13.17-.17 0-.17-.14-.34-.06-.51.35.2 1 .04 1.01-.45-.16.08-.14-.14-.22-.22-.1-.09-.31-.09-.4-.28a1.7 1.7 0 00.45-.56c.17-.12.34 0 .51-.17-.04-.17.09-.34.06-.51.08.06.15-.03.23-.11-.15-.34.15-.67.45-1.01 0-.17-.13-.34-.06-.5.21-.16-.16-.4.17-.39a.429.429 0 01-.17-.28c-.57-.03-.74.59-.9 1.01a.4.4 0 00-.34 0c.09.06-.05.1-.06.17 0 .04.12.08.12.11a.392.392 0 01-.12.34c-.17.18-.34-.02-.5.28-.06-.06-.02-.11-.06-.17l-.28.28c.18.22-.02.29.28.39a.224.224 0 00-.06.28c.11-.05.23-.35.34-.22-.1.09.08.13.11.23.02.06-.05.21-.06.28s.15.14.11.23c-.04.12-.23.09-.28.06.28-.24 0-.21-.17-.51-.11.13-.22.13-.34 0-.38.24-.19.49-.28.73-.13.06-.26.4-.39.28.03-.15.17-.28-.06-.28.02-.15.16-.3.11-.45-.09.07-.19.23-.28.17-.21-.13-.15-.07-.28-.28.23-.13-.03-.26.06-.39-.29-.05-.2-.42-.45-.45-.28.19-.2.37-.45.56-.17.01-.34-.24-.5-.39a.244.244 0 01-.22 0c-.21.13-.15.26-.28.39-.09-.06-.19-.03-.28-.17-.15.11-.3.23-.45 0-.35.23-.71.12-1.07.5.19.13 0 .22.11.34 0 0 .19-.03.22 0 .07.05.16.17.11.22-.26.19-.26-.07-.45-.11-.1.08-.19.23-.28.17.03-.3-.26-.13-.34-.22-.03-.04.12-.19.11-.23-.08-.27-.4-.26-.62-.51a.337.337 0 01-.34.11c-.3-.39-.6-.45-.9-.79-.13.17-.26.11-.39-.06-.11.14-.23.2-.34.11.07-.04.01-.07 0-.11-.02-.15.17-.32 0-.45-.15-.07-.3.33-.45.23a.578.578 0 00.06-.17c.01-.05-.13-.04-.11 0-.02-.06-.01-.25-.06-.28s-.23.1-.28-.06a1.614 1.614 0 00-.11-1.01l.17-.17c-.1-.17.1-.34-.17-.51.33-.32-.09-.64-.28-.96.07-.07 0-.15.11-.22-.28-.28-.2-.56-.17-.84-.07-.09-.23-.19-.17-.28.09-.06.19.06.28.06.07-.21.4-.15.28-.28-.14.04-.24-.18-.22-.22.3-.15.1-.3.11-.45.09.13.19.04.28.05a1.907 1.907 0 00.56-.78.5.5 0 00.39-.28c.09-.16.4-.26.28-.39-.03.03-.11.02-.06-.06.07-.09 0-.19.06-.28.09-.15.05-.14.06-.28 0-.08.11-.15.11-.23s-.1-.19-.06-.28l.28-.28c0 .26.24.1.39.06-.06-.08-.17-.15-.11-.23.17-.08.34-.27.5-.17.08.4-.6.45-.39.84.22-.3.63-.3.67 0 .22-.23.45-.08.67-.45.11.15.23-.1.34 0 .34-.34.68-.73 1.01-.23l.28-.28c.11.11-.08.22.11.34.07-.06.15-.12.22 0a.474.474 0 01.28-.17c-.03-.06-.11-.11-.06-.17.08-.08-.05-.15 0-.22.11-.11-.08-.23.11-.34.09.35.23.06.45.11.01.22-.49.45-.23.67.12-.07.06-.23.17-.17.13.1.15.23.23.34.16.21.38.35.45.56a.626.626 0 01.45 0c.15.08.08.05.22 0 .02-.01.14.05.17.05.13 0 .2-.07.22.11.3-.21.26-.41.51-.62-.2-.34-.41.03-.62-.17.21-.35.41-.14.62-.39a1.767 1.767 0 01.17-.73c.07.07.15-.05.22 0a.224.224 0 00-.06.28c.19-.38.04.04.28-.17.05-.21-.05-.22-.22-.34a.5.5 0 00.17-.28c-.11-.27-.56-.31-.62-.39-.01-.01.09-.1 0-.11-.07-.01-.2.19-.28.06 0-.13-.14-.26-.28-.39-.21.01-.41.28-.62.06-.39.2-.55.93-.84.62.07-.13.4-.26.28-.39-.06.03-.11.11-.17.06-.17-.22.05-.45-.22-.68-.26.19-.08.38-.34.56a.318.318 0 01-.06.51c-.11-.31-.12-.06-.34-.23l.28-.28c-.13-.21-.26-.07-.39-.28-.28.28-.67.37-.79 0-.09.23-.29-.07-.39-.06a1.627 1.627 0 00-.23.11c-.12.06-.17.11-.28.17-.12.15 0 .6-.34.56.06-.07.17-.15.11-.22-.11-.04-.22.21-.34.11.06-.01.06-.17.05-.17-.15.11-.54.55-.73.17l-.34.34c-.13-.13-.26-.07-.39-.28-.1.24-.48.09-.39.28.1-.07.1.09.06.17-.17.24-.34.1-.51.28-.05.38-.33.42-.56.79.2.22.06.22-.11.34a.294.294 0 010 .45c-.18-.26-.5.44-.51-.06-.09.21-.3.32-.39.51-.06.11.02.28-.11.34a.568.568 0 00-.28-.06c.15.17-.44.34-.28.51.15-.2.3-.02.45 0 .21-.05.07-.36.23-.23-.03.33-.37.3-.56.45-.08.06-.02.14-.12.22-.07.07-.15.01-.22.11.11.25.22-.14.34.11-.21.15-.39.4-.56.45-.05.02-.17-.18-.23 0l-.17.17c.08.09.2.19.06.28a.8.8 0 00.51.17c.04-.21-.21-.07-.11-.22.19-.1.37-.26.56-.23.07.17.33.34.06.51.15.2.3-.04.45.22-.08.13-.2-.06-.28-.05s-.14.2-.23.11c-.21 0-.15-.14-.28-.28-.21.19-.41 0-.62.28.09.28.28.56-.05.84.4.35.08.59.17.96-.01-.06.34.16.11.22a.461.461 0 01-.34.22c-.04.11.21.23.11.34-.3.15-.05.3-.22.45.03.05.11.11.06.17.2.15.41.08.62.28a.353.353 0 00-.11.22c.23.22.29.63.56.67-.22.19.12.38.12.56a.374.374 0 01.5.17.452.452 0 01.45 0c-.06.1-.03.19-.17.28.3.17.1.34.28.51s.38-.19.56.11c-.09.06-.19.03-.28.17.11.21.22.07.33.23-.16.31.08.24.17.39.03.05-.1.22.06.28.07-.15.15 0 .23 0s.18-.09.28-.06a.333.333 0 01.11.23c.17-.2.27-.17.45-.11.03-.02.03.2.06.22zm7.88-3.04c.04-.16.23-.21.22 0s-.27.2-.22 0zm-1.92 1.91c.22-.19-.03.3-.12.11-.22.04.04-.01.12-.11zm-.05.62c-.11-.09-.05-.19-.17-.28.17-.15.4.13.17.28zm-.29-.5c.03.06 0 .11.06.17l-.11.11c-.15-.1-.03-.19.05-.28zm-2.08.5c.15.11-.1.22 0 .34-.2.1-.2-.26 0-.34zm-1.57.34c.25-.28.49-.25.73-.39.23.13-.03.26.05.39-.09.15-.19.03-.28-.06-.25.15-.2.4-.39.39-.05-.11-.05-.22-.11-.33zm1.01-12.03c-.04.06-.07.03-.11 0-.08-.06-.24.09-.17.17-.32.09-.02-.29-.06-.39.12-.14.23.17.34.22zm-.56-.79c.09.11.03.22-.11.34-.23-.11.03-.23.11-.34zm-.73.4a.533.533 0 01.34-.23c.04.08-.05.44-.22.34zm.56.11c.05 0 .01.31-.17.28-.05-.02.1-.28.17-.28zm-.78-.23a.579.579 0 01-.22.67.409.409 0 01.22-.67zm0 1.58c-.22.07-.45.31-.68 0 .23-.14.45-.36.68 0zm-1.41-1.52c.13.11-.17.22-.23.34-.13-.15.08-.34.23-.34zm.28.73a.234.234 0 01-.11.45c.02-.15-.03-.3.11-.45zm-.9.11l-.11.11c-.17-.14.44-.4.11-.11zm-.22.68c-.13-.15.18-.21.23-.23.13.24-.08.18-.23.23zm-.28-.62c.18.19.05.38-.11.56-.13-.19-.26-.54.11-.56zm-.56 1.12c.17-.22.33.27.5.17.05.07-.07.15 0 .23-.29.12-.43-.3-.5-.4zm-.17.73c.02-.21.08-.07.23-.23.25.18-.06.49-.23.23zm-.57.12l.11-.11.11.11-.11.11zm.79 6.97l.11.11c.08-.08.15-.17.23-.11l-.17.17c-.08-.09-.42.05-.17-.17zm1.86 2.08c.11-.05.22-.06.34-.11.09.17-.26.31-.34.11zm-1.35-.34c-.21.18-.15-.16-.28-.06-.06-.04-.03-.07 0-.11l.11-.11c.14.09.11.18.17.28zm9.78-9.89c-.06.03-.11.02-.17-.06a2.669 2.669 0 01-.34.11c-.03 0-.07-.11-.11-.11s-.08.1-.11.11-.13-.06-.17-.06c-.12.02-.17.13-.28.17-.13-.23-.26.11-.39-.05-.26.25-.27.17-.45.45-.2-.14-.41-.01-.62.05a.437.437 0 01.11.34c0 .02.06.04.06.06s-.12.08-.11.11c.02.09.19.14.22.22s-.12.21-.06.28c.1-.08.18.1.28.17.06.04.12.02.17.06a5.767 5.767 0 00.51.39.191.191 0 01.11 0c.17.07.3.2.45.22-.06.11-.06.23-.11.34.08.09.2.19.05.28a1.129 1.129 0 01.39.51c.05.05-.01.1 0 .11.05.08.43.12.17.28-.03-.03-.11-.02-.06.06.02-.03.09-.06.11 0a1.1 1.1 0 01-.34 1.01c.03.28.07.2.22.45-.35.2-.13.41-.06.62.16-.21.4-.3.39-.06.29-.28.46-.8.84-.51.1-.25.17-.2.39-.39-.03-.06-.02-.11.06-.17a.224.224 0 01-.06-.28c-.09-.12-.19-.06-.28-.17.22-.24-.14-.49.17-.73.06.11-.13.23.11.34.31-.13-.03-.26.06-.39.06-.1.03-.19.17-.28-.09-.15-.02-.3-.23-.45l.17-.17c-.25-.17.09-.34-.06-.51-.09.07-.19-.08-.28-.17.04-.13-.02-.26-.17-.39.18-.13-.1-.22-.11-.34-.01-.08.18-.2.06-.28-.25.03-.15-.25-.39-.28a.86.86 0 00-.31-.89zm.11 3.48c-.02.09.07.19-.06.28-.13-.17-.04-.34.06-.51.02.08.05.16 0 .23zm-14.9 6.58c.18.08.04.44.22.34-.06-.07.03-.15.11-.22-.06.23.35.17.22 0-.03.03-.11.02-.06-.06-.11-.19-.23 0-.34-.11.06-.17.11-.34.17-.51a.612.612 0 00-.51-.28c.18-.21.01-.41.17-.62l-.51-.51c-.01-.11.19-.23 0-.34-.15.22-.3.11-.45 0l.34-.34c.07.06.15.12.22 0-.03-.06-.02-.11.06-.17-.19-.34-.52-.68-.45-1.01-.24-.1-.26-.18-.28-.39-.11.09-.23-.16-.34-.11.32-.22.19-.45.11-.67-.07.06-.15.17-.22.11.04-.05-.02-.36-.11-.23-.12-.07.02-.4.17-.28.07.08-.05.15 0 .23.36-.28.44-.56.73-.84-.15-.12-.34-.12-.34-.34-.34.48-.68-.13-1.01-.11l-.39.39c.27.19.2.37.45.56-.16.19-.13.37-.22.56.2.13.41.08.62.39-.06.05-.02.11-.06.17a1.1 1.1 0 00-.45 1.01c.05.14.24.12.28.17.03.03-.05.1.05.17s.28-.03.4.17c-.03.06-.11.11-.06.17.11-.14.23-.2.34-.11-.44.47.29.76.11 1.12-.09.12-.19.06-.28.17.21.13.07.26.28.39.14-.14.12-.35.17-.39.09-.1-.14-.26.11-.34.06.09.03.19.17.28-.33.24.14.49-.06.73-.26-.09-.17.59-.51.51-.05-.13.29-.26.06-.39a.261.261 0 00-.23.34c.13-.09.09.16.17.28 0-.01.14-.04.06.06.24.11.13.12.34.34a.815.815 0 01.75-.29zm-1.85-6.13c.06.05.1.13.17.17a.588.588 0 00.23 0c.11.13-.04.19.06.39-.15.14-.3-.14-.45 0-.01-.18-.3-.37-.01-.56zm.56 2.47c-.09.16-.19-.03-.28.06-.12-.16.21-.3.28-.06zm-2.92 6.19c-.07-.07.05-.15 0-.23-.33.07.06-.33 0-.45-.11.1-.23-.14-.34 0-.04.11.21.22.11.34-.13.06-.26.4-.39.28-.1-.02.06-.16.06-.17-.05-.1-.2-.07-.23-.11.02.03.01-.25 0-.23.02-.04.09-.07.11-.11.05-.11.35.08.22-.11-.09.06-.19-.06-.28-.06-.16.11-.02.23-.23.34-.05.09.17.19.17.28 0 .02-.12.09-.11.11.06.16.24.21.28.39.22-.35.42-.06.63-.27zm-.79-1.01c.19-.19.25.07.39-.06s.35.09.45-.11c-.14-.21-.07-.15-.28-.28-.08.06-.15.17-.23.11.06-.08-.03-.15-.11-.23-.1.33-.48-.04-.4.17.33 0-.09.24.18.4zm3.2-4.11c.06.1.03.16.17.17-.14.13-.16.55.06.51-.1-.15.32-.3.11-.45-.27.1-.01-.46-.34-.23zm-4.04 3.38c-.11.08-.12-.27-.34 0 .08.13.44.13.34 0zm-.51-6.92c-.03-.06-.02-.11.06-.17-.12-.21-.23-.07-.34-.23.27-.22-.08-.22 0-.34-.01-.23.24-.21.39-.28-.06-.24-.08-.49.22-.45.06.08.03.2.17.06-.01-.32-.46-.33-.68-.45-.09-.05 0-.2-.17-.17-.17.21-.38.29-.28.39.13.14-.19.28-.05.39.22-.26.45-.37.67-.23l-.34.34c-.07-.06-.15-.12-.22 0a.224.224 0 00.22.23 4.454 4.454 0 00-.05.5c-.03.11-.16.17-.06.28.16-.19.31.23.46.13zm-.9-.79c-.1-.13-.04-.26-.05-.4-.15.11-.15.49.05.4zM20.341.17c.27.29.18.33.45.34.05 0 .12-.05.17-.06s.08.11.11.11.08-.1.11-.11.13.06.17.06c.11-.02.18-.16.28-.06-.03.06-.02.11.06.17l.28-.28-.23-.23c-.25.01-.2.1-.39.17-.19-.19-.38-.11-.56-.11a.12.12 0 00-.06-.17c-.13.09-.55.01-.5.17.03-.03.07-.06.11 0zm.62.62c.12-.14.52.02.45-.22-.12.13-.52-.03-.45.22zm-10.91 7.64c.03-.07.22-.15.23-.23s-.26-.1-.28-.06c.19.23-.22.45-.11.67.13.01.12-.26.16-.38zm3.6 21.03c.08.01.19-.29.28-.17a.511.511 0 00-.23.34c.17.17.34.05.51.17-.07.12.08.06.17.17.07.08.02.19.17.28.13-.01.23.09.34.11.04.01.12-.07.17-.06s.11.16.17.17c.09.02.19-.07.28-.06s.17.15.28.17c.05.01.28-.23.34 0 .08.1-.1.19.06.28.41.38.82.17 1.24.22-.09.11-.03.22.11.34s.3-.09.45.11a.824.824 0 01.62-.17 1.3 1.3 0 01.51.28c.14-.28.25.04.39.06.08.01.2-.06.28-.06.17 0 .35.09.45 0s.09.05.17.06.2-.18.28-.06c.15.16.21.02.23.22a3.578 3.578 0 01.62-.17l-.28-.28c.23-.13-.11-.26.06-.4.21-.11.07-.22.22-.34.01-.1-.22-.23-.23-.34 0-.02.12-.1.12-.11-.07-.13-.21-.09-.34-.23-.1-.1-.06-.28-.23-.34-.18.05-.38.24-.56.11l-.23-.22a.605.605 0 01-.73-.06l-.28.28c-.15-.27-.3.08-.45 0-.3-.24-.6-.12-.9-.11-.2-.15-.14-.3-.22-.45a4.48 4.48 0 01-.73-.05.479.479 0 01-.51.17c-.06-.21-.11-.1-.23-.34-.11-.09-.31.01-.34 0s-.04-.17-.06-.17c-.14 0-.13.14-.34.11-.07-.08 0-.15-.11-.22-.23.11-.35.42-.68.45-.14-.21.12-.41-.05-.62-.07.08-.15-.05-.22 0-.08-.07-.15.05-.23 0 .07-.22-.33-.17-.45-.34.03-.13.18-.26-.05-.39-.32.34-.1.71-.56.9-.12-.17-.12-.31-.34-.11-.06.11.25.14.17.28a.213.213 0 01.28.06c.15.21.06.41.28.62a.373.373 0 01.33-.09zm5.62 1.12c-.08.11-.15.04-.23.11-.12-.08.18-.33.23-.11zm-3.93-1.01c.05.05-.02.11-.06.17l-.11.11c-.06-.09.09-.19.17-.28zm-9.5 4.66c.15.17-.03.34.06.51.12-.07.06.08.17.17.12-.09.06-.19.17-.28.43.14.33.63.79.34-.37-.11-.23-.46-.39-.73a.568.568 0 01-.28.06c-.13-.08-.05-.22-.17-.28-.24-.13-.36.09-.34-.11.01-.07-.11 0-.11 0-.04-.01-.05-.15-.06-.17-.13-.22-.21-.1-.34-.22-.06-.06.01-.08 0-.11-.05-.1-.18-.07-.22-.11-.09-.1-.07-.33-.3-.3-.19.11 0 .23-.11.34a1.868 1.868 0 00.45.22.693.693 0 00.17.73c.17-.11.34-.24.51-.06zm-.23-16.97c.1-.13-.04-.26.06-.39.34-.22.1-.45.34-.67-.18-.07-.03-.28-.06-.39s-.28-.2-.11-.34c.26-.19.21-.37.22-.56-.07.06-.15.11-.22 0 .27-.36.33.04.51.06.37-.39.26-.79.28-1.18.11.09.22.03.34-.11-.11-.29-.23.16-.34 0-.07-.21-.2-.15-.17-.28a1.32 1.32 0 01.39.06c.13-.21.26-.07.39-.28.07-.08-.05-.15 0-.23.29-.17.26-.5.51-.51-.1-.13.04-.26.06-.39.17.02.34.1.51-.06s.19-.37.28-.51c.08-.12.17.02.17-.17 0-.12.24-.23.11-.34-.27.07-.35.52-.73.39a1.7 1.7 0 01.45-.56c-.03-.06-.11-.11-.06-.17-.2-.23-.41.17-.62-.06.06-.08.17-.15.11-.23-.2.2-.35.12-.5.28-.11.11-.03.38-.28.5a.56.56 0 010 .56c-.17-.01-.34.24-.51.39-.19-.28-.37.13-.56.11a.793.793 0 01-.17.62c-.13.16-.26-.17-.39.06a1.837 1.837 0 00-.28.73c.27.28.65.56.62.84a.452.452 0 01-.45 0c-.08.06-.15.17-.23.11a1 1 0 00-.17.51c-.01.1-.12.13-.11.22s.15.18.17.28c.19-.17.38-.29.56-.11-.16.37-.4.09-.56.11-.04.01-.07.1-.11.11s-.13-.07-.17-.05c-.12.03-.17.12-.28.17.08.22-.08.36.22.45-.03.05-.02.11.06.17.03.12-.14.16-.17.28s.21.32-.06.41c.2.11 0 .23.11.34.28-.38.56.08.84-.17zm1.97-5.57c.14.1.03.19-.06.28a.226.226 0 01.06-.28zm-1.74 1.41c.17-.02.34-.1.51.06.04.11-.21.22-.11.34-.22.16-.31-.24-.4-.4zm-.06 1.97c.01.02-.02.22-.11.22s.06-.39.11-.22zm-.62 1.51c.16-.13-.17-.26.06-.39a.474.474 0 00.17.28l-.23.23c-.05-.04-.03-.08 0-.12zm9.9-15.06c.03-.01.14.08.17.06.12-.07.2-.23.34-.34a1.3 1.3 0 01.51.28c.28-.17.55-.38.56-.67-.32-.37-.64-.11-.96-.28l-.28.28c-.12-.15-.33.01-.45 0-.1-.01-.18-.25-.28-.06-.12.09-.06.19-.17.28.06.21.11.1.22.34-.08.09-.2.19-.06.28.16.16.31-.14.4-.17z" data-name="Path 3623" fill-rule="evenodd"/></svg>