<svg xmlns="http://www.w3.org/2000/svg" viewBox="0 0 115.49 10.035">
    <g id="Group_712" data-name="Group 712" transform="rotate(90 1084.833 816.512)">
        <path id="Path_4533" d="M269.822 1962.421c-.031.288-.048.652-.056 1.059z" class="cls-1" data-name="Path 4533" transform="translate(0 -141.361)"/>
        <path id="Path_4534" d="M269.51 2065.3a3.555 3.555 0 0 0-.1-1.139c.03.718.059 1.309.1 1.139z" class="cls-1" data-name="Path 4534" transform="translate(0 -222.857)"/>
        <path id="Path_4535" d="M268.994 2082.681l.032-1.024a4.731 4.731 0 0 0-.032 1.024z" class="cls-1" data-name="Path 4535" transform="translate(0 -236.809)"/>
        <path id="Path_4536" d="M269.766 1963.48l-.147 2.72c.153.19.113-1.394.147-2.72z" class="cls-1" data-name="Path 4536" transform="translate(0 -142.626)"/>
        <path id="Path_4537" d="M269.387 1918.595v-.827a6.818 6.818 0 0 0-.19-.687z" class="cls-1" data-name="Path 4537" transform="translate(0 -105.144)"/>
        <path id="Path_4538" d="M269.315 1884.149a1.969 1.969 0 0 0 .554 1.348 5.749 5.749 0 0 1-.272-1.7c-.076-.011-.166.091-.282.352z" class="cls-1" data-name="Path 4538" transform="translate(0 -61.221)"/>
        <path id="Path_4539" d="M269.983 1828.99l-.024-.431z" class="cls-1" data-name="Path 4539"/>
        <path id="Path_4540" d="M269.991 1829.125l-.008-.135z" class="cls-1" data-name="Path 4540"/>
        <path id="Path_4541" d="M270.014 1829.528l-.023-.4z" class="cls-1" data-name="Path 4541"/>
        <path id="Path_4542" d="M269.3 1943.25a.7.7 0 0 0-.141.314c.05 0 .098-.124.141-.314z" class="cls-1" data-name="Path 4542" transform="translate(0 -125.849)"/>
        <path id="Path_4543" d="M270.421 1787.694l.391-.03a.9.9 0 0 0 .085-.315z" class="cls-1" data-name="Path 4543"/>
        <path id="Path_4544" d="M268.486 2114.5l.007-.142c-.045-.84-.037-.367-.007.142z" class="cls-1" data-name="Path 4544" transform="translate(0 -262.425)"/>
        <path id="Path_4545" d="M277.714 2319.92c-.355 3.308-.456-5.385-.85-.4.155-.468.619 4.524.85.4z" class="cls-1" data-name="Path 4545" transform="translate(0 -459.495)"/>
        <path id="Path_4546" d="M268.9 2187.053c-.04.025-.09.194-.174.747a3.6 3.6 0 0 0 .174-.747z" class="cls-1" data-name="Path 4546" transform="translate(0 -321.031)"/>
        <path id="Path_4547" d="M269.289 2133.19l-.053 1.351c.036-.535.049-.97.053-1.351z" class="cls-1" data-name="Path 4547" transform="translate(0 -278.223)"/>
        <path id="Path_4548" d="M269.253 2216.748a10.876 10.876 0 0 0 0 1.394c.02-.093.034-.185.048-.3a6.1 6.1 0 0 1-.048-1.094z" class="cls-1" data-name="Path 4548" transform="translate(0 -345.181)"/>
        <path id="Path_4549" d="M269.253 2216.748c.01-.176.022-.359.032-.593a12.26 12.26 0 0 0-.032.593z" class="cls-1" data-name="Path 4549" transform="translate(0 -344.225)"/>
        <path id="Path_4550" d="M269.287 2245.668c.031-.157.053-.363.08-.545l-.021-.935z" class="cls-1" data-name="Path 4550" transform="translate(0 -367.218)"/>
        <path id="Path_4551" d="M269.585 2221.232c-.009-.037-.019-.064-.03-.064a.644.644 0 0 0 .03.064z" class="cls-1" data-name="Path 4551" transform="translate(0 -347.915)"/>
        <path id="Path_4552" d="M268.644 2112.562c0-.417-.014-.815-.033-1.175.007.492.018.876.033 1.175z" class="cls-1" data-name="Path 4552" transform="translate(0 -260.679)"/>
        <path id="Path_4553" d="M277.76 1892.013c.067-1.043.366-.438.6-1.128-.309.142-.442-.363-.324-.958l-.4.837c-.459-1.458.725-1.26.27-2.73l.272.465c-.161-.754.005-2.782-.689-3.521.1-.133.336-.31.4.022.1-1.8-.739-4.012-.311-5.413l.211.137c-.061-.336-.4-.585-.185-1.006.088.022.211.135.224-.02a2.567 2.567 0 0 1-.247-1.339l.237.38c.277-1.758-.578-2.7-.723-4.172.622 0 .824-1.379.924-2.07l.088.024c.077-2.047-.515-3.477-.759-5.373.675-1.177.282-3.986.661-5.877-.113.289-.485-.047-.547-.383.126-.444-.431-1.227.139-1.156l-.011.158c.559-.334.41-1.247.426-1.959l-.746-.117c1.085-1.863-.4-4.881.573-5.9-.186-.449-.184-1.006-.371-1.452l.4.024a19.128 19.128 0 0 0 .057-3.407l.286.314c.026-.868-1.153-1.1-1.176-1.9l.6-.241c-.01-1.515.514-3.048-.027-4.545a.332.332 0 0 1 .284.314c.015-.69.379-2.626-.339-2.517.4-.167-.037-1.589-.259-2.364l.394.127a2.635 2.635 0 0 1-.78-1.677c.051-.229.315-.2.214.1.206-.762-.373-.594-.163-1.517l.251.344c.031-.784-.1-.721-.4-1.153-.158-.493.1-1.486.455-1.6a.962.962 0 0 1-.405-1c.135-.062.218.106.259.19.268-1.31-.458-1.948-.071-2.849a.286.286 0 0 0 .235-.152c-.009.955-.028 1.738-.053 1.8.357-.011.423-.835.921-.171a5.439 5.439 0 0 1-.7-2.648.429.429 0 0 1 .125-.108l.041.085a.926.926 0 0 0-.059-.518 3 3 0 0 0 .109-.679c.3-.1.162-.964.177-1.383-.393.034-.336-.5-.651-.015.023-.013.039.129.054.373a.64.64 0 0 0 .041.179l-.035-.028.027 1.042a1.093 1.093 0 0 1-.152-1.141 8.583 8.583 0 0 1-.64-.585c.554-.574.853-1.68 1.194-1.833-.222-1.28-.147-3.016-.893-3.82-.1-.364.214-.418.332-.554.075.21.063.46.17.574-.191-.727-.074-2.156-.6-2.329.235-.917.479.515.394-.745l.159.17c.833-2.479-1.33-4.031-.26-6.779-.066.19-.1.286-.184.325.472-3.134-.442-6.458.306-9.55.15-.879-.183-.974-.436-1.511l.427-.191-.492-.917c-.36-1.3 1.047-2.252.365-3.9l-.287.212c.054-.591-.17-1.873.161-1.774-.053-.061-.3-.194-.149-.425l.223-.018-.383-1.453c.08-.552.294-.52.5-.541a.337.337 0 0 0 .278-.149l.028-.048.026-.086.044-.235a6.792 6.792 0 0 0 .053-.732h-.415c-.887.006-1.965.021-3 .04-.3 0-.423.01-.594.015l-.491.016-.928.035c-1.161.048-1.952.1-1.548.12a16.811 16.811 0 0 1 2.282.1l-1.491.025a.2.2 0 0 0-.135 0l-.341.006a.792.792 0 0 1-.079.035h-.312v.116c-.12.051-.17.1 0 .148v6.339l-.109-.067.109.2v.854c-.084-.026-.156-.107-.19-.275-.29.62.209.549-.115 1.081-.051.059-.079.032-.1-.022l.175.606c-.124-.119-.415.1-.33-.271-.339 1.087.441 1.753-.005 2.163l-.036-.091c.149 1.128.316.651.6.811v.706l-.729.522.431.148c-.015.156-.048.464-.22.407.295.579.187-.1.466.237-.393.749.184 2.066-.5 2.234.327.269.253-.716.481.083-.739.228.126.924-.213 1.609-.381-.21-.18-.858-.52-.174.645.413-.141 1.333-.017 1.91.513.027.214 1.255.385 2.224-.173-.061-.282 1.823-.468 2.724l-.086-.027c.519.175.421 1.1.528 1.781-.311-.026-.433-.148-.572-.515v.636a1.142 1.142 0 0 1 .313.761l-.388-.16a8.853 8.853 0 0 1 .2 2.795c.245.042.619-.369.911-.281v.589a.309.309 0 0 1-.273-.238c.026.1.163.352.079.551l-.329-.46c-.144.5.275.26.244.656-.279-.008-.2.294-.42.237-.027-.1.116-.346.006-.5a2.122 2.122 0 0 1-.427 1.167c.159-.039.376 0 .412.328.02.847-.335.29-.479.784.194.2-.007.745.41.759 0 .248-.2.294-.309.389.183.438.052 2.047.5 1.553l.029-.112.018.072c.415 1.437-.236 2.984-.057 4.409h-.14a12.046 12.046 0 0 0 .394 2.5c0 .252-.254.594-.421.486a2.73 2.73 0 0 1 .032 1.663c-.244-.654-.216.226-.178-.67-.121.845-.344 1.037.037 1.944-.357-.309-.45.636-.343 1.038l.256-.592a6.231 6.231 0 0 1-.011 1.248l-.469-.217c-.572 1.729.972 3.119.015 4.435.329.458.232-.939.616-.53-.063.8-.738 1.624-.739 1.874-.26 1.089.686 1.017.509 2.157.167-.146.614-.284.772.569-.062.8-.7.978-.837.476-.014-.191.039-.283.1-.275-.061-.257-.133-.594-.315-.279l.168.1c-.171.395-.153 1.49-.428 1.233.159.6.275.257.362-.188-.243 1.021-.008 1.6-.171 2.646.092-.167.289-.321.288-.155-.208 1.541.318.679.391 1.723-.255.594-.61-.213-.4.839-.173.642-.445.136-.581-.119.323.958-.213 1.79-.272 2.337l-.135-.5a2.852 2.852 0 0 1 .077.8l.335-.288c-.058.3-.059.547-.2.542.22.305.558-.234.858.372-.17.395.183 1.2-.262 1.339.137-1.126-.341-.1-.486-.678a2.01 2.01 0 0 1-.041.511c-.049.045-.092-.042-.117-.123-.4 1.188.5.546.493 1.778-.251-.156-.476.286-.423.486.006-.5.419-.237.611.218-.2.79.145.858.122 1.272l.092-.472c.251.16.218.555.3 1.106-.2.047-.134-.5-.22-.3.44.611-.457 1.381-.16 2.234-.169.4-.471.038-.586.385.325.955-.343 1.035-.075 2.039.337-.289.255-.34.583.367l-.237-1.651.49 1.059c.005-.5-.212-1.051-.155-1.35.275.5.192.453.471.214-.505.682.3 1.352-.047 2.14l-.834-.024c-.372 1.185.428 2.1.218 3.644l.145-.495c.332.206.047.95.181 1.448-.279-.046-.38.265-.554.478.207-.026-.019 1.126.538 1.266l-.367.687c-.15 1.242.794 1.418.7 2.612-.3-.36-.5.183-.718-.617 0 .4-.054.757.14.763-.175.233.375 1.105.11 1.472.123.168.415.223.392.671a.1.1 0 0 1-.108.011c.117.091.181.658.466.3-.87 1.228.063 3.433-.684 4.5.094.87.183 1.919.2 2.708-.084-.051-.139 0-.11-.152-.26 1.09.8.67.511 1.91-.451.634-.244-.658-.415-.263-.917.172.125 1.5-.411 2.331l-.053-.2c-.312.638.347 1.556.282 2.6 0 0-.082-.051-.139-.006a8.406 8.406 0 0 1 .753 3.064c-.359-.312-.19-.455-.555-.265.052.449.586-.132.688.765-.2.292-.368.939-.758 1.025l-.021-.846c-.5.433.018 1.1-.07 1.541l-.22-.057c.071 1.3.626 1.315.587 2.708l.167-.144c.549.762-.31.639.1 1.4l-.558.23a20.139 20.139 0 0 1 .644 2.662 9.117 9.117 0 0 1-.87-2.218 4.2 4.2 0 0 0 .316 1.952c-.054-.2-.191-.454-.1-.652a3.236 3.236 0 0 1 .49 1.061 4.406 4.406 0 0 1 .12.638l.028.346c.01.118 0 .268.007.406-.3-.036-.455.207-.539.662a196.6 196.6 0 0 0 1.675.019l1.9.01 4.187.014.044-.576.033-.276.02-.128.023-.084a1.085 1.085 0 0 1 .306-.531c-.4-1.756.171-3.483.107-5.53-.841.726-.024-.6-.888-.471-.054-.473-.041-.655.014-.7l-.036.1.041-.1.515-1.442c.244-.344.183.452.376.408zm.01-68.812c.057.279-.021.372-.1.41a68.447 68.447 0 0 0-.047-.488c-.015-.008-.032-.025-.049-.033a.5.5 0 0 1 .196.11zm-7.411-28.31a.3.3 0 0 1 .062-.081v.357c-.021-.087-.043-.177-.062-.276z" class="cls-1" data-name="Path 4553"/>
        <path id="Path_4554" d="M277.23 1994.5l-.007.005c.003.036.005.027.007-.005z" class="cls-1" data-name="Path 4554" transform="translate(0 -166.747)"/>
        <path id="Path_4555" d="M277.186 1967.506l.01-.075a.4.4 0 0 0-.01.075z" class="cls-1" data-name="Path 4555" transform="translate(0 -145.123)"/>
        <path id="Path_4556" d="M277.25 1969.288c-.009-.2-.026-.311-.029-.572a25.78 25.78 0 0 0-.09.828l.125.492-.006-.748z" class="cls-1" data-name="Path 4556" transform="translate(0 -146.468)"/>
        <path id="Path_4557" d="M269.822 1962.421a2.878 2.878 0 0 1 .056-.388 2.078 2.078 0 0 1-.047.2z" class="cls-1" data-name="Path 4557" transform="translate(0 -140.886)"/>
        <path id="Path_4558" d="M269.738 1862.129l.115-5.407c-.153.945-.36 2.188-.4-.271-.453 6.816.347-1.407.285 5.678z" class="cls-1" data-name="Path 4558" transform="translate(0 -44.714)"/>
        <path id="Path_4559" d="M269.515 1878.9c-.071-2.906-.222.034-.309-.12.14 1.84.175 2.286.309.12z" class="cls-1" data-name="Path 4559" transform="translate(0 -57.55)"/>
        <path id="Path_4560" d="M269.514 2000.067l-.361-.292c.047 2.239.14.025.361.292z" class="cls-1" data-name="Path 4560" transform="translate(0 -171.253)"/>
        <path id="Path_4561" d="M268.808 2036.913l-.052-.978.131 3.736z" class="cls-1" data-name="Path 4561" transform="translate(0 -201.156)"/>
        <path id="Path_4562" d="M268.936 2240.418l.445-.677c-.081-1.514-.581-1.831-.445.677z" class="cls-1" data-name="Path 4562" transform="translate(0 -362.949)"/>
        <path id="Path_4563" d="M269.389 2328.272a17.869 17.869 0 0 0-.147 4.951c.031-1.975.205-3.945.147-4.951z" class="cls-1" data-name="Path 4563" transform="translate(0 -459.495)"/>
        <path id="Path_4564" d="M277.828 2134.727l.149 1.767-.124-3.33z" class="cls-1" data-name="Path 4564" transform="translate(0 -279.166)"/>
    </g>
</svg>
