<?xml version="1.0" encoding="UTF-8"?>
<!DOCTYPE svg PUBLIC "-//W3C//DTD SVG 1.1//EN" "http://www.w3.org/Graphics/SVG/1.1/DTD/svg11.dtd">
<svg xmlns="http://www.w3.org/2000/svg" xmlns:xlink="http://www.w3.org/1999/xlink">
	<defs>
		<path id="geo-a" d="M0 0h20v25H0z"/>
	</defs>
<symbol id="arr-top" viewBox="0 0 51.87 51.53">
	<circle cx="26.1" cy="25.76" r="24.77" fill="#fff"/>
	<path fill="#4e2f6b" d="M22.5 17.69c.62-1.09 1.57-1.99 3.32-1.99 1.8 0 2.75.9 3.37 1.99l7.83 14.43c.1.28-1.38 1.66-3.08 1.71-1.24.05-2.61-.57-3.7-2.8l-4.37-8.59-4.32 8.59c-1.14 2.23-2.52 2.85-3.7 2.8-1.8-.05-3.23-1.42-3.08-1.71l7.73-14.43z"/>
</symbol>
<symbol id="arrow" viewBox="0 0 51.87 51.53">
	<circle cx="26.1" cy="25.76" r="24.77"/>
	<path fill="#fff" d="M16.73 29.16c-1.09-.62-1.99-1.57-1.99-3.32 0-1.8.9-2.75 1.99-3.37l14.43-7.83c.28-.1 1.66 1.38 1.71 3.08.05 1.24-.57 2.61-2.8 3.7l-8.59 4.37 8.59 4.32c2.23 1.14 2.85 2.52 2.8 3.7-.05 1.8-1.42 3.23-1.71 3.08l-14.43-7.73z"/>
</symbol>
<symbol id="category" viewBox="0 0 18 18">
	<g fill="none" fill-rule="evenodd" stroke="#4E2F6B" stroke-width="2">
		<path d="M1 1h6v6H1zM11 1h6v6h-6zM11 11h6v6h-6zM1 11h6v6H1z"/>
	</g>
</symbol>
<symbol id="checkmark" viewBox="0 0 17.792 20.492">
	<path d="M6.871 20.492q-1.255-2.268-1.93-3.334l-.716-1.116-.54-.823a23.863 23.863 0 00-3.688-4.554 3.3 3.3 0 012.038-.9 2.931 2.931 0 012.065.85 15.192 15.192 0 012.281 3.24 55.349 55.349 0 013.982-9.652A11.591 11.591 0 0112.746.862 4.241 4.241 0 0115.52.005a11.381 11.381 0 012.268.283A21.712 21.712 0 0012.24 6.93a99.022 99.022 0 00-5.369 13.562z"/>
</symbol>
<symbol id="clock" viewBox="0 0 18 18">
	<g fill="none" fill-rule="evenodd" stroke="#4E2F6B" stroke-width="2">
		<circle cx="9" cy="9" r="8"/>
		<path stroke-linecap="round" stroke-linejoin="round" d="M9 4v5m5 0H9"/>
	</g>
</symbol>
<symbol id="close" viewBox="0 0 27 27">
	<path fill="none" fill-rule="evenodd" stroke="#FFF" stroke-linecap="round" stroke-linejoin="round" stroke-width="2" d="M1 1l25 25M1 26L26 1"/>
</symbol>
<symbol id="geo" viewBox="0 0 20 25">

	<g fill="none" fill-rule="evenodd">
		<mask id="geo-b" fill="#fff">
			<use xlink:href="#geo-a"/>
		</mask>
		<path fill="#4E2F6B" d="M10 3.907c-3.221 0-5.833 2.448-5.833 5.468s2.612 5.47 5.833 5.47 5.833-2.45 5.833-5.47c0-3.02-2.612-5.468-5.833-5.468M10 25a.835.835 0 01-.678-.33l-6.526-8.62c-.17-.224-.234-.309-.3-.394-.634-.826-1.259-1.642-1.707-2.633A8.901 8.901 0 010 9.375c0-2.589 1.12-4.932 2.93-6.63A10.09 10.09 0 016.179.712 10.531 10.531 0 0110 0c1.349 0 2.64.253 3.821.712a10.07 10.07 0 013.25 2.034C18.88 4.443 20 6.786 20 9.375c0 .627-.07 1.25-.2 1.863a9.098 9.098 0 01-.588 1.784c-.448.991-1.074 1.807-1.707 2.633-.067.085-.131.17-.3.394l-6.527 8.621A.835.835 0 0110 25" mask="url(#geo-b)"/>
	</g>
</symbol>
<symbol id="gift" viewBox="0 0 133.99 133.69">
	<style>
		.st0{fill:#efeded}
	</style>
	<path id="Path_5188" d="M.17 61.97h20.18c2.82-25.74 25.97-44.33 51.71-41.51 21.86 2.39 39.12 19.65 41.51 41.51h20.18C130.99 25.08 98.84-2.59 61.95.18 28.91 2.65 2.64 28.92.17 61.97z" class="st0"/>
	<path id="redeem_FILL0_wght400_GRAD0_opsz24" d="M42.93 83.96v6h48v-6h-48zm0-33h6.6c-.25-.44-.41-.92-.49-1.42-.08-.52-.11-1.05-.11-1.58-.04-2.4.91-4.7 2.62-6.38a8.64 8.64 0 016.38-2.62c1.47-.01 2.91.39 4.16 1.16 1.27.77 2.4 1.74 3.34 2.89l1.5 1.95 1.5-1.95c.89-1.19 2.01-2.19 3.3-2.92a8.233 8.233 0 014.2-1.12c2.4-.04 4.7.91 6.38 2.62a8.64 8.64 0 012.62 6.38c0 .53-.04 1.05-.11 1.58-.08.5-.24.98-.49 1.42h6.6c1.6-.02 3.13.61 4.24 1.76a5.738 5.738 0 011.76 4.24v33c.02 1.6-.62 3.13-1.76 4.24a5.738 5.738 0 01-4.24 1.76h-48c-1.6.02-3.13-.62-4.24-1.76a5.776 5.776 0 01-1.76-4.24v-33c-.02-1.6.62-3.13 1.76-4.24a5.747 5.747 0 014.24-1.77zm0 24h48v-18h-15.3l6.3 8.55-4.8 3.45-10.2-13.8-10.2 13.8-4.8-3.45 6.15-8.55H42.93v18zm15-24c.8.02 1.58-.29 2.14-.86.57-.56.88-1.34.86-2.14.02-.8-.29-1.57-.86-2.14-.56-.57-1.34-.88-2.14-.86-.8-.02-1.57.29-2.14.86-.57.56-.88 1.34-.86 2.14-.02.8.29 1.58.86 2.14.56.57 1.34.88 2.14.86zm18 0c.8.02 1.57-.29 2.14-.86.57-.56.88-1.34.86-2.14.02-.8-.29-1.57-.86-2.14-.56-.57-1.34-.88-2.14-.86-.8-.02-1.58.29-2.14.86-.57.56-.88 1.34-.86 2.14-.02.8.29 1.58.86 2.14.56.57 1.34.88 2.14.86z" class="st0"/>
</symbol>
<symbol id="hamburger" viewBox="0 0 25 19">
	<path fill-rule="evenodd" d="M0 0h25v3H0zm0 16h25v3H0zm0-8h25v3H0z"/>
</symbol>
<symbol id="instagram" viewBox="0 0 15 15">
	<path fill-rule="evenodd" d="M8.6.001a37.95 37.95 0 011.992.044c.799.037 1.344.163 1.82.349.494.191.912.448 1.33.865.416.417.673.835.864 1.328.186.477.312 1.022.349 1.82.036.8.045 1.056.045 3.093v.256c0 1.804-.01 2.071-.045 2.836-.037.799-.163 1.344-.349 1.82a3.674 3.674 0 01-.865 1.33 3.677 3.677 0 01-1.328.864c-.477.186-1.022.312-1.82.349-.8.036-1.056.045-3.093.045h-.256c-1.804 0-2.071-.01-2.836-.045-.799-.037-1.344-.163-1.82-.349a3.674 3.674 0 01-1.33-.865 3.677 3.677 0 01-.864-1.328c-.186-.477-.312-1.022-.349-1.82-.028-.627-.04-.92-.044-1.993V6.4a37.95 37.95 0 01.044-1.992c.037-.799.163-1.344.349-1.82.191-.494.448-.912.865-1.33A3.677 3.677 0 012.587.394C3.064.208 3.61.082 4.407.045c.627-.028.92-.04 1.993-.044zm-.401 1.35H6.8c-1.375.003-1.644.013-2.332.044-.73.033-1.128.156-1.392.258-.35.136-.6.299-.863.561a2.321 2.321 0 00-.56.863c-.103.264-.226.661-.259 1.392-.031.688-.041.957-.043 2.332V8.2c.002 1.375.012 1.644.043 2.332.033.73.156 1.128.258 1.392.136.35.299.6.561.863.263.262.513.425.863.56.264.103.661.226 1.392.259.688.031.957.041 2.332.043h1.4c1.375-.002 1.644-.012 2.332-.043.73-.033 1.128-.156 1.392-.258.35-.136.6-.299.863-.561.262-.263.425-.513.56-.863.103-.264.226-.661.259-1.392.031-.688.041-.957.043-2.332V6.8c-.002-1.375-.012-1.644-.043-2.332-.033-.73-.156-1.128-.258-1.392-.136-.35-.299-.6-.561-.863a2.321 2.321 0 00-.863-.56c-.264-.103-.661-.226-1.392-.259-.688-.031-.957-.041-2.332-.043zM7.5 3.65a3.85 3.85 0 110 7.704 3.85 3.85 0 010-7.705zM7.5 5a2.5 2.5 0 000 5 2.5 2.5 0 000-5zm4.004-2.404a.9.9 0 110 1.8.9.9 0 010-1.8z"/>
</symbol>
<symbol id="linked-in" viewBox="0 0 17 15">
	<path fill-rule="evenodd" d="M17 15h-3.757V9.727c0-1.38-.588-2.323-1.88-2.323-.989 0-1.539.636-1.794 1.25-.096.219-.081.525-.081.832V15H5.765s.048-9.34 0-10.19h3.723v1.6c.22-.7 1.409-1.698 3.307-1.698C15.15 4.712 17 6.178 17 9.334V15zM2.001 3.536h-.024C.777 3.536 0 2.756 0 1.769 0 .763.8 0 2.024 0c1.222 0 1.974.76 1.998 1.766 0 .988-.776 1.77-2.02 1.77zM.43 4.81h3.313V15H.43V4.81z"/>
</symbol>
<symbol id="money" viewBox="0 0 15 18">
	<text fill="#4E2F6B" fill-rule="evenodd" font-family="OmnesMedium, Omnes" font-size="26" font-weight="400" letter-spacing="1.393" transform="translate(-775 -896)">
		<tspan x="775" y="914">&#xA3;</tspan>
	</text>
</symbol>
<symbol id="people" viewBox="0 0 133.99 133.69">
	<style>
		.st0{fill:#efeded}
	</style>
	<path id="Path_5184" d="M127.35 37.64l-17.48 10.09c10.43 23.7-.32 51.38-24.03 61.81-20.13 8.86-43.71 2.54-56.71-15.2l-17.48 10.09c20.84 30.57 62.51 38.45 93.07 17.62 27.4-18.67 37.01-54.55 22.63-84.41z" class="st0"/>
	<path id="diversity_1_FILL0_wght400_GRAD0_opsz24" d="M39.41 68.44a24.95 24.95 0 01-1.75-4.56c-.41-1.53-.62-3.1-.62-4.69-.11-4.4 1.61-8.66 4.75-11.75 3.09-3.14 7.35-4.86 11.75-4.75 2.59-.01 5.15.56 7.5 1.66 2.32 1.06 4.37 2.63 6 4.59 1.63-1.96 3.68-3.53 6-4.59a17.68 17.68 0 017.5-1.66c4.4-.11 8.66 1.61 11.75 4.75 3.14 3.09 4.86 7.35 4.75 11.75 0 1.58-.21 3.16-.62 4.69-.43 1.58-1.02 3.1-1.75 4.56-.45-.78-.99-1.49-1.62-2.13a7.176 7.176 0 00-2.19-1.5c.36-.91.65-1.85.88-2.81.21-.92.31-1.87.31-2.81.07-3.07-1.13-6.03-3.31-8.19a11.094 11.094 0 00-8.19-3.31c-3.37 0-5.97.93-7.78 2.78a150.45 150.45 0 00-5.72 6.22c-2-2.33-3.91-4.42-5.72-6.25s-4.41-2.75-7.78-2.75c-3.07-.07-6.03 1.13-8.19 3.31a11.079 11.079 0 00-3.31 8.19c0 .95.1 1.89.31 2.81.22.96.51 1.9.88 2.81a7.3 7.3 0 00-2.19 1.5c-.64.64-1.19 1.35-1.64 2.13zm-2.37 21.75v-3.94a4.98 4.98 0 012.78-4.41c2.21-1.19 4.71-1.76 7.22-1.66.54 0 1.06.01 1.56.03.48.02.96.07 1.44.16-.58.82-1.02 1.73-1.31 2.69-.3.99-.44 2.03-.44 3.06v4.06l-11.25.01zm15 0v-4.06c0-2.71 1.39-4.9 4.16-6.56s6.39-2.5 10.84-2.5c4.5 0 8.12.83 10.88 2.5s4.12 3.85 4.12 6.56v4.06h-30zm33.75 0v-4.06c.01-1.03-.13-2.06-.41-3.06-.27-.95-.68-1.86-1.22-2.69.46-.08.93-.14 1.41-.16.48-.02.97-.03 1.47-.03 2.52-.11 5.03.46 7.25 1.66 1.67.84 2.73 2.54 2.75 4.41v3.94H85.79zm-18.75-8.13c-2.16-.03-4.31.28-6.37.94-1.87.63-2.98 1.35-3.31 2.19H76.8c-.37-.83-1.49-1.56-3.34-2.19-2.09-.66-4.25-.97-6.42-.94zm-20-4.37c-1.33.02-2.61-.51-3.53-1.47-.96-.92-1.49-2.2-1.47-3.53-.03-1.34.5-2.63 1.47-3.56a4.87 4.87 0 013.53-1.44c1.34-.03 2.62.49 3.56 1.44.95.94 1.47 2.23 1.44 3.56.02 1.32-.5 2.6-1.44 3.53-.93.97-2.22 1.5-3.56 1.47zm40 0c-1.33.02-2.61-.51-3.53-1.47-.96-.92-1.49-2.2-1.47-3.53-.03-1.34.5-2.63 1.47-3.56a4.87 4.87 0 013.53-1.44c1.34-.03 2.62.49 3.56 1.44.95.94 1.47 2.23 1.44 3.56.02 1.32-.5 2.6-1.44 3.53-.93.97-2.22 1.5-3.56 1.47zm-20-2.5c-2 .04-3.92-.76-5.31-2.19a7.263 7.263 0 01-2.19-5.31c-.05-2.01.74-3.95 2.19-5.34a7.33 7.33 0 015.31-2.16c2-.05 3.94.73 5.34 2.16a7.24 7.24 0 012.16 5.34c.04 1.99-.74 3.91-2.16 5.31a7.183 7.183 0 01-5.34 2.19zm0-10c-.67-.02-1.31.24-1.78.72-.48.47-.74 1.11-.72 1.78-.02.67.24 1.31.72 1.78.47.48 1.11.74 1.78.72.67.02 1.31-.24 1.78-.72.48-.47.74-1.11.72-1.78.02-.67-.24-1.31-.72-1.78-.47-.48-1.11-.74-1.78-.72z" class="st0"/>
</symbol>
<symbol id="play" viewBox="0 0 74 74">
	<g fill="none" fill-rule="evenodd">
		<circle cx="37" cy="37" r="35.5" fill="#FFF" fill-opacity=".7" stroke="#4E2F6B" stroke-width="3"/>
		<path fill="#4E2F6B" d="M59 36.5L24 57V16z"/>
	</g>
</symbol>
<symbol id="star" viewBox="0 0 51.87 51.53">
	<circle cx="26.39" cy="25.77" r="24.77" fill="#4e2f6b"/>
	<path fill="#fff" stroke="#fff" stroke-miterlimit="10" d="M34.92 39.22c-.21 0-.42-.05-.62-.15l-7.92-4.16-7.92 4.16a1.35 1.35 0 01-1.4-.1c-.41-.3-.61-.8-.53-1.3l1.51-8.82-6.4-6.24c-.36-.35-.49-.88-.34-1.36.16-.48.57-.83 1.07-.9l8.85-1.29 3.96-8.02c.22-.45.68-.74 1.19-.74.5 0 .96.29 1.19.74l3.96 8.02 8.85 1.29c.5.07.91.42 1.07.9.16.48.03 1.01-.34 1.36l-6.4 6.24 1.51 8.82c.09.5-.12 1-.53 1.3-.21.17-.48.25-.76.25zm-.08-1.44l-1.49-8.69c-.08-.45.07-.91.4-1.23l6.31-6.15-8.72-1.27c-.45-.07-.84-.35-1.05-.76l-3.9-7.91-3.9 7.91c-.2.41-.59.69-1.05.76l-8.72 1.27 6.31 6.15c.33.32.48.78.4 1.23l-1.49 8.69 7.8-4.1c.2-.11.42-.16.65-.16.22 0 .44.05.65.16l7.8 4.1z"/>
</symbol>
<symbol id="stat four" viewBox="0 0 133.99 133.69">
	<style>
		.st0{fill:#efeded}
	</style>
	<path id="Path_5190" d="M11.65 29.22l17.48 10.09c15.31-20.89 44.65-25.41 65.54-10.1 17.74 13 24.06 36.58 15.2 56.71l17.48 10.09C143.4 62.68 129.4 22.65 96.07 6.6 66.2-7.78 30.32 1.83 11.65 29.22z" class="st0"/>
	<path id="chat_FILL0_wght400_GRAD0_opsz24" d="M48.99 77.96h24v-6h-24v6zm0-9h36v-6h-36v6zm0-9h36v-6h-36v6zm-12 42v-54c-.02-1.6.61-3.13 1.76-4.24a5.738 5.738 0 014.24-1.76h48c1.6-.02 3.13.62 4.24 1.76a5.738 5.738 0 011.76 4.24v36c.02 1.6-.62 3.13-1.76 4.24a5.738 5.738 0 01-4.24 1.76h-42l-12 12zm9.45-18h44.55v-36h-48v39.37l3.45-3.37zm-3.45 0z" class="st0"/>
</symbol>
<symbol id="stat-one" viewBox="0 0 133.99 133.69">
	<style>
		.st0{fill:#efeded}
	</style>
	<path id="Path_5183" d="M85.93 109.55c-23.7 10.43-51.38-.32-61.81-24.03-8.86-20.13-2.54-43.71 15.2-56.71L29.28 11.42c-30.56 20.8-38.47 62.43-17.67 92.99 18.63 27.38 54.48 37.01 84.33 22.66-.01.01-10.01-17.52-10.01-17.52z" class="st0"/>
	<path id="bolt_FILL0_wght400_GRAD0_opsz24" d="M62.67 85.16l15.53-18.6h-12l2.18-17.03L54.5 69.56h10.42l-2.25 15.6zm-7.65 11.4l3-21h-15l27-39h6l-3 24h18l-30 36h-6z" class="st0"/>
</symbol>
<symbol id="triangle" viewBox="0 0 24 14">
	<path fill-rule="evenodd" d="M12 14L0 0h24z"/>
</symbol>
<symbol id="twitter" viewBox="0 0 18 15">
	<path fill-rule="evenodd" d="M18 1.776c-.661.3-1.373.505-2.12.596A3.776 3.776 0 0017.503.277a7.255 7.255 0 01-2.346.918A3.64 3.64 0 0012.462 0C10.424 0 8.77 1.696 8.77 3.787c0 .296.032.585.095.862-3.069-.158-5.79-1.664-7.612-3.958a3.857 3.857 0 00-.5 1.906c0 1.313.652 2.472 1.643 3.152a3.626 3.626 0 01-1.673-.473v.047c0 1.835 1.273 3.366 2.963 3.713a3.616 3.616 0 01-1.668.066c.47 1.504 1.833 2.599 3.45 2.628A7.298 7.298 0 01-.001 13.3 10.282 10.282 0 005.66 15c6.794 0 10.508-5.77 10.508-10.774 0-.164-.003-.329-.01-.49A7.558 7.558 0 0018 1.776"/>
</symbol>
</svg>