<svg xmlns="http://www.w3.org/2000/svg" xmlns:xlink="http://www.w3.org/1999/xlink" width="39.771" height="70" viewBox="0 0 39.771 70">
  <defs>
    <clipPath id="clip-path">
      <rect id="Rectangle_897" data-name="Rectangle 897" width="39.771" height="70" fill="#e5167a"/>
    </clipPath>
  </defs>
  <g id="Group_986" data-name="Group 986" transform="translate(0 0.001)">
    <g id="Group_985" data-name="Group 985" transform="translate(0 0)" clip-path="url(#clip-path)">
      <path id="Path_2335" data-name="Path 2335" d="M10.971,7.025a4.787,4.787,0,0,0-3.51,1.459A4.789,4.789,0,0,0,6,12a4.78,4.78,0,0,0,1.462,3.51,4.78,4.78,0,0,0,3.51,1.462,4.78,4.78,0,0,0,3.51-1.462A4.78,4.78,0,0,0,15.943,12a4.789,4.789,0,0,0-1.462-3.512,4.787,4.787,0,0,0-3.51-1.459" transform="translate(8.914 10.438)" fill="#e5167a"/>
      <path id="Path_2336" data-name="Path 2336" d="M37.534,30.885l-5.22-3.48a38.363,38.363,0,0,0-3.139-16.033A28.346,28.346,0,0,0,19.886,0,28.346,28.346,0,0,0,10.6,11.372,38.363,38.363,0,0,0,7.457,27.4l-5.22,3.48a4.771,4.771,0,0,0-1.648,1.8A5,5,0,0,0,0,35.048V49.776L12.366,44.8H27.4l12.366,4.971V35.048a5,5,0,0,0-.589-2.361,4.771,4.771,0,0,0-1.648-1.8M4.971,42.443V35.048L7.892,33.06a34.06,34.06,0,0,0,.84,3.729q.526,1.864,1.148,3.666Zm21.688-8.668a27.4,27.4,0,0,1-1.8,6.058H14.914a27.4,27.4,0,0,1-1.8-6.058,38.869,38.869,0,0,1-.684-7.3,33.059,33.059,0,0,1,2.051-11.651,20.817,20.817,0,0,1,5.406-8.484,20.817,20.817,0,0,1,5.406,8.484,33.059,33.059,0,0,1,2.051,11.651,38.869,38.869,0,0,1-.684,7.3M34.8,42.443l-4.909-1.989q.623-1.8,1.148-3.666a34.061,34.061,0,0,0,.84-3.729L34.8,35.048Z" transform="translate(0 0.001)" fill="#e5167a"/>
    </g>
  </g>
</svg>
