<svg xmlns="http://www.w3.org/2000/svg" width="17.792" height="20.492" viewBox="0 0 17.792 20.492"><path d="M9.574 31.95q-1.255-2.268-1.93-3.334L6.928 27.5l-.54-.823A23.863 23.863 0 0 0 2.7 22.123a3.3 3.3 0 0 1 2.038-.9 2.931 2.931 0 0 1 2.065.85 15.192 15.192 0 0 1 2.281 3.24 55.349 55.349 0 0 1 3.982-9.652 11.591 11.591 0 0 1 2.383-3.341 4.241 4.241 0 0 1 2.774-.857 11.381 11.381 0 0 1 2.268.283 21.712 21.712 0 0 0-5.548 6.642A99.022 99.022 0 0 0 9.574 31.95Z" transform="translate(-2.703 -11.458)"/></svg>