<?xml version="1.0" encoding="utf-8"?>
<!-- Generator: Adobe Illustrator 27.8.0, SVG Export Plug-In . SVG Version: 6.00 Build 0)  -->
<svg version="1.1" id="Layer_1" xmlns="http://www.w3.org/2000/svg" xmlns:xlink="http://www.w3.org/1999/xlink" x="0px" y="0px"
	 viewBox="0 0 133.99 133.69" style="enable-background:new 0 0 133.99 133.69;" xml:space="preserve">
<style type="text/css">
	.st0{fill:#EFEDED;}
</style>
<path id="Path_5188" class="st0" d="M0.17,61.97h20.18c2.82-25.74,25.97-44.33,51.71-41.51c21.86,2.39,39.12,19.65,41.51,41.51
	h20.18c-2.76-36.89-34.91-64.56-71.8-61.79C28.91,2.65,2.64,28.92,0.17,61.97z"/>
<path id="redeem_FILL0_wght400_GRAD0_opsz24" class="st0" d="M42.93,83.96v6h48v-6H42.93z M42.93,50.96h6.6
	c-0.25-0.44-0.41-0.92-0.49-1.42c-0.08-0.52-0.11-1.05-0.11-1.58c-0.04-2.4,0.91-4.7,2.62-6.38c1.67-1.72,3.98-2.67,6.38-2.62
	c1.47-0.01,2.91,0.39,4.16,1.16c1.27,0.77,2.4,1.74,3.34,2.89l1.5,1.95l1.5-1.95c0.89-1.19,2.01-2.19,3.3-2.92
	c1.27-0.74,2.72-1.13,4.2-1.12c2.4-0.04,4.7,0.91,6.38,2.62c1.72,1.67,2.67,3.98,2.62,6.38c0,0.53-0.04,1.05-0.11,1.58
	c-0.08,0.5-0.24,0.98-0.49,1.42h6.6c1.6-0.02,3.13,0.61,4.24,1.76c1.15,1.11,1.79,2.64,1.76,4.24v33c0.02,1.6-0.62,3.13-1.76,4.24
	c-1.11,1.15-2.64,1.79-4.24,1.76h-48c-1.6,0.02-3.13-0.62-4.24-1.76c-1.15-1.11-1.78-2.64-1.76-4.24v-33
	c-0.02-1.6,0.62-3.13,1.76-4.24C39.8,51.57,41.33,50.94,42.93,50.96z M42.93,74.96h48v-18h-15.3l6.3,8.55l-4.8,3.45l-10.2-13.8
	l-10.2,13.8l-4.8-3.45l6.15-8.55H42.93V74.96z M57.93,50.96c0.8,0.02,1.58-0.29,2.14-0.86c0.57-0.56,0.88-1.34,0.86-2.14
	c0.02-0.8-0.29-1.57-0.86-2.14c-0.56-0.57-1.34-0.88-2.14-0.86c-0.8-0.02-1.57,0.29-2.14,0.86c-0.57,0.56-0.88,1.34-0.86,2.14
	c-0.02,0.8,0.29,1.58,0.86,2.14C56.35,50.67,57.13,50.98,57.93,50.96z M75.93,50.96c0.8,0.02,1.57-0.29,2.14-0.86
	c0.57-0.56,0.88-1.34,0.86-2.14c0.02-0.8-0.29-1.57-0.86-2.14c-0.56-0.57-1.34-0.88-2.14-0.86c-0.8-0.02-1.58,0.29-2.14,0.86
	c-0.57,0.56-0.88,1.34-0.86,2.14c-0.02,0.8,0.29,1.58,0.86,2.14C74.35,50.67,75.13,50.98,75.93,50.96z"/>
</svg>
