<?xml version="1.0" encoding="utf-8"?>
<!-- Generator: Adobe Illustrator 24.1.1, SVG Export Plug-In . SVG Version: 6.00 Build 0)  -->
<svg version="1.1" id="Layer_1" xmlns="http://www.w3.org/2000/svg" xmlns:xlink="http://www.w3.org/1999/xlink" x="0px" y="0px"
	 viewBox="0 0 706.7 281.7" style="enable-background:new 0 0 706.7 281.7;" xml:space="preserve">
<style type="text/css">
	.st0{fill:#FFFFFF;}
</style>
<path class="st0" d="M46.4,109.3C63,140.8,86.6,208,28.6,218c-9.5,1.6-22.3-1.6-22.3-1.6c49.9-14.2,31-72.4,12.9-106.3
	C2.6,78.6-21,11.6,36.7,0.9C46.4-1,51.4,0.4,59,2.4C7.3,16.3,30.7,79.1,46.4,109.3"/>
<path class="st0" d="M85.7,217.6V108.9H105v61.6C105,199,85.1,220.7,85.7,217.6 M85.7,97.5V70.8H105v4.1
	C105,90.1,85.1,100.5,85.7,97.5"/>
<path class="st0" d="M194.7,124c0-8-38.3-19-53.2,25.4c-8.8,26.2-3.1,51.4,13.1,59.4c18.2,9,40.1-9,40.1-13.3V124z M193.5,278.7
	c-6.5,3.3-15.5,4.3-26,1.2c19,0.2,27.2-21.9,27.2-42.2V216c-6.8,2.7-14.3,5.1-22.1,5.1c-28.1,0-52-25.8-52-57.3
	c0-31.9,24.4-54.9,52.4-54.9h40.7v22.7v72.5v38.7C213.8,254.3,205.8,272.3,193.5,278.7"/>
<path class="st0" d="M296.4,204.3c-1.8-3.1-3.7-6.5-5.1-10.2c-2-4.9-3.7-10.7-3.7-16.2v-27.2c0-14.5-18.2-40.1-39.1-31.7v59
	c0,5.7-1.4,11.5-3.7,16.8c-2.5,6-5.5,11.3-8.4,15.6c-3.9,5.5-7.1,8-7,7.4V108.9h30.7c30.1,0,46.7,23.1,46.7,41.8v67.2
	C306.4,218.7,301.5,213.6,296.4,204.3"/>
<path class="st0" d="M391.3,123.9c0,0-36.2-25-53.6,25.4c-9,26.2-2.3,52.2,12.5,59.6c19.9,10,41.1-10.4,41.1-14.7V123.9z
	 M401.3,208.4c-6.8,8.6-24.4,11.9-32.1,11.9c-28,0-52-25.2-52-56.7c0-31.9,24.4-54.7,52.4-54.7h40.7v110.6
	C410.9,220.9,406,217,401.3,208.4"/>
<path class="st0" d="M464.8,120.2c-2.5,0.6-11.9-4.3-16.4-3.3v56.7c0,21.3,8,43.4,27,43.2c-32.6,9.2-46.3-16.4-46.3-39.3v-119h19.2
	v50.4h29.7C482.2,108.9,469.3,118.9,464.8,120.2"/>
<path class="st0" d="M512.5,217.4h-30.7V108.9h19v98.5c20.9,8.4,39.1-17.2,39.1-31.8v-66.8h19.2v66.8
	C559.2,199,537.7,217.4,512.5,217.4"/>
<path class="st0" d="M615.1,120.4c-3.3,0.2-18.2-8.6-18.2-0.8v51c0,28.5-19.9,50.2-18.9,47.1V108.9h18.9h0.2h32.2
	C633.5,108.9,620,120.2,615.1,120.4"/>
<path class="st0" d="M661,119.8c-11.7,7.1-24.6,32.4-16.2,58.1c5.8-0.8,45.9-14.1,45.9-52.2C690.7,116.7,675.1,111.2,661,119.8
	 M676.3,221.1c-20.7,0-39.5-12.5-47.1-33.6c-17.6-48.5,18.9-80.3,46.3-80.1c57.3,0.4,27.7,72.9-25.2,81.3c-2.7,0.4,32.2,43,54.5,8.4
	C705.4,199,703.2,221.1,676.3,221.1"/>
</svg>
