<?xml version="1.0" encoding="utf-8"?>
<!-- Generator: Adobe Illustrator 24.2.3, SVG Export Plug-In . SVG Version: 6.00 Build 0)  -->
<svg version="1.1" id="Layer_1" xmlns="http://www.w3.org/2000/svg" xmlns:xlink="http://www.w3.org/1999/xlink" x="0px" y="0px"
	 viewBox="0 0 51.87 51.53" style="enable-background:new 0 0 51.87 51.53;" xml:space="preserve">
<style type="text/css">
	.st0{fill:#4E2F6B;}
	.st1{fill:#FFFFFF;stroke:#FFFFFF;stroke-miterlimit:10;}
</style>
<g>
	<circle class="st0" cx="26.39" cy="25.77" r="24.77"/>
	<path class="st1" d="M34.92,39.22c-0.21,0-0.42-0.05-0.62-0.15l-7.92-4.16l-7.92,4.16c-0.19,0.1-0.41,0.15-0.62,0.15
		c-0.27,0-0.55-0.09-0.78-0.25c-0.41-0.3-0.61-0.8-0.53-1.3l1.51-8.82l-6.4-6.24c-0.36-0.35-0.49-0.88-0.34-1.36
		c0.16-0.48,0.57-0.83,1.07-0.9l8.85-1.29l3.96-8.02c0.22-0.45,0.68-0.74,1.19-0.74c0.5,0,0.96,0.29,1.19,0.74l3.96,8.02l8.85,1.29
		c0.5,0.07,0.91,0.42,1.07,0.9c0.16,0.48,0.03,1.01-0.34,1.36l-6.4,6.24l1.51,8.82c0.09,0.5-0.12,1-0.53,1.3
		C35.47,39.14,35.2,39.22,34.92,39.22z M34.84,37.78l-1.49-8.69c-0.08-0.45,0.07-0.91,0.4-1.23l6.31-6.15l-8.72-1.27
		c-0.45-0.07-0.84-0.35-1.05-0.76l-3.9-7.91l-3.9,7.91c-0.2,0.41-0.59,0.69-1.05,0.76l-8.72,1.27l6.31,6.15
		c0.33,0.32,0.48,0.78,0.4,1.23l-1.49,8.69l7.8-4.1c0.2-0.11,0.42-0.16,0.65-0.16c0.22,0,0.44,0.05,0.65,0.16L34.84,37.78z"/>
</g>
</svg>
