<?xml version="1.0" encoding="utf-8"?>
<!-- Generator: Adobe Illustrator 27.8.0, SVG Export Plug-In . SVG Version: 6.00 Build 0)  -->
<svg version="1.1" id="Layer_1" xmlns="http://www.w3.org/2000/svg" xmlns:xlink="http://www.w3.org/1999/xlink" x="0px" y="0px"
	 viewBox="0 0 133.99 133.69" style="enable-background:new 0 0 133.99 133.69;" xml:space="preserve">
<style type="text/css">
	.st0{fill:#EFEDED;}
</style>
<path id="Path_5183" class="st0" d="M85.93,109.55c-23.7,10.43-51.38-0.32-61.81-24.03c-8.86-20.13-2.54-43.71,15.2-56.71
	L29.28,11.42c-30.56,20.8-38.47,62.43-17.67,92.99c18.63,27.38,54.48,37.01,84.33,22.66C95.93,127.08,85.93,109.55,85.93,109.55z"/>
<path id="bolt_FILL0_wght400_GRAD0_opsz24" class="st0" d="M62.67,85.16l15.53-18.6h-12l2.18-17.03L54.5,69.56h10.42L62.67,85.16z
	 M55.02,96.56l3-21h-15l27-39h6l-3,24h18l-30,36H55.02z"/>
</svg>
