<svg xmlns="http://www.w3.org/2000/svg" width="10.367" height="6.912" viewBox="0 0 10.367 6.912">
  <path id="Path_17" data-name="Path 17" d="M280.442,443.138a.576.576,0,0,0-.815,0l-1.9,1.9V437.21a.576.576,0,0,0-1.152,0v7.825l-1.9-1.9a.576.576,0,0,0-.814.814l2.88,2.88.011.009a.556.556,0,0,0,.076.062.539.539,0,0,0,.054.029c.015.008.03.017.045.024a.544.544,0,0,0,.066.02c.014,0,.027.009.042.012a.564.564,0,0,0,.226,0c.016,0,.031-.009.046-.014a.573.573,0,0,0,.061-.019c.018-.007.034-.018.051-.027s.033-.016.048-.026a.551.551,0,0,0,.088-.072l2.88-2.88A.576.576,0,0,0,280.442,443.138Z" transform="translate(447.001 -273.699) rotate(90)" fill="rgba(255,255,255,0.6)"/>
</svg>
