<svg xmlns="http://www.w3.org/2000/svg" width="13.673" height="19.884" viewBox="0 0 13.673 19.884">
  <g id="Group_5" data-name="Group 5" transform="translate(-1134.62 -1084.129)">
    <g id="Group_3" data-name="Group 3" transform="translate(1754.458 727.924) rotate(90)">
      <path id="Path_1" data-name="Path 1" d="M376.089,612.991l-6.613-6.614,0,0h0a.747.747,0,0,0-1.056,1.056h0l5.57,5.57-5.568,5.568h0a.747.747,0,0,0,1.055,1.057h0l6.616-6.616L376.08,613Z" fill="#707070"/>
    </g>
    <g id="Group_4" data-name="Group 4" transform="translate(528.455 1460.218) rotate(-90)">
      <path id="Path_1-2" data-name="Path 1" d="M376.089,612.991l-6.613-6.614,0,0h0a.747.747,0,0,0-1.056,1.056h0l5.57,5.57-5.568,5.568h0a.747.747,0,0,0,1.055,1.057h0l6.616-6.616L376.08,613Z" fill="#707070"/>
    </g>
  </g>
</svg>
