<svg xmlns="http://www.w3.org/2000/svg" width="144.952" height="40" viewBox="0 0 144.952 40">
  <path id="steinberger-logo" d="M138.392,19.22c0-1.972.138-6.606,2.432-6.652.918,0,1.008,1.332,2.522,1.332a1.618,1.618,0,0,0,1.606-1.7c0-1.972-2.156-1.972-2.156-1.972-2.156,0-3.624,1.652-4.4,3.486V10.55h-5.78v.734h.6c.642,0,1.33.046,1.33,1.33V29.4c0,1.284-.642,1.376-1.284,1.376h-.5v.78h7.292v-.78h-.458c-.688,0-1.194-.412-1.194-1.376V19.22Zm-12.2-8.212c2.018,0,2.386,4.77,2.386,7.89,0,.368-.138.6-.5.6h-5.046c.274-5.782,1.512-8.488,3.164-8.488m.228,20.828c3.532,0,5.184-3.486,5.872-6.514h-1.468c-.55,2.338-1.56,5.642-4.266,5.642h-.184c-1.926,0-3.394-1.7-3.394-8.76v-1.7h8.99c.412,0,.412-.368.412-.688,0-4.038-1.7-9.588-6.148-9.588-4.542,0-7.2,5.322-7.2,10.964,0,5.5,2.8,10.642,7.388,10.642m-18.394-14.36c0-5.046,1.146-6.7,2.89-6.7,1.926,0,3.072,1.652,3.072,6.7,0,4.954-1.192,6.238-3.028,6.238-1.878,0-2.934-1.192-2.934-6.238m8.488,17.662c0,2.524-2.706,4.174-5.552,4.174-3.3,0-5.6-1.972-5.6-4.45a4.047,4.047,0,0,1,3.21-3.9c3.488.782,7.938.874,7.938,4.176m-12.478-17.8a6.858,6.858,0,0,0,4.5,6.652c-1.972.322-3.992,1.422-3.992,3.532,0,1.742,1.194,2.57,2.8,3.12-2.11.6-4.036,2.156-4.036,4.128,0,3.854,4.084,5.23,7.478,5.23,4.312,0,8.35-2.432,8.35-7.064,0-6.376-11.422-4.4-11.422-7.11,0-.6,1.192-1.468,3.164-1.468a6.816,6.816,0,0,0,7.11-7.02,6.932,6.932,0,0,0-3.67-6.33c.412-.826.734-1.376,1.422-1.376.642,0,1.422.55,2.294.55a1.679,1.679,0,0,0,1.56-1.788,1.778,1.778,0,0,0-1.834-1.742c-2.156,0-3.808,2.752-4.128,4.036a8.336,8.336,0,0,0-2.706-.46,6.784,6.784,0,0,0-6.884,7.11M97.8,19.22c0-1.972.138-6.606,2.432-6.652.918,0,1.008,1.332,2.524,1.332a1.617,1.617,0,0,0,1.6-1.7c0-1.972-2.156-1.972-2.156-1.972-2.156,0-3.624,1.652-4.4,3.486V10.55h-5.78v.734h.6c.642,0,1.33.046,1.33,1.33V29.4c0,1.284-.642,1.376-1.284,1.376h-.5v.78h7.292v-.78h-.458c-.688,0-1.194-.412-1.194-1.376V19.22ZM85.6,11.008c2.018,0,2.386,4.77,2.386,7.89,0,.368-.138.6-.5.6H82.432c.274-5.782,1.512-8.488,3.164-8.488m.228,20.828c3.532,0,5.184-3.486,5.872-6.514H90.228c-.55,2.338-1.56,5.642-4.266,5.642h-.184c-1.926,0-3.394-1.7-3.394-8.76v-1.7h8.99c.412,0,.412-.368.412-.688,0-4.038-1.7-9.588-6.146-9.588-4.542,0-7.2,5.322-7.2,10.964,0,5.5,2.8,10.642,7.386,10.642M66.926.5h-5.78v.734h.6c.642,0,1.33.046,1.33,1.33V29.4c0,1.284-.642,1.376-1.284,1.376h-.5v.78h5.642V30.32a3.422,3.422,0,0,0,2.89,1.514c4.632,0,7.66-5.184,7.66-11.1,0-5.734-2.522-10.506-6.926-10.506A4.079,4.079,0,0,0,66.926,12.2Zm3.166,10.688c1.836,0,3.44,2.018,3.44,9.586,0,2.57-.23,10.046-3.808,10.046-1.652,0-2.476-1.33-2.8-2.982V16.192c0-2.248.826-5,3.166-5m-26.1-.642v.734h.6c.642,0,1.33.046,1.33,1.33V29.4c0,1.284-.642,1.376-1.284,1.376h-.5v.78h7.294v-.78h-.46c-.688,0-1.192-.412-1.192-1.376v-15a2.791,2.791,0,0,1,2.706-2.8c2.018,0,2.89,1.6,2.89,3.532V29.4c0,1.284-.642,1.376-1.284,1.376h-.5v.78h7.294v-.78h-.506c-.642,0-1.146-.412-1.146-1.376V15.5c0-3.67-2.432-5.276-5.368-5.276a5.045,5.045,0,0,0-4.082,1.88v-1.56H43.99Zm-7.706,0v.734h.6c.642,0,1.33.046,1.33,1.33V29.4c0,1.284-.642,1.376-1.284,1.376h-.5v.78h7.294v-.78h-.46c-.688,0-1.192-.412-1.192-1.376V10.55Zm1.01-4.312A2.526,2.526,0,0,0,39.77,8.944a2.5,2.5,0,0,0,2.476-2.706A2.526,2.526,0,0,0,39.77,3.762a2.556,2.556,0,0,0-2.476,2.476m-7.432,4.77c2.018,0,2.386,4.77,2.386,7.89,0,.368-.138.6-.506.6H26.7c.276-5.782,1.516-8.488,3.166-8.488m.23,20.828c3.532,0,5.184-3.486,5.872-6.514H34.5c-.55,2.338-1.56,5.642-4.266,5.642h-.184c-1.928,0-3.394-1.7-3.394-8.76v-1.7h8.99c.412,0,.412-.368.412-.688,0-4.038-1.7-9.588-6.148-9.588-4.542,0-7.2,5.322-7.2,10.964,0,5.5,2.8,10.642,7.388,10.642M18.3,5.824a8.3,8.3,0,0,1-3.166,4.45,4.541,4.541,0,0,1-1.88.6V11.6h2.018v15.5c0,3.348,2.064,4.726,4.632,4.726A4.3,4.3,0,0,0,23.76,29.54l-.6-.46a2.235,2.235,0,0,1-1.88,1.376c-1.376,0-2.11-.964-2.11-2.66V11.606H23.4V10.55H19.174V5.824ZM13.578,23.716c0-8.12-10.32-11.376-10.32-18.12,0-2.294,1.376-4.5,3.852-4.5,3.166,0,4.222,3.44,4.45,5.734h.872V.642A24.129,24.129,0,0,0,7.43,0,7.424,7.424,0,0,0,0,7.66c0,8.164,10.458,11.146,10.458,18.9,0,2.11-1.056,4.4-3.946,4.4-3.256,0-4.908-4.22-5.138-7.248H.55v7.616a58.659,58.659,0,0,0,5.962.734c4.728,0,7.066-4.314,7.066-8.35"/>
</svg>
