<svg xmlns="http://www.w3.org/2000/svg" width="25" height="25.006" viewBox="0 0 25 25.006">
  <path id="WA_Logo" data-name="WA Logo" d="M432.557,344a12.458,12.458,0,1,1,10.786,6.206h-.005a12.482,12.482,0,0,1-5.948-1.508l-6.6,1.723Zm5.516,2.678a10.366,10.366,0,0,0,5.266,1.436h0a10.337,10.337,0,0,0,10.346-10.3,10.324,10.324,0,0,0-10.342-10.306,10.3,10.3,0,0,0-8.769,15.779l.246.39-1.045,3.8,3.916-1.022Zm7.3-3.094a17.926,17.926,0,0,1-1.773-.652,13.839,13.839,0,0,1-5.313-4.675,6.008,6.008,0,0,1-1.27-3.2,3.466,3.466,0,0,1,1.089-2.583,1.145,1.145,0,0,1,.829-.387c.207,0,.415,0,.6.011h.07c.181,0,.407,0,.63.531.259.62.881,2.144.959,2.3a.568.568,0,0,1,.026.542,2.112,2.112,0,0,1-.311.517c-.156.181-.327.4-.467.542-.156.154-.318.322-.136.632a9.335,9.335,0,0,0,1.73,2.145,8.5,8.5,0,0,0,2.5,1.537c.311.155.492.129.674-.077s.778-.9.985-1.214.415-.258.7-.155,1.814.852,2.125,1.007.518.233.6.362a2.578,2.578,0,0,1-.181,1.472,3.2,3.2,0,0,1-2.1,1.472,5.116,5.116,0,0,1-.755.059A3.964,3.964,0,0,1,445.375,343.583Z" transform="translate(-430.791 -325.415)"/>
</svg>
