<?xml version="1.0" standalone="no"?>
<!DOCTYPE svg PUBLIC "-//W3C//DTD SVG 20010904//EN"
 "http://www.w3.org/TR/2001/REC-SVG-20010904/DTD/svg10.dtd">
<svg version="1.0" xmlns="http://www.w3.org/2000/svg"
 width="512.000000pt" height="512.000000pt" viewBox="0 0 512.000000 512.000000"
 preserveAspectRatio="xMidYMid meet">
<metadata>
Created by potrace 1.14, written by Peter Selinger 2001-2017
</metadata>
<g transform="translate(0.000000,512.000000) scale(0.100000,-0.100000)"
fill="#000000" stroke="none">
<path d="M105 5110 c-4 -6 -10 -8 -15 -5 -15 9 -79 -66 -85 -99 -3 -17 -5
-517 -3 -1111 l3 -1080 24 -32 c50 -67 -27 -63 1334 -63 1153 0 1234 1 1266
18 19 9 44 30 55 45 21 28 21 32 21 1137 0 1105 0 1109 -21 1137 -11 15 -36
36 -55 45 -32 17 -113 18 -1276 18 -830 0 -1244 -3 -1248 -10z"/>
<path d="M3093 5102 c-17 -9 -42 -30 -55 -47 l-23 -30 -3 -1093 -2 -1094 22
-39 c14 -25 37 -46 63 -59 41 -20 57 -20 986 -18 l944 3 31 22 c68 49 64 -24
64 1175 -1 1197 3 1123 -63 1172 -28 21 -32 21 -980 23 -883 2 -954 1 -984
-15z"/>
<path d="M105 2392 c-39 -13 -67 -37 -86 -74 -18 -36 -19 -72 -19 -1112 0
-1188 -3 -1127 63 -1177 l32 -24 882 0 c876 0 882 0 910 21 15 11 36 36 45 55
17 32 18 106 18 1117 0 1189 3 1127 -61 1173 l-34 24 -865 2 c-476 0 -874 -2
-885 -5z"/>
<path d="M2334 2375 c-79 -47 -74 29 -74 -1181 0 -1065 0 -1075 21 -1115 14
-29 32 -46 62 -60 41 -18 86 -19 1350 -19 1449 0 1351 -4 1400 64 l22 31 3
1092 c2 1026 1 1095 -15 1130 -10 20 -31 46 -46 57 l-28 21 -1327 2 -1327 3
-41 -25z"/>
</g>
</svg>
