<svg xmlns="http://www.w3.org/2000/svg" xmlns:xlink="http://www.w3.org/1999/xlink" width="62" height="61" viewBox="0 0 62 61">
    <defs>
        <linearGradient id="prefix__b" x1="50%" x2="50%" y1="0%" y2="55.456%">
            <stop offset="0%" stop-color="#EE3B79"/>
            <stop offset="100%" stop-color="#4E2F6B"/>
        </linearGradient>
        <path id="prefix__a" d="M0 0L62 0 62 61 0 61z"/>
    </defs>
    <g fill="none" fill-rule="evenodd">
        <mask id="prefix__c" fill="#fff">
            <use xlink:href="#prefix__a"/>
        </mask>
        <path fill="url(#prefix__b)" d="M59.114 25.39H40.11c-1.68-4.295-4.15-7.825-5.93-10.022h24.935V25.39zm-4.328 32.749H36.77V31.567h-2.886v26.572h-5.771V31.567h-2.886v26.572H7.214V28.251h13.713c-.534 1.957-.862 4.022-.862 6.16h2.885c0-2.135.393-4.203 1.002-6.16h14.094c.608 1.957 1 4.025 1 6.16h2.887c0-2.138-.326-4.203-.863-6.16h13.716v29.888zm-51.9-32.75V15.369H27.82c-1.78 2.197-4.253 5.727-5.93 10.022H2.886zM15.39 8.82c-.661-2.924 1.284-5.256 3.552-5.816.372-.092.762-.14 1.169-.14 2.9 0 6.533 2.503 8.943 9.644h-8.64c-2.427 0-4.54-1.55-5.024-3.688zm15.609 7.247c1.442 1.66 4.115 5.05 5.987 9.324H25.011c1.873-4.275 4.545-7.665 5.988-9.324zM43.058 3.003c2.265.56 4.213 2.892 3.552 5.816-.484 2.137-2.597 3.688-5.027 3.688h-8.637c2.748-8.14 7.088-10.254 10.112-9.504zM62 12.507H47.851c.75-.881 1.313-1.911 1.573-3.061.94-4.149-1.55-8.197-5.665-9.218C39.835-.751 34.46 1.275 31 9.52 27.54 1.275 22.169-.754 18.24.228c-4.115 1.021-6.606 5.07-5.665 9.218.26 1.15.822 2.18 1.57 3.06H0v15.745h4.329V61H57.67V28.25H62V12.508z" mask="url(#prefix__c)"/>
    </g>
</svg>
