<svg id="Layer_1" data-name="Layer 1" xmlns="http://www.w3.org/2000/svg" viewBox="0 0 1072.02 427.38"><defs><style>.cls-1{fill:#4e2f6b;}</style></defs><path class="cls-1" d="M128.15,372.77c25.07,47.79,60.92,149.75-27.1,164.86-14.35,2.41-33.86-2.39-33.86-2.39,75.69-21.49,47-109.91,19.51-161.27-25.08-47.79-60.9-149.31,26.68-165.66,14.77-2.77,22.33-.78,33.89,2.4-78.49,21.09-43,116.29-19.12,162.06" transform="translate(-57.73 -206.99)"/><path class="cls-1" d="M187.8,537.15V372.21H217V465.7c0,43.18-30.14,76.1-29.22,71.45m0-182.32V314.42H217v6.21c0,23-30.14,38.83-29.22,34.2" transform="translate(-57.73 -206.99)"/><path class="cls-1" d="M353.13,395.18c0-12.12-58.09-28.88-80.77,38.52-13.34,39.76-4.65,78,19.89,90.09,27.65,13.68,60.88-13.64,60.88-20.18Zm-1.87,234.54c-9.93,5-23.58,6.53-39.45,1.87,28.88.32,41.32-33.25,41.32-64v-33c-10.24,4-21.75,7.76-33.54,7.76-42.57,0-78.91-39.13-78.91-87,0-48.46,37-83.24,79.52-83.24H382V575.37c0,17.39-12.12,44.71-30.76,54.35" transform="translate(-57.73 -206.99)"/><path class="cls-1" d="M507.33,516.94a105.76,105.76,0,0,1-7.78-15.5c-3.1-7.47-5.59-16.16-5.59-24.56V435.56c0-22-27.64-60.89-59.31-48.15v89.47a66,66,0,0,1-5.58,25.47A137,137,0,0,1,416.3,526c-5.88,8.4-10.85,12.12-10.55,11.19V372.21h46.61c45.66,0,70.83,35.09,70.83,63.35V537.47c-.64,1.23-8.09-6.52-15.86-20.53" transform="translate(-57.73 -206.99)"/><path class="cls-1" d="M651.27,394.88s-55-37.9-81.35,38.5c-13.7,39.76-3.42,79.24,18.93,90.41C619,539,651.27,508,651.27,501.44Zm15.24,128.29c-10.24,13.05-37,18-48.78,18-42.54,0-78.88-38.23-78.88-86.07,0-48.44,37-82.91,79.52-82.91h61.79V539.94c1,2.2-6.52-3.72-13.65-16.77" transform="translate(-57.73 -206.99)"/><path class="cls-1" d="M762.77,389.29c-3.73.95-18-6.53-24.85-5v86.05c0,32.32,12.11,65.86,41,65.57-49.38,14-70.18-24.87-70.18-59.65V295.77h29.18v76.44H783c6.22,0-13.36,15.2-20.2,17.08" transform="translate(-57.73 -206.99)"/><path class="cls-1" d="M835.14,536.85h-46.6V372.21h28.9V521.64c31.69,12.72,59.36-26.1,59.36-48.18V372.21H906V473.46c0,35.42-32.65,63.39-70.84,63.39" transform="translate(-57.73 -206.99)"/><path class="cls-1" d="M990.8,389.59c-5,.31-27.67-13-27.67-1.22V465.7c0,43.18-30.14,76.1-28.61,71.45V372.21h77.7c6.5,0-14,17.08-21.42,17.38" transform="translate(-57.73 -206.99)"/><path class="cls-1" d="M1060.44,388.69c-17.72,10.82-37.3,49.07-24.6,88.19,8.72-1.21,69.63-21.43,69.63-79.24,0-13.65-23.63-22-45-8.95m23.28,153.73c-31.36,0-60-18.94-71.46-50.93-26.69-73.62,28.62-121.76,70.22-121.47,86.94.63,42,110.61-38.23,123.37-4,.58,48.78,65.2,82.65,12.69.91,2.8-2.47,36.34-43.18,36.34" transform="translate(-57.73 -206.99)"/></svg>