<?xml version="1.0" encoding="UTF-8"?>
<!DOCTYPE svg PUBLIC "-//W3C//DTD SVG 1.1//EN" "http://www.w3.org/Graphics/SVG/1.1/DTD/svg11.dtd">
<svg xmlns="http://www.w3.org/2000/svg" xmlns:xlink="http://www.w3.org/1999/xlink">
	<defs>
		<path id="geo-a" d="M0 0h20v25H0z"/>
	</defs>
<symbol id="calendar" viewBox="0 0 21 18">
	<g fill="none" fill-rule="evenodd" stroke="#4E2F6B">
		<path stroke-width="2" d="M1 1h18.33v16H1z"/>
		<path fill="#4E2F6B" d="M.5.5h19.33v6H.5z"/>
	</g>
</symbol>
<symbol id="category" viewBox="0 0 18 18">
	<g fill="none" fill-rule="evenodd" stroke="#4E2F6B" stroke-width="2">
		<path d="M1 1h6v6H1zM11 1h6v6h-6zM11 11h6v6h-6zM1 11h6v6H1z"/>
	</g>
</symbol>
<symbol id="clock" viewBox="0 0 18 18">
	<g fill="none" fill-rule="evenodd" stroke="#4E2F6B" stroke-width="2">
		<circle cx="9" cy="9" r="8"/>
		<path stroke-linecap="round" stroke-linejoin="round" d="M9 4v5m5 0H9"/>
	</g>
</symbol>
<symbol id="close" viewBox="0 0 27 27">
	<path fill="none" fill-rule="evenodd" stroke="#FFF" stroke-linecap="round" stroke-linejoin="round" stroke-width="2" d="M1 1l25 25M1 26L26 1"/>
</symbol>
<symbol id="facebook" viewBox="0 0 15 15">
	<path fill-rule="evenodd" d="M8.012 15H.828A.827.827 0 010 14.172V.828C0 .37.37 0 .828 0h13.344c.457 0 .828.37.828.828v13.344c0 .457-.37.828-.828.828H10.35V9.191h1.95l.291-2.264H10.35V5.482c0-.655.182-1.102 1.122-1.102h1.198V2.354c-.207-.028-.919-.09-1.746-.09-1.729 0-2.912 1.055-2.912 2.993v1.67H6.057V9.19h1.955V15z"/>
</symbol>
<symbol id="geo" viewBox="0 0 20 25">

	<g fill="none" fill-rule="evenodd">
		<mask id="geo-b" fill="#fff">
			<use xlink:href="#geo-a"/>
		</mask>
		<path fill="#4E2F6B" d="M10 3.907c-3.221 0-5.833 2.448-5.833 5.468s2.612 5.47 5.833 5.47 5.833-2.45 5.833-5.47c0-3.02-2.612-5.468-5.833-5.468M10 25a.835.835 0 01-.678-.33l-6.526-8.62c-.17-.224-.234-.309-.3-.394-.634-.826-1.259-1.642-1.707-2.633A8.901 8.901 0 010 9.375c0-2.589 1.12-4.932 2.93-6.63A10.09 10.09 0 016.179.712 10.531 10.531 0 0110 0c1.349 0 2.64.253 3.821.712a10.07 10.07 0 013.25 2.034C18.88 4.443 20 6.786 20 9.375c0 .627-.07 1.25-.2 1.863a9.098 9.098 0 01-.588 1.784c-.448.991-1.074 1.807-1.707 2.633-.067.085-.131.17-.3.394l-6.527 8.621A.835.835 0 0110 25" mask="url(#geo-b)"/>
	</g>
</symbol>
<symbol id="hamburger" viewBox="0 0 25 19">
	<path fill-rule="evenodd" d="M0 0h25v3H0zm0 16h25v3H0zm0-8h25v3H0z"/>
</symbol>
<symbol id="instagram" viewBox="0 0 15 15">
	<path fill-rule="evenodd" d="M8.6.001a37.95 37.95 0 011.992.044c.799.037 1.344.163 1.82.349.494.191.912.448 1.33.865.416.417.673.835.864 1.328.186.477.312 1.022.349 1.82.036.8.045 1.056.045 3.093v.256c0 1.804-.01 2.071-.045 2.836-.037.799-.163 1.344-.349 1.82a3.674 3.674 0 01-.865 1.33 3.677 3.677 0 01-1.328.864c-.477.186-1.022.312-1.82.349-.8.036-1.056.045-3.093.045h-.256c-1.804 0-2.071-.01-2.836-.045-.799-.037-1.344-.163-1.82-.349a3.674 3.674 0 01-1.33-.865 3.677 3.677 0 01-.864-1.328c-.186-.477-.312-1.022-.349-1.82-.028-.627-.04-.92-.044-1.993V6.4a37.95 37.95 0 01.044-1.992c.037-.799.163-1.344.349-1.82.191-.494.448-.912.865-1.33A3.677 3.677 0 012.587.394C3.064.208 3.61.082 4.407.045c.627-.028.92-.04 1.993-.044zm-.401 1.35H6.8c-1.375.003-1.644.013-2.332.044-.73.033-1.128.156-1.392.258-.35.136-.6.299-.863.561a2.321 2.321 0 00-.56.863c-.103.264-.226.661-.259 1.392-.031.688-.041.957-.043 2.332V8.2c.002 1.375.012 1.644.043 2.332.033.73.156 1.128.258 1.392.136.35.299.6.561.863.263.262.513.425.863.56.264.103.661.226 1.392.259.688.031.957.041 2.332.043h1.4c1.375-.002 1.644-.012 2.332-.043.73-.033 1.128-.156 1.392-.258.35-.136.6-.299.863-.561.262-.263.425-.513.56-.863.103-.264.226-.661.259-1.392.031-.688.041-.957.043-2.332V6.8c-.002-1.375-.012-1.644-.043-2.332-.033-.73-.156-1.128-.258-1.392-.136-.35-.299-.6-.561-.863a2.321 2.321 0 00-.863-.56c-.264-.103-.661-.226-1.392-.259-.688-.031-.957-.041-2.332-.043zM7.5 3.65a3.85 3.85 0 110 7.704 3.85 3.85 0 010-7.705zM7.5 5a2.5 2.5 0 000 5 2.5 2.5 0 000-5zm4.004-2.404a.9.9 0 110 1.8.9.9 0 010-1.8z"/>
</symbol>
<symbol id="linked-in" viewBox="0 0 17 15">
	<path fill-rule="evenodd" d="M17 15h-3.757V9.727c0-1.38-.588-2.323-1.88-2.323-.989 0-1.539.636-1.794 1.25-.096.219-.081.525-.081.832V15H5.765s.048-9.34 0-10.19h3.723v1.6c.22-.7 1.409-1.698 3.307-1.698C15.15 4.712 17 6.178 17 9.334V15zM2.001 3.536h-.024C.777 3.536 0 2.756 0 1.769 0 .763.8 0 2.024 0c1.222 0 1.974.76 1.998 1.766 0 .988-.776 1.77-2.02 1.77zM.43 4.81h3.313V15H.43V4.81z"/>
</symbol>
<symbol id="money" viewBox="0 0 15 18">
	<text fill="#4E2F6B" fill-rule="evenodd" font-family="OmnesMedium, Omnes" font-size="26" font-weight="400" letter-spacing="1.393" transform="translate(-775 -896)">
		<tspan x="775" y="914">&#xA3;</tspan>
	</text>
</symbol>
<symbol id="play" viewBox="0 0 74 74">
	<g fill="none" fill-rule="evenodd">
		<circle cx="37" cy="37" r="35.5" fill="#FFF" fill-opacity=".7" stroke="#4E2F6B" stroke-width="3"/>
		<path fill="#4E2F6B" d="M59 36.5L24 57V16z"/>
	</g>
</symbol>
<symbol id="triangle" viewBox="0 0 24 14">
	<path fill-rule="evenodd" d="M12 14L0 0h24z"/>
</symbol>
<symbol id="twitter" viewBox="0 0 18 15">
	<path fill-rule="evenodd" d="M18 1.776c-.661.3-1.373.505-2.12.596A3.776 3.776 0 0017.503.277a7.255 7.255 0 01-2.346.918A3.64 3.64 0 0012.462 0C10.424 0 8.77 1.696 8.77 3.787c0 .296.032.585.095.862-3.069-.158-5.79-1.664-7.612-3.958a3.857 3.857 0 00-.5 1.906c0 1.313.652 2.472 1.643 3.152a3.626 3.626 0 01-1.673-.473v.047c0 1.835 1.273 3.366 2.963 3.713a3.616 3.616 0 01-1.668.066c.47 1.504 1.833 2.599 3.45 2.628A7.298 7.298 0 01-.001 13.3 10.282 10.282 0 005.66 15c6.794 0 10.508-5.77 10.508-10.774 0-.164-.003-.329-.01-.49A7.558 7.558 0 0018 1.776"/>
</symbol>
</svg>